<svg xmlns="http://www.w3.org/2000/svg" width="546" height="604" viewBox="0 0 546 604" fill="none">
  <title>GitHub file icon</title>
  <path
    fill="#1f2328"
    fill-rule="evenodd"
    d="M68 24H478A44 44 0 0 1 522 68V536A44 44 0 0 1 478 580H68A44 44 0 0 1 24 536V68A44 44 0 0 1 68 24ZM68 44H478A24 24 0 0 1 502 68V536A24 24 0 0 1 478 560H68A24 24 0 0 1 44 536V68A24 24 0 0 1 68 44Z"
  />
  <path
    fill="#1f2328"
    d="M380 24H411L502 115V166H404C390.745 166 380 155.255 380 142V24Z"
  />
  <g transform="translate(108 160)">
    <g transform="translate(0 390) scale(0.1 -0.1)" fill="#1f2328">
      <path d="M475 3491 c-30 -14 -71 -62 -85 -101 -33 -97 -42 -172 -49 -420 l-6 -255 -42 -55 c-49 -65 -123 -209 -153 -300 -27 -79 -60 -265 -60 -338 0 -81 27 -241 56 -334 70 -221 219 -435 396 -570 136 -103 337 -203 548 -273 47 -15 86 -29 88 -30 2 -1 -33 -99 -77 -216 -44 -118 -92 -250 -106 -294 -15 -44 -45 -126 -66 -183 -21 -56 -39 -107 -39 -112 0 -7 275 -10 791 -10 790 0 790 0 784 23 -12 38 -184 505 -240 650 -35 91 -49 140 -42 142 219 71 480 193 606 282 175 124 314 310 392 524 43 117 60 214 64 369 3 104 0 158 -14 235 -34 178 -97 327 -191 450 -39 50 -39 50 -43 310 -2 143 -7 274 -11 290 -30 128 -54 178 -99 205 -18 11 -46 20 -62 20 -101 0 -327 -99 -515 -225 -115 -78 -115 -78 -170 -66 -60 13 -143 27 -205 36 -99 13 -321 16 -435 6 -148 -13 -152 -14 -258 -36 l-82 -16 -123 81 c-121 82 -276 163 -372 195 -60 20 -152 28 -180 16z"/>
    </g>
  </g>
</svg>
