<svg xmlns="http://www.w3.org/2000/svg" viewBox="0 0 16 16"><path fill="#6060ff" d="M13.21 6.6c-.8.4-1.5.05-1.9-.3 0 .4-.3.84-.95 1.04.7-.15 1.35-.1 2.2.6 0-.35.25-1.05.65-1.34"/><path fill="#6060ff" d="M11.11 6.15c-.7-.9-.8.05-1.55-.1-.25.65 1.05 1 .75 1.24.3.1 1.15-.8.8-1.14"/><path fill="#6060ff" d="M10.51 5.55c.7.5 1.75 1.6 2.65.95-.45-.9-2.75-2.5-3.6-.8.05-.2.7-.35 1-.15z"/><path fill="#6060ff" d="M10.26 5.6c-.2-.1-.5 0-.65.3.25.25.5 0 .65-.3"/><path fill="#6060ff" d="M14.9 6.65c-1.29-3.3-2.59-1.5-3.34-6.65-.9 2.15.8 5 2.25 6.5 1 .7 1 1.74.95 3.2.2-1 .4-2.16.15-3.05"/><path fill="#6060ff" d="M13.16 5.85a9 9 0 0 1-2.35-4.15c-.25.15.1 2.4.6 2.8.6.85 1.5 1.25 1.9 2h.35z"/><path fill="#6060ff" d="M11.71 5s-.8-.9-.85-1.15l-.2-.4c-.15.25 0 .85.25 1.25.1.25.8.25.8.3"/><path fill="#6060ff" d="M13.91 11.2c-.65-.1-2.6-.66-3.3-1.36-.3.25-.55.15-.6.15.25 1.3 2.8 1.4 2.6 2.25 0 0 .9-.45 1.3-1z"/><path fill="#6060ff" d="M14.71 9.74s-.4 1.15-.75 1.45c.2.05.25.25.35.5.2-.5.45-1.9.45-1.95z"/><path fill="#6060ff" d="M13.96 11.3c-.5 2.29-4.05 3.59-6.15 2.94 1.55 2.7 6.6-.35 6.15-2.95"/><path fill="#6060ff" d="M13.76 11.5c-.45 1-4.05 2.34-4.95 2.09 1.25 1.6 4.5-.5 5-2.1z"/><path fill="#6060ff" d="M14.26 12q.01-.45-.2-.6c.2 2.44-2.95 4.29-5.15 4.14 2.35 1.55 5.6-1.1 5.35-3.55"/><path fill="#6060ff" d="M10.51 9.8c-.75-.5-1.05-1.76-.3-2.36-1-1.74-3.34-.55-4.8-.35-2.04-.1-3.6-1.6-4.1-3.8-.49-1.94-.64 2.36.9 3.65l-.04-.05.2.2-.1-.1.2.25-.1-.1q.52.54 1.2 1l-.25-.2.35.25.2.1-.2-.1c1.45 1 3.1.5 4.64.55h-.1c.85 0 1.5 1.5 2.3 1.05"/><path fill="#6060ff" d="M9.71 9.8c-1.25-1.4-2.5-.76-3.9-.56a5.3 5.3 0 0 1-4.1-2.1c-.3 1.25 1.7 2.7 2.96 3.1 1.7.75 3.7.2 5-.5z"/><path fill="#6060ff" d="M9.81 9.94c-1.5.9-4.3 1.45-6.14.35.85 1.95 5.84 2.2 6.14-.3z"/><path fill="#6060ff" d="m10.21 10.5-.25-.4c.1.7-1 1.4-1.7 1.8.6.14 2.2-.46 1.95-1.4"/><path fill="#6060ff" d="M8.16 5.75c.5 0 1 .15 1.35.3-.3-.35-.05-.15 0-.35a6.4 6.4 0 0 0-4.2.3 9 9 0 0 1 2.85-.25"/><path fill="#e0e0e0" d="M12.51 8c-3.4-2.3-4 2.34 1.25 3.04-.35 0-4.05-3.7-1.25-3z"/><path fill="#e0e0e0" d="M12.61 8c1.05-3.85 3.15 1.24 1.4 3 .05 0-.1-5.6-1.4-3"/><path fill="#e0e0e0" d="M12.66 8.2c-1.2-.46-1.6.5 1.3 2.94-.05-1.35-.3-5-1.3-3z"/></svg>