<svg xmlns="http://www.w3.org/2000/svg" viewBox="0 0 16 16"><path fill="#40a0ff" d="M15 3H8L6.59 1.59A2 2 0 0 0 5.17 1H2a2 2 0 0 0-2 2v10c0 1.1.9 2 2 2h4.84a5.3 5.3 0 0 1-1.21-3.37v-2.7c0-.8.42-1.53 1.11-1.93h-1.3a2 2 0 0 0-1.9 1.37L2 13V7c0-1.1.9-2 2-2h11c.55 0 1-.45 1-1s-.45-1-1-1"/><path fill="#40a0ff" d="m12.63 13.7-2.35.78c-.84.28-.63 1.52.25 1.52h4.69c.88 0 1.09-1.24.25-1.52l-2.35-.78a1 1 0 0 0-.5 0"/><circle cx="12.88" cy="11.31" r="1.56" fill="#40a0ff"/><path fill="#40a0ff" d="M9.14 15.44c-.1-.7.28-1.33.95-1.55l1.83-.62a2.18 2.18 0 1 1 1.9 0l1.07.36q.46-.91.48-2v-2.7c0-.46-.25-.88-.65-1.1l-3.13-1.68c-.37-.2-.8-.2-1.18 0L7.28 7.83c-.4.22-.66.64-.66 1.1v2.7a4.4 4.4 0 0 0 2.56 3.97z"/></svg>