<svg xmlns="http://www.w3.org/2000/svg" viewBox="0 0 16 16"><path fill="#6060ff" d="m5.64 3.18-.15-.05H3.2l-.1.1v.6c-.1.1-.1.15-.1.25l-3 8.34c0 .15 0 .15.1.15h1.75c.05.05.15-.05.15-.1l.7-2.1h3.4v-.05l.69 2.2c.05.1.15.1.15.1h1.95l.05-.15zM3.2 8.58q.22-.65.4-1.3c.24-.85.54-1.65.74-2.5l.7 2.3.5 1.5z"/><path fill="#6060ff" d="M15.28 6.33c-.55-.7-1.5-1-2.35-1-2.75-.15-4.04 2.84-3.3 5.14.4 1.55 1.8 2.4 3.5 2.4q1.14 0 2.2-.4l.05-.1v-1.5l-.05-.05c-.3.1-.55.2-.8.2a3.5 3.5 0 0 1-2.1-.15c-.3-.1-.5-.25-.7-.5a2 2 0 0 1-.25-.85h4.05c.2-.05.4.05.44-.15v-.4a3.7 3.7 0 0 0-.7-2.64m-1.35 1.9h-2.45c.05-.75.65-1.4 1.4-1.35.7-.05 1.25.55 1.25 1.24z"/></svg>