<svg xmlns="http://www.w3.org/2000/svg" viewBox="0 0 16 16"><circle cx="4.84" cy="5.39" r=".85" fill="#e0e0e0"/><circle cx="6.87" cy="5.39" r=".85" fill="#e0e0e0"/><path fill="#e0e0e0" d="M13.8 1.43a.75.75 0 0 0-1.04 0L7.58 6.6a.73.73 0 0 0 0 1.03.73.73 0 0 0 1.04 0l5.18-5.18a.74.74 0 0 0 0-1.03"/><path fill="#e0e0e0" d="M9.7 1.43a.73.73 0 0 0-1.03 0l-1.6 1.6a.73.73 0 1 0 1.04 1.04l1.6-1.6a.73.73 0 0 0 0-1.04"/><path fill="#e0e0e0" d="M15.8 3.86a.7.7 0 0 0-.98 0L12.4 6.29a.7.7 0 0 0-.2.5v2.43a4 4 0 0 1-1.24 2.95 4.2 4.2 0 0 1-4.57.9 4.2 4.2 0 0 1-2.56-3.85V6.78a.7.7 0 0 0-.7-.69h-.76l3.69-3.7a.7.7 0 0 0 0-.97.7.7 0 0 0-.97 0L.2 6.29a.69.69 0 0 0 .5 1.18h1.75v1.75a5.5 5.5 0 0 0 1.63 3.93 5.55 5.55 0 0 0 9.5-3.93V7.07l2.23-2.24a.7.7 0 0 0 0-.97"/></svg>