<svg xmlns="http://www.w3.org/2000/svg" viewBox="0 0 16 16"><path fill="#40ffa0" d="M16 5.5A5.5 5.5 0 0 0 5.57 3.07a5.5 5.5 0 0 0-2.5 2.51 5.5 5.5 0 1 0 7.35 7.35 5.5 5.5 0 0 0 2.5-2.5A5.5 5.5 0 0 0 16 5.5m-4.62 3.38q-.43.11-.88.12a3.5 3.5 0 0 1-3.38-4.38q.43-.11.88-.12a3.5 3.5 0 0 1 3.38 4.38M5.04 6.15a5.5 5.5 0 0 0 4.81 4.8q-.82.54-1.85.55a3.5 3.5 0 0 1-2.96-5.35M2 10.5q.02-1.04.54-1.85a5.5 5.5 0 0 0 4.81 4.8Q6.54 14 5.5 14A3.5 3.5 0 0 1 2 10.5m11.46-3.15a5.5 5.5 0 0 0-4.81-4.8 3.5 3.5 0 0 1 4.8 4.8"/></svg>