<svg xmlns="http://www.w3.org/2000/svg" viewBox="0 0 16 16"><path fill="#40ffa0" d="M14.82 13.26a4.5 4.5 0 0 1-1.57 1.56l-.13.18H14a2 2 0 0 0 2-2v-.77q-.5.6-1.18 1.03"/><path fill="#40ffa0" d="M14 3H8L6.59 1.59A2 2 0 0 0 5.17 1H2a2 2 0 0 0-2 2v10c0 1.1.9 2 2 2h3.75a4.4 4.4 0 0 1 1.43-6.25 4.5 4.5 0 0 1 1.57-1.57A4.4 4.4 0 0 1 16 6.67V5a2 2 0 0 0-2-2"/><path fill="#40ffa0" d="M16 9.44a3.44 3.44 0 0 0-6.52-1.52c-.68.34-1.23.89-1.56 1.57a3.43 3.43 0 1 0 4.6 4.6 3.5 3.5 0 0 0 1.56-1.57A3.4 3.4 0 0 0 16 9.44m-2.89 2.1q-.27.08-.55.09a2.2 2.2 0 0 1-2.1-2.74q.26-.08.54-.08a2.2 2.2 0 0 1 2.11 2.74m-3.96-1.7a3.44 3.44 0 0 0 3 3q-.5.34-1.15.35a2.19 2.19 0 0 1-1.85-3.35m-1.9 2.72q.01-.64.34-1.16a3.44 3.44 0 0 0 3 3.01q-.5.33-1.15.34a2.2 2.2 0 0 1-2.19-2.19m7.16-1.97a3.44 3.44 0 0 0-3-3q.5-.33 1.15-.34a2.19 2.19 0 0 1 1.85 3.34"/></svg>