<svg xmlns="http://www.w3.org/2000/svg" viewBox="0 0 16 16"><path fill="#a040ff" d="M10.22 7.26 8.74 5.78c-.4-.4-1.07-.4-1.48 0L5.78 7.26c-.4.4-.4 1.07 0 1.48l1.48 1.48c.4.4 1.07.4 1.48 0l1.48-1.48c.4-.4.4-1.07 0-1.48"/><path fill="#a040ff" d="M2.83 8.74a1.04 1.04 0 0 1 0-1.48l.74-.74a1.04 1.04 0 0 0-1.48-1.48L.61 6.52a2.1 2.1 0 0 0 0 2.96l1.48 1.48a1.04 1.04 0 1 0 1.48-1.48z"/><path fill="#a040ff" d="M10.96 2.09 9.48.61a2.1 2.1 0 0 0-2.96 0L5.04 2.1a1.04 1.04 0 1 0 1.48 1.48l.74-.74c.4-.41 1.07-.41 1.48 0l.74.74a1.04 1.04 0 0 0 1.48-1.48"/><path fill="#a040ff" d="M15.39 6.52 13.9 5.04a1.04 1.04 0 1 0-1.48 1.48l.74.74c.41.4.41 1.07 0 1.48l-.74.74a1.04 1.04 0 0 0 1.48 1.48l1.48-1.48a2.1 2.1 0 0 0 0-2.96"/><path fill="#a040ff" d="M10.96 12.43c-.41-.4-1.07-.4-1.48 0l-.74.74c-.4.41-1.07.41-1.48 0l-.74-.74a1.04 1.04 0 1 0-1.48 1.48l1.48 1.48a2.1 2.1 0 0 0 2.96 0l1.48-1.48c.4-.4.4-1.07 0-1.48"/></svg>