<svg xmlns="http://www.w3.org/2000/svg" viewBox="0 0 16 16"><path fill="#a040ff" d="m14.23 14.04-.21-.02q.06.5-.18.98H14a2 2 0 0 0 2-2v-.04l-.6.6c-.31.3-.73.48-1.17.48"/><path fill="#a040ff" d="M14 3H8L6.59 1.59A2 2 0 0 0 5.17 1H2a2 2 0 0 0-2 2v10c0 1.1.9 2 2 2h6.16q-.24-.47-.18-.98l-.21.02c-.43 0-.85-.16-1.17-.49l-.92-.92a2.3 2.3 0 0 1 0-3.26l.92-.92c.38-.38.9-.53 1.38-.47-.06-.49.09-1 .46-1.38l.93-.92a2.36 2.36 0 0 1 3.26 0l.92.92c.38.38.53.9.47 1.4.5-.06 1.02.08 1.38.45l.6.6V5a2 2 0 0 0-2-2"/><path fill="#a040ff" d="m12.39 10.54-.93-.93a.65.65 0 0 0-.92 0l-.93.93a.66.66 0 0 0 0 .92l.93.93c.25.25.67.25.92 0l.93-.93a.65.65 0 0 0 0-.92"/><path fill="#a040ff" d="M7.77 11.46a.65.65 0 0 1 0-.92l.46-.46a.65.65 0 0 0-.92-.93l-.93.93a1.3 1.3 0 0 0 0 1.84l.93.93a.65.65 0 1 0 .92-.93z"/><path fill="#a040ff" d="m12.85 7.3-.93-.92a1.3 1.3 0 0 0-1.84 0l-.93.93a.65.65 0 1 0 .93.92l.46-.46a.65.65 0 0 1 .92 0l.46.46a.65.65 0 1 0 .93-.92"/><path fill="#a040ff" d="m15.62 10.08-.93-.93a.65.65 0 0 0-.92.93l.46.46c.26.25.26.67 0 .92l-.46.46a.65.65 0 0 0 .92.93l.93-.93a1.3 1.3 0 0 0 0-1.84"/><path fill="#a040ff" d="M12.85 13.77a.65.65 0 0 0-.93 0l-.46.46a.65.65 0 0 1-.92 0l-.46-.46a.65.65 0 0 0-.93.92l.93.93a1.3 1.3 0 0 0 1.84 0l.93-.93a.65.65 0 0 0 0-.92"/></svg>