<svg xmlns="http://www.w3.org/2000/svg" viewBox="0 0 16 16"><path fill="#6060ff" d="M4 3a1 1 0 0 1-1 1H1a1 1 0 0 1-1-1V1a1 1 0 0 1 1-1h2a1 1 0 0 1 1 1z"/><path fill="#6060ff" d="M4 3a1 1 0 0 1-1 1H1a1 1 0 0 1-1-1V1a1 1 0 0 1 1-1h2a1 1 0 0 1 1 1z"/><path fill="#6060ff" d="M4 9a1 1 0 0 1-1 1H1a1 1 0 0 1-1-1V7a1 1 0 0 1 1-1h2a1 1 0 0 1 1 1z"/><path fill="#6060ff" d="M4 15a1 1 0 0 1-1 1H1a1 1 0 0 1-1-1v-2a1 1 0 0 1 1-1h2a1 1 0 0 1 1 1z"/><path fill="#6060ff" d="M16 3a1 1 0 0 1-1 1h-2a1 1 0 0 1-1-1V1a1 1 0 0 1 1-1h2a1 1 0 0 1 1 1z"/><path fill="#6060ff" d="M16 3a1 1 0 0 1-1 1h-2a1 1 0 0 1-1-1V1a1 1 0 0 1 1-1h2a1 1 0 0 1 1 1z"/><path fill="#6060ff" d="M16 9a1 1 0 0 1-1 1h-2a1 1 0 0 1-1-1V7a1 1 0 0 1 1-1h2a1 1 0 0 1 1 1z"/><path fill="#6060ff" d="M16 15a1 1 0 0 1-1 1h-2a1 1 0 0 1-1-1v-2a1 1 0 0 1 1-1h2a1 1 0 0 1 1 1z"/><path fill="#6060ff" d="M10 3a1 1 0 0 1-1 1H7a1 1 0 0 1-1-1V1a1 1 0 0 1 1-1h2a1 1 0 0 1 1 1z"/><path fill="#6060ff" d="M10 3a1 1 0 0 1-1 1H7a1 1 0 0 1-1-1V1a1 1 0 0 1 1-1h2a1 1 0 0 1 1 1z"/><path fill="#6060ff" d="M10 9a1 1 0 0 1-1 1H7a1 1 0 0 1-1-1V7a1 1 0 0 1 1-1h2a1 1 0 0 1 1 1z"/><path fill="#6060ff" d="M10 15a1 1 0 0 1-1 1H7a1 1 0 0 1-1-1v-2a1 1 0 0 1 1-1h2a1 1 0 0 1 1 1z"/></svg>