<svg xmlns="http://www.w3.org/2000/svg" viewBox="0 0 16 16"><path fill="#6060ff" d="M14 3H8L6.59 1.59A2 2 0 0 0 5.17 1H2a2 2 0 0 0-2 2v10c0 1.1.9 2 2 2h3v-.87c0-.51.24-.96.6-1.26-.36-.3-.6-.74-.6-1.24v-1.26c0-.5.24-.95.6-1.24-.36-.3-.6-.75-.6-1.26V6.63C5 5.73 5.73 5 6.63 5h1.25c.5 0 .95.24 1.25.6.3-.36.74-.6 1.24-.6h1.26c.5 0 .95.24 1.24.6.3-.36.75-.6 1.26-.6h1.24q.34 0 .63.13V5a2 2 0 0 0-2-2"/><path fill="#6060ff" d="M8.5 7.88c0 .34-.28.62-.62.62H6.63A.63.63 0 0 1 6 7.88V6.63c0-.35.28-.63.63-.63h1.25c.34 0 .62.28.62.63z"/><path fill="#6060ff" d="M8.5 7.88c0 .34-.28.62-.62.62H6.63A.63.63 0 0 1 6 7.88V6.63c0-.35.28-.63.63-.63h1.25c.34 0 .62.28.62.63z"/><path fill="#6060ff" d="M8.5 11.63c0 .34-.28.62-.62.62H6.63a.63.63 0 0 1-.63-.62v-1.26c0-.34.28-.62.63-.62h1.25c.34 0 .62.28.62.63z"/><path fill="#6060ff" d="M8.5 15.38c0 .34-.28.62-.62.62H6.63a.63.63 0 0 1-.63-.62v-1.26c0-.34.28-.62.63-.62h1.25c.34 0 .62.28.62.63z"/><path fill="#6060ff" d="M16 7.88c0 .34-.28.62-.62.62h-1.26a.63.63 0 0 1-.62-.62V6.63c0-.35.28-.63.63-.63h1.24c.35 0 .63.28.63.63z"/><path fill="#6060ff" d="M16 7.88c0 .34-.28.62-.62.62h-1.26a.63.63 0 0 1-.62-.62V6.63c0-.35.28-.63.63-.63h1.24c.35 0 .63.28.63.63z"/><path fill="#6060ff" d="M16 11.63c0 .34-.28.62-.62.62h-1.26a.63.63 0 0 1-.62-.62v-1.26c0-.34.28-.62.63-.62h1.24c.35 0 .63.28.63.63z"/><path fill="#6060ff" d="M16 15.38c0 .34-.28.62-.62.62h-1.26a.63.63 0 0 1-.62-.62v-1.26c0-.34.28-.62.63-.62h1.24c.35 0 .63.28.63.63z"/><path fill="#6060ff" d="M12.25 7.88c0 .34-.28.62-.62.62h-1.26a.63.63 0 0 1-.62-.62V6.63c0-.35.28-.63.63-.63h1.24c.35 0 .63.28.63.63z"/><path fill="#6060ff" d="M12.25 7.88c0 .34-.28.62-.62.62h-1.26a.63.63 0 0 1-.62-.62V6.63c0-.35.28-.63.63-.63h1.24c.35 0 .63.28.63.63z"/><path fill="#6060ff" d="M12.25 11.63c0 .34-.28.62-.62.62h-1.26a.63.63 0 0 1-.62-.62v-1.26c0-.34.28-.62.63-.62h1.24c.35 0 .63.28.63.63z"/><path fill="#6060ff" d="M12.25 15.38c0 .34-.28.62-.62.62h-1.26a.63.63 0 0 1-.62-.62v-1.26c0-.34.28-.62.63-.62h1.24c.35 0 .63.28.63.63z"/></svg>