<svg xmlns="http://www.w3.org/2000/svg" viewBox="0 0 16 16"><path fill="#e0e0e0" d="M14.1 5.45c-.1.08-1.73 1-1.73 3.05a3.5 3.5 0 0 0 2.14 3.24 8 8 0 0 1-1.1 2.27c-.68.98-1.4 1.97-2.48 1.97s-1.37-.63-2.63-.63c-1.22 0-1.66.65-2.65.65s-1.7-.91-2.5-2.03a10 10 0 0 1-1.66-5.3c0-3.11 2.02-4.76 4.01-4.76 1.06 0 1.94.7 2.6.7.64 0 1.62-.74 2.82-.74.46 0 2.1.04 3.18 1.58"/><path fill="#e0e0e0" d="M10.35 2.55c.5-.59.85-1.4.85-2.23q0-.17-.03-.32a3.6 3.6 0 0 0-2.35 1.21 3.5 3.5 0 0 0-.88 2.17q0 .21.03.3l.21.01a3 3 0 0 0 2.17-1.14"/></svg>