<svg xmlns="http://www.w3.org/2000/svg" viewBox="0 0 16 16"><path fill="#ffff40" d="M15 3H8L6.59 1.59A2 2 0 0 0 5.17 1H2a2 2 0 0 0-2 2v10c0 1.1.9 2 2 2h3V7.25q0-.09.04-.19a2 2 0 0 0-1.5 1.3L2 13V7c0-1.1.9-2 2-2h11c.55 0 1-.45 1-1s-.45-1-1-1"/><path fill="#ffff40" d="M16 7.88a.6.6 0 0 0-.18-.45l-1.25-1.25a.6.6 0 0 0-.45-.18H7.88a.6.6 0 0 0-.45.18L6.18 7.43a.6.6 0 0 0-.18.45v6.87c0 .69.56 1.25 1.25 1.25h7.5c.69 0 1.25-.56 1.25-1.25zm-2.12 4.25L11.38 14a.6.6 0 0 1-.76 0l-2.5-1.87A.63.63 0 0 1 8.5 11h1.25v-.94c0-.17.14-.31.31-.31h1.88c.17 0 .31.14.31.31V11h1.25c.6 0 .86.76.38 1.13M14 7.56H8c-.34 0-.42-.2-.18-.44l.1-.1q.08-.08.21-.08h5.74q.13 0 .22.09l.09.1c.24.23.16.43-.18.43"/></svg>