<svg xmlns="http://www.w3.org/2000/svg" viewBox="0 0 16 16"><path fill="#40ffff" d="M16 8a3.87 3.87 0 0 0-3.94-3.81q-.3-.02-.6.03A5.2 5.2 0 0 0 8 6.62a5.2 5.2 0 0 0-3.47-2.4q-.3-.04-.6-.03A3.87 3.87 0 0 0 0 7.99a3.88 3.88 0 0 0 4.53 3.79A5.2 5.2 0 0 0 8 9.38a5.2 5.2 0 0 0 3.46 2.4l.6.03A3.94 3.94 0 0 0 16 8M4.31 10.42q-.2.04-.4.03c-1.42 0-2.59-1.1-2.59-2.45S2.5 5.54 3.94 5.54q.2 0 .4.03c1.61.22 2.59 1.8 2.9 2.43-.34.63-1.32 2.17-2.93 2.42M8.73 8c.34-.63 1.29-2.2 2.9-2.43q.2-.04.4-.03c1.45 0 2.62 1.1 2.62 2.46a2.53 2.53 0 0 1-3 2.42c-1.63-.25-2.61-1.8-2.92-2.42"/><path fill="#40ffff" d="M5.17 7.62H2.8v.75h2.37z"/><path fill="#40ffff" d="M12.31 8.37h.8v-.75h-.8V6.8h-.78v.82h-.79v.75h.79v.82h.78z"/></svg>