<svg xmlns="http://www.w3.org/2000/svg" viewBox="0 0 16 16"><path fill="#e0e0e0" fill-rule="evenodd" d="M5.45 8.81 6.4 7.2q.15-.24.35-.42L7.78 3.2q.06-.15.2-.15c.1-.05.24 0 .3.15l.66 2.38c.3-.35.74-.58 1.24-.58h1.64l-1.14-3.8c-.15-.4-.2-.65-.35-.8h.05a1 1 0 0 0-.4-.3c-.2-.1-.4-.1-.9-.1h-2.1c-.46 0-.66 0-.86.1a.7.7 0 0 0-.45.3c-.15.15-.2.4-.35.8l-2.9 9.6q1.34-.73 2.82-1.06-.03-.49.21-.93" clip-rule="evenodd"/><path fill="#a0a0a0" d="m15.69 11.83-.9-.52c-.3-.17-.3-.45 0-.62l.9-.52c.3-.18.4-.56.23-.86l-.94-1.62a.63.63 0 0 0-.85-.23l-.9.52c-.3.17-.55.03-.55-.31V6.63a.63.63 0 0 0-.62-.63h-1.88a.63.63 0 0 0-.62.63v1.04c0 .34-.25.48-.55.31l-.9-.52a.63.63 0 0 0-.85.23L6.32 9.3c-.17.3-.07.68.23.86l.9.52c.3.17.3.45 0 .62l-.9.52c-.3.18-.4.56-.23.86l.94 1.62c.17.3.55.4.85.23l.9-.52c.3-.17.55-.03.55.31v1.05c0 .34.28.62.62.62h1.88c.34 0 .62-.28.62-.62v-1.05c0-.34.24-.48.54-.31l.9.52c.3.17.69.07.86-.23l.94-1.62a.63.63 0 0 0-.23-.86m-3.8.52a1.56 1.56 0 1 1-1.55-2.7 1.56 1.56 0 0 1 1.56 2.7"/><path fill="#ffa040" fill-rule="evenodd" d="M5.3 11.96q.05-.24.19-.42.08-.14.2-.25-.21-.16-.32-.34c-.1.3-.15.7-.15.95l.02.34z" clip-rule="evenodd"/></svg>