<svg xmlns="http://www.w3.org/2000/svg" viewBox="0 0 16 16"><path fill="#e0e0e0" fill-rule="evenodd" d="M10.33.4c.14.15.2.4.34.8l2.9 9.6q-1.64-.9-3.5-1.2l-1.8-6.4c-.05-.15-.2-.2-.3-.15q-.14 0-.2.15L5.92 9.6q-1.86.3-3.5 1.2l2.9-9.6c.15-.4.2-.65.35-.8q.15-.23.45-.3c.2-.1.4-.1.85-.1h2.1c.5 0 .7 0 .9.1q.24.08.4.3z" clip-rule="evenodd"/><path fill="#ffa040" fill-rule="evenodd" d="M10.68 11.25c-.5.4-1.4.7-2.5.7-1.4 0-2.5-.45-2.8-1-.1.3-.15.7-.15.95 0 0-.05 1.15.75 2 0-.5.35-.8.75-.8.75 0 .75.6.75 1.15 0 .8.5 1.5 1.15 1.75a2 2 0 0 1-.16-.7c0-.75.4-1 .9-1.35.4-.25.86-.5 1.16-1.1.26-.5.3-1.07.15-1.6" clip-rule="evenodd"/></svg>