<svg xmlns="http://www.w3.org/2000/svg" viewBox="0 0 16 16"><path fill="#6060ff" d="M14.5 9.5v3.9q-.01.86-.38 1.59A2 2 0 0 0 16 13V9.09q-.58.4-1.33.41z"/><path fill="#6060ff" d="M14 3H8L6.59 1.59A2 2 0 0 0 5.17 1H2a2 2 0 0 0-2 2v10c0 1.1.9 2 2 2h5.86a3.5 3.5 0 0 1-.34-1.9 3.5 3.5 0 0 1 3.73-3.1V7.26c0-1.24 1-2.25 2.25-2.25h1.25q.68 0 1.25.4V5a2 2 0 0 0-2-2"/><path fill="#6060ff" d="M14.75 6H13.5c-.69 0-1.25.56-1.25 1.25v4.09a2.5 2.5 0 0 0-3.73 1.88 2.5 2.5 0 0 0 2.85 2.75 2.6 2.6 0 0 0 2.13-2.57V8.81c0-.17.14-.31.31-.31h.86c.63 0 1.2-.42 1.31-1.04A1.25 1.25 0 0 0 14.75 6"/></svg>