<svg xmlns="http://www.w3.org/2000/svg" viewBox="0 0 16 16"><path fill="#6060ff" d="m5.6 3.19-.1-.05H3.25c-.1 0-.1.05-.1.1l-.05.55c-.1.1-.1.2-.1.3l-3 8.4c0 .15 0 .2.1.2h1.7c.1 0 .2-.05.2-.15l.7-2.15h3.4l.75 2.15c.05.1.1.1.15.1h1.9c.1 0 .1 0 .1-.1zm-2.4 5.4c.15-.4.3-.8.4-1.3.25-.8.55-1.65.75-2.5l.7 2.35c.15.45.35.95.45 1.45z"/><path fill="#6060ff" d="M15.95 5.49v6.75l.05.3c0 .1 0 .15-.1.15h-1.55c-.1 0-.15 0-.15-.1l-.05-.25v-.2c-.85.7-2 .9-3.05.55-1.1-.35-1.5-1.6-1.5-2.65v-4.5c0-.05 0-.15.1-.15h1.8c.05 0 .15 0 .15.1v4.3c-.1 1.5 1.45 1.6 2.4.9v-5.2s0-.1.1-.1h1.75s.1 0 .1.1z"/></svg>