<svg xmlns="http://www.w3.org/2000/svg" viewBox="0 0 16 16"><path fill="#ff40a0" fill-rule="evenodd" d="m13.6 7.75-1.5 1c.26.36.76 1.13 1 1.5l1.5-1z" clip-rule="evenodd"/><path fill="#ff40a0" fill-rule="evenodd" d="M2.8 4.9.5 6.45l1.55 2.3 2.3-1.55c-.34-.44-1.23-1.81-1.55-2.3" clip-rule="evenodd"/><path fill="#ff40a0" fill-rule="evenodd" d="m8.95.8-1.5 1L9 4.1a21 21 0 0 1 1.5-1z" clip-rule="evenodd"/><path fill="#ff40a0" fill-rule="evenodd" d="M7.45 11.85c-.38.25-1.97 1.3-2.3 1.55l1 1.5 2.3-1.55c-.24-.38-.74-1.14-1-1.5" clip-rule="evenodd"/><path fill="#ff40a0" fill-rule="evenodd" d="M11.25 9.3 8.2 11.35c.24.32 2.7 4.01 3 4.45l3-2c-.33-.5-2.7-4.09-2.95-4.5" clip-rule="evenodd"/><path fill="#ff40a0" fill-rule="evenodd" d="m5.15.2-3 2c.3.46 2.7 4.11 2.95 4.45l3.05-2c-.23-.4-2.68-3.98-3-4.45" clip-rule="evenodd"/><path fill="#ff40a0" fill-rule="evenodd" d="M1.65 3.4.8 4l.55.85.9-.6z" clip-rule="evenodd"/><path fill="#ff40a0" fill-rule="evenodd" d="m4.75 13.65-.85.55.55.9.9-.6z" clip-rule="evenodd"/><path fill="#ff40a0" fill-rule="evenodd" d="M13.4 1.8 0 10.75l2.5 3.8 13.5-9z" clip-rule="evenodd"/></svg>