<svg xmlns="http://www.w3.org/2000/svg" viewBox="0 0 16 16"><path fill="#6060ff" d="M15 3H8L6.59 1.59A2 2 0 0 0 5.17 1H2a2 2 0 0 0-2 2v10c0 1.1.9 2 2 2h4.54a5.97 5.97 0 0 1 0-8h-1.1a2 2 0 0 0-1.9 1.37L2 13V7c0-1.1.9-2 2-2h11c.55 0 1-.45 1-1s-.45-1-1-1"/><path fill="#6060ff" d="M14 7h-1.61c.27.3.67.5 1.11.5h1v1c0 .83.67 1.5 1.5 1.5V9a2 2 0 0 0-2-2"/><path fill="#6060ff" d="M13.5 8.5A2.5 2.5 0 0 1 11 6a5 5 0 1 0 5 5 2.5 2.5 0 0 1-2.5-2.5m-4.06 5a.94.94 0 1 1 0-1.87.94.94 0 0 1 0 1.87m0-3.12a.94.94 0 1 1 0-1.88.94.94 0 0 1 0 1.88m2.81 3.12a.62.62 0 1 1 0-1.25.62.62 0 0 1 0 1.25"/></svg>