<svg xmlns="http://www.w3.org/2000/svg" viewBox="0 0 16 16"><path fill="#40a0ff" d="M14 3H8L6.59 1.59A2 2 0 0 0 5.17 1H2a2 2 0 0 0-2 2v10c0 1.1.9 2 2 2h2.48v-.03l2.99-8.95c.2-.59.8-1.02 1.45-1.02h3.5l.95.33q.34.27.49.67v.01l2.14 6.3V5a2 2 0 0 0-2-2"/><path fill="#6060ff" d="M8.92 6c-.23 0-.45.17-.5.33l-3 9c-.17.34.1.67.44.67h2.5c.17 0 .33-.17.39-.33l.61-1.78 2.22 2 .28.1h2.78l-1.22-3.49H9.86L12.08 6z"/><path fill="#40a0ff" d="M12.92 6.33a.5.5 0 0 0-.5-.33h-3.5c.22 0 .44.17.5.33l3.05 9a.56.56 0 0 1-.5.67h3.5a.5.5 0 0 0 .5-.67z"/></svg>