<svg xmlns="http://www.w3.org/2000/svg" viewBox="0 0 16 16"><path fill="#40a0ff" d="M4.49 14.97 7.14 7h-1.7a2 2 0 0 0-1.9 1.37L2 13V7c0-1.1.9-2 2-2h11c.55 0 1-.45 1-1s-.45-1-1-1H8L6.59 1.59A2 2 0 0 0 5.17 1H2a2 2 0 0 0-2 2v10c0 1.1.9 2 2 2h2.48z"/><path fill="#40a0ff" d="m14.2 7.02 1.8 5.29V9a2 2 0 0 0-1.8-1.98"/><path fill="#6060ff" d="M8.92 6c-.23 0-.45.17-.5.33l-3 9c-.17.34.1.67.44.67h2.5c.17 0 .33-.17.39-.33l.61-1.78 2.22 2 .28.1h2.78l-1.22-3.49H9.86L12.08 6z"/><path fill="#40a0ff" d="M12.92 6.33a.5.5 0 0 0-.5-.33h-3.5c.22 0 .44.17.5.33l3.05 9a.56.56 0 0 1-.5.67h3.5a.5.5 0 0 0 .5-.67z"/></svg>