<svg xmlns="http://www.w3.org/2000/svg" viewBox="0 0 16 16"><path fill="#ffff40" d="M12.67 5.5C18.97 0 8.47-1.76 4.5 2v.1c.1 0 .3-.16.3 0l-.95.9.1.1H3.6c0 .1.1.2.15.2l-.4.04-.5.5.05.05.35-.25v.1L3 4.09l.05.05.35-.25v.15l-.15.05.15.2.8-.7.25.15L6.52 2.6l.05.2c-.85 3.1-4.5 9.96-5.2 11.66l.14-.05c-.05.1-.1.15 0 .3l.6-.2h.15c-.1.45-.4.65-.5 1.25l.25.25q.69-.75 1-1.5c2-.7 3.26-1 4.66-1.7h-.35c2.7-1.2 7.5-3.95 4.6-6.75q.01-.24.7-.55zm-8.5 7 2.1-4.2c.8.15 3.5-1.6 4.65-.6-1 2.5-5.15 4.1-6.76 4.8M11.31 4l-.35.4c-.95 1-1.5.9-3.6 1.85h-.05c.1-.35.45-1.55.6-1.6.5-.66.8-3.2 2.05-3v.14c.95-.1 1.85-.35 2.25.2.1 0 .1.15.15.25h.1v-.3c.45 0 .5.5.15.8-.1 0-.15 0-.15-.1h-.1c0 .65-.95 1.4-1 1.35z"/></svg>