<svg xmlns="http://www.w3.org/2000/svg" viewBox="0 0 16 16"><path fill="#40a0ff" d="M14 3H8L6.59 1.59A2 2 0 0 0 5.17 1H2a2 2 0 0 0-2 2v10c0 1.1.9 2 2 2h4.91l-.04-.25v-1.87a2.26 2.26 0 0 1 2.26-2.26h.2a1.6 1.6 0 0 1-.27-.87v-1.5h-.25a1.63 1.63 0 0 1 0-3.25h1.25c.7 0 1.3.32 1.72.82.41-.5 1.03-.82 1.72-.82h1.25q.7.01 1.25.38V5a2 2 0 0 0-2-2"/><path fill="#40a0ff" d="M14.75 6H13.5c-.69 0-1.25.56-1.25 1.25v1.88c0 .69.56 1.24 1.25 1.24h1.25c.69 0 1.25-.55 1.25-1.24V7.25C16 6.56 15.44 6 14.75 6m-.62 3.13a.6.6 0 0 1-.63-.63v-.62c0-.35.28-.63.63-.63s.62.28.62.63v.62c0 .35-.28.63-.62.63"/><path fill="#40a0ff" d="M10.38 11.63H9.12c-.69 0-1.24.55-1.24 1.24v1.88c0 .69.55 1.25 1.25 1.25h1.24c.7 0 1.26-.56 1.26-1.25v-1.87c0-.7-.56-1.26-1.26-1.26m-.63 3.12a.6.6 0 0 1-.62-.62v-.63c0-.35.27-.62.62-.62s.63.27.63.62v.63c0 .34-.28.62-.63.62"/><path fill="#40a0ff" d="M14.44 11.63h-1.25a.62.62 0 1 0 0 1.24h.62c.35 0 .63.28.63.63v1.88a.62.62 0 1 0 1.25 0v-2.5c0-.7-.56-1.26-1.25-1.26"/><path fill="#40a0ff" d="M10.06 6H8.81a.62.62 0 1 0 0 1.25h.63c.34 0 .62.28.62.63v1.87a.62.62 0 1 0 1.25 0v-2.5c0-.69-.56-1.25-1.25-1.25"/></svg>