<svg xmlns="http://www.w3.org/2000/svg" viewBox="0 0 16 16"><path fill="#40a0ff" d="M12.5 0h-2a2 2 0 0 0-2 2v3c0 1.1.9 2 2 2h2a2 2 0 0 0 2-2V2a2 2 0 0 0-2-2m-1 5a1 1 0 0 1-1-1V3a1 1 0 1 1 2 0v1a1 1 0 0 1-1 1"/><path fill="#40a0ff" d="M5.5 9h-2a2 2 0 0 0-2 2v3c0 1.1.9 2 2 2h2a2 2 0 0 0 2-2v-3a2 2 0 0 0-2-2m-1 5a1 1 0 0 1-1-1v-1a1 1 0 1 1 2 0v1a1 1 0 0 1-1 1"/><path fill="#40a0ff" d="M12 9h-2a1 1 0 1 0 0 2h1a1 1 0 0 1 1 1v3a1 1 0 1 0 2 0v-4a2 2 0 0 0-2-2"/><path fill="#40a0ff" d="M5 0H3a1 1 0 1 0 0 2h1a1 1 0 0 1 1 1v3a1 1 0 1 0 2 0V2a2 2 0 0 0-2-2"/></svg>