<svg xmlns="http://www.w3.org/2000/svg" viewBox="0 0 16 16"><path fill="#ff4040" d="M15.2 7.36a10.4 10.4 0 0 0-3.35-6.5c-.8-.59-.25.7-.1.96.85 2 .25 4.99-2.35 5.14-1.84 0-4.19 0-5.24 1.8-2-.2-2.89-2.9-2.99-4.55-.15-.25-.35 0-.35.15-.45 2.15 1 4.1 2.6 5.4.5.99-.05 2.19.35 3.29a5.5 5.5 0 0 0 1.64 2.84c.2.15.55.2.35-.4a4 4 0 0 1 .2-3.64c1.8-3.15 6.04-1.4 5.89 2 0 .64-.3 1.24-.25 1.94.05.35.4.2.6 0 2-2.4 3.4-5.29 3-8.48z"/><path fill="#ff4040" d="M5.16 2.52c.05.7.7 1.1 1.35 1.24.8.2 1.65-.35 2.4 0-2.45 2.9-.15 3.5 1.64 2.15 2-1.55.1-5.24.1-5.24s0-.3-.8-.5c-1.7-.85-2.64 1.75-4.29 1.75-.1 0-.45 0-.5.1-.1.1 0 .35.1.5"/></svg>