<svg xmlns="http://www.w3.org/2000/svg" viewBox="0 0 16 16"><path fill="#40ff40" d="M15 3H8L6.59 1.59A2 2 0 0 0 5.17 1H2a2 2 0 0 0-2 2v10c0 1.1.9 2 2 2h1.61l-.04-.43V8.32l-.03.05L2 13V7c0-1.1.9-2 2-2h11c.55 0 1-.45 1-1s-.45-1-1-1"/><path fill="#40ff40" d="M9.57 10.29c0 .39-.32.71-.71.71H7.43a.7.7 0 0 1-.72-.71V8.86c0-.4.33-.72.72-.72h1.43c.39 0 .71.32.71.72z"/><path fill="#40ff40" d="M9.57 13.14c0 .4-.32.72-.71.72H7.43a.7.7 0 0 1-.72-.72v-.71c0-.4.33-.72.72-.72h1.43c.39 0 .71.33.71.72z"/><path fill="#40ff40" d="M12.43 13.14c0 .4-.32.72-.72.72H11a.7.7 0 0 1-.71-.72v-1.43c0-.39.32-.71.71-.71h.71c.4 0 .72.32.72.71z"/><path fill="#40ff40" d="M12.43 9.57c0 .4-.32.72-.72.72H11a.7.7 0 0 1-.71-.72v-.71c0-.4.32-.72.71-.72h.71c.4 0 .72.32.72.72z"/><path fill="#40ff40" d="M15.29 11.71c.39 0 .71-.32.71-.71s-.32-.71-.71-.71h-.72v-.72h.72a.71.71 0 0 0 0-1.43h-.72v-.71c0-.79-.64-1.43-1.43-1.43H6c-.79 0-1.43.64-1.43 1.43v7.14c0 .79.64 1.43 1.43 1.43h7.14c.8 0 1.43-.64 1.43-1.43v-.71h.72a.72.72 0 0 0 0-1.43h-.72v-.72zm-2.86 2.86H6.7a.7.7 0 0 1-.71-.71V8.14c0-.4.32-.71.71-.71h5.72c.4 0 .71.32.71.71v5.72a.7.7 0 0 1-.71.71"/></svg>