<svg xmlns="http://www.w3.org/2000/svg" viewBox="0 0 16 16"><path fill="#40ff40" d="M15 9c.55 0 1-.45 1-1s-.45-1-1-1h-1V6h1c.55 0 1-.45 1-1s-.45-1-1-1h-1V3a2 2 0 0 0-2-2H2a2 2 0 0 0-2 2v10c0 1.1.9 2 2 2h10a2 2 0 0 0 2-2v-1h1c.55 0 1-.45 1-1s-.45-1-1-1h-1V9zm-4 4H3a1 1 0 0 1-1-1V4a1 1 0 0 1 1-1h8a1 1 0 0 1 1 1v8a1 1 0 0 1-1 1"/><path fill="#40ff40" d="M7 7a1 1 0 0 1-1 1H4a1 1 0 0 1-1-1V5a1 1 0 0 1 1-1h2a1 1 0 0 1 1 1z"/><path fill="#40ff40" d="M7 11a1 1 0 0 1-1 1H4a1 1 0 0 1-1-1v-1a1 1 0 0 1 1-1h2a1 1 0 0 1 1 1z"/><path fill="#40ff40" d="M11 11a1 1 0 0 1-1 1H9a1 1 0 0 1-1-1V9a1 1 0 0 1 1-1h1a1 1 0 0 1 1 1z"/><path fill="#40ff40" d="M11 6a1 1 0 0 1-1 1H9a1 1 0 0 1-1-1V5a1 1 0 0 1 1-1h1a1 1 0 0 1 1 1z"/></svg>