<svg xmlns="http://www.w3.org/2000/svg" viewBox="0 0 16 16"><path fill="#a0a0a0" d="M10.95 12.54v-.86h.35V6.67h-.55v-.9h-.98V4.73h-3.4v1.12H5.12v.81h-.39v4.97h.32v1.02h-.32v2.77h6.57v-2.88z"/><path fill="#ff4040" d="M6.12 8.15h3.8v2.86h-3.8z"/><path fill="#e0e0e0" d="M12.9 6.9c-.19-.2-.22-.34-.14-.6a4.9 4.9 0 1 0-9.37.03c.05.15.1.26-.08.4-.68.6-.68 1.48 0 2.08.13.13.14.21.1.38a3.6 3.6 0 0 0 .97 3.7c.57.91-.48 3 1.21 3.1h4.87c.63-.01 1.05-.48 1.05-1.12.1-.82-.3-1.78.47-2.38q1.13-1.41.67-3.18c-.06-.23-.07-.37.15-.56.55-.47.59-1.31.1-1.84M4.73 2.52c2.6-3.82 8.67-.77 7.28 3.6-.1.55-.45.18-.8.24l-.06-.05c-.14-.48-.37-.87-.87-1.04-.2-.06-.2-.23-.21-.4-.05-.52-.08-.56-.61-.56h-2.9c-.5 0-.55.05-.59.55 0 .18-.02.35-.22.42-.49.17-.72.55-.84 1.02l-.06.06c-.32-.01-.64.2-.72-.26q-.56-1.95.6-3.58m5.28 3.47c.48-.01.4.57.4.89h-4.8c-.07-.95.17-.92 1-.9.02-.32-.1-.97.4-.96h2.03c.5-.01.39.64.4.97zm-6.2 2.3c-.32.07-.5-.66-.04-1.06.03.33-.01.6.1.86q.04.12-.06.2m.12 2.26c-.03-.61.04-1.27.39-1.79.05-.06.09-.16.2-.1.06.38-.2 1.18-.06 1.89-.04.12.1.31-.2.31-.25 0-.32-.1-.33-.31m.43 1.29-.02-.02-.1-.3q.66-.02.64.9a3 3 0 0 1-.52-.58m.45-4.07v-.22h6.45v.22zm2.08 3.1c-.1 0-.2.04-.28-.03-.15-.28-.3-.55-.31-.88-.15-.5-.01-.97.19-1.43.07-.17.2-.15.34-.15q1 .02 2.01.01c.7-.04.77.01.9.7.04.27.13.53 0 .8-.06.81-.21 1.02-1.04.95m-2.04.78c1 .72 1.8.7 2.78-.03.1-.13.25-.04.37-.08l.97.01q-.06.43-.36.74h-4.8c-.17-.21-.31-.44-.3-.73.3.04 1.07-.09 1.34.09M5.32 8.4l.7-.02a3 3 0 0 0-.14 2c.12.47.13.46-.32.48-.14-.05-.31.05-.44-.09a3.3 3.3 0 0 1 .2-2.37m5.61 6.43a.5.5 0 0 1-.5.5H5.72a.5.5 0 0 1-.5-.5c.08-.44-.3-1.93.5-1.91h4.71c.8-.03.42 1.47.5 1.91m0-4.08c-.13.14-.3.04-.45.09-.45-.02-.44-.01-.31-.48q.26-1-.14-2l.7.02q.54 1.15.2 2.37m.22 1.59c.03-.5.34-1 .66-.77-.2.27-.31.62-.66.77m.45-1.51a6 6 0 0 0-.07-1.96c-.01-.07-.1-.19.05-.22.1-.02.1.12.18.16.2.46.8 2.25-.16 2.02m.79-2.62c-.09.16-.28.01-.2-.13.13-.23.02-.51.14-.76.28.3.3.66.06.9"/></svg>