<svg xmlns="http://www.w3.org/2000/svg" viewBox="0 0 16 16"><path fill="#a0a0a0" d="M5 11a6 6 0 0 1 4.77-5.87v-.4h-3.4v1.12H5.12v.8h-.39v4.98h.31Q5.01 11.32 5 11"/><path fill="#a0a0a0" d="M5.05 11.78v.87h-.32v2.77h2.23a6 6 0 0 1-1.9-3.64"/><path fill="#e0e0e0" d="M6.88 15.34H5.72a.5.5 0 0 1-.5-.5c.06-.36-.16-1.38.16-1.76a6 6 0 0 1-.34-2.74q-.16-.99.28-1.93l.28-.01a6 6 0 0 1 .36-.64H4.81v-.22h1.3q.25-.36.55-.67H5.61c-.07-.95.17-.92 1-.9.02-.32-.1-.97.4-.96h2.03q.27 0 .34.22.36-.1.72-.15l-.03-.22c-.05-.52-.08-.56-.61-.56h-2.9c-.5 0-.55.05-.59.55 0 .18-.02.35-.22.42-.49.17-.72.55-.84 1.02l-.06.06c-.32-.01-.64.2-.72-.26q-.56-1.95.6-3.58c2.4-3.52 7.74-1.2 7.46 2.62q.38.08.75.2a4.9 4.9 0 1 0-9.55 1c.05.15.1.26-.08.4-.68.6-.68 1.48 0 2.08.13.13.14.21.1.38a3.6 3.6 0 0 0 .97 3.7c.57.91-.48 3 1.21 3.1h2.08a6 6 0 0 1-.79-.65M3.81 8.27c-.32.08-.5-.65-.04-1.05.03.33-.01.6.1.86q.04.12-.06.2m.12 2.27c-.03-.61.04-1.27.39-1.79.05-.06.09-.16.2-.1.06.38-.2 1.18-.06 1.89-.04.12.1.31-.2.31-.25 0-.32-.1-.33-.31m.43 1.29-.02-.02-.1-.3q.66-.02.64.9a3 3 0 0 1-.52-.58"/><path fill="#ff4040" d="M11 6a5 5 0 1 0 0 10 5 5 0 0 0 0-10m2.5 5.63h-5a.62.62 0 1 1 0-1.26h5a.62.62 0 1 1 0 1.26"/></svg>