<svg xmlns="http://www.w3.org/2000/svg" viewBox="0 0 16 16"><path fill="#ffff40" d="M2.08 12.77 2 13V7c0-1.1.9-2 2-2h11c.55 0 1-.45 1-1s-.45-1-1-1H8L6.59 1.59A2 2 0 0 0 5.17 1H2a2 2 0 0 0-2 2v10c0 1.1.9 2 2 2h.74a7 7 0 0 1-.66-2.23"/><path fill="#ffff40" d="M11.03 14.73q-.26-.27-.39-.6a3 3 0 0 1-1.14.28q-.62 0-1.14-.27-.12.3-.37.57l-.01.01q-.18.16-.39.28h3.82a2 2 0 0 1-.38-.27"/><path fill="#ffff40" d="M7.98 8.84q.25.27.38.59a3 3 0 0 1 1.14-.27q.62 0 1.14.27a1.7 1.7 0 0 1 1.61-1.1c.01-.45.18-.9.52-1.23l.12-.1H6.11l.12.1c.34.33.5.78.52 1.23.46.01.9.19 1.23.51"/><path fill="#ffff40" d="M5.52 15.76a.82.82 0 0 1-1.22-.08 6.45 6.45 0 0 1 0-7.8c.3-.4.88-.42 1.22-.08a.8.8 0 0 1 .08 1.06 4.84 4.84 0 0 0 0 5.84.8.8 0 0 1-.08 1.06"/><path fill="#ffff40" d="M13.48 15.76a.8.8 0 0 1-.08-1.06 4.84 4.84 0 0 0 0-5.84.8.8 0 0 1 .08-1.05.82.82 0 0 1 1.22.07 6.45 6.45 0 0 1 0 7.8.8.8 0 0 1-1.22.08"/><path fill="#ffff40" d="M7.27 14A.82.82 0 0 1 6 13.83a4 4 0 0 1 0-4.08.82.82 0 0 1 1.28-.18h.01c.27.27.3.68.1 1a2.4 2.4 0 0 0 0 2.44.8.8 0 0 1-.1 1"/><path fill="#ffff40" d="M11.73 14a.8.8 0 0 1-.1-1 2.4 2.4 0 0 0 0-2.43.8.8 0 0 1 .1-1v-.01a.82.82 0 0 1 1.3.18 4 4 0 0 1 0 4.08.82.82 0 0 1-1.3.19"/><circle cx="9.5" cy="11.78" r="1.63" fill="#ffff40"/></svg>