<svg xmlns="http://www.w3.org/2000/svg" viewBox="0 0 16 16"><path fill="#ffff40" d="M3.1 12.9a1 1 0 0 1-1.5-.1 7.95 7.95 0 0 1 0-9.6 1 1 0 0 1 1.5-.1 1 1 0 0 1 .1 1.3 5.96 5.96 0 0 0 0 7.2 1 1 0 0 1-.1 1.3"/><path fill="#ffff40" d="M12.9 12.9a1 1 0 0 1-.1-1.3 5.96 5.96 0 0 0 0-7.2 1 1 0 0 1 .1-1.3 1 1 0 0 1 1.5.1 7.95 7.95 0 0 1 0 9.6 1 1 0 0 1-1.5.1"/><path fill="#ffff40" d="M5.26 10.74a1 1 0 0 1-1.58-.23 5 5 0 0 1 0-5.02 1 1 0 0 1 1.58-.23l.01.01c.34.33.36.83.13 1.23a3 3 0 0 0 0 3c.23.4.2.9-.13 1.23z"/><path fill="#ffff40" d="M10.74 10.74c-.34-.33-.36-.83-.13-1.23a3 3 0 0 0 0-3 1 1 0 0 1 .13-1.23v-.01a1 1 0 0 1 1.6.23 5 5 0 0 1 0 5.02c-.34.58-1.12.7-1.6.23"/><circle cx="8" cy="8" r="2" fill="#ffff40"/></svg>