<svg xmlns="http://www.w3.org/2000/svg" viewBox="0 0 16 16"><path fill="#ffff40" d="M8 0a8 8 0 1 0 0 16A8 8 0 0 0 8 0m5.1 8a11 11 0 0 1-3.75 1.4 3.5 3.5 0 0 0 4 .85c-.15.75-.85 1.4-1.9 1.6 0 .3.35 1.05.65 1.35-.75.25-1.6-.1-2.05-.4-.2.25-.3 1-.3 1.5-.5 0-1.3-.8-1.5-1.1-.25.15-.7 1-.75 1.4a2 2 0 0 1-1-1.6c-.3.25-1.2.8-1.65 1-.2-.5-.1-1.1 0-1.7-.15.1-1.5.2-2 .1.25-.3.65-1 .8-1.3-.55 0-1.55-.4-2-.85q.52-.3 1.2-.9c-.55-.3-1.4-.75-1.6-1.5.5 0 1.15-.1 1.5-.25-.45-.25-1.1-1-1-2 .35.2 1.1.35 1.45.3-.3-.7-.5-1.35-.2-2.25.3.35.95.7 1.25.8-.05-.7.25-1.95.7-2.3a3 3 0 0 0 .9 1.15c.05-.5.7-1.65 1.3-1.8 0 .4.2 1.1.4 1.35.4-.45 1.85-1.2 3-.95q-.54.44-.7.8c.85 0 2.3.3 3.5 1.6a3.8 3.8 0 0 0-2.75.1 3.4 3.4 0 0 0 2 2.4c1.2-.85 1.4.85.5 1.25z"/><path fill="#e0e0e0" d="M9.1 9c.7-.1 4.65-.7 3.35-1.85A3.8 3.8 0 0 1 10.2 4.6a3 3 0 0 0-1.5 2.6q-.05.98.4 1.85zm.8-3.3c-.15.2 0 .6.25.55.2 0 .3-.3.2-.45.5.25.45 1-.05 1.2-.95.4-1.35-1.1-.4-1.25z"/></svg>