<svg xmlns="http://www.w3.org/2000/svg" viewBox="0 0 16 16"><path fill="#ffa040" d="M13.9 11.63c-3.1.81-6.56-.18-6.94-3.82C7.83 7.26 8.1 6 8.75 5.5l-.09-1.06V4.4l-1.24.57A5 5 0 0 0 8.69.33L8.18 0a5 5 0 0 1 .22 1.45q0 1.11-.46 2.03a3.8 3.8 0 0 0-.56-3.2l-.36.23q.13.18.24.37a3.3 3.3 0 0 1 .24 2.65v-.15a2.6 2.6 0 0 0-.95-2.05q-.19-.15-.41-.25l-.47.3q.26.06.48.2c.57.36.95 1.03.95 1.8 0 1.14-.84 2.06-1.86 2.06-1.03 0-1.86-.92-1.86-2.06v-.02q0-.3.07-.56l-.47.3a2.7 2.7 0 0 0 .64 2.04A3 3 0 0 1 2.35 3.5l-.36.23q.07.21.17.41c.33.67.86 1.2 1.49 1.52A3.7 3.7 0 0 1 1.7 4.44v.62l.4.34a4 4 0 0 0 2.8.8q-.43.11-.69.54c-.19.34-.02 1.16-.33 1.46q.57-.04.89-.4a11 11 0 0 0 .19 5.74l.3.7 2.57 1.65L8 16l.7-.44 1.1-.71 2.34-1.5.73-.47 1.43-.9v-.47z"/></svg>