<svg xmlns="http://www.w3.org/2000/svg" viewBox="0 0 16 16"><path fill="#e0e0e0" d="M12.52 3.4C10.04 2.06 9.1 1.12 8 1.12S5.59 2.27 3.48 3.4 0 6.43 0 8.6c0 3.48 3.58 6.3 8 6.3s8-2.82 8-6.3c0-2.16-1.37-4.06-3.48-5.19m-8.25.63a4 4 0 0 0 2.4-2.06c.04-.08.17-.05.15.05-.4 1.82-1.72 2.2-2.55 2.16-.08 0-.08-.12 0-.15M5.2 9.3a1.26 1.26 0 1 1 1.26-1.26c0 .7-.57 1.26-1.26 1.26m.93-4.62c-.08.03-.13-.08-.07-.14a3.8 3.8 0 0 0 1.3-2.85c0-.09.13-.12.14-.01.44 1.8-.6 2.7-1.37 3m2.23.17c-.05.07-.15 0-.12-.08.33-1.03.2-2.15-.37-3.08-.05-.09.06-.18.12-.12 1.31 1.37.87 2.64.37 3.28m.14-3.2c-.07-.06-.01-.18.08-.15 1.73.71 1.85 2.07 1.64 2.87a.08.08 0 0 1-.15-.03A3.8 3.8 0 0 0 8.5 1.65m2.36 7.65c-.7 0-1.25-.57-1.25-1.26v-.01a1.26 1.26 0 1 1 1.25 1.27"/><path fill="#ff4040" d="M9.43 10.07H6.61a.16.16 0 0 0-.18.19q.16.65.66 1.07.4.38.94.43.53-.05.91-.43a2 2 0 0 0 .67-1.11.16.16 0 0 0-.18-.15"/><path fill="#ff40a0" d="M5.67 9.2q-.23.1-.48.1c-.38 0-.7-.18-.93-.44-.6.09-1.04.38-1.04.75 0 .44.6.79 1.34.79s1.34-.35 1.34-.79q-.02-.23-.23-.4"/><path fill="#e0e0e0" fill-rule="evenodd" d="M4.8 8.12a.47.47 0 1 0-.47-.48c0 .27.21.48.47.48" clip-rule="evenodd"/><path fill="#e0e0e0" fill-rule="evenodd" d="M10.46 8.12a.47.47 0 1 0-.47-.48c0 .26.2.48.47.48" clip-rule="evenodd"/><path fill="#ff40a0" d="M11.8 8.86a1.24 1.24 0 0 1-1.43.34q-.21.18-.23.41c0 .44.6.79 1.34.79s1.34-.35 1.34-.79c0-.37-.45-.66-1.03-.75"/><path fill="#ff40a0" d="M8.08 10.58a1.4 1.4 0 0 0-1.15.64l.16.13q.39.38.94.44.54-.07.94-.44l.23-.24a1.6 1.6 0 0 0-1.12-.53"/></svg>