<svg xmlns="http://www.w3.org/2000/svg" viewBox="0 0 16 16"><path fill="#e0e0e0" d="M14 3H8L6.59 1.59A2 2 0 0 0 5.17 1H2a2 2 0 0 0-2 2v10c0 1.1.9 2 2 2h2.98c-1-.97-1.6-2.21-1.6-3.57 0-1.89 1.14-3.63 3.05-4.65q.75-.4 1.31-.77l.92-.55.04-.08.08.02c.48-.24.93-.4 1.41-.4.8 0 1.43.38 2.29.92q.59.36 1.47.86A6 6 0 0 1 16 8.53V5a2 2 0 0 0-2-2"/><path fill="#e0e0e0" d="M13.47 7.66C11.67 6.69 11 6 10.2 6s-1.75.84-3.28 1.66-2.53 2.2-2.53 3.77c0 2.52 2.6 4.57 5.81 4.57s5.8-2.05 5.8-4.57c0-1.57-1-2.95-2.53-3.77m-5.99.46a2.8 2.8 0 0 0 1.74-1.5c.03-.06.13-.03.11.03-.29 1.33-1.25 1.6-1.85 1.57-.06 0-.06-.08 0-.1m.67 3.82a.91.91 0 1 1 0-1.83.91.91 0 0 1 0 1.83m.68-3.35c-.06.02-.1-.06-.05-.1.6-.52.94-1.28.93-2.07 0-.07.1-.09.11-.01.32 1.31-.43 1.96-1 2.18m1.62.13c-.04.04-.11 0-.1-.06a2.7 2.7 0 0 0-.26-2.24c-.03-.06.04-.13.09-.09.95 1 .63 1.92.27 2.39m.1-2.33c-.06-.04-.01-.13.05-.1 1.26.5 1.34 1.5 1.2 2.07a.05.05 0 0 1-.12-.02 2.7 2.7 0 0 0-1.13-1.95m1.71 5.55a.9.9 0 0 1-.9-.91.91.91 0 1 1 .9.91"/><path fill="#ff4040" d="M11.23 12.5H9.15a.12.12 0 0 0-.1.14q.11.47.48.78.28.28.68.31.39-.04.67-.3a1.5 1.5 0 0 0 .48-.82.12.12 0 0 0-.13-.1"/><path fill="#e0e0e0" fill-rule="evenodd" d="M7.87 11.09a.34.34 0 1 0-.35-.35c0 .2.16.35.35.35" clip-rule="evenodd"/><path fill="#e0e0e0" fill-rule="evenodd" d="M11.98 11.09a.34.34 0 1 0-.34-.35c0 .2.15.34.33.35" clip-rule="evenodd"/><path fill="#ff40a0" d="M10.24 12.87c-.33.01-.64.18-.83.47l.12.1q.28.27.68.31.4-.04.68-.31l.17-.18a1.1 1.1 0 0 0-.82-.39"/><path fill="#ff40a0" d="M8.5 11.87a.9.9 0 0 1-1.03-.25c-.43.07-.75.28-.75.55 0 .32.44.57.97.57.54 0 .97-.25.97-.57q-.01-.16-.16-.3"/><path fill="#ff40a0" d="M12.94 11.63a.9.9 0 0 1-1.03.24q-.15.13-.16.3c0 .32.43.57.97.57s.97-.25.97-.57c0-.27-.32-.48-.75-.54"/></svg>