<svg xmlns="http://www.w3.org/2000/svg" viewBox="0 0 16 16"><path fill="#e0e0e0" d="M7.5 14.75V11c0-.88.51-1.65 1.25-2.02V8.5a3.5 3.5 0 0 1 7 0v.48l.22.15.03-.53c0-2.16-1.37-4.06-3.48-5.19C10.04 2.06 9.1 1.12 8 1.12S5.59 2.27 3.48 3.4 0 6.43 0 8.6c0 3.35 3.33 6.08 7.52 6.28zM8.57 1.5c1.73.71 1.85 2.07 1.64 2.87a.08.08 0 0 1-.15-.03 3.8 3.8 0 0 0-1.57-2.69c-.07-.06-.01-.18.08-.15m-.7.18c-.06-.08.05-.17.11-.1 1.31 1.36.87 2.63.37 3.27-.05.07-.15 0-.12-.08.33-1.03.2-2.15-.37-3.08m-3.6 2.35a4 4 0 0 0 2.4-2.06c.04-.08.17-.05.15.05-.4 1.82-1.72 2.2-2.55 2.16-.08 0-.08-.12 0-.15M5.2 9.3a1.26 1.26 0 1 1 1.26-1.26c0 .7-.57 1.26-1.26 1.26m.93-4.62c-.08.03-.13-.08-.07-.14a3.8 3.8 0 0 0 1.3-2.85c0-.09.13-.12.14-.01.44 1.8-.6 2.7-1.37 3"/><path fill="#ff40a0" d="M5.67 9.2q-.23.1-.48.1c-.38 0-.7-.18-.93-.44-.6.09-1.04.38-1.04.75 0 .44.6.79 1.34.79s1.34-.35 1.34-.79q-.02-.23-.23-.4"/><path fill="#e0e0e0" fill-rule="evenodd" d="M4.8 8.12a.47.47 0 1 0-.47-.48c0 .27.21.48.47.48" clip-rule="evenodd"/><path fill="#e0e0e0" fill-rule="evenodd" d="M10.46 8.12a.47.47 0 1 0-.47-.48c0 .26.2.48.47.48" clip-rule="evenodd"/><path fill="#ff4040" d="M7.5 11q.02-.5.22-.93H6.61a.16.16 0 0 0-.18.19 2 2 0 0 0 1.07 1.36z"/><path fill="#ff40a0" d="M7.5 11q.01-.15.04-.29-.37.16-.6.5l.15.14q.18.17.41.29z"/><path fill="#a0a0a0" d="M14.75 9.75V8.5a2.5 2.5 0 0 0-5 0v1.25c-.69 0-1.25.56-1.25 1.25v3.75c0 .69.56 1.25 1.25 1.25h5c.69 0 1.25-.56 1.25-1.25V11c0-.69-.56-1.25-1.25-1.25m-2.5 4.06a.94.94 0 1 1 0-1.87.94.94 0 0 1 0 1.87m1.25-4.06H11V8.5a1.25 1.25 0 0 1 2.5 0z"/></svg>