<svg xmlns="http://www.w3.org/2000/svg" viewBox="0 0 16 16"><path fill="#40a0ff" d="M15.68 3.9a1.6 1.6 0 0 0-1.06-.64q-.35-.04-.72.08A8 8 0 0 0 10.44.88 8 8 0 0 0 5.7.5a7.6 7.6 0 0 0-3.25 1.62A6.8 6.8 0 0 0 .2 5.73 7.6 7.6 0 0 0 .37 9.9a8 8 0 0 0 1.05 2.4l-.04.2c-.08.63.09 1.25.48 1.76a2.35 2.35 0 0 0 2.87.71 7.7 7.7 0 0 0 9.14-2.01q.4-.5.7-1.04a7.4 7.4 0 0 0 .63-5.66q.1-.05.18-.12a1.6 1.6 0 0 0 .3-2.22M3.75 11.76h.14a1.06 1.06 0 0 1 .9 1.19q-.05.42-.4.7-.32.23-.78.2a1 1 0 0 1-.7-.4q-.25-.35-.2-.77c.06-.53.51-.92 1.04-.92m2.36 1.36q.07-.6-.14-1.16l.3-.27c.66-.62 1.53-1.5 1.53-1.5l.15-.15-.57-.72-.18.1s-1.06.64-1.82 1.13L5 10.8q-.44-.28-.94-.35c-.92-.13-1.81.3-2.3 1.09A6 6 0 0 1 .82 9q-.15-1.43.39-2.97a8 8 0 0 1 1.98-3.1 7 7 0 0 1 5.32-1.9 6.1 6.1 0 0 1 4.64 2.79 1.6 1.6 0 0 0-.29 1.65l-.9.65-.47.36-.2.16.7.82.19-.17s.2-.18.43-.42l.75-.74a1.6 1.6 0 0 0 1.01.36 7 7 0 0 1-.96 4.75 8 8 0 0 1-1.3 1.62 6.8 6.8 0 0 1-5.17 1.88 7 7 0 0 1-1.5-.27q.55-.57.66-1.36m8.19-7.68a.6.6 0 0 1-.48-.65.57.57 0 0 1 .64-.47q.23.03.37.22a.56.56 0 0 1-.1.77.6.6 0 0 1-.43.13"/><path fill="#40ff40" d="M10.86 6.62h-.37V5.33a2.71 2.71 0 0 0-5.42 0v1.29H4.7c-.62 0-1.13.5-1.13 1.13v2.7h1.44l-.06-2.4 5.62-.06.04 3.62H6.48v1.43h4.38c.62 0 1.13-.51 1.13-1.14V7.75c0-.63-.5-1.13-1.13-1.13M7.78 4.05c.7 0 1.28.57 1.28 1.28v1.29H6.5V5.33c0-.7.57-1.28 1.28-1.28"/></svg>