<svg xmlns="http://www.w3.org/2000/svg" viewBox="0 0 16 16"><path fill="#e0e0e0" d="M11.19 2.63 7.6 2.08q-.36.01-.66.06L1.3 6.54 14.33 4.8a6 6 0 0 0-3.14-2.18"/><path fill="#ffff40" d="M11.39 5.2c-.06-.03-.66-.4-.4-.68l-.66.64.09.17.98 1.93 2.58-.4v1.41c.3 0 .34-.27.34-.54V4.8z"/><path fill="#ffff40" d="m8.25 7.8-.01-2.18-6.94.92v2.27z"/><path fill="#ffa040" d="m1.32 8.82 12.64-1.93v5.67L1.32 14.49z"/><path d="m15.05 14.42-.08-.25-4.63-9c.47-.44 1.1-1.1 1.13-1.13l.08-.08v-.63l-.4-.83c-.02-.06-.14-.3-.28-.44l-.02-.02L8.44.14A.5.5 0 0 0 8.06 0l-.93.12v.8l.6 1.48-.86.12L5.79.34 5.6.36l-.52.06c-.04 0-.25.05-.24.33v.87l.21 1.16h-.03l-.33.05v.69l.35.7c.04.09.11.22 1.24.84l.99.51c.06.11.19.33.26.52l.73 1.48h-.02v5.87h.02l3.19 1.9a8 8 0 0 0 1.9.62q.2.04.4.04.15 0 .27-.02l.04-.01.06-.02q.37-.07.62-.28a1 1 0 0 0 .32-.57v-.66z"/><path fill="#a0a0a0" d="M14.72 14.29 9.9 4.87c-.04-.08 0-.13 0-.13s1.45-1.24 1.38-1.38l-.36-.74s-.11-.25-.24-.37L8.25.33C8.2.2 7.6.37 7.42.37l1.08 2.2-1.79.25L5.63.63l-.51.06c-.08.01.48 2.29.48 2.29l-.64.09.32.63c.12.23 2.33 1.37 2.33 1.37s.1.06.14.13l4.59 9.42c.5.98 2.8.97 2.38-.33M7.34 4.19l-.35-.77 1.82-.24.4.77z"/></svg>