<svg xmlns="http://www.w3.org/2000/svg" viewBox="0 0 16 16"><path fill="#ffff40" d="M6.25 14.75V8.5c0-.58.24-1.1.6-1.5h-1.4a2 2 0 0 0-1.9 1.37L2 13V7c0-1.1.9-2 2-2h11c.55 0 1-.45 1-1s-.45-1-1-1H8L6.59 1.59A2 2 0 0 0 5.17 1H2a2 2 0 0 0-2 2v10c0 1.1.9 2 2 2h4.29q-.03-.12-.04-.25"/><path fill="#ffff40" d="M11.63 12.25c0-.34.28-.62.62-.62h1.25c.34 0 .63.28.63.62v1.25c0 .34-.29.63-.63.63h-1.25a.63.63 0 0 1-.62-.63z"/><path fill="#ffff40" d="M14.75 7.25v-.62c0-.35-.28-.63-.62-.63s-.63.28-.63.63v.62H9.75v-.62c0-.35-.28-.63-.62-.63s-.63.28-.63.63v.62c-.69 0-1.25.56-1.25 1.25v6.25c0 .69.56 1.25 1.25 1.25h6.25c.69 0 1.25-.56 1.25-1.25V8.5c0-.69-.56-1.25-1.25-1.25m-.62 7.5h-5a.6.6 0 0 1-.63-.62V9.75c0-.35.28-.62.63-.62h5c.34 0 .62.27.62.62v4.38c0 .34-.28.62-.62.62"/></svg>