<svg xmlns="http://www.w3.org/2000/svg" viewBox="0 0 16 16"><path fill="#ffa040" d="m14.7 11.35.2-.1V2.8L10.1.85 6.65 2.2 6.6 3l-.75-.25V1.9L9.27.51 8 0 4.6 1.35 4.55 5.8 1.1 7.2v4.1l.15.1-.35.1v.9L2 13l.85-.45.95.45v.9l1.15.55.95-.45.95.45v.95L8 16l7.1-3.5v-1zm-11.45.95-.75-.35v-.9l.8.35zm1.3-4.75-1.3.5v.75l-.8-.2v-.85l2.1-.85zm5.75-5.7 3.45 1.35-.05.8-.7.25V3.5L9.6 2.15zM6.45 9.2l-.8-.25V8.1l.8.25zm0-4.25v.75l-.75-.25V4.6l3.4-1.4.75.3zm3.8 8.5-.75.3v-.9l.75-.3zM10.3 10l-.8.3v-.85l.8-.35zm3.5-2.4-.8.3v-.85l.8-.35z"/></svg>