<svg xmlns="http://www.w3.org/2000/svg" viewBox="0 0 16 16"><path fill="#ffa040" d="M14 3H8L6.59 1.59A2 2 0 0 0 5.17 1H2a2 2 0 0 0-2 2v10c0 1.1.9 2 2 2h5.33l-1.2-.66v-1.9l.12-.04V9.83l2.16-.88.04-2.79 3.12-1.24L16 6.72V5a2 2 0 0 0-2-2"/><path fill="#ffa040" d="m15.75 13.1.13-.07V7.75l-3-1.22-2.16.84-.03.5-.47-.15v-.53l2.13-.87-.79-.32-2.12.84-.03 2.79-2.16.87v2.56l.1.06-.22.07v.56l.68.38.53-.29.6.29v.56l.72.34.59-.28.6.28v.6l.71.37L16 13.81v-.62zm-7.16.59-.46-.22v-.56l.5.21zm.82-2.97-.82.31v.47l-.5-.12v-.54l1.32-.53zM13 7.16l2.16.84-.04.5-.43.16v-.47l-2.13-.85zm-2.4 4.59-.5-.16v-.53l.5.16zm0-2.66v.47l-.47-.15v-.54L12.25 8l.47.19zm2.37 5.32-.47.18v-.56l.47-.19zm.03-2.16-.5.19v-.53l.5-.22zm2.19-1.5-.5.19v-.53l.5-.22z"/></svg>