<svg xmlns="http://www.w3.org/2000/svg" viewBox="0 0 16 16"><path fill="#ffa040" d="M7.84 15.92a2 2 0 0 1-.34-1.17V11c0-.88.51-1.65 1.25-2.02V8.5a3.48 3.48 0 0 1 6.15-2.26V2.8L10.1.85 6.65 2.2 6.6 3l-.75-.25V1.9L9.27.51 8 0 4.6 1.35 4.55 5.8 1.1 7.2v4.1l.15.1-.35.1v.9L2 13l.85-.45.95.45v.9l1.15.55.95-.45.95.45v.95zM3.25 12.3l-.75-.35v-.9l.8.35zm1.3-4.75-1.3.5v.75l-.8-.2v-.85l2.1-.85zm5.75-5.7 3.45 1.35-.05.8-.7.25V3.5L9.6 2.15zM6.45 9.2l-.8-.25V8.1l.8.25zm0-4.25v.75l-.75-.25V4.6l3.4-1.4.75.3z"/><path fill="#a0a0a0" d="M14.75 9.75V8.5a2.5 2.5 0 0 0-5 0v1.25c-.69 0-1.25.56-1.25 1.25v3.75c0 .69.56 1.25 1.25 1.25h5c.69 0 1.25-.56 1.25-1.25V11c0-.69-.56-1.25-1.25-1.25m-2.5 4.06a.94.94 0 1 1 0-1.87.94.94 0 0 1 0 1.87m1.25-4.06H11V8.5a1.25 1.25 0 0 1 2.5 0z"/></svg>