<svg xmlns="http://www.w3.org/2000/svg" viewBox="0 0 16 16"><path fill="#40a0ff" d="M14 3H8L6.59 1.59A2 2 0 0 0 5.17 1H2a2 2 0 0 0-2 2v10c0 1.1.9 2 2 2h5.31l-.08-.23-1.18-.44a1.63 1.63 0 0 1-.9-2.19L5.66 11l-.51-1.14a1.63 1.63 0 0 1 .9-2.2l1.18-.43.44-1.18a1.63 1.63 0 0 1 2.19-.9l1.14.51 1.14-.51a1.63 1.63 0 0 1 2.2.9l.43 1.18 1.18.44.05.02V5a2 2 0 0 0-2-2"/><path fill="#40a0ff" d="M15.3 11.13a.3.3 0 0 1 0-.26l.64-1.42a.62.62 0 0 0-.34-.85l-1.47-.55a.3.3 0 0 1-.18-.18L13.4 6.4a.62.62 0 0 0-.85-.34l-1.42.64a.3.3 0 0 1-.26 0l-1.42-.64a.62.62 0 0 0-.85.34l-.55 1.47a.3.3 0 0 1-.18.18L6.4 8.6a.62.62 0 0 0-.34.85l.64 1.42q.06.13 0 .26l-.64 1.42c-.15.33 0 .72.34.85l1.47.55q.14.05.18.18l.55 1.47c.13.33.52.5.85.34l1.42-.64a.3.3 0 0 1 .26 0l1.42.64c.33.15.72 0 .85-.34l.55-1.47q.05-.13.18-.18l1.47-.55c.33-.13.5-.52.34-.85zm-1.87-1.01-2.65 2.65a.63.63 0 0 1-.88 0l-1.33-1.33a.63.63 0 0 1 0-.88.63.63 0 0 1 .88 0l.89.88 2.2-2.2a.63.63 0 0 1 .9 0c.23.24.23.63 0 .88"/></svg>