<svg xmlns="http://www.w3.org/2000/svg" viewBox="0 0 16 16"><path fill="#40a0ff" d="M14.87 8.2a.5.5 0 0 1 0-.4l1.04-2.29a1 1 0 0 0-.56-1.34l-2.34-.88a.5.5 0 0 1-.3-.3L11.83.65A1 1 0 0 0 10.5.09L8.2 1.13a.5.5 0 0 1-.42 0L5.51.09a1 1 0 0 0-1.34.56l-.88 2.34a.5.5 0 0 1-.3.3l-2.34.88A1 1 0 0 0 .09 5.5l1.04 2.3a.5.5 0 0 1 0 .42L.09 10.49a1 1 0 0 0 .56 1.34l2.34.88a.5.5 0 0 1 .3.3l.88 2.34a1 1 0 0 0 1.34.56l2.28-1.04a.5.5 0 0 1 .42 0l2.28 1.04a1 1 0 0 0 1.34-.56l.88-2.34a.5.5 0 0 1 .3-.3l2.34-.88a1 1 0 0 0 .56-1.34zM11.9 6.6l-4.24 4.24a1 1 0 0 1-1.42 0L4.11 8.7a1 1 0 0 1 0-1.42 1 1 0 0 1 1.42 0l1.4 1.42 3.54-3.54a1 1 0 1 1 1.41 1.41"/></svg>