<svg xmlns="http://www.w3.org/2000/svg" viewBox="0 0 16 16"><path fill="#ffa040" d="M4.64 11.3q-.74 1.04-.95 2.39h1.55q-.24-1.11-.25-2.3zm5.34-.76c-.35 1-.85 2.05-.6 3.15h2c-.5-1.45-.65-3.55-.95-4.4l-.4 1.25z"/><path fill="#ffa040" d="M15.57 5.55c-.55-.8-2.15-1.5-1.65-2.64.1-.2-.05-.15-.05-.15-.55.15-.25-.65-.6-.4-1.1 1.6 1.3 2.8 1.4 4.14-.25.85-1.1-.1-1-.3-.5-1.9-1.2-2.54-1.2-2.54C8.83 3.9 5 3.8 1.5 5.16.55 6.56 0 9.15 0 9.15c.4-.35.8-.9 1.25-1.25-.1 2 .15 3.9.7 5.79h1.5a7 7 0 0 1 1.14-2.75c.55.45 1.8.3 1.8.3l.7 2.45h1.89c.1-1.7 1-3.2 1.45-4.8 0-.4.4-.74.8-.7 2.24 1.2 5.98.76 4.38-2.64zM10.33 7.5c-.25.45-.6-.3-.85-.35-1.5-.05-.6-2 .35-2.2-.5.26-1.1 1.35-.8 1.8.8 0 1.15 1.3 1.35.5v.25zm1.64-1.15c-.15.35-.65.15-.5-.2.05-.35.65-.15.5.2"/></svg>