<svg xmlns="http://www.w3.org/2000/svg" viewBox="0 0 16 16"><path fill="#40a0ff" d="M5.42 10.99c0-1.58.5-2.95 1.36-3.99H5.44a2 2 0 0 0-1.9 1.37L2 13V7c0-1.1.9-2 2-2h11c.55 0 1-.45 1-1s-.45-1-1-1H8L6.59 1.59A2 2 0 0 0 5.17 1H2a2 2 0 0 0-2 2v10c0 1.1.9 2 2 2h4.75a6 6 0 0 1-1.33-4.01"/><path fill="#40a0ff" d="M13 12.07c-.11.9-.59 1.6-1.6 1.6-1.57 0-1.86-1.25-1.86-2.58 0-1.83.66-2.77 1.75-2.77.98 0 1.6.57 1.69 1.56h2.95C15.68 7.44 14.06 6 11.16 6 8.5 6 6.42 7.91 6.42 10.99S8.32 16 11.46 16c2.5 0 4.26-1.48 4.54-3.93z"/></svg>