<svg xmlns="http://www.w3.org/2000/svg" viewBox="0 0 16 16"><path fill="#40ff40" d="M0 8.07C0 5.63 1.1 3.47 2.83 2H1a1 1 0 1 1 0-2h4a1 1 0 0 1 1 1v4a1 1 0 1 1-2 0V3.64a6 6 0 0 0-2 4.43 6 6 0 0 0 5.15 5.94c.49.07.85.49.85.98a1 1 0 0 1-1.14 1A8 8 0 0 1 0 8.07"/><path fill="#40ff40" d="M16 7.93c0 2.44-1.1 4.6-2.83 6.07H15a1 1 0 1 1 0 2h-4a1 1 0 0 1-1-1v-4a1 1 0 1 1 2 0v1.36c1.22-1.1 2-2.66 2-4.43a6 6 0 0 0-5.15-5.94A1 1 0 0 1 8 1.01a1 1 0 0 1 1.14-1A8 8 0 0 1 16 7.93"/><path fill="#40ff40" d="M11.3 5.5a1 1 0 0 0-1.42 0L7 8.38l-.88-.88c-.39-.39-1.02-.39-1.41 0s-.4 1.03 0 1.41l1.58 1.59a1 1 0 0 0 1.42 0l3.58-3.59a1 1 0 0 0 0-1.41"/></svg>