<svg xmlns="http://www.w3.org/2000/svg" viewBox="0 0 16 16"><path fill="#e0e0e0" d="M14 3H8L6.59 1.59A2 2 0 0 0 5.17 1H2a2 2 0 0 0-2 2v10c0 1.1.9 2 2 2h4.58a6 6 0 0 1-1.4-2.53l-.03-.25c0-.59.38-1.06.9-1.22-.53-.16-.9-.64-.9-1.22l.03-.25A6 6 0 0 1 16 7.7V5a2 2 0 0 0-2-2"/><path fill="#e0e0e0" d="M9.82 11a1.2 1.2 0 1 1 2.39 0 1.2 1.2 0 0 1-2.4 0"/><path fill="#e0e0e0" d="M11.04 6a5 5 0 0 0-4.89 3.78q.01.26.28.28h2q.15 0 .22-.17a2.61 2.61 0 1 1 0 2.22c0-.11-.11-.17-.22-.17h-2c-.17 0-.28.12-.28.23v.05A5 5 0 1 0 11.04 6"/></svg>