<svg xmlns="http://www.w3.org/2000/svg" viewBox="0 0 16 16"><path fill="#a0ff40" d="M8 6.68h3.1c.13 0 .24-.1.24-.24v-3.1c0-.13-.1-.24-.24-.24H8a7 7 0 0 0-4.42 1.42Q1.57 6.2 1.56 9.55q0 3.04 1.69 4.73C4.67 15.7 6.61 16 8 16h.03l3.07-.01c.13 0 .24-.1.24-.24v-3.1q-.01-.21-.24-.23H8c-.11 0-2.75-.05-2.8-2.85q-.03-1.3.7-2.04A3.3 3.3 0 0 1 8 6.68"/><path fill="#40a0ff" d="M13.9 0h-2.5a.6.6 0 0 0-.54.55V6.2H8c-.06 0-1.5 0-2.46.99a3 3 0 0 0-.8 2.32c.07 3.33 3.23 3.36 3.26 3.36h5.9c.27 0 .54-.27.54-.54V.54A.6.6 0 0 0 13.9 0"/></svg>