<svg xmlns="http://www.w3.org/2000/svg" viewBox="0 0 16 16"><path fill="#a0a0a0" d="m11.8 4.4-1.36-1.9A6.5 6.5 0 0 0 10.5 13l1.35-1.85a4.2 4.2 0 0 1 0-6.75z"/><path fill="#a0a0a0" d="M9.5 2.45h.1V2.4c.1-.15.3-.3.5-.4L8.6 0c-.5.35-.96.8-1.36 1.2s-.8.8-1.1 1.25h.15A9.5 9.5 0 0 0 7 14h-.85a10 10 0 0 0 2 2l.4-.5h.05l1.5-1.95A7.15 7.15 0 0 1 9.5 2.5z"/><path fill="#40a0ff" d="M11.34 11.6a4.2 4.2 0 0 1 0-6.75L10 3a6.5 6.5 0 0 0 0 10.5z"/><path fill="#40a0ff" d="M9.6 14a7.15 7.15 0 0 1 0-11.55H6.1A9.6 9.6 0 0 0 6.1 14"/></svg>