<svg xmlns="http://www.w3.org/2000/svg" viewBox="0 0 16 16"><path fill="#a0ff40" d="m7.65 8.18-.25.55-.8 2.2q-.1.52-.05 1.05c.9.33 1.89.35 2.8.05l-.3-.3a11 11 0 0 1-1.4-3.55"/><path fill="#a0ff40" d="M5.55 4.53a4.25 4.25 0 0 0 0 6.95c.25-1.1.9-2.1 1.85-4.1l-.2-.5a6 6 0 0 0-1-1.8l-.7-.55"/><path fill="#40ff40" d="M11.7 12.88a6 6 0 0 1-1.45-.3 5.1 5.1 0 0 1-5.6-8.35c-.3-.1-.55-.2-.9-.2-1.5 0-3 .85-3.7 3.1l-.05.9a8 8 0 0 0 14.5 4.6 9 9 0 0 1-2.8.25"/><path fill="#40a0ff" d="m10.2 11.33.3.1a4.25 4.25 0 0 0-3.85-7.4 9.5 9.5 0 0 1 1.7 3.95q.48 1.43 1.2 2.75c.2.35.5.6.6.65"/><path fill="#40a0ff" d="M8 .03a8 8 0 0 0-6.5 3.35 4.2 4.2 0 0 1 4.5 0q.89-.45 2-.45c2.8 0 5.1 2.3 5.1 5.1 0 1.4-.6 2.7-1.5 3.6l.7.05c.9 0 1.85-.2 2.55-.8q.74-.59 1.1-1.85l.05-1a8 8 0 0 0-8-8"/></svg>