<svg xmlns="http://www.w3.org/2000/svg" viewBox="0 0 16 16"><path fill="#a0a0a0" d="M6.35 9.5s.3-1-.9-2.4H5.4c-1.99-2.07-.3-5.74 2.55-5.6 2.8-.15 4.5 3.4 2.65 5.5-1.1 1.1-1 2.5-1 2.5 2-.7 3.35-2.55 3.35-4.65A5 5 0 0 0 8.3 0h-.6C2.43.36 1.4 7.7 6.35 9.5"/><path fill="#a0a0a0" d="m12.7 13.4.65-.1c.01-.21-.11-.43-.2-.6-.36-.07-.87-.19-1.1-.45a.3.3 0 0 1-.1-.4l.15-.1H12c-.1-.14-.37-.2-.5-.3-.55-.02-1.52.07-1.8-.5a3 3 0 0 1-.55-.05c-.49 1.1 1.56.95 1.65 1.75.25.8-1 1.54-2.85 1.54s-3.1-.74-2.8-1.54c.11-.78 1.96-.7 1.65-1.75l-.75.1-.1.2c-.4.25-1.03.25-1.5.25-.14.1-.6.29-.65.35q.27.25.1.55c-.27.17-.78.37-1.1.45-.08.16-.14.4-.15.6.38.02.8.13 1.1.4.05.14.1.3 0 .44 0 .15-.15.3-.35.5l.9.55c.95-.38 2.5-.42 3 .65.47.01 1.22.08 1.7.05.04-.5.64-.77 1.05-.95.6.03 1.25-.1 1.85.15l.15-.1c.2-.06.51-.35.7-.5a1 1 0 0 1-.45-.9z"/><path fill="#40a0ff" d="M5.5 4.9a2 2 0 0 0 .8 1.6A3.5 3.5 0 0 1 7.4 9l-.1 3.3c-.65.1-1.1.3-1.1.55 0 .35.8.7 1.8.7s1.75-.35 1.75-.7c0-.25-.45-.5-1.1-.55l-.1-3.25A3.5 3.5 0 0 1 9.7 6.5a2 2 0 0 0 .75-1.6c0-1.15-1.1-2.1-2.5-2.1-1.35 0-2.45.95-2.45 2.1"/></svg>