<svg xmlns="http://www.w3.org/2000/svg" viewBox="0 0 16 16"><path fill="#e0e0e0" d="M5.44 7a2 2 0 0 0-1.9 1.37l-.25.77A4.6 4.6 0 0 1 5.3 7.9q.25-.48.58-.89z"/><path fill="#e0e0e0" d="M2.03 12.9 2 13V7c0-1.1.9-2 2-2h11c.55 0 1-.45 1-1s-.45-1-1-1H8L6.59 1.59A2 2 0 0 0 5.17 1H2a2 2 0 0 0-2 2v10c0 1.1.9 2 2 2h.86a4.6 4.6 0 0 1-.83-2.1"/><path fill="#e0e0e0" d="M14 7h-.88q.6.75.88 1.69c.8.24 1.48.72 2 1.34V9a2 2 0 0 0-2-2"/><path fill="#e0e0e0" d="M13.14 9.53a3.66 3.66 0 0 0-7.1-.79A3.65 3.65 0 0 0 6.66 16h6.09a3.25 3.25 0 0 0 .39-6.47"/></svg>