<svg xmlns="http://www.w3.org/2000/svg" viewBox="0 0 16 16"><path fill="#6060ff" d="M10.89 6 6 15.72l5.33-4.55z"/><path fill="#40ff40" d="m15.67 16-6.61-2.67L5.94 16z"/><path fill="#ff4040" d="m16 15.94-4.89-9.77.72 8.05z"/><path fill="#e0e0e0" d="m11.61 14.17-.28-2.78-2.1 1.83z"/><path fill="#e0e0e0" d="M14 7h-1.35l3.27 6.54Q16 13.3 16 13V9a2 2 0 0 0-2-2"/><path fill="#e0e0e0" d="M9.26 7H5.44a2 2 0 0 0-1.9 1.37L2 13V7c0-1.1.9-2 2-2h11c.55 0 1-.45 1-1s-.45-1-1-1H8L6.59 1.59A2 2 0 0 0 5.17 1H2a2 2 0 0 0-2 2v10c0 1.1.9 2 2 2h3.21z"/></svg>