<svg xmlns="http://www.w3.org/2000/svg" viewBox="0 0 16 16"><path fill="#40a0ff" d="M11.54 2.63q.76-.54 1-1.45c.25.8-.1 1.5-.5 2.2q1.22-1.02 2.65-1.7c-.3.85-1.05 1.4-1.6 2 .15.9 1.15.85 1.85.75.5-.2.8-.7 1-1.15.1.6 0 1.3-.3 1.85.2.45.4.95.35 1.5l-.4.6q-.22-.39-.6-.7-.52-.14-1.05-.05c.3.5.8.8 1.35.84-.8 1.2-2.3.2-3.45.25-.15 0-.4 0-.45.2 0 .45.15.85.1 1.25-.25 1.4-.45 2.8.2 4.1l-.9-.15-.15.4c.15.25.4.5.65.65l-.15.3-.3.1-.25.4a2.5 2.5 0 0 0-1.25 0l-.8-.3q.24-.61.25-1.3c-.15-.55-.9-.55-1.15-1.1-.35-.5-.5-1-.6-1.6-.5-.25-.8-.7-1.35-.8 0 .75-.35 1.5-.85 2.05l.05.75.6.5c-.5.4-1.15.5-1.8.5l-.44-.45q.24-.75.1-1.5l.24-.7C1.15 12.02-1.3 8.42.8 6.67c-.7 1.6.7 3.75 2.4 2.5-.4-1.64.5-3.5 2.25-3.84.9-.3 1.3-1.2 2-1.65l-.35-.4c.45-.15.75-.5.8-1l2.2-.5c.25.1.5.25.8.3.2.2.3.65.65.5M9.4 10.22c0 .5 0 1 .35 1.25v-1.3z"/></svg>