<svg xmlns="http://www.w3.org/2000/svg" viewBox="0 0 16 16"><path fill="#6060ff" d="M14 3H8L6.59 1.59A2 2 0 0 0 5.17 1H2a2 2 0 0 0-2 2v10c0 1.1.9 2 2 2h3.12l-2.59-2.6c-.7-.7-.7-1.85 0-2.56l4.06-4.06a1.86 1.86 0 0 1 2.57 0q.2.21.34.5.13-.29.34-.5a1.86 1.86 0 0 1 2.57 0L16 9.38V5a2 2 0 0 0-2-2"/><path fill="#6060ff" d="M14 15a2 2 0 0 0 2-2v-.12L13.88 15z"/><path fill="#6060ff" d="M5.25 11.41a.4.4 0 0 1 0-.57l3.2-3.2a.8.8 0 0 0 0-1.15.8.8 0 0 0-1.15 0l-4.06 4.06a.8.8 0 0 0 0 1.15l4.06 4.06a.8.8 0 0 0 1.15 0 .8.8 0 0 0 0-1.15z"/><path fill="#6060ff" d="M13.75 11.41a.4.4 0 0 0 0-.57l-3.2-3.2a.8.8 0 0 1 0-1.15.8.8 0 0 1 1.15 0l4.06 4.06a.8.8 0 0 1 0 1.15l-4.06 4.06a.8.8 0 0 1-1.15 0 .8.8 0 0 1 0-1.15z"/></svg>