<svg xmlns="http://www.w3.org/2000/svg" viewBox="0 0 16 16"><path fill="#6060ff" d="m3.54 8.37-.23.7L5.36 7a2 2 0 0 0-1.82 1.36"/><path fill="#6060ff" d="m2.53 12.4-.23-.29L2 13V7c0-1.1.9-2 2-2h11c.55 0 1-.45 1-1s-.45-1-1-1H8L6.59 1.59A2 2 0 0 0 5.17 1H2a2 2 0 0 0-2 2v10c0 1.1.9 2 2 2h3.12z"/><path fill="#6060ff" d="M14 7h-.37L16 9.37V9a2 2 0 0 0-2-2"/><path fill="#6060ff" d="M14 15a2 2 0 0 0 2-2v-.12L13.88 15z"/><path fill="#6060ff" d="M5.25 11.41a.4.4 0 0 1 0-.57l3.2-3.2a.8.8 0 0 0 0-1.15.8.8 0 0 0-1.15 0l-4.06 4.06a.8.8 0 0 0 0 1.15l4.06 4.06a.8.8 0 0 0 1.15 0 .8.8 0 0 0 0-1.15z"/><path fill="#6060ff" d="M13.75 11.41a.4.4 0 0 0 0-.57l-3.2-3.2a.8.8 0 0 1 0-1.15.8.8 0 0 1 1.15 0l4.06 4.06a.8.8 0 0 1 0 1.15l-4.06 4.06a.8.8 0 0 1-1.15 0 .8.8 0 0 1 0-1.15z"/></svg>