<svg xmlns="http://www.w3.org/2000/svg" viewBox="0 0 16 16"><path fill="#ffa040" d="M6.22 3.47c1.5-.1 2.01-1.05 3.76-1.2.86-.1 1.4.1 1.5.4 0 .3-.4.5-.9.5-.75.1-1.05-.2-1.1-.4-.55 0-.65.25-.6.45.05.3.7.6 1.86.5 1.25-.1 1.65-.6 1.55-1.1-.1-.65-1.1-1.2-2.86-1.05-2.25.2-2.2 1.25-3.76 1.35-.6.1-1-.05-1-.3-.1-.25.25-.4.6-.4a2 2 0 0 1 .95.1c.1-.05.16-.15.16-.2-.06-.25-.5-.35-1.1-.3-1.16.1-1.16.6-1.11.8.1.6 1 1 2.05.9z"/><path fill="#ffa040" d="M3.12 4.97c1.4.36 3.15.5 5.36.5s3.96-.14 5.31-.5C15.3 4.62 16 4.12 16 3.72q0-.54-.9-.85c.15.05.25.2.25.35 0 .5-.65.85-2 1.15-3.18.7-6.46.7-9.63 0-1.3-.3-2-.65-2-1.1 0-.2.1-.35.4-.55-.86.3-1.26.6-1.26 1 0 .45.75.9 2.26 1.25"/><path fill="#ffa040" d="M13.9 6.08c-3.54.75-7.2.75-10.73 0-1.3-.3-2-.65-2.2-1 .1.8.34 1.6.6 2.35l-.91.75a3 3 0 0 0-.65 2.1C.06 11 .4 11.5 1 12s1.2.6 1.9.5l.9-.3c-.6 0-1.1-.2-1.6-.6s-.9-.95-1-1.6c-.1-.6 0-1.2.35-1.7L1.8 8l.7 1.5L4 11.75q.38.67.51 1.36c.35.5.85.8 1.5 1 .76.25 1.56.4 2.36.35h.1c.8 0 1.7-.1 2.5-.35.5-.2 1.01-.5 1.41-1h.05c.1-.5.25-.9.45-1.36l1.6-2.3A14 14 0 0 0 16 5.02q-.44.68-2.16 1.06z"/></svg>