<svg xmlns="http://www.w3.org/2000/svg" viewBox="0 0 16 16"><path fill="#40a0ff" d="M9.42 12.44v1.94q0 .16-.15.25c-1.56.37-3.17.4-4.74.1C.39 13.8-1.1 8.71.84 5.21a6.4 6.4 0 0 1 2.4-2.24c1.04-.5 2.29-.8 3.68-.8l1.5.05 1 .25.1.25V4.8q0 .16-.15.1c-.35-.15-.75-.3-1.1-.35l-1.4-.1c-.84 0-1.6.15-2.19.5q-.93.51-1.45 1.45a5 5 0 0 0-.25 3.69c.29.84.88 1.55 1.65 2q1.08.52 2.3.49h1.3q.58-.07 1.14-.3v.15z"/><path fill="#40a0ff" d="M11.51 7.55h-1.15q-.08 0-.1-.15V5.46c0-.05 0-.1.1-.1h1.15c0-.5-.02-1 .1-1.5a3.1 3.1 0 0 1 3.3-2.79c.29 0 .75-.05.99.15l.1.15v1.9c0 .1 0 .14-.15.1-.32.01-.9-.07-1.15.1-.2.1-.35.24-.4.5-.16.36-.15.88-.15 1.29h1.65l.1.05.05.15v1.9q0 .14-.15.14h-1.6v7.08l-.05.1-.14.05h-2.35c-.1 0-.15 0-.15-.15z"/></svg>