<svg xmlns="http://www.w3.org/2000/svg" viewBox="0 0 16 16"><path fill="#ffa040" d="m6.78 14.48-.05-3.4c-.4-.6-.17-1.28-.1-1.5l.42-.6a8 8 0 0 1-.47-1.79L6.67 7H5.44a2 2 0 0 0-1.9 1.37L2 13V7c0-1.1.9-2 2-2h11c.55 0 1-.45 1-1s-.45-1-1-1H8L6.59 1.59A2 2 0 0 0 5.17 1H2a2 2 0 0 0-2 2v10c0 1.1.9 2 2 2h5.42z"/><path fill="#ffa040" d="M16 10.91c-.08-.28-.13-.56-.4-.73-.08.09-1.5.36-1.3.62-.09.14 0 .42.06.56-.3.22-.14 1.12.17 1.19h-.23c.2-.23-.32-.69-.5-.85.16 0 .22.11.33.06a2.5 2.5 0 0 0-.85-.68c.29.06.57.28.85.4-.22-.46-1.86-1.7-1.41-.4-.2.05.1.48-.17.5.5-2.51-2.88-1.66-3.22.23.68-.56 1.47-1.12 2.43-.95-1.13-.12-2.37.67-2.7 1.75s.27-.74.27-.74c.08-1.05-.83-.92-1.58-1.01-.04.35.14 2.37.06 2.82.16.03.36.16.4.34.24.17 1.48 1.04 1.46 1.35-.18.27.88.37.96.45.75-1.25-.71-1.53-1.24-2.54.62-1.01 2.54-.11 3.1-1.47 0 1.13 1.59.85 2.38.96l-.17-.1.28.16-.74-.06.12.17c-.23-.2-.84-.09-1.13-.1 2.95.5-.84.92.22 2.64l1.58-.56c.06-1.37.87-2.71.96-4m-6.67 2.26c-.03-.1-.08-.46-.22-.45.11-.11.28-.23.5-.28a.6.6 0 0 0-.33.4c.01.03.6-.28.62-.3-.34.12-.57.35-.57.69zm1.3-.85q.44-.01.8-.28c-.23.11-.63.11-1.02.17.56-.06 1.07-.17 1.4-.56-.1.45-.67.6-1.18.67m2.43-.34q.47.46 1.13.57c-.45 0-.9-.23-1.13-.57"/><path fill="#e0e0e0" d="m13.34 15.43-.17-.45q-.26.4-.68.56c.23 0 .68 0 .68.23l-.73-.17c.16.3 1.07.56.9-.23z"/><path fill="#e0e0e0" d="M11.48 15.6h-.34l.5-.12c-.27-.1-.44-.4-.67-.62-.37 1.57-.28 1.2.96.74z"/><path fill="#e0e0e0" d="M12.38 15.54c-.07-.05-.7-.01-.17.06z"/><path fill="#e0e0e0" d="M13.85 10c.3 1.01 2.27.2 2.14-.67-.62.23-1.69.28-2.14.68m1.92-.22c-.17 0-.17-.28 0-.28v-.06c.17 0 .11.34 0 .34"/><path fill="#e0e0e0" d="M7.58 9.9c-.28.84.23.84.96.9 2.2.25.02-.9-.96-.9m.4.62c-.17.17-.34-.17-.17-.34v.05c.17-.17.34.17.17.29"/><path fill="#e0e0e0" d="M14.08 13.17c0 .11-.06.28-.17.4.22-.7-1.25-.59-1.42-1.36-.17.34-.45.56-.84.56l.34-.33c-.57.56-3.73.22-1.87 1.52.8 1.14 2.64 2.35 3.22.34-.95.34 1.48-1 .73-1.13m-4.3.06c0 .17.23.34.17.45-.05 0-.5-.45-.17-.45m2.04-.4c-.1.38-.05.68-.12 1.07.12.46.4-.22.57-.05-.19.47-.48.43-.8.22.57-.79-.56-.96-1.12-.79.28-.56 1.13.17 1.47-.45m-1.3.68c-.13-.17 1.79-.17.5.11-.22.06-.33-.17-.5-.11m1.03 1.44-.07.2c-.4-.51.79-.8.84-.4a.56.56 0 0 0-.77.2m.38-.48c-.1-.02-.75.07-.73-.06.38-.24 2.22-.1.73.06m1.19-.85c-.5.05-1.15-.3-1.08-.85.23.57.85.4 1.3.4-.17.17-.56.23-.79.17.17.34.62 0 .9 0q-.16.15-.33.28"/><path fill="#e0e0e0" d="M9.45 7.3c-.46.17-.17.28 0 .56.28-.05.1-.45 0-.56"/><path fill="#e0e0e0" d="M9.05 7.35c.28-.05.8-.39.85-.67-.28.22-1.3.34-.85.67"/><path fill="#e0e0e0" d="m9.05 8.03-.4-.28c-.05.34-.16 0-.05-.11 1.12.54.6.23.06-.57-.29 0-.57.57-.63.85.23.79-.4-.68-.56-.8.17 1.42.17 1.93 1.58.91"/><path fill="#e0e0e0" d="M8.2 9.5c-.45.56.34.56.68.62.2-.98 1.36-1.67 1.58-2.6-.73.5-2.83.95-2.26 1.98"/><path fill="#e0e0e0" d="M14.41 9.56c1.27.01.2-3.04-.45-3.56-.07.45.76 1.2-.11.96.22-.34-.96-.96-1.24-.96.22.4.96.56 1.13 1.07-1.99-1.43-.96-.62-.34.45-.45-.17-.8-.62-1.24-.67.35.33.85 1.11 1.4.9.05.33-.79.2-1.12.28-.45.25 1.94.71 1.97 1.58z"/></svg>