<svg xmlns="http://www.w3.org/2000/svg" viewBox="0 0 16 16"><path fill="#ff40a0" d="M14 3H8L6.59 1.59A2 2 0 0 0 5.17 1H2a2 2 0 0 0-2 2v10c0 1.1.9 2 2 2h2.62a3.34 3.34 0 0 1 3.05-4.67h.02l-.15-.19a1.7 1.7 0 0 1 .05-1.69l1.66-2.67a1.67 1.67 0 0 1 2.83 0l1.67 2.67c.32.51.33 1.16.04 1.7l-.14.18h1.02q.75.01 1.33.43V5a2 2 0 0 0-2-2"/><path fill="#ff40a0" d="M10.1 6.31 8.44 8.98A.67.67 0 0 0 9 10h3.33c.53 0 .85-.58.57-1.02l-1.67-2.67a.67.67 0 0 0-1.13 0"/><path fill="#ff40a0" d="M11.33 12.67c0-.74.6-1.34 1.34-1.34h2c.73 0 1.33.6 1.33 1.34v2c0 .73-.6 1.33-1.33 1.33h-2c-.74 0-1.34-.6-1.34-1.33z"/><circle cx="7.67" cy="13.67" r="2.33" fill="#ff40a0"/></svg>