<svg xmlns="http://www.w3.org/2000/svg" viewBox="0 0 16 16"><path fill="#ff40a0" d="M4.33 13.67c0-1.84 1.5-3.34 3.34-3.34h.02l-.15-.19a1.7 1.7 0 0 1 .05-1.69L8.49 7H5.44a2 2 0 0 0-1.9 1.37L2 13V7c0-1.1.9-2 2-2h11c.55 0 1-.45 1-1s-.45-1-1-1H8L6.59 1.59A2 2 0 0 0 5.17 1H2a2 2 0 0 0-2 2v10c0 1.1.9 2 2 2h2.62a3 3 0 0 1-.29-1.33"/><path fill="#ff40a0" d="M14 7h-1.16l.9 1.45c.33.51.34 1.16.05 1.7l-.14.18h1.02q.76.01 1.33.43V9a2 2 0 0 0-2-2"/><path fill="#ff40a0" d="M10.1 6.31 8.44 8.98A.67.67 0 0 0 9 10h3.33c.53 0 .85-.58.57-1.02l-1.67-2.67a.67.67 0 0 0-1.13 0"/><path fill="#ff40a0" d="M11.33 12.67c0-.74.6-1.34 1.34-1.34h2c.73 0 1.33.6 1.33 1.34v2c0 .73-.6 1.33-1.33 1.33h-2c-.74 0-1.34-.6-1.34-1.33z"/><circle cx="7.67" cy="13.67" r="2.33" fill="#ff40a0"/></svg>