<svg xmlns="http://www.w3.org/2000/svg" viewBox="0 0 16 16"><path fill="#40a0ff" d="M7.42 14.1A1.66 1.66 0 0 1 6 12.63q-.57-.07-.98-.47l-.24-.24a2.37 2.37 0 0 1 0-3.34L6.35 7h-.9a2 2 0 0 0-1.9 1.37L2 13V7c0-1.1.9-2 2-2h11c.55 0 1-.45 1-1s-.45-1-1-1H8L6.59 1.59A2 2 0 0 0 5.17 1H2a2 2 0 0 0-2 2v10c0 1.1.9 2 2 2h5.86a1.7 1.7 0 0 1-.44-.9"/><path fill="#40a0ff" d="M14 15a2 2 0 0 0 2-2v-.76L13.24 15z"/><path fill="#40a0ff" d="M13.43 10.5a.7.7 0 0 0 0-.97L10.3 6.4a1.36 1.36 0 0 0-1.93 0l-2.9 2.9a1.36 1.36 0 0 0 0 1.92l.25.24c.26.27.7.27.96 0l3.15-3.14a.34.34 0 0 1 .48 0l2.16 2.18c.26.26.7.26.96 0"/><path fill="#40a0ff" d="m15.6 9.3-2.9-2.9a1.36 1.36 0 0 0-1.65-.2l2.86 2.85c.53.53.53 1.4 0 1.93s-1.4.53-1.93 0L10.3 9.29a.34.34 0 0 0-.49 0l-2.65 2.65a.7.7 0 0 0 0 .97c.27.26.7.26.97 0l2.4-2.41.49.48-2.41 2.41a.7.7 0 0 0 0 .96c.26.27.7.27.96 0l2.41-2.4.49.48-2.41 2.4a.7.7 0 0 0 0 .97c.26.27.7.27.96 0l4.58-4.58c.53-.53.53-1.4 0-1.93"/></svg>