<svg xmlns="http://www.w3.org/2000/svg" viewBox="0 0 16 16"><path fill="#a0a0a0" d="m15.31 9.34-1.44-.84c-.48-.27-.48-.72 0-1l1.44-.83a1 1 0 0 0 .37-1.37l-1.5-2.6a1 1 0 0 0-1.37-.36l-1.44.83c-.48.28-.87.05-.87-.5V1a1 1 0 0 0-1-1h-3a1 1 0 0 0-1 1v1.67c0 .55-.39.77-.87.5L3.2 2.34a1 1 0 0 0-1.37.36L.32 5.3A1 1 0 0 0 .7 6.67l1.44.83c.48.28.48.73 0 1L.7 9.34a1 1 0 0 0-.37 1.36l1.5 2.6a1 1 0 0 0 1.37.37l1.44-.84c.48-.27.87-.05.87.5V15a1 1 0 0 0 1 1h3a1 1 0 0 0 1-1v-1.67c0-.55.39-.77.87-.5l1.44.83a1 1 0 0 0 1.37-.36l1.5-2.6a1 1 0 0 0-.37-1.36m-6.06.83a2.5 2.5 0 1 1-2.5-4.33 2.5 2.5 0 0 1 2.5 4.33"/></svg>