<svg xmlns="http://www.w3.org/2000/svg" viewBox="0 0 16 16"><path fill="#6060ff" d="M15 3H8L6.59 1.59A2 2 0 0 0 5.17 1H2a2 2 0 0 0-2 2v10c0 1.1.9 2 2 2h3.04Q5 14.88 5 14.75v-7.5l.02-.18a2 2 0 0 0-1.48 1.3L2 13V7c0-1.1.9-2 2-2h11c.55 0 1-.45 1-1s-.45-1-1-1"/><path fill="#6060ff" d="M10.51 10.15a.98.98 0 1 0 .98 1.7.98.98 0 0 0-.98-1.7"/><path fill="#6060ff" d="M14.75 6h-7.5C6.56 6 6 6.56 6 7.25v7.5c0 .69.56 1.25 1.25 1.25h7.5c.69 0 1.25-.56 1.25-1.25v-7.5C16 6.56 15.44 6 14.75 6m-1.46 5.2.57.32c.18.1.25.35.14.54l-.59 1.01a.4.4 0 0 1-.53.14l-.57-.32c-.18-.11-.33-.02-.33.2v.64a.4.4 0 0 1-.4.4h-1.17a.4.4 0 0 1-.39-.4v-.65c0-.21-.15-.3-.33-.2l-.57.33a.4.4 0 0 1-.53-.14L8 12.06a.4.4 0 0 1 .14-.54l.57-.32c.18-.11.18-.29 0-.4l-.57-.32A.4.4 0 0 1 8 9.94l.59-1.01a.4.4 0 0 1 .53-.14l.57.32c.18.11.33.02.33-.2v-.64c0-.22.18-.4.4-.4h1.17a.4.4 0 0 1 .39.4v.65c0 .21.15.3.33.2l.57-.33a.4.4 0 0 1 .53.14L14 9.94a.4.4 0 0 1-.14.54l-.57.32c-.18.11-.18.29 0 .4"/></svg>