<svg xmlns="http://www.w3.org/2000/svg" viewBox="0 0 16 16"><path fill="#40a0ff" d="m12.95 4.65-1.4.55h-.1l-1.4-.55a.31.31 0 0 0-.23.58l1.56.62q.12.05.24 0l1.56-.62a.3.3 0 0 0 .17-.4.3.3 0 0 0-.4-.18"/><path fill="#40a0ff" d="M14 2H2a2 2 0 0 0-2 2v8c0 1.1.9 2 2 2h12a2 2 0 0 0 2-2V4a2 2 0 0 0-2-2M6 4a2 2 0 1 1 0 4 2 2 0 0 1 0-4m3 8H3c-1.13 0-1.4-1.59-.32-1.95l3-1a1 1 0 0 1 .64 0l3 1c1.07.36.81 1.95-.32 1.95m5-4.87c0 .34-.28.62-.62.62H9.62A.63.63 0 0 1 9 7.13v-2.5c0-.35.28-.63.63-.63h3.74c.35 0 .63.28.63.63z"/></svg>