<svg xmlns="http://www.w3.org/2000/svg" viewBox="0 0 16 16"><circle cx="8" cy="8" r="1.56" fill="#6060ff"/><path fill="#6060ff" d="M14 0H2a2 2 0 0 0-2 2v12c0 1.1.9 2 2 2h12a2 2 0 0 0 2-2V2a2 2 0 0 0-2-2m-2.33 8.31.9.52c.3.18.4.56.23.86l-.94 1.62c-.17.3-.55.4-.85.23l-.9-.52c-.3-.17-.55-.03-.55.31v1.05c0 .34-.28.62-.62.62H7.06a.63.63 0 0 1-.62-.62v-1.05c0-.34-.25-.48-.54-.31l-.9.52a.63.63 0 0 1-.86-.23L3.2 9.7a.63.63 0 0 1 .23-.86l.9-.52c.3-.17.3-.45 0-.62l-.9-.52a.63.63 0 0 1-.23-.86l.94-1.62c.17-.3.55-.4.85-.23l.9.52c.3.17.55.03.55-.31V3.63c0-.35.28-.63.62-.63h1.88c.34 0 .62.28.62.63v1.04c0 .34.25.48.54.31l.9-.52c.3-.17.69-.07.86.23l.94 1.62c.17.3.07.68-.23.86l-.9.52c-.3.17-.3.45 0 .62"/></svg>