<svg xmlns="http://www.w3.org/2000/svg" viewBox="0 0 16 16"><path fill="#40a0ff" d="M14 3H8L6.59 1.59A2 2 0 0 0 5.17 1H2a2 2 0 0 0-2 2v10c0 1.1.9 2 2 2h.09a3 3 0 0 1-.09-.62v-6.5a2.63 2.63 0 0 1 2.63-2.63h9.75q.93.02 1.62.58V5a2 2 0 0 0-2-2"/><path fill="#40a0ff" d="m13.52 8.4-1.13.45h-.1l-1.12-.45a.25.25 0 0 0-.19.47l1.27.51q.1.03.19 0l1.27-.5q.21-.11.14-.34a.25.25 0 0 0-.33-.14"/><path fill="#40a0ff" d="M14.38 6.25H4.62C3.74 6.25 3 6.98 3 7.88v6.5c0 .89.73 1.62 1.63 1.62h9.75c.89 0 1.62-.73 1.62-1.62v-6.5c0-.9-.73-1.63-1.62-1.63m-6.5 1.63a1.63 1.63 0 1 1 0 3.25 1.63 1.63 0 0 1 0-3.26m2.43 6.5H5.44c-.92 0-1.13-1.3-.26-1.59l2.44-.81a1 1 0 0 1 .51 0l2.44.81c.87.3.66 1.59-.26 1.59m4.06-3.97a.5.5 0 0 1-.5.51h-3.05a.5.5 0 0 1-.5-.5V8.37c0-.28.22-.5.5-.5h3.05c.28 0 .5.22.5.5z"/></svg>