<svg xmlns="http://www.w3.org/2000/svg" viewBox="0 0 16 16"><path fill="#40a0ff" d="M15 9h-1V7h1c.55 0 1-.45 1-1s-.45-1-1-1h-1V4a2 2 0 0 0-2-2h-1V1c0-.55-.45-1-1-1S9 .45 9 1v1H7V1c0-.55-.45-1-1-1S5 .45 5 1v1H4a2 2 0 0 0-2 2v1H1c-.55 0-1 .45-1 1s.45 1 1 1h1v2H1c-.55 0-1 .45-1 1s.45 1 1 1h1v1c0 1.1.9 2 2 2h1v1c0 .55.45 1 1 1s1-.45 1-1v-1h2v1c0 .55.45 1 1 1s1-.45 1-1v-1h1a2 2 0 0 0 2-2v-1h1c.55 0 1-.45 1-1s-.45-1-1-1m-4 3H5a1 1 0 0 1-1-1V5a1 1 0 0 1 1-1h6a1 1 0 0 1 1 1v6a1 1 0 0 1-1 1"/><path fill="#40a0ff" d="M10 9a1 1 0 0 1-1 1H7a1 1 0 0 1-1-1V7a1 1 0 0 1 1-1h2a1 1 0 0 1 1 1z"/></svg>