<svg xmlns="http://www.w3.org/2000/svg" viewBox="0 0 16 16"><path fill="#40a0ff" d="M6.28 13.84a1.63 1.63 0 0 1-.7-2.84 1.62 1.62 0 0 1 .7-2.84q.1-.67.55-1.16H5.44a2 2 0 0 0-1.9 1.37L2 13V7c0-1.1.9-2 2-2h11c.55 0 1-.45 1-1s-.45-1-1-1H8L6.59 1.59A2 2 0 0 0 5.17 1H2a2 2 0 0 0-2 2v10c0 1.1.9 2 2 2h4.83a2.2 2.2 0 0 1-.55-1.16"/><path fill="#40a0ff" d="m15.66 7.88.06.28.12.05z"/><path fill="#40a0ff" d="m15.84 13.8-.12.04q-.02.15-.06.28z"/><path fill="#40a0ff" d="M15.38 11.63h-.63v-1.26h.63c.34 0 .62-.28.62-.62s-.28-.62-.62-.62h-.63V8.5c0-.69-.56-1.25-1.25-1.25h-.62v-.62c0-.35-.29-.63-.63-.63s-.62.28-.62.63v.62h-1.26v-.62c0-.35-.28-.63-.62-.63s-.62.28-.62.63v.62H8.5c-.69 0-1.25.56-1.25 1.25v.63h-.62c-.35 0-.63.28-.63.62s.28.63.63.63h.62v1.24h-.62c-.35 0-.63.29-.63.63s.28.63.63.63h.62v.62c0 .69.56 1.25 1.25 1.25h.63v.63c0 .34.28.62.62.62s.63-.28.63-.62v-.63h1.24v.63c0 .34.29.62.63.62s.63-.28.63-.62v-.63h.62c.69 0 1.25-.56 1.25-1.25v-.62h.63c.34 0 .62-.29.62-.63s-.28-.62-.62-.62m-2.5 1.87H9.12a.6.6 0 0 1-.62-.62V9.12c0-.34.28-.62.63-.62h3.74c.35 0 .63.28.63.63v3.74c0 .35-.28.63-.62.63"/><path fill="#40a0ff" d="M12.25 11.63c0 .34-.28.62-.62.62h-1.26a.63.63 0 0 1-.62-.62v-1.26c0-.34.28-.62.63-.62h1.24c.35 0 .63.28.63.63z"/></svg>