<svg xmlns="http://www.w3.org/2000/svg" viewBox="0 0 16 16"><path fill="#40a0ff" d="M7 14.65a2 2 0 0 1-.64-.65 2 2 0 0 1-.25-.88V8.88c0-.6.37-1.23.89-1.53L7.6 7H5.44a2 2 0 0 0-1.9 1.37L2 13V7c0-1.1.9-2 2-2h11c.55 0 1-.45 1-1s-.45-1-1-1H8L6.59 1.59A2 2 0 0 0 5.17 1H2a2 2 0 0 0-2 2v10c0 1.1.9 2 2 2h5.6z"/><path fill="#40a0ff" d="M15.89 8.5a1 1 0 0 0-.27-.29L11.94 6.1a1 1 0 0 0-.77 0L7.5 8.21a1 1 0 0 0-.39.67v4.24q0 .19.12.38.1.19.27.29l3.67 2.12c.21.12.56.12.77 0l3.68-2.12q.16-.1.27-.29a1 1 0 0 0 .11-.38V8.88a1 1 0 0 0-.11-.38m-4.33 5.46a2.97 2.97 0 1 1 2.56-4.44l-1.28.74a1.48 1.48 0 1 0 0 1.48l1.28.74a3 3 0 0 1-2.56 1.48m2.96-2.8h-.33v.33h-.33v-.33h-.33v-.32h.33v-.33h.33v.33h.33zm1.23 0h-.33v.33h-.33v-.33h-.32v-.32h.32v-.33h.33v.33h.33z"/></svg>