<svg xmlns="http://www.w3.org/2000/svg" viewBox="0 0 16 16"><path fill="#ffff40" d="M15 3H8L6.59 1.59A2 2 0 0 0 5.17 1H2a2 2 0 0 0-2 2v10c0 1.1.9 2 2 2h5.93A4.98 4.98 0 0 1 9.4 7.59q-.2-.26-.27-.59H5.44a2 2 0 0 0-1.9 1.37L2 13V7c0-1.1.9-2 2-2h11c.55 0 1-.45 1-1s-.45-1-1-1"/><path fill="#ffff40" d="M13.81 6.63c0 .34-.28.62-.62.62h-2.5a.63.63 0 0 1-.63-.62c0-.35.28-.63.63-.63h2.5c.34 0 .62.28.62.63"/><path fill="#ffff40" d="m15.21 9.54.48-.48a.63.63 0 0 0 0-.88.63.63 0 0 0-.88 0l-.48.48a4.06 4.06 0 1 0 .88.88m-2.65 2.4c0 .34-.28.62-.62.62s-.63-.28-.63-.62V9.75c0-.34.28-.62.63-.62s.62.28.62.62z"/></svg>