<svg xmlns="http://www.w3.org/2000/svg" viewBox="0 0 16 16"><path fill="#6060ff" d="M9.54 7.49h1.03v1.03H9.54z"/><path fill="#6060ff" d="M14.17 3.25 9.03.28a2 2 0 0 0-2.06 0L1.83 3.25A2 2 0 0 0 .8 5.03v5.94c0 .74.39 1.42 1.03 1.78l5.14 2.97c.64.37 1.42.37 2.06 0l5.14-2.97a2 2 0 0 0 1.03-1.78V5.03c0-.74-.39-1.42-1.03-1.78M4.55 9.39a.51.51 0 0 0 .88-.36.51.51 0 0 1 .88-.36q.15.15.15.36a1.54 1.54 0 1 1-3.1 0V6.97a1.54 1.54 0 1 1 3.1 0 .51.51 0 0 1-.88.37q-.15-.16-.15-.37c0-.2-.06-.27-.15-.36a.51.51 0 0 0-.88.36v2.06q0 .22.15.36m7.57-.88a.51.51 0 1 1 0 1.03h-.52v.52a.51.51 0 1 1-1.03 0v-.52H9.54v.52a.51.51 0 1 1-1.03 0v-.52H8a.51.51 0 1 1 0-1.03h.51V7.5H8a.51.51 0 0 1-.36-.88q.15-.15.36-.15h.51v-.52a.51.51 0 1 1 1.03 0v.52h1.03v-.52a.51.51 0 0 1 .88-.36q.15.16.15.36v.52h.52a.51.51 0 0 1 .36.88q-.16.15-.36.15h-.52v1.03z"/></svg>