<svg xmlns="http://www.w3.org/2000/svg" viewBox="0 0 16 16"><path fill="#e0e0e0" fill-rule="evenodd" d="M8 11.9c3.5 4.85 7-1.35 7-5.04C15 2.46 10.5 0 8 0 3.9 0 0 3.4 0 8c0 5.15 4.5 8 8 8-.8-.1-3.5-.7-3.5-6.8 0-4.14 1.35-5.8 3.5-5.04 0 0 2.35.9 2.35 3.9S8 11.9 8 11.9" clip-rule="evenodd"/><path fill="#6060ff" fill-rule="evenodd" d="M8 4.16c-2.35-.8-5.2 1.1-5.2 5C2.8 15.45 7.45 16 8 16c4.1 0 8-3.4 8-8C16 2.87 11.5.02 8 .02c1-.15 5.25 1.05 5.25 6.9 0 3.84-3.2 5.9-5.25 5-.05 0-2.35-.9-2.35-3.9S8 4.2 8 4.2z" clip-rule="evenodd"/></svg>