<svg xmlns="http://www.w3.org/2000/svg" viewBox="0 0 16 16"><path fill="#40ffa0" fill-rule="evenodd" d="M11.4 1.26a6 6 0 0 0-.76-.38L10.5.83q-.18-.08-.36-.13a6.71 6.71 0 1 0-3.38 12.96v1.92c4.03-.6 7.6-3.8 7.87-7.98a7 7 0 0 0-3.23-6.34" clip-rule="evenodd"/><path fill="#6060ff" fill-rule="evenodd" d="M6.7 3.66q.33-.03.55.2.16.18.25.39c.23.5.36 1.2.08 1.59a2.2 2.2 0 0 1-1.37-1.07q-.12-.21-.12-.46a.7.7 0 0 1 .61-.65" clip-rule="evenodd"/><path fill="#6060ff" fill-rule="evenodd" d="M4.74 6.43q.2.15.42.25a2 2 0 0 0 1.69-.04c-.2-.54-.63-.97-1.16-1.2a1.3 1.3 0 0 0-.6-.1.61.61 0 0 0-.35 1.09" clip-rule="evenodd"/><path fill="#6060ff" fill-rule="evenodd" d="M6.85 7.62c-.27-.18-.82-.11-1.15-.1q-.3 0-.57.12-.24.08-.42.25A.63.63 0 0 0 5.19 9q.27 0 .5-.11c.5-.22 1.09-.8 1.16-1.26" clip-rule="evenodd"/><path fill="#6060ff" fill-rule="evenodd" d="M7.75 8.3a2.3 2.3 0 0 0-1.29 1.22q-.1.22-.1.45a.66.66 0 0 0 1.13.47q.15-.21.24-.42c.22-.46.3-1.29.02-1.71" clip-rule="evenodd"/><path fill="#6060ff" fill-rule="evenodd" d="M8.63 5.83a2 2 0 0 0 1.28-1.1q.1-.21.11-.46a.66.66 0 0 0-.62-.67.6.6 0 0 0-.55.22q-.15.2-.24.42c-.22.5-.3 1.2.02 1.59" clip-rule="evenodd"/><path fill="#6060ff" fill-rule="evenodd" d="M10.09 10.02q0-.25-.11-.47a2 2 0 0 0-1.23-1.13c-.28.5-.3 1.1-.08 1.63q.09.21.24.39c.4.42 1.21.1 1.18-.42" clip-rule="evenodd"/><path fill="#6060ff" fill-rule="evenodd" d="M11.54 7.85q-.2-.15-.42-.25a2 2 0 0 0-.58-.12q-.57-.04-1.1.2c.2.53.62.95 1.15 1.16q.23.1.5.11a.62.62 0 0 0 .45-1.1" clip-rule="evenodd"/><path fill="#6060ff" d="M6.4 16v-2.05A7.07 7.07 0 1 1 10.26.35l.29.1.08.03a4 4 0 0 1 .56.25l.4.22A7.3 7.3 0 0 1 15 7.62c-.25 4.15-3.7 7.65-8.17 8.32zM8.06.72A6.35 6.35 0 0 0 6.83 13.3l.3.06v1.79c3.93-.77 6.9-3.9 7.14-7.57a6.6 6.6 0 0 0-3.05-6.01 5 5 0 0 0-.84-.4l-.1-.04-.24-.09A6 6 0 0 0 8.06.72"/></svg>