<svg xmlns="http://www.w3.org/2000/svg" viewBox="0 0 16 16"><path fill="#40ff40" d="M1.65 7.28s1.45-2.1 4.3-2.35v-.75C2.75 4.43 0 7.13 0 7.13s1.55 4.5 6 5v-.86c-3.25-.4-4.35-4-4.35-4"/><path fill="#40ff40" d="M5.95 9.63v.74c-2.4-.44-3.1-3-3.1-3S4 6.13 5.95 5.88v.85c-.95-.2-1.8.8-1.8.8s.45 1.66 1.8 2.1"/><path fill="#40ff40" d="M5.95 2.73v1.45h.3c3.65-.15 6 3 6 3s-2.7 3.25-5.55 3.25h-.75v.85h.65c2.6 0 4.5-1.3 6.4-2.9.3.24 1.5.8 1.8 1.1a16 16 0 0 1-8.85 2.54v1.25H16V2.73z"/><path fill="#40ff40" d="M5.95 5.88v-.95h.3c2.6-.1 4.35 2.25 4.35 2.25S8.75 9.73 6.75 9.73c-.3 0-.5 0-.8-.1v-2.9c1 .1 1.25.54 1.85 1.6l1.35-1.16s-1-1.3-2.65-1.3H6"/></svg>