<svg xmlns="http://www.w3.org/2000/svg" viewBox="0 0 16 16"><path fill="#40ffa0" d="M15.7 5.89q-.14-.48-.33-.95h-.02A7.9 7.9 0 0 0 7.45.05Q6.89.1 6.33.2A8 8 0 0 0 .26 9.97H.25l.27.86.09.22A8 8 0 0 0 8 15.96c.79.07 1.57-.35 1.84-1.12l.26.85a8 8 0 0 0 5.6-9.81m-3.59-.7-1.33 3.38L9.44 5.2H7.68l.63 1.55C7.07 3.99 2.68 4.92 2.75 8c-.03 3.3 4.8 3.97 5.73.83L7.2 8.4l-.23-.02C6.56 9.85 4.37 9.55 4.4 8c-.01-1.58 2.13-1.88 2.58-.34l1.5-.5 1.41 3.45-1.52 3.69q-.02.09-.1.1A6.5 6.5 0 0 1 1.57 8c0-6.8 9.3-8.85 12.21-2.8zm-1.89 8.73 3.57-8.7a6.4 6.4 0 0 1-3.6 8.8z"/></svg>