<svg xmlns="http://www.w3.org/2000/svg" viewBox="0 0 16 16"><path fill="#40ffa0" d="M14 3H8L6.59 1.59A2 2 0 0 0 5.17 1H2a2 2 0 0 0-2 2v10c0 1.1.9 2 2 2h4.54A6 6 0 1 1 16 7.69V5a2 2 0 0 0-2-2"/><path fill="#40ffa0" d="m15.82 9.68-.2-.6h-.02a5 5 0 0 0-4.96-3.07q-.35.03-.7.1a5 5 0 0 0-3.8 6.12q.06.27.16.54l.06.13A5 5 0 0 0 11 16c.5.04.98-.23 1.15-.71l.16.53a5 5 0 0 0 3.52-6.14m-2.26-.44-.83 2.12-.84-2.12h-1.1l.4.98c-.8-1.73-3.56-1.15-3.5.78-.02 2.07 3 2.49 3.59.52l-.81-.27-.15-.02c-.25.93-1.62.74-1.6-.23 0-1 1.34-1.18 1.62-.21l.94-.32.88 2.17-.95 2.3q0 .06-.06.07A4.06 4.06 0 0 1 6.96 11c0-4.26 5.83-5.54 7.65-1.76zm-1.18 5.47 2.24-5.45a4 4 0 0 1-2.26 5.5z"/></svg>