<svg xmlns="http://www.w3.org/2000/svg" viewBox="0 0 16 16"><path fill="#ffff40" d="M14 3H8L6.59 1.59A2 2 0 0 0 5.17 1H2a2 2 0 0 0-2 2v10c0 1.1.9 2 2 2h1.63a2.4 2.4 0 0 1 .29-1.68L8.2 6.18C8.65 5.44 9.42 5 10.3 5s1.63.44 2.08 1.18L16 12.23V5a2 2 0 0 0-2-2"/><path fill="#ffff40" d="m15.8 13.84-4.3-7.15a1.43 1.43 0 0 0-2.45 0l-4.28 7.15C4.2 14.79 4.89 16 6 16h8.57c1.11 0 1.8-1.21 1.22-2.16m-5.51.73a.71.71 0 1 1 0-1.43.71.71 0 0 1 0 1.43m.71-2.86a.71.71 0 1 1-1.43 0V9.57a.71.71 0 1 1 1.43 0z"/></svg>