<svg xmlns="http://www.w3.org/2000/svg" viewBox="0 0 16 16"><path fill="#6060ff" d="M14 3H8L6.59 1.59A2 2 0 0 0 5.17 1H2a2 2 0 0 0-2 2v10c0 1.1.9 2 2 2h5.65L5.6 12.96a2.3 2.3 0 0 1-.6-1.7l1.7-4.19 3.69-1.84q.54-.26 1.13-.23c.52 0 1.07.35 1.36.64L16 8.74V5a2 2 0 0 0-2-2"/><path fill="#40a0ff" d="m13.9 8.03-1.7-1.68a1.2 1.2 0 0 0-.72-.35q-.33-.02-.63.13L7.72 7.69z"/><path fill="#40a0ff" d="m14.22 14.22-2.9-3.28-3.6-3.22v5.31c0 .53.06.66.31.94l.28.25L10.06 16h4.16z"/><path fill="#6060ff" d="m8.03 13.94-.25-5V7.8l-.06-.06L6.16 11a1 1 0 0 0-.16.47c0 .28.13.56.31.78l1.72 1.72.06.06z"/><path fill="#6060ff" d="M13.9 8.03c-.25-.28-.62-.3-1-.3H7.72l6.5 6.49H16v-4.06z"/></svg>