<svg xmlns="http://www.w3.org/2000/svg" viewBox="0 0 16 16"><path fill="#6060ff" d="M5.6 12.96a2.3 2.3 0 0 1-.59-1.7l1.7-4.19.15-.07H5.44a2 2 0 0 0-1.9 1.37L2 13V7c0-1.1.9-2 2-2h11c.55 0 1-.45 1-1s-.45-1-1-1H8L6.59 1.59A2 2 0 0 0 5.17 1H2a2 2 0 0 0-2 2v10c0 1.1.9 2 2 2h5.65z"/><path fill="#6060ff" d="m14.28 7.03 1.7 1.69a2 2 0 0 0-1.7-1.7"/><path fill="#40a0ff" d="m13.9 8.03-1.7-1.68a1.2 1.2 0 0 0-.72-.35q-.33-.02-.63.13L7.72 7.69z"/><path fill="#40a0ff" d="m14.22 14.22-2.9-3.28-3.6-3.22v5.31c0 .53.06.66.31.94l.28.25L10.06 16h4.16z"/><path fill="#6060ff" d="m8.03 13.94-.25-5V7.8l-.06-.06L6.16 11a1 1 0 0 0-.16.47c0 .28.13.56.31.78l1.72 1.72.06.06z"/><path fill="#6060ff" d="M13.9 8.03c-.25-.28-.62-.3-1-.3H7.72l6.5 6.49H16v-4.06z"/></svg>