<svg xmlns="http://www.w3.org/2000/svg" viewBox="0 0 16 16"><path fill="#40a0ff" d="M12.65 3.25 9.9.55A2 2 0 0 0 8.75 0a2 2 0 0 0-1 .2l-5 2.5z"/><path fill="#6060ff" d="m3.25 12.7-.4-8V2.9l-.1-.1L.25 8c-.15.2-.25.5-.25.75 0 .45.2.9.5 1.25l2.75 2.75.1.1z"/><path fill="#40a0ff" d="M5 11c0-1.77.77-3.35 1.99-4.45l-4.24-3.8v8.5c0 .85.1 1.05.5 1.5l.45.4L6.5 16h1.19A6 6 0 0 1 5 11"/><path fill="#6060ff" d="M11 5a6 6 0 0 1 5 2.69V6.65l-3.35-3.4c-.4-.45-1-.5-1.6-.5h-8.3l4 4.01A6 6 0 0 1 11 5"/><path fill="#ff4040" d="M11 6a5 5 0 1 0 0 10 5 5 0 0 0 0-10m2.5 5.63h-5a.62.62 0 1 1 0-1.26h5a.62.62 0 1 1 0 1.26"/></svg>