<svg xmlns="http://www.w3.org/2000/svg" viewBox="0 0 16 16"><path fill="#ffff40" d="M5 14.16v-1.11q0-.46.28-.82-.27-.41-.28-.93v-1.1q.01-.54.35-.91a2 2 0 0 1 0-2.27 2 2 0 0 0-1.8 1.36L2 13V7c0-1.1.9-2 2-2h11c.55 0 1-.45 1-1s-.45-1-1-1H8L6.59 1.59A2 2 0 0 0 5.17 1H2a2 2 0 0 0-2 2v10c0 1.1.9 2 2 2h3.22a2 2 0 0 1-.22-.84"/><path fill="#ffff40" d="M16 14.16a.7.7 0 0 1-.36.62 9.5 9.5 0 0 1-9.28 0 .7.7 0 0 1-.36-.62v-1.11c0-.27.28-.45.52-.32a9.5 9.5 0 0 0 8.95 0c.24-.12.53.04.53.3z"/><path fill="#ffff40" d="M16 11.3a.7.7 0 0 1-.36.63 9.5 9.5 0 0 1-9.28 0A.7.7 0 0 1 6 11.3v-1.1c0-.27.28-.45.52-.32a9.5 9.5 0 0 0 8.95 0c.24-.12.53.04.53.31z"/><ellipse cx="11" cy="8.14" fill="#ffff40" rx="5" ry="2.14"/></svg>