<svg xmlns="http://www.w3.org/2000/svg" viewBox="0 0 16 16"><path fill="#ff4040" d="M14.42 4.1C13.72 1.74 11.56.7 9.46.19l.07-.12c-.17.04-.45.12-.6-.02V0l-.28.02c-.6.03-1.4.4-2.02.33-.47.17-1.06.54-1.6.67h.2c-.84.23-1.73 1.33-2.19 1.97l.01-.05-.28.36-.1-.09-.28.07.06.39H2.3l-.07-.1c-.22.12-.37.4-.5.6l.21.18c-.25.28-.45.65-.37.96l.28.06c-.09.26-.15.52-.3.74-.4 5.05 3.3 11.4 9.05 9.57-1.18-.64-2.8-.56-3.64-1.66-.16-.41-1.13-1.06-1.44-1.41-.17-.2-.43-.57-.62-.74l.04.02c-.21-.48-.56-1.6-.93-1.82-.23-.32-.61-.8-.45-1.22-.72-1.33.32-4.97 2.12-5.1 2.77-2.71 7.33-.83 6.48 3.35l.1.04c0 .43-.56.66-.53 1.1-.24.18-.9.6-1.08.8L10.64 9c-1.23.92-3.13-.3-3.06-1.78H7.5c-.14-1.5 2.05-2.48 3.13-1.77-1.04-2.35-3.83-.98-4.4.95-.16.68.07 1.35-.09 2h-.03c.05 0-.1.63-.1.66.44.73 1.2 1.5 2.08 1.66l-.01-.04c1.7.96 3.55-.19 4.74-1.42l.14.09c.16-.15.46-.29.43-.56l.35.18c.65-1.25.82-3.48.68-4.86"/></svg>