<svg xmlns="http://www.w3.org/2000/svg" viewBox="0 0 16 16"><path fill="#ff4040" d="M15.16 12.97q-.85.69-1.74.87l-1.76-.2c.54.63 1.47.99 2.4 1.35A2 2 0 0 0 16 13v-.59c-.2.14-.62.43-.8.58z"/><path fill="#ff4040" d="M15 3H8L6.59 1.59A2 2 0 0 0 5.17 1H2a2 2 0 0 0-2 2v10c0 1.1.9 2 2 2h6.52c-1.54-1.96-2.18-5.03-1.11-7.23l-.02-.11.64-.66H5.44a2 2 0 0 0-1.9 1.37L2 13V7c0-1.1.9-2 2-2h11c.55 0 1-.45 1-1s-.45-1-1-1"/><path fill="#ff4040" d="M15.97 8.57c-.44-1.5-1.79-2.14-3.1-2.46l.04-.07c-.1.03-.28.07-.37-.01V6l-.18.01c-.37.02-.87.25-1.26.2-.29.12-.66.35-1 .43h.12c-.52.14-1.07.83-1.36 1.23v-.03l-.17.22-.06-.05-.17.04.03.24H8.4l-.04-.06c-.14.08-.23.25-.31.37l.13.12c-.16.17-.29.4-.24.6l.18.04q-.06.25-.18.46c-.26 3.16 2.06 7.12 5.65 5.98-.74-.4-1.76-.35-2.28-1.04-.1-.26-.7-.66-.9-.88-.1-.12-.26-.35-.38-.46h.02c-.13-.29-.35-.99-.58-1.13-.14-.2-.38-.5-.28-.76-.45-.83.2-3.1 1.33-3.19 1.73-1.7 4.58-.52 4.05 2.1l.06.02c0 .27-.35.42-.33.7-.15.1-.57.36-.68.49l-.01-.03c-.77.58-1.96-.18-1.92-1.1l-.05-.01c-.08-.94 1.29-1.55 1.96-1.1-.65-1.47-2.4-.61-2.75.6-.1.42.05.83-.05 1.24h-.02c.03 0-.07.4-.07.41.28.46.75.94 1.3 1.04v-.03c1.06.6 2.22-.11 2.96-.88l.09.05c.1-.09.29-.18.27-.35l.22.12c.4-.79.5-2.18.42-3.04"/></svg>