<svg xmlns="http://www.w3.org/2000/svg" viewBox="0 0 16 16"><path fill="#ff4040" d="M5.06 11.85a1.6 1.6 0 0 1 .55-1.46A1.6 1.6 0 0 1 5 9.12v-2.5a1.63 1.63 0 0 1 3.02-.83 6 6 0 0 1 6.21.16c.44-.1.77-.48.77-.95a1 1 0 0 0-1-1h-1.5q-.5-.55-1.12-.96L12.7 1.7A1 1 0 1 0 11.3.3L9.4 2.16a6 6 0 0 0-2.82 0L4.7.3a1 1 0 1 0-1.4 1.4l1.32 1.34Q4 3.45 3.5 4H2c-.55 0-1 .45-1 1s.45 1 1 1h1v2H2c-.55 0-1 .45-1 1s.45 1 1 1h1v2H2c-.55 0-1 .45-1 1s.45 1 1 1h1.5a6 6 0 0 0 4.2 1.98 6 6 0 0 1-2.64-4.13"/><path fill="#40a0ff" d="M15.9 9.98A4.98 4.98 0 0 0 7.25 7.7V6.62c0-.34-.28-.62-.62-.62S6 6.28 6 6.63v2.5c0 .34.28.62.63.62h2.5a.62.62 0 1 0 0-1.25h-.9a3.73 3.73 0 0 1 6.5 2.05 3.75 3.75 0 0 1-7.44.98.6.6 0 0 0-.62-.53.63.63 0 0 0-.62.71 5 5 0 1 0 9.85-1.73"/><path fill="#40a0ff" d="M11.72 10.83a.3.3 0 0 1-.1-.22V9.13a.62.62 0 1 0-1.25 0V11q0 .26.19.44l1.32 1.33c.25.24.64.24.89 0a.6.6 0 0 0 0-.89z"/></svg>