<svg xmlns="http://www.w3.org/2000/svg" viewBox="0 0 16 16"><path fill="#ff4040" d="M14 10c.55 0 1-.45 1-1s-.45-1-1-1h-1V6h1c.55 0 1-.45 1-1s-.45-1-1-1h-1.5q-.5-.55-1.12-.96L12.7 1.7A1 1 0 1 0 11.3.3L9.4 2.16a6 6 0 0 0-2.82 0L4.7.3a1 1 0 1 0-1.4 1.4l1.32 1.34Q4 3.45 3.5 4H2c-.55 0-1 .45-1 1s.45 1 1 1h1v2H2c-.55 0-1 .45-1 1s.45 1 1 1h1v2H2c-.55 0-1 .45-1 1s.45 1 1 1h1.5a6.06 6.06 0 0 0 9 0H14c.55 0 1-.45 1-1s-.45-1-1-1h-1v-2zm-5 2H7c-.55 0-1-.45-1-1s.45-1 1-1h2c.55 0 1 .45 1 1s-.45 1-1 1m0-4H7c-.55 0-1-.45-1-1s.45-1 1-1h2c.55 0 1 .45 1 1s-.45 1-1 1"/></svg>