<svg xmlns="http://www.w3.org/2000/svg" viewBox="0 0 16 16"><path fill="#ff4040" d="M15 3H8L6.59 1.59A2 2 0 0 0 5.17 1H2a2 2 0 0 0-2 2v10c0 1.1.9 2 2 2h4.51a1.6 1.6 0 0 1 .33-2.12 1.62 1.62 0 0 1 0-2.5 1.62 1.62 0 0 1 .92-2.88q-.15-.23-.22-.5h-2.1a2 2 0 0 0-1.9 1.37L2 13V7c0-1.1.9-2 2-2h11c.55 0 1-.45 1-1s-.45-1-1-1"/><path fill="#ff4040" d="M15.38 12.25c.34 0 .62-.28.62-.62s-.28-.63-.62-.63h-.63V9.75h.63c.34 0 .62-.28.62-.62s-.28-.63-.62-.63h-.94q-.31-.34-.7-.6l.83-.83c.24-.25.24-.64 0-.89s-.64-.24-.89 0l-1.17 1.18a4 4 0 0 0-1.77 0L9.57 6.18c-.25-.24-.64-.24-.89 0s-.24.64 0 .89l.83.83q-.39.25-.7.6h-.94a.63.63 0 0 0 .01 1.25h.62V11h-.62c-.35 0-.63.28-.63.63s.28.62.63.62h.62v1.25h-.62c-.35 0-.63.28-.63.63s.28.62.63.62h.93a3.8 3.8 0 0 0 5.63 0h.94c.34 0 .62-.28.62-.62s-.28-.63-.62-.63h-.63v-1.25zm-3.13 1.25H11c-.34 0-.62-.28-.62-.62s.28-.63.62-.63h1.25c.34 0 .63.28.63.63s-.29.62-.63.62m0-2.5H11c-.34 0-.62-.28-.62-.62s.28-.63.62-.63h1.25c.34 0 .63.28.63.63s-.29.62-.63.62"/></svg>