<svg xmlns="http://www.w3.org/2000/svg" viewBox="0 0 16 16"><path fill="#e0e0e0" fill-rule="evenodd" d="M8.37 0a8 8 0 1 0-.73 16 8 8 0 0 0 .73-16M6.92 4.82c.04-.37.35-.95.82-1 .4-.02.73.31.8.76.07.6-.15 1.2-.86 1.22-.61.01-.8-.6-.76-.98m6.46 8.09a3.8 3.8 0 0 1-2.7 1.18 2.63 2.63 0 0 1-2.5-3.31c.07-.23.23-.68.46-.87a3 3 0 0 1-.74-.5q-.04-.05 0-.12a.1.1 0 0 1 .1-.03q.37.13.84.22c.4.06.9.15 1.4.17 1.23.06 2.52-.5 2.92-1.59.4-1.1.24-2.19-1.19-2.84s-2.1-1.43-3.25-1.9c-.76-.3-1.6-.12-2.46.36C3.93 4.95 1.85 9 2.81 12.77a.12.12 0 0 1-.2.12 7.28 7.28 0 1 1 10.76.01" clip-rule="evenodd"/></svg>