<svg xmlns="http://www.w3.org/2000/svg" viewBox="0 0 16 16"><path fill="#e0e0e0" fill-rule="evenodd" d="M7.5 14.75V11c0-.56.22-1.06.57-1.46q-.12-.08-.17-.14-.04-.05 0-.12a.1.1 0 0 1 .1-.03l.25.08q.23-.2.5-.35V8.5a3.5 3.5 0 0 1 2.92-3.44c-1.23-.62-1.88-1.31-2.95-1.75-.76-.3-1.6-.12-2.46.36C3.93 4.95 1.85 9 2.81 12.77a.12.12 0 0 1-.2.12 7.28 7.28 0 1 1 12.5-6.39q.62.86.64 2v.48l.17.12q.05-.36.07-.73A8 8 0 1 0 7.63 16h.25a2.2 2.2 0 0 1-.38-1.24m-.58-9.94c.04-.37.35-.95.82-1 .4-.02.73.31.8.76.07.6-.15 1.2-.86 1.22-.61.01-.8-.6-.76-.98" clip-rule="evenodd"/><path fill="#a0a0a0" d="M14.75 9.75V8.5a2.5 2.5 0 0 0-5 0v1.25c-.69 0-1.25.56-1.25 1.25v3.75c0 .69.56 1.25 1.25 1.25h5c.69 0 1.25-.56 1.25-1.25V11c0-.69-.56-1.25-1.25-1.25m-2.5 4.06a.94.94 0 1 1 0-1.87.94.94 0 0 1 0 1.87m1.25-4.06H11V8.5a1.25 1.25 0 0 1 2.5 0z"/></svg>