<svg xmlns="http://www.w3.org/2000/svg" viewBox="0 0 16 16"><path fill="#a0a0a0" d="M14 3H8L6.59 1.59A2 2 0 0 0 5.17 1H2a2 2 0 0 0-2 2v10c0 1.1.9 2 2 2h.03c.06-.6.4-1.13.92-1.4a3 3 0 0 1-.14-.85V7.88a2.63 2.63 0 0 1 2.63-2.63h8.12c1.11 0 2.06.7 2.44 1.67V5a2 2 0 0 0-2-2"/><path fill="#a0a0a0" d="M15.19 14.38h-1.63c.9 0 1.63-.73 1.63-1.63V7.88c0-.9-.73-1.63-1.63-1.63H5.44c-.9 0-1.63.73-1.63 1.63v4.87c0 .9.73 1.63 1.63 1.63H3.8a.81.81 0 0 0 0 1.62h11.4a.81.81 0 0 0 0-1.62m-8.94-6.5h6.5a.8.8 0 0 1 .81.8v3.26a.8.8 0 0 1-.81.81h-6.5a.8.8 0 0 1-.81-.81V8.69a.8.8 0 0 1 .81-.81"/></svg>