<svg xmlns="http://www.w3.org/2000/svg" viewBox="0 0 16 16"><path fill="#40a0ff" d="M15.97 9.1V4.38c0-.78-.38-1.37-1.09-1.66L9.37.48a3.7 3.7 0 0 0-2.84.03L5.37.98l-4.19 1.7Q.01 3.19 0 4.42v7.18q.01 1.23 1.13 1.7c2.28.76 4.46 2.2 6.86 2.5 2.38-.29 4.55-1.73 6.82-2.5 1.73-.64 1.02-2.76 1.16-4.2M14.02 8v3.31c.01.18 0 .19-.16.25l-2.02.83q-1.59.66-3.21 1.28c-.38.13-.92.13-1.29 0-1.77-.66-3.49-1.42-5.24-2.11-.14-.06-.14-.06-.14-.2 0-2.18-.01-4.55.02-6.7l.15-.21c1.86-.7 3.82-1.78 5.85-2.24 1.35.22 2.58.95 3.88 1.4l1.96.8c.2.08.21.11.21.3z"/><path fill="#40a0ff" d="M12.36 4.27c-1.17-.23-2.47.73-3.6 1.06-1.47.59-2.84-.74-4.28-1.03-.51-.2-1.32.05-1.4.61-.25 1.58 2.7 1.77 3.75 2.37q.13.05.12.06c.02.43-.02.92 0 1.36.1 1.03-.44 3.6 1.02 3.48 1.73-.03.8-3.42 1-4.61 0-.23.02-.26.24-.34a68 68 0 0 0 2.4-.88l.5-.19c1.28-.54.84-1.54.25-1.89"/></svg>