<svg xmlns="http://www.w3.org/2000/svg" viewBox="0 0 16 16"><path fill="#40a0ff" d="M4.73 13.3V8.7c0-.94.5-1.68 1.38-2.04l2.7-1.09.74-.3a3.4 3.4 0 0 1 2.56-.02l3.56 1.44.33.2V5a2 2 0 0 0-2-2H8L6.59 1.59A2 2 0 0 0 5.17 1H2a2 2 0 0 0-2 2v10c0 1.1.9 2 2 2h3.54c-.53-.4-.8-1-.8-1.7"/><path fill="#40a0ff" d="M15.98 11.7V8.68q0-.76-.7-1.06l-3.54-1.44q-.9-.36-1.82.01l-.74.3-2.69 1.1q-.75.31-.76 1.1v4.62q0 .78.72 1.08c1.47.5 2.87 1.42 4.4 1.61 1.54-.18 2.93-1.11 4.39-1.6 1.1-.42.65-1.78.74-2.7m-1.25-.7v2.13c0 .1 0 .12-.1.16l-1.3.53q-1.02.42-2.06.82c-.24.08-.59.08-.83 0-1.14-.42-2.24-.91-3.36-1.36-.1-.03-.1-.04-.1-.13.01-1.4 0-2.91.02-4.3 0-.03.07-.11.1-.13 1.2-.45 2.45-1.14 3.75-1.44.87.14 1.66.62 2.49.9l1.26.52c.13.04.14.07.14.18z"/><path fill="#40a0ff" d="M13.66 8.6c-.75-.14-1.58.47-2.3.69-.95.37-1.83-.48-2.76-.66-.32-.13-.84.03-.9.39-.15 1.01 1.74 1.13 2.42 1.52l.07.04v.87c.07.66-.28 2.3.66 2.23 1.1-.02.51-2.2.64-2.96 0-.15.01-.16.15-.21q.78-.27 1.55-.57l.3-.12c.83-.35.55-.99.17-1.21"/></svg>