<svg xmlns="http://www.w3.org/2000/svg" viewBox="0 0 16 16"><path fill="#ffa040" d="m8 0 .29.11 5.6 3.22c.38.23.39.68 0 .9q-1.27.75-2.57 1.49c-.08.04-.23.02-.32-.02L8.48 4.24a.8.8 0 0 0-.95 0L5.02 5.7c-.14.08-.24.1-.39 0l-2.5-1.44c-.41-.24-.42-.69 0-.93L7.68.13z"/><path fill="#ffa040" d="M.74 8.94V5.79c0-.56.37-.77.85-.5q1.21.72 2.44 1.41.22.12.2.36V10q-.03.5.42.75l2.58 1.48q.19.09.18.3v2.92c0 .47-.38.7-.8.45l-5.57-3.22q-.32-.18-.3-.54z"/><path fill="#ffa040" d="M15.26 8.93v3.13q0 .45-.39.67l-5.33 3.08-.16.1c-.41.22-.78.02-.79-.45V12.5c.01-.1.1-.21.18-.26q1.3-.77 2.6-1.5.42-.25.4-.7V7.05c0-.16.04-.26.2-.34q1.23-.68 2.45-1.43c.44-.28.85.05.84.5z"/></svg>