<svg xmlns="http://www.w3.org/2000/svg" viewBox="0 0 16 16"><path fill="#a0a0a0" d="M14 15a2 2 0 0 0 2-2v-.07L13.93 15z"/><path fill="#a0a0a0" d="M14 3H8L6.59 1.59A2 2 0 0 0 5.17 1H2a2 2 0 0 0-2 2v10c0 1.1.9 2 2 2h6.07l-2.41-2.4c-.42-.43-.66-1-.66-1.6V7.25C5 6.01 6 5 7.25 5H11c.6 0 1.17.24 1.6.66l3.4 3.4V5a2 2 0 0 0-2-2"/><path fill="#a0a0a0" d="m15.63 10.12-3.75-3.75A1.3 1.3 0 0 0 11 6H7.25C6.56 6 6 6.56 6 7.25V11q0 .52.37.88l3.75 3.75c.48.5 1.28.5 1.76 0l3.75-3.75c.5-.48.5-1.28 0-1.76m-6.82-.37a.94.94 0 1 1 0-1.87.94.94 0 0 1 0 1.87"/></svg>