<svg xmlns="http://www.w3.org/2000/svg" viewBox="0 0 16 16"><path fill="#40a0ff" d="M7.11 2.26h1.65v1.55H7.11z"/><path fill="#40a0ff" d="M7.11 4.1h1.65v1.55H7.11z"/><path fill="#40a0ff" d="M5.16 4.1h1.65v1.55H5.16z"/><path fill="#40a0ff" d="M3.21 4.1h1.65v1.55H3.21z"/><path fill="#40a0ff" d="M1.26 6h1.65v1.55H1.26z"/><path fill="#40a0ff" d="M3.21 6h1.65v1.55H3.21z"/><path fill="#40a0ff" d="M6.8 6.71v-.7H5.17v1.54h.94q.32-.45.7-.84"/><path fill="#40a0ff" d="M7.69 6H7.1v.44A6 6 0 0 1 7.69 6"/><path fill="#40a0ff" d="M14.82 6.4q.51.42.92.94l.06-.09.15-.35.05-.1-.35-.2.05.05a2 2 0 0 0-.88-.26"/><path fill="#40a0ff" d="M13.57 5.6a2.5 2.5 0 0 0-.72-.85l-.35-.25-.25.35-.12.27q.76.15 1.44.47"/><path fill="#40a0ff" d="M5 11c0-1.16.33-2.23.9-3.15H.02V8a6 6 0 0 0 1.14 4 5.1 5.1 0 0 0 4.15 1.74l.35-.02A6 6 0 0 1 5 11"/><path fill="#ff4040" d="M11 6a5 5 0 1 0 0 10 5 5 0 0 0 0-10m2.5 5.63h-5a.62.62 0 1 1 0-1.26h5a.62.62 0 1 1 0 1.26"/></svg>