<svg xmlns="http://www.w3.org/2000/svg" viewBox="0 0 16 16"><path fill="#40a0ff" d="M14 3H8L6.59 1.59A2 2 0 0 0 5.17 1H2a2 2 0 0 0-2 2v10c0 1.1.9 2 2 2h1.03a6 6 0 0 1-1.01-3.75v-1.04h1v-1.5h1.59V7.17h3.17v-1.5h3.34V8.7h.76l.2-.41.85-1.2 1.1.78q.3.22.54.51L16 9.2V5a2 2 0 0 0-2-2"/><path fill="#40a0ff" d="M12.87 15H14a2 2 0 0 0 2-2v-.95q-.55.44-1.35.56A8 8 0 0 1 12.87 15"/><path fill="#40a0ff" d="M15.76 10.24c-.33-.2-.98-.29-1.5-.2a2 2 0 0 0-.82-1.35l-.28-.2-.2.29a2.2 2.2 0 0 0-.33 1.42q0 .43.24.8-.46.24-.97.21H3.01v.12c-.04.49-.04 2.03.94 3.25Q5.1 15.98 7.3 16c3.21 0 5.56-1.54 6.66-4.34.4 0 1.38 0 1.87-.94l.12-.28.04-.08-.28-.16z"/><path fill="#40a0ff" d="M8.78 6.67h1.34v1.26H8.78z"/><path fill="#40a0ff" d="M8.78 8.17h1.34v1.26H8.78z"/><path fill="#40a0ff" d="M7.19 8.17h1.34v1.26H7.19z"/><path fill="#40a0ff" d="M5.61 8.17h1.34v1.26H5.61z"/><path fill="#40a0ff" d="M4.03 9.71h1.34v1.26H4.03z"/><path fill="#40a0ff" d="M5.61 9.71h1.34v1.26H5.61z"/><path fill="#40a0ff" d="M7.19 9.71h1.34v1.26H7.19z"/><path fill="#40a0ff" d="M8.78 9.71h1.34v1.26H8.78z"/><path fill="#40a0ff" d="M10.36 9.71h1.34v1.26h-1.34z"/></svg>