<svg xmlns="http://www.w3.org/2000/svg" viewBox="0 0 16 16"><path fill="#40a0ff" d="M15.7 6.65a3 3 0 0 0-1.85-.25 2.5 2.5 0 0 0-1-1.65l-.35-.25-.25.35c-.3.55-.5 1.15-.4 1.75q0 .54.3 1a2.5 2.5 0 0 1-1.2.25H.02V8a6 6 0 0 0 1.14 4 5.1 5.1 0 0 0 4.15 1.74c3.95 0 6.84-1.9 8.2-5.34.5 0 1.7 0 2.29-1.15l.15-.35.05-.1-.35-.2z"/><path fill="#40a0ff" d="M7.11 2.26h1.65v1.55H7.11z"/><path fill="#40a0ff" d="M7.11 4.1h1.65v1.55H7.11z"/><path fill="#40a0ff" d="M5.16 4.1h1.65v1.55H5.16z"/><path fill="#40a0ff" d="M3.21 4.1h1.65v1.55H3.21z"/><path fill="#40a0ff" d="M1.26 6h1.65v1.55H1.26z"/><path fill="#40a0ff" d="M3.21 6h1.65v1.55H3.21z"/><path fill="#40a0ff" d="M5.16 6h1.65v1.55H5.16z"/><path fill="#40a0ff" d="M7.11 6h1.65v1.55H7.11z"/><path fill="#40a0ff" d="M9.06 6h1.65v1.55H9.06z"/></svg>