<svg xmlns="http://www.w3.org/2000/svg" viewBox="0 0 16 16"><path fill="#40a0ff" d="M14 3H8L6.59 1.59A2 2 0 0 0 5.17 1H2a2 2 0 0 0-2 2v10c0 1.1.9 2 2 2V7.81c0-.65.35-1.25.91-1.57A7.5 7.5 0 0 1 9.5 5.8a7.5 7.5 0 0 1 6.5.38V5a2 2 0 0 0-2-2"/><path fill="#40a0ff" d="M15.6 7.1a6.5 6.5 0 0 0-6.1-.2 6.5 6.5 0 0 0-6.1.2.8.8 0 0 0-.4.71v7.38a.81.81 0 0 0 1.22.7 4.9 4.9 0 0 1 4.88 0 .8.8 0 0 0 .8 0 4.9 4.9 0 0 1 4.88 0 .81.81 0 0 0 1.22-.7V7.8a.8.8 0 0 0-.4-.7m-1.22 6.58a.2.2 0 0 1-.26.19 6.6 6.6 0 0 0-4.34.27.2.2 0 0 1-.28-.18V9.1a.7.7 0 0 1 .35-.55l.36-.17a5 5 0 0 1 3.91-.17.4.4 0 0 1 .25.38z"/></svg>