<svg xmlns="http://www.w3.org/2000/svg" viewBox="0 0 16 16"><path fill="#40ff40" d="M15.38 13.75q.23 0 .44.07.17-.38.18-.82v-1.09l-2.76 1.84z"/><path fill="#40ff40" d="M14 3H8L6.59 1.59A2 2 0 0 0 5.17 1H2a2 2 0 0 0-2 2v10c0 1.1.9 2 2 2h4.3c.17-.72.8-1.25 1.58-1.25H10l-3.04-2.02a1.62 1.62 0 0 1 .91-2.98h.87V6.63c0-.9.73-1.63 1.63-1.63h2.5c.9 0 1.62.73 1.62 1.63v2.12h.87q.34.01.63.14V5a2 2 0 0 0-2-2"/><path fill="#40ff40" d="M15.38 14.75h-7.5c-.35 0-.63.28-.63.63s.28.62.63.62h7.5c.34 0 .62-.28.62-.62s-.28-.63-.62-.63"/><path fill="#40ff40" d="M15.37 9.75H13.5V6.63a.63.63 0 0 0-.63-.63h-2.5a.63.63 0 0 0-.62.63v3.12H7.88c-.62 0-.86.8-.35 1.14l3.75 2.5c.2.14.48.14.7 0l3.74-2.5a.63.63 0 0 0-.35-1.14"/></svg>