<svg xmlns="http://www.w3.org/2000/svg" viewBox="0 0 16 16"><path fill="#6060ff" d="m3.47 8.6-.98 2.94 2.8-1.8z"/><path fill="#6060ff" d="M15 3H8L6.59 1.59A2 2 0 0 0 5.17 1H2a2 2 0 0 0-2 2v10c0 1.1.9 2 2 2h4.7l-1.39-.89.48-.3-3.34-2.15L2 13V7c0-1.1.9-2 2-2h11c.55 0 1-.45 1-1s-.45-1-1-1"/><path fill="#6060ff" d="M16 10.39V9.08l-1.05.67z"/><path fill="#6060ff" d="m14.9 14.11-1.38.89H14a2 2 0 0 0 2-2v-.26l-1.61 1.04z"/><path fill="#6060ff" d="M10.11 7.89 7.17 9.78l2.94 1.83-2.94 1.89-2.95-1.89 2.95-1.89-2.95-1.83L7.17 6z"/><path fill="#6060ff" d="m7.17 14.11 2.94-1.89 2.95 1.89L10.11 16z"/><path fill="#6060ff" d="m10.11 11.61 2.95-1.89-2.95-1.83L13.06 6 16 7.89l-2.94 1.89L16 11.56l-2.94 1.88-2.95-1.88z"/></svg>