<svg xmlns="http://www.w3.org/2000/svg" viewBox="0 0 16 16"><path fill="#ffa040" d="M4 12h4v4H4z"/><path fill="#ffa040" d="M0 8h4v4H0z"/><path fill="#ffa040" d="M8 4h4v4H8z"/><path fill="#ffa040" d="M12 0h4v4h-4z"/><path fill="#ff4040" d="M0 12h4v4H0z"/><path fill="#ff4040" d="M4 8h4v4H4z"/><path fill="#ff4040" d="M12 4h4v4h-4z"/><path fill="#ff4040" d="M8 0h4v4H8z"/><path fill="#a040ff" d="M8 12h4v4H8z"/><path fill="#a040ff" d="M12 8h4v4h-4z"/><path fill="#a040ff" d="M0 4h4v4H0z"/><path fill="#a040ff" d="M4 0h4v4H4z"/><path fill="#40a0ff" d="M12 12h4v4h-4z"/><path fill="#40a0ff" d="M8 8h4v4H8z"/><path fill="#40a0ff" d="M4 4h4v4H4z"/><path fill="#40a0ff" d="M0 0h4v4H0z"/></svg>