<svg xmlns="http://www.w3.org/2000/svg" viewBox="0 0 16 16"><path fill="#e0e0e0" d="M10.3 10.22q0 .46-.15.84c-.06.16-.16.31-.63.42-.42.15-.68.2-1.57.2-1.05 0-1.3-.1-1.83-.52l-.37-.52c-.26-.31-.36-.94-.26-1.2l-.47-.21c-.26.1-.05.26-1.05.63a5 5 0 0 1-2.82-.42A28 28 0 0 0 0 14.04c.05-.05.1-.16.58-.16.15 0 1.1.42 1.25.53.1.1.21.26.21.42 0 .1-.26.26-.31.26-.1 0-.32.15-.63.15-.4 0-.62-.2-1.08-.66q.03.43.24.82l1 .21H2.4c.62 0 1.62-.16 1.88-.21.36 0 .73-.1 1.1-.2l1.1-.58 1.07-.48q.18-.07.29-.15l.65-.35a8 8 0 0 0 1.5-1.13l.43-.63.08-.14q.18-.2.35-.46.22-.3.32-.8z"/><path fill="#e0e0e0" d="M2.29 6.7c-.01.1 0 .19-.2.44.73.05 2.04.73 2.83 1.2l.15.2v.22c-.05.2-.05.2 0 .2.21 0 .37.16.47.16l.16-.2c.68 0 1.26-.06 1.94.1q1 .13 1.62.37c.26.1 1 .2 1.04.57.32 0 .58.05.9.16 0-.27-.02-1.35-.22-2.04-.26-.84-.42-1.62-.89-2.4-.78-.69-1.4-.74-2.4-1.16a11 11 0 0 0-3.61-.1c-.47.36-1 .89-1 1.04-.1.27-.57.9-.78 1.2z"/><path fill="#e0e0e0" d="M1.67 14.77s-.1-.2-.2-.2c-.21 0-1.16-.53-1.16-.27v.05c0 .21.47.42.63.42z"/><path fill="#e0e0e0" d="M3.6 9.44c.17-.05.43-.68.32-.84-.15 0-.42.42-.31.84"/><path fill="#e0e0e0" d="m1.46 8.6-.1.32-.05.1-.05.13c.63.4 1.68.5 2.03.5-.05-.21.06-.84.27-1.1.1-.26.1-.26.31-.26.16 0 .16 0 .26.1.32.37 0 .9-.31 1.2.31-.05.63-.2.83-.41 0-.37.16-.63 0-.74-1.04-.62-1.83-.83-2.61-1.04H2v.05l-.38.75q-.09.24-.15.35z"/><path fill="#e0e0e0" d="M1.15 8.18c0-.31.1-.52.31-.89-.41.1-.41 0-.68.42-.1.26-.2.84.06 1.05l.26-.58z"/><path fill="#e0e0e0" d="M7.28 10.2q.03.16.25-.03c.16-.1.26-.47.16-.57-.1 0-.3.33-.4.6"/><path fill="#e0e0e0" d="M9.88 10.12c-.26-.32-.2-.37-.78-.52a11 11 0 0 0-2.72-.53c-.26 0-.31.05-.37.1q-.24.17-.26.74c-.05.2 0 .2.16.47.26.47.52.73 1.05.89.36.1.57.1 1.2.1l.84-.05c.73-.16 1.1-.42.99-.78zm-2.3.52v-.05c-.15.1-.47.1-.47 0-.1-.05-.1-.47 0-.73.16-.21.42-.53.53-.53.15 0 .41.1.41.21.06.32-.2.9-.47 1.1"/><path fill="#e0e0e0" d="M15.74 7.09q-.09 0-.1-.21c0-.21-.42-.58-.84-.74l-.89-.05-.94.16c-.42.1-.78.52-1.3.84.04.1-.27.26-.32.47.12.5.23.72.22 1.55q0 .4-.06 1.06l.88.05c.42 0 .53 0 .79-.1a5.6 5.6 0 0 0 2.51-1.99Q15.93 7.6 16 7q0-.1-.02-.19c-.05-.2-.19-.4-.5-.67l.05-.04-.03-.04-.07-.06-.07-.06-.11-.08h-.01c-.33-.2-.77-.3-1.59-.3a4.3 4.3 0 0 0-2.38 1.14l.13.12c.32-.1.68-.31.89-.52.31-.26.58-.37.94-.37q.74-.09 1.47 0c.41.1.83.21 1.04.74.1.15.16.42 0 .42"/><path fill="#e0e0e0" d="M5.91.97C6.28.6 6.54.6 7.11.6c.53 0 .68.1.84.31.1.21.1.16.1.53.06.52.06.31-.1.73-.26.73-.58 1.36-.79 1.41-.1.05-.1.05-.1-.05s.05-.1-.05-.1c-.05-.06-.05-.11.47-.95.26-.36.36-.52.36-.94.06-.16-.1-.42-.2-.52-.27-.16-.79 0-1.05 0-.21.05-.26.1-.52.31-.1.1-.26.32-.42.37-.21.05-1 .94-1.15 1.25-.05.06-.58 1.15-.42 1.05.42-.16.69-.2.94-.2.26 0 .5.04.84.04H7q.19.01.32-.04.12-.06.2-.32h.1c.11-.16.37-.53.48-.9l.15-.46V.86L8.06.7A2.5 2.5 0 0 0 6.8.4h-.31a5 5 0 0 0-1.8 1.2l-.12.2-.23.47-.31.56c-.2.47-.26.7-.26 1.01v.26c.15-.57.52-1.3.78-1.72.63-.9.94-1.05 1.36-1.41"/></svg>