<svg xmlns="http://www.w3.org/2000/svg" viewBox="0 0 16 16"><path fill="#6060ff" d="m14.15 3.8.7 2.8L16 2.95z"/><path fill="#6060ff" d="M12 .6c-1 .25-2.5.6-3.65.8l.9 1.1 2.8-1.9z"/><path fill="#6060ff" d="m9.2 10.3 3.5 2.2-.9-3.45z"/><path fill="#6060ff" d="m9.55 2.9 1.35 1.6L12.45.9z"/><path fill="#6060ff" d="m7.1 7.4 3.1-2.2-4.3.4z"/><path fill="#6060ff" d="m10.3 14.2 2.4-1.25-3.55-2.2z"/><path fill="#6060ff" d="m6.75 7.65-1.2-1.8L2.9 10.4z"/><path fill="#6060ff" d="m11.7 8.6-.75-3-1.8 4.2z"/><path fill="#6060ff" d="m11.35 5.4.75 3 2.25-1.1z"/><path fill="#6060ff" d="m10.45 5.55-3.1 2.2 1.3 2.05.05-.1z"/><path fill="#6060ff" d="m14.45 6.9-.7-2.95-2.3 1z"/><path fill="#6060ff" d="m9.2 3.15-2.85 2 4.15-.4z"/><path fill="#6060ff" d="m6.95 8.05-3.9 2.8 5.25-.75z"/><path fill="#6060ff" d="M8.9 2.8 8 1.7l-1.75 3z"/><path fill="#6060ff" d="m14.05 3.35 1.9-.85-2.6-1.8z"/><path fill="#6060ff" d="m13.1 12.3 1.4-4.55-2.3 1.1z"/><path fill="#6060ff" d="m11.4 4.5 2.2-.95-.65-2.7z"/><path fill="#6060ff" d="M10.65 15.4h1.5l.6-1.95-2.35 1.2z"/><path fill="#6060ff" d="M4.95 15.4 4 14.05 2.2 15.4z"/><path fill="#6060ff" d="m4.1 13.4 3.8-2.85-5.3.75z"/><path fill="#6060ff" d="m10.2 15.4-.2-.55-1.1.55z"/><path fill="#6060ff" d="M0 15.4h1.4l2.3-1.7-1.45-2.15z"/><path fill="#6060ff" d="M5.5 15.4h.8l1.9-4.5-3.85 2.9z"/><path fill="#6060ff" d="M6.85 15.4h1.1l1.95-1-1.2-3.55z"/></svg>