<svg xmlns="http://www.w3.org/2000/svg" viewBox="0 0 16 16"><path fill="#a040ff" fill-rule="evenodd" d="M7.5 14.75V11c0-.88.51-1.65 1.25-2.02V8.5c0-1.2.61-2.27 1.55-2.9l-.04-.05V5.5a7 7 0 0 1-1.7-4.15L8.46 0Q7.36.46 6.6 1.35c-1 1.1-1.6 2.4-2.3 3.7-1.2 2.5-2.25 5.5-.85 8.1a4.9 4.9 0 0 0 4.41 2.84 2.2 2.2 0 0 1-.37-1.24" clip-rule="evenodd"/><path fill="#a0a0a0" d="M14.75 9.75V8.5a2.5 2.5 0 0 0-5 0v1.25c-.69 0-1.25.56-1.25 1.25v3.75c0 .69.56 1.25 1.25 1.25h5c.69 0 1.25-.56 1.25-1.25V11c0-.69-.56-1.25-1.25-1.25m-2.5 4.06a.94.94 0 1 1 0-1.87.94.94 0 0 1 0 1.87m1.25-4.06H11V8.5a1.25 1.25 0 0 1 2.5 0z"/></svg>