<svg xmlns="http://www.w3.org/2000/svg" viewBox="0 0 16 16"><path fill="#a040ff" d="M14 3H8L6.59 1.59A2 2 0 0 0 5.17 1H2a2 2 0 0 0-2 2v10c0 1.1.9 2 2 2h7.21q-.12-.18-.22-.38c-1.07-1.98-.27-4.2.54-5.9l.23-.43c.38-.71.77-1.45 1.37-2.12q.62-.7 1.52-1.1l1.28-.51.16 2.2c.04.76.33 1.47.82 2.02l.24.32q.45.52.85 1.09V5a2 2 0 0 0-2-2"/><path fill="#a040ff" fill-rule="evenodd" d="M14.15 9.44a4.4 4.4 0 0 1-1.06-2.6L13.03 6q-.68.28-1.16.84c-.62.7-1 1.5-1.43 2.32-.75 1.56-1.41 3.43-.54 5.06.94 2.12 4.1 2.43 5.5.47 1.38-2.1.13-3.6-1.25-5.22z" clip-rule="evenodd"/></svg>