<svg xmlns="http://www.w3.org/2000/svg" viewBox="0 0 16 16"><path fill="#a040ff" fill-rule="evenodd" d="M3.6 13.4a4.7 4.7 0 0 0 1.97 1.98z" clip-rule="evenodd"/><path fill="#a040ff" fill-rule="evenodd" d="m5.1 9.78 2.78 2.78 4.39-4.39a23 23 0 0 0-2.01-2.62V5.5a7 7 0 0 1-1.7-4.15L8.46 0Q7.36.46 6.6 1.35c-1 1.1-1.6 2.4-2.3 3.7a15 15 0 0 0-1.47 4.49c.7-.43 1.66-.35 2.25.24" clip-rule="evenodd"/><path fill="#a040ff" fill-rule="evenodd" d="M9.89 15.67a5 5 0 0 0 3-3z" clip-rule="evenodd"/><path fill="#40ff40" d="M15.76 7.3a.8.8 0 0 0-1.15 0l-6.45 6.45a.4.4 0 0 1-.57 0l-3.2-3.2a.8.8 0 0 0-1.15 0 .8.8 0 0 0 0 1.15l4.06 4.06a.8.8 0 0 0 1.15 0l7.31-7.31a.8.8 0 0 0 0-1.15"/></svg>