<svg xmlns="http://www.w3.org/2000/svg" viewBox="0 0 16 16"><path fill="#a040ff" fill-rule="evenodd" d="M4.96 9.55a2.6 2.6 0 0 1 2.86-.94l.96-1.9c.3-.62.82-1.05 1.43-1.28a7 7 0 0 1-1.65-4.08L8.46 0Q7.36.46 6.6 1.35c-1 1.1-1.6 2.4-2.3 3.7-1.05 2.18-1.98 4.73-1.27 7.07z" clip-rule="evenodd"/><path fill="#a040ff" d="m15.83 13.65-3.25-6.5a1.62 1.62 0 0 0-2.9 0l-.63 1.23 3.54 4.7a.8.8 0 0 1-.16 1.13.8.8 0 0 1-1.14-.16L8.2 9.98c-.7-.7-1.85-.62-2.45.17L3.33 13.4a1.63 1.63 0 0 0 1.3 2.6h9.74c1.21 0 2-1.27 1.46-2.35"/></svg>