<svg xmlns="http://www.w3.org/2000/svg" viewBox="0 0 16 16"><path fill="#a040ff" fill-rule="evenodd" d="M8.56 15.44c-.77.4-1.73.13-2.17-.63l-.94-1.62A1.6 1.6 0 0 1 6 11q-.53-.35-.7-.96c-.11-.41-.05-.85.16-1.23L6.4 7.2a1.63 1.63 0 0 1 2.17-.63c.03-.77.6-1.4 1.35-1.53a7 7 0 0 1-1.35-3.68L8.46 0Q7.36.46 6.6 1.35c-1 1.1-1.6 2.4-2.3 3.7-1.2 2.5-2.25 5.5-.85 8.1a5 5 0 0 0 5.21 2.8 2 2 0 0 1-.11-.51" clip-rule="evenodd"/><path fill="#a0a0a0" d="m15.69 11.83-.9-.52c-.3-.17-.3-.45 0-.62l.9-.52c.3-.18.4-.56.23-.86l-.94-1.62a.63.63 0 0 0-.85-.23l-.9.52c-.3.17-.55.03-.55-.31V6.63a.63.63 0 0 0-.62-.63h-1.88a.63.63 0 0 0-.62.63v1.04c0 .34-.25.48-.55.31l-.9-.52a.63.63 0 0 0-.85.23L6.32 9.3c-.17.3-.07.68.23.86l.9.52c.3.17.3.45 0 .62l-.9.52c-.3.18-.4.56-.23.86l.94 1.62c.17.3.55.4.85.23l.9-.52c.3-.17.55-.03.55.31v1.05c0 .34.28.62.62.62h1.88c.34 0 .62-.28.62-.62v-1.05c0-.34.24-.48.54-.31l.9.52c.3.17.69.07.86-.23l.94-1.62a.63.63 0 0 0-.23-.86m-3.8.52a1.56 1.56 0 1 1-1.55-2.7 1.56 1.56 0 0 1 1.56 2.7"/></svg>