<svg xmlns="http://www.w3.org/2000/svg" viewBox="0 0 16 16"><path fill="#40ffa0" d="M14 3H8L6.59 1.59A2 2 0 0 0 5.17 1H2a2 2 0 0 0-2 2v10c0 1.1.9 2 2 2h.1a2.6 2.6 0 0 1 .43-2.2l2.43-3.25a2.6 2.6 0 0 1 2.86-.94l.96-1.9a2.6 2.6 0 0 1 2.34-1.46c1 0 1.9.56 2.35 1.45L16 11.76V5a2 2 0 0 0-2-2"/><path fill="#40ffa0" d="m15.83 13.65-3.25-6.5a1.62 1.62 0 0 0-2.9 0l-.63 1.23 3.54 4.7a.8.8 0 0 1-.16 1.13.8.8 0 0 1-1.14-.16L8.2 9.98c-.7-.7-1.85-.62-2.45.17L3.33 13.4a1.63 1.63 0 0 0 1.3 2.6h9.74c1.21 0 2-1.27 1.46-2.35"/></svg>