<svg xmlns="http://www.w3.org/2000/svg" viewBox="0 0 16 16"><path fill="#a0ff40" d="M14 15a2 2 0 0 0 2-2v-.34L13.66 15z"/><path fill="#a0ff40" d="M15 3H8L6.59 1.59A2 2 0 0 0 5.17 1H2a2 2 0 0 0-2 2v10c0 1.1.9 2 2 2h6.34l-2.88-2.89a1.6 1.6 0 0 1 0-2.22L8.36 7H5.44a2 2 0 0 0-1.9 1.37L2 13V7c0-1.1.9-2 2-2h11c.55 0 1-.45 1-1s-.45-1-1-1"/><path fill="#a0ff40" d="M14 7h-.33L16 9.34V9a2 2 0 0 0-2-2"/><path fill="#a0ff40" d="M11 14.12 7.88 11 11 7.88l1.06 1.03L9.97 11 11 12.03l3.12-3.12-2.68-2.75a.6.6 0 0 0-.81 0L6.16 10.6a.6.6 0 0 0 0 .82l4.43 4.43c.22.21.6.21.82 0l4.43-4.43a.6.6 0 0 0 0-.82l-.63-.62z"/></svg>