<svg xmlns="http://www.w3.org/2000/svg" viewBox="0 0 16 16"><path fill="#6060ff" d="m4.85 6.1 3-1.74h.3l3 1.74c.1 0 .14.1.14.2v3.5q0 .16-.14.25l-3 1.74H7.9L4.85 10a.3.3 0 0 1-.14-.24v-3.5q0-.14.14-.2"/><path fill="#6060ff" d="m15.89 7.7-3.65-6.34c-.1-.2-.35-.4-.6-.4H4.36c-.25 0-.5.2-.6.4L.1 7.65a.7.7 0 0 0 0 .75l3.65 6.29c.1.2.35.35.6.35h7.28a.7.7 0 0 0 .6-.35l3.65-6.3a.6.6 0 0 0 0-.69m-3 3q0 .16-.15.25l-4.59 2.64h-.3L3.31 11a.3.3 0 0 1-.15-.24V5.4q0-.16.15-.25l4.54-2.64h.3l4.6 2.64q.14.09.14.25z"/></svg>