<svg xmlns="http://www.w3.org/2000/svg" viewBox="0 0 16 16"><path fill="#6060ff" d="M5.1 12.02 3.3 11a.3.3 0 0 1-.14-.25V5.4q0-.16.15-.25l4.54-2.64h.3l4.6 2.64q.09.06.12.16a6 6 0 0 1 2.66 1.76l-3.29-5.71c-.1-.2-.35-.4-.6-.4H4.36c-.25 0-.5.2-.6.4L.1 7.66a.7.7 0 0 0 0 .74l3.65 6.29c.1.2.35.35.6.35h2.21a6 6 0 0 1-1.47-3.02"/><path fill="#ff4040" d="M11 6a5 5 0 1 0 0 10 5 5 0 0 0 0-10m2.5 5.63h-5a.62.62 0 1 1 0-1.26h5a.62.62 0 1 1 0 1.26"/><path fill="#6060ff" d="m9.56 5.18-1.41-.82h-.3l-3 1.74v-.05q-.14.06-.14.2v3.5q0 .16.14.25l.22.12a6 6 0 0 1 4.5-4.94"/></svg>