<svg xmlns="http://www.w3.org/2000/svg" viewBox="0 0 16 16"><path fill="#ffff40" d="M6.33 14.01c-.22-.66.01-1.39.57-1.81l.6-.45v-1.37C7.5 9 8.2 7.75 9.27 7H5.44a2 2 0 0 0-1.9 1.37L2 13V7c0-1.1.9-2 2-2h11c.55 0 1-.45 1-1s-.45-1-1-1H8L6.59 1.59A2 2 0 0 0 5.17 1H2a2 2 0 0 0-2 2v10c0 1.1.9 2 2 2h5.28a1.6 1.6 0 0 1-.95-.99"/><path fill="#ffff40" d="M14 7h-.02c1.07.75 1.77 2 1.77 3.38v1.37l.25.19V9a2 2 0 0 0-2-2"/><path fill="#ffff40" d="M10.38 14.75a1.25 1.25 0 0 0 2.5 0z"/><path fill="#ffff40" d="m15.75 13-1-.75v-1.87a3.1 3.1 0 0 0-2.5-3.07v-.68a.62.62 0 1 0-1.25 0v.68a3.1 3.1 0 0 0-2.5 3.07v1.87l-1 .75a.62.62 0 0 0 .38 1.13h7.5c.6 0 .85-.77.37-1.13"/></svg>