<svg xmlns="http://www.w3.org/2000/svg" viewBox="0 0 16 16"><path fill="#ffff40" d="M14 3H8L6.59 1.59A2 2 0 0 0 5.17 1H2a2 2 0 0 0-2 2v10c0 1.1.9 2 2 2h5.28a1.61 1.61 0 0 1-.38-2.8l.6-.45v-1.37a4.1 4.1 0 0 1 2.5-3.8 1.63 1.63 0 0 1 3.25 0 4.1 4.1 0 0 1 2.5 3.8v1.37l.25.19V5a2 2 0 0 0-2-2"/><path fill="#ffff40" d="M10.38 14.75a1.25 1.25 0 0 0 2.5 0z"/><path fill="#ffff40" d="m15.75 13-1-.75v-1.87a3.1 3.1 0 0 0-2.5-3.07v-.68a.62.62 0 1 0-1.25 0v.68a3.1 3.1 0 0 0-2.5 3.07v1.87l-1 .75a.62.62 0 0 0 .38 1.13h7.5c.6 0 .85-.77.37-1.13"/></svg>