<svg xmlns="http://www.w3.org/2000/svg" viewBox="0 0 16 16"><path fill="#ffff40" d="M15.44 13.5q-.01.47-.25.84l.1.18c.43-.37.71-.9.71-1.52v-.78q-.25.32-.56.6z"/><path fill="#ffff40" d="M14 3H8L6.59 1.59A2 2 0 0 0 5.17 1H2a2 2 0 0 0-2 2v10c0 1.1.9 2 2 2h7.7q.02-.36.23-.66a1.6 1.6 0 0 1-.24-.84v-.68A4.44 4.44 0 0 1 12.57 5 4.4 4.4 0 0 1 16 6.67V5a2 2 0 0 0-2-2"/><path fill="#ffff40" d="M16 9.44a3.44 3.44 0 1 0-5.31 2.88v1.18c0 .35.28.63.62.63h2.5c.35 0 .63-.28.63-.63v-1.18A3.4 3.4 0 0 0 16 9.44"/><path fill="#ffff40" d="M14.13 14.75H11a.3.3 0 0 0-.31.31v.31c0 .35.28.63.62.63h2.5c.35 0 .63-.28.63-.62v-.32a.3.3 0 0 0-.31-.31"/></svg>