<svg xmlns="http://www.w3.org/2000/svg" viewBox="0 0 16 16"><path fill="#e0e0e0" d="M15 3H8L6.59 1.59A2 2 0 0 0 5.17 1H2a2 2 0 0 0-2 2v10c0 1.1.9 2 2 2h1.83l-.04-.38c0-.56 2.8-5.6 3.94-7.62H5.44a2 2 0 0 0-1.9 1.37L2 13V7c0-1.1.9-2 2-2h11c.55 0 1-.45 1-1s-.45-1-1-1"/><path fill="#e0e0e0" d="M14 7h-.93c.7 1.24 2.01 3.6 2.93 5.39V9a2 2 0 0 0-2-2"/><path fill="#e0e0e0" d="M10.4 11.01 7.92 15h4.96z"/><path fill="#e0e0e0" d="M10.1 9.68c.1-.14.2-.15.28-.15s.21.01.3.15a78 78 0 0 1 2.8 4.39c.57.94 1.01 1.66 1.1 1.76.34.34.81.13 1.08-.27.27-.38.34-.65.34-.94 0-.2-3.86-7.31-4.24-7.9-.38-.58-.5-.72-1.14-.72h-.48c-.64 0-.73.14-1.1.71-.39.6-4.25 7.71-4.25 7.9 0 .3.08.57.34.95.27.4.74.61 1.08.27.09-.1.53-.82 1.1-1.76a75 75 0 0 1 2.8-4.4"/></svg>