<svg xmlns="http://www.w3.org/2000/svg" viewBox="0 0 16 16"><path fill="#6060ff" d="M15.49.84A1 1 0 0 0 14.5 0h-1a1 1 0 0 0-.99.84l-.5 3A1 1 0 0 0 13 5h2a1 1 0 0 0 .99-1.16z"/><path fill="#6060ff" d="M14 6h-4V5a1 1 0 0 0-1.45-.9L6 5.39V5a1 1 0 0 0-1.45-.9L1.11 5.84A2 2 0 0 0 0 7.62V14c0 1.1.9 2 2 2h12a2 2 0 0 0 2-2V8a2 2 0 0 0-2-2m-9 6c0 .55-.45 1-1 1s-1-.45-1-1v-2c0-.55.45-1 1-1s1 .45 1 1zm3 0c0 .55-.45 1-1 1s-1-.45-1-1v-2c0-.55.45-1 1-1s1 .45 1 1zm3 0c0 .55-.45 1-1 1s-1-.45-1-1v-2c0-.55.45-1 1-1s1 .45 1 1z"/></svg>