<svg xmlns="http://www.w3.org/2000/svg" viewBox="0 0 16 16"><path fill="#6060ff" d="M14 3H8L6.59 1.59A2 2 0 0 0 5.17 1H2a2 2 0 0 0-2 2v10c0 1.1.9 2 2 2h3.04Q5 14.88 5 14.75v-3.99c0-.86.48-1.63 1.25-2.01L8.4 7.67a1.6 1.6 0 0 1 1.88.31l.62-.3a1.6 1.6 0 0 1 1.58.06l.11.09.25-1.47c.13-.79.8-1.36 1.6-1.36h.62q.53.02.94.32V5a2 2 0 0 0-2-2"/><path fill="#6060ff" d="M15.68 6.52a.6.6 0 0 0-.62-.52h-.62c-.3 0-.57.22-.62.52l-.31 1.88c-.06.38.23.72.62.72h1.25c.38 0 .67-.34.61-.72z"/><path fill="#6060ff" d="M14.75 9.75h-2.5v-.63a.62.62 0 0 0-.9-.55l-1.6.8v-.25a.62.62 0 0 0-.9-.55L6.69 9.64c-.42.21-.69.65-.69 1.12v3.99c0 .69.56 1.25 1.25 1.25h7.5c.69 0 1.25-.56 1.25-1.25V11c0-.69-.56-1.25-1.25-1.25M9.13 13.5c0 .34-.29.63-.63.63s-.62-.29-.62-.63v-1.25c0-.34.28-.62.62-.62s.63.28.63.62zm1.87 0c0 .34-.28.63-.62.63s-.63-.29-.63-.63v-1.25c0-.34.28-.62.63-.62s.62.28.62.62zm1.88 0c0 .34-.29.63-.63.63s-.62-.29-.62-.63v-1.25c0-.34.28-.62.62-.62s.63.28.63.62z"/></svg>