<svg xmlns="http://www.w3.org/2000/svg" viewBox="0 0 16 16"><path fill="#6060ff" d="M13.35 4.23c-.6 0-1.21.2-1.72.6L9.16 3.06v-.1a1.21 1.21 0 1 0-.71 1.11l3.53 2.53.1-.25c.26-.5.76-.86 1.27-.86a1.41 1.41 0 0 1 .5 2.73l-.25.1.35 1.2.26-.1a2.68 2.68 0 0 0-.81-5.2z"/><path fill="#ff4040" d="M10.57 2.86C10.57 1.7 9.81.7 8.7.34a2.68 2.68 0 0 0-3.28 3.53L2.99 5.7l-.1-.05a1.21 1.21 0 1 0 .76 1.52c.05-.16.1-.3.05-.51l3.54-2.53-.26-.2c-.4-.4-.55-1-.4-1.51a1.36 1.36 0 0 1 1.77-.91c.5.2.9.76.96 1.36v.2h1.26z"/><path fill="#40a0ff" d="M5.27 12.06c-.16-.06-.3-.16-.5-.16L3.44 7.81l-.26.1c-.5.26-1.06.26-1.51-.05a1.36 1.36 0 0 1-.3-1.92c.35-.5 1-.7 1.51-.5l.25.05.4-1.16-.2-.1a2.63 2.63 0 1 0-.65 5.15l.96 2.88-.1.1a1.21 1.21 0 0 0 1 1.92h.16q.51-.14.8-.5a1.2 1.2 0 0 0-.24-1.67z"/><path fill="#40ff40" d="M13.7 8.01a1.21 1.21 0 0 0-.76-2.27q-.46.15-.7.6c-.24.45-.18 1 .15 1.37l-1.32 4.04.26.05c.55.1 1 .5 1.21.96a1.37 1.37 0 0 1-2.42 1.27l-.16-.2-1.06.7.15.2a2.68 2.68 0 0 0 4.7-2.37 2.6 2.6 0 0 0-1.1-1.42l.9-2.88h.1z"/><path fill="#a040ff" d="M12.19 12.36c-.2-.25-.5-.4-.76-.5a1.2 1.2 0 0 0-1.26.65H5.92l.05.25c.1.56-.1 1.16-.5 1.47a1.43 1.43 0 0 1-2.07-1.97l.15-.2-1.01-.76-.15.2a2.63 2.63 0 0 0 3.68 3.69c.5-.36.86-.91 1.01-1.52h3.04l.05.1c.2.26.5.4.8.5.3 0 .66-.04.91-.24.5-.4.66-1.17.26-1.72z"/></svg>