<svg xmlns="http://www.w3.org/2000/svg" viewBox="0 0 16 16"><path fill="#40ffa0" d="M7 15a1 1 0 0 1-1 1H1a1 1 0 0 1-1-1v-5a1 1 0 0 1 1-1h5a1 1 0 0 1 1 1z"/><path fill="#40ffa0" d="M7 6a1 1 0 0 1-1 1H1a1 1 0 0 1-1-1V1a1 1 0 0 1 1-1h5a1 1 0 0 1 1 1z"/><path fill="#40ffa0" d="m12.6 5.97 1.58.83c.33.17.7-.1.65-.47l-.3-1.76a.2.2 0 0 1 .06-.2l1.27-1.24a.45.45 0 0 0-.24-.76l-1.76-.25a.2.2 0 0 1-.17-.13L12.9.4a.45.45 0 0 0-.8 0L11.31 2a.2.2 0 0 1-.17.13l-1.76.25a.45.45 0 0 0-.24.76l1.27 1.25q.08.08.06.2l-.3 1.75c-.06.36.32.64.65.47l1.58-.83a.2.2 0 0 1 .2 0"/><path fill="#40ffa0" d="M16 15a1 1 0 0 1-1 1h-5a1 1 0 0 1-1-1v-5a1 1 0 0 1 1-1h5a1 1 0 0 1 1 1z"/></svg>