<svg xmlns="http://www.w3.org/2000/svg" viewBox="0 0 16 16"><path fill="#40ffa0" d="M14 3H8L6.59 1.59A2 2 0 0 0 5.17 1H2a2 2 0 0 0-2 2v10c0 1.1.9 2 2 2h3v-2.75c0-.5.24-.95.6-1.25-.36-.3-.6-.74-.6-1.25V6.63C5 5.73 5.73 5 6.63 5h3.12c.89 0 1.6.71 1.62 1.6q.17-.08.35-.1l.65-.1.3-.6a1.29 1.29 0 0 1 2.29 0l.3.6.65.1.09.02V5a2 2 0 0 0-2-2"/><path fill="#40ffa0" d="M10.38 15.38c0 .34-.29.62-.63.62H6.63a.63.63 0 0 1-.63-.62v-3.13c0-.34.28-.62.63-.62h3.12c.34 0 .63.28.63.62z"/><path fill="#40ffa0" d="M10.38 9.75c0 .34-.29.63-.63.63H6.63A.63.63 0 0 1 6 9.74V6.63c0-.35.28-.63.63-.63h3.12c.34 0 .63.28.63.63z"/><path fill="#40ffa0" d="m13.88 9.73.98.52c.2.1.45-.07.4-.3l-.18-1.1q-.01-.06.04-.11l.8-.78a.28.28 0 0 0-.16-.48l-1.1-.16a.1.1 0 0 1-.1-.07l-.5-1c-.1-.2-.4-.2-.5 0l-.49 1a.1.1 0 0 1-.1.07l-1.1.16a.28.28 0 0 0-.16.48l.8.77q.04.06.04.13l-.2 1.1c-.03.22.2.4.41.29l.99-.52a.1.1 0 0 1 .13 0"/><path fill="#40ffa0" d="M16 15.38c0 .34-.28.62-.62.62h-3.13a.63.63 0 0 1-.62-.62v-3.13c0-.34.28-.62.62-.62h3.13c.34 0 .62.28.62.62z"/></svg>