<svg xmlns="http://www.w3.org/2000/svg" viewBox="0 0 16 16"><path fill="#40ffff" d="M15 3H8L6.59 1.59A2 2 0 0 0 5.17 1H2a2 2 0 0 0-2 2v10c0 1.1.9 2 2 2h3V7.25l.02-.18a2 2 0 0 0-1.48 1.3L2 13V7c0-1.1.9-2 2-2h11c.55 0 1-.45 1-1s-.45-1-1-1"/><path fill="#40ffff" d="M14.75 6h-7.5C6.56 6 6 6.56 6 7.25v8.12c0 .62.8.87 1.15.35l.97-1.46a.3.3 0 0 1 .26-.14h6.37c.69 0 1.25-.56 1.25-1.25V7.25C16 6.56 15.44 6 14.75 6m-2.81 6.25c0 .34-.28.63-.63.63h-.62a.63.63 0 0 1-.63-.63v-.62c0-.35.28-.63.63-.63h.62c.35 0 .63.28.63.63zm0-2.5c0 .34-.28.63-.63.63h-.62a.63.63 0 0 1-.63-.63V7.88c0-.35.28-.63.63-.63h.62c.35 0 .63.28.63.63z"/></svg>