<svg xmlns="http://www.w3.org/2000/svg" viewBox="0 0 16 16"><path fill="#a0a0a0" d="M8.75 11.46 5.81 8.97a2.2 2.2 0 0 1-.79-1.9c-.68.14-1.25.62-1.48 1.3L2 13V7c0-1.1.9-2 2-2h11c.55 0 1-.45 1-1s-.45-1-1-1H8L6.59 1.59A2 2 0 0 0 5.17 1H2a2 2 0 0 0-2 2v10c0 1.1.9 2 2 2h6.75z"/><path fill="#a0a0a0" d="M13.25 15H14a2 2 0 0 0 2-2V9.14l-2.75 2.32z"/><path fill="#a0a0a0" d="M14.75 6h-7.5a1.25 1.25 0 0 0-.8 2.21L9.75 11v4.38c0 .34.28.62.63.62h1.24c.35 0 .63-.28.63-.62V11l3.3-2.79c.9-.75.37-2.21-.8-2.21"/></svg>