<svg xmlns="http://www.w3.org/2000/svg" viewBox="0 0 16 16"><path fill="#ffff40" d="M14 3H8L6.59 1.59A2 2 0 0 0 5.17 1H2a2 2 0 0 0-2 2v10c0 1.1.9 2 2 2h6.6l-.6-.37-.25-.72 1.23-7.73a1.2 1.2 0 0 1 1.04-1.17c.6-.08 1.14.27 1.33.8l.42.8c.6-.33 1.36-.11 1.7.49l.28.55.32-.33.49-.24h.23q.38 0 .68.19l.39.35.14.35V5a2 2 0 0 0-2-2"/><path fill="#ffa040" d="m13.52 9.35-.93-1.77a.25.25 0 0 0-.44 0l-.5.94-1.23-2.33a.22.22 0 1 0-.44.06l-1.24 7.82h.03L8.9 14l3.63-3.6.03-.1v.04l.93-.94z"/><path fill="#ffff40" d="M15.04 8.27c0-.13-.13-.19-.25-.19l-.12.06-5.9 5.9v.03l3.26 1.86q.35.15.65 0L16 14.07l-.93-5.8z"/></svg>