<svg xmlns="http://www.w3.org/2000/svg" viewBox="0 0 16 16"><path fill="#ffff40" d="m8 14.63-.25-.72L8.85 7h-3.4a2 2 0 0 0-1.9 1.37L2 13V7c0-1.1.9-2 2-2h11c.55 0 1-.45 1-1s-.45-1-1-1H8L6.59 1.59A2 2 0 0 0 5.17 1H2a2 2 0 0 0-2 2v10c0 1.1.9 2 2 2h6.6z"/><path fill="#ffff40" d="M14.55 7.09A2 2 0 0 0 14 7h-.62l.08.1.29.55.32-.33z"/><path fill="#ffa040" d="m13.52 9.35-.93-1.77a.25.25 0 0 0-.44 0l-.5.94-1.23-2.33a.22.22 0 1 0-.44.06l-1.24 7.82h.03L8.9 14l3.63-3.6.03-.1v.04l.93-.94z"/><path fill="#ffff40" d="M15.04 8.27c0-.13-.13-.19-.25-.19l-.12.06-5.9 5.9v.03l3.26 1.86q.35.15.65 0L16 14.07l-.93-5.8z"/></svg>