<svg xmlns="http://www.w3.org/2000/svg" viewBox="0 0 16 16"><path fill="#ffa040" d="M14.56 12.13v2.78A2 2 0 0 0 16 13v-1.08q-.37.2-.81.2z"/><path fill="#ffa040" d="M14 3H8L6.59 1.59A2 2 0 0 0 5.17 1H2a2 2 0 0 0-2 2v10c0 1.1.9 2 2 2h3.25V8.88H3.81a1.81 1.81 0 0 1 0-3.63h6.5a1.8 1.8 0 0 1 1.1 3.25h3.78q.44.01.81.2V5a2 2 0 0 0-2-2"/><path fill="#ffa040" d="M15.19 9.5H10.3a.81.81 0 0 0 0 1.63h1.63v4.06a.81.81 0 0 0 1.63 0v-4.06h1.62c.45 0 .81-.37.81-.82a.8.8 0 0 0-.81-.81"/><path fill="#ffa040" d="M11.13 7.06a.8.8 0 0 0-.82-.81h-6.5a.81.81 0 0 0 0 1.63h2.44v7.3a.81.81 0 1 0 1.63 0v-7.3h2.43c.45 0 .81-.37.81-.82"/></svg>