<svg xmlns="http://www.w3.org/2000/svg" viewBox="0 0 16 16"><path fill="#ff4040" d="M13.42 11.84a.85.85 0 0 0-.85.85v.73q.55.61.56 1.45l-.02.13H14a2 2 0 0 0 2-2v-.92a2.1 2.1 0 0 1-2.58-.24"/><path fill="#ff4040" d="M14 3H8L6.59 1.59A2 2 0 0 0 5.17 1H2a2 2 0 0 0-2 2v10c0 1.1.9 2 2 2h6.89l-.02-.13c0-.54.2-1.06.56-1.45V9.55c0-2.2 1.79-3.98 3.99-3.98A2.1 2.1 0 0 1 16 5.33V5a2 2 0 0 0-2-2"/><path fill="#ffa040" d="M14.87 6c-.42 0-.78.23-.98.57h-.47a3 3 0 0 0-2.99 2.98v4.83h1.14V9.55c0-1.02.83-1.85 1.85-1.85h.47A1.13 1.13 0 0 0 16 7.13C16 6.51 15.5 6 14.87 6m0 1.6a.46.46 0 1 1 0-.93.46.46 0 0 1 0 .93"/><path fill="#ff4040" d="M14.87 9.14c-.42 0-.78.23-.98.57h-.47a3 3 0 0 0-2.99 2.98v1.2A1.13 1.13 0 0 0 11 16a1.13 1.13 0 0 0 .57-2.11v-1.2c0-1.02.83-1.85 1.85-1.85h.47a1.13 1.13 0 0 0 2.11-.56c0-.63-.5-1.14-1.13-1.14M11 15.33a.46.46 0 1 1 0-.93.46.46 0 0 1 0 .93m3.87-4.6a.46.46 0 1 1 0-.92.46.46 0 0 1 0 .93"/></svg>