<svg xmlns="http://www.w3.org/2000/svg" viewBox="0 0 16 16"><path fill="#40ff40" d="m2.02 14.04.22-1.77L2 13V7c0-1.1.9-2 2-2h11c.55 0 1-.45 1-1s-.45-1-1-1H8L6.59 1.59A2 2 0 0 0 5.17 1H2a2 2 0 0 0-2 2v10c0 1.1.9 2 2 2h.08q-.11-.46-.06-.96"/><path fill="#40ff40" d="M10.85 14.56h-2.7l-.44.44h3.58z"/><path fill="#40ff40" d="m15.99 14.17-.82-6.5a1.6 1.6 0 0 0-1.6-1.42H5.43c-.82 0-1.51.61-1.61 1.42L3 14.17a1.62 1.62 0 0 0 2.76 1.35L7.5 13.8a.8.8 0 0 1 .57-.24h2.86q.33 0 .57.24l1.73 1.72c1.09 1.1 2.95.18 2.76-1.35m-8.11-3.45h-.41v.4c0 .45-.37.81-.81.81s-.82-.36-.82-.8v-.41h-.4c-.45 0-.81-.37-.81-.82s.36-.8.8-.8h.41v-.41c0-.45.37-.82.82-.82s.8.37.8.82v.4h.42c.44 0 .8.37.8.81s-.36.82-.8.82m3.65-.82a.81.81 0 1 1 0-1.62.81.81 0 0 1 0 1.62m1.63 1.63a.81.81 0 1 1 0-1.63.81.81 0 0 1 0 1.63"/></svg>