<svg xmlns="http://www.w3.org/2000/svg" viewBox="0 0 16 16"><path fill="#ff4040" d="M7.5 14.75v-.54l-5.15-2.96v-6.5L8 1.5l5.65 3.25v.55q.82.36 1.35 1.06V4L8 0 1 4v8l6.84 3.9q-.33-.5-.34-1.15"/><path fill="#ff4040" d="M7.5 11c0-.88.51-1.65 1.25-2.02V8.5a3.5 3.5 0 0 1 2.1-3.2l-.05-.05H5.2l-2 2 4.3 4.26z"/><path fill="#a0a0a0" d="M14.75 9.75V8.5a2.5 2.5 0 0 0-5 0v1.25c-.69 0-1.25.56-1.25 1.25v3.75c0 .69.56 1.25 1.25 1.25h5c.69 0 1.25-.56 1.25-1.25V11c0-.69-.56-1.25-1.25-1.25m-2.5 4.06a.94.94 0 1 1 0-1.87.94.94 0 0 1 0 1.87m1.25-4.06H11V8.5a1.25 1.25 0 0 1 2.5 0z"/></svg>