<svg xmlns="http://www.w3.org/2000/svg" viewBox="0 0 16 16"><path fill="#40ff40" d="M15 3H8L6.59 1.59A2 2 0 0 0 5.17 1H2a2 2 0 0 0-2 2v10c0 1.1.9 2 2 2h4.53a5.9 5.9 0 0 1-.71-6.96 1.6 1.6 0 0 1-.76-.98 2 2 0 0 0-1.52 1.3L2 13V7c0-1.1.9-2 2-2h11c.55 0 1-.45 1-1s-.45-1-1-1"/><path fill="#40ff40" d="M6 11.04a5 5 0 0 1 1.77-3.79H6.63a.62.62 0 1 1 0-1.25h2.5c.34 0 .62.28.62.63v2.5a.62.62 0 1 1-1.25 0v-.86a3.7 3.7 0 0 0-1.25 2.77c0 1.9 1.4 3.46 3.22 3.72a.62.62 0 0 1-.18 1.23A5 5 0 0 1 6 11.04"/><path fill="#40ff40" d="M16 10.96a5 5 0 0 1-1.77 3.79h1.14a.62.62 0 1 1 0 1.25h-2.5a.6.6 0 0 1-.62-.62v-2.5a.62.62 0 1 1 1.25 0v.85a3.7 3.7 0 0 0 1.25-2.77c0-1.9-1.4-3.46-3.22-3.72a.6.6 0 0 1-.53-.61c0-.38.34-.68.71-.62A5 5 0 0 1 16 10.96"/></svg>