<svg xmlns="http://www.w3.org/2000/svg" viewBox="0 0 16 16"><path fill="#a040ff" d="M4.38 12.72a3.5 3.5 0 0 1 3.2-2.79 3.5 3.5 0 0 1-.26-1.9q.1-.55.34-1.03H5.44a2 2 0 0 0-1.9 1.37L2 13V7c0-1.1.9-2 2-2h11c.55 0 1-.45 1-1s-.45-1-1-1H8L6.59 1.59A2 2 0 0 0 5.17 1H2a2 2 0 0 0-2 2v10c0 1.1.9 2 2 2h2.68a3.5 3.5 0 0 1-.3-2.28"/><path fill="#a040ff" d="M14.03 7q.23.48.31 1.03.14 1.04-.26 1.94l.1.01q1.08.25 1.82 1V9a2 2 0 0 0-1.97-2"/><path fill="#a040ff" fill-rule="evenodd" d="M15.94 12.92a2.55 2.55 0 1 0-4.98 1.06 2.55 2.55 0 0 0 4.98-1.06m-.4.8c-.34.73-.9 1-1.62.95-.16-.05-.38-.33-.55-.78a3 3 0 0 1 .06-1.6c.44-.28 1.16-.17 1.66.22a1 1 0 0 1 .44 1.22" clip-rule="evenodd"/><path fill="#a040ff" fill-rule="evenodd" d="M13.36 8.17a2.55 2.55 0 1 0-5.05.75 2.55 2.55 0 0 0 5.05-.75m-.65.63c-.34.72-.9 1.05-1.56 1-.22-.12-.44-.4-.55-.84-.17-.55-.17-1.27 0-1.55.5-.27 1.16-.22 1.66.17.22.17.67.55.45 1.22" clip-rule="evenodd"/><path fill="#a040ff" fill-rule="evenodd" d="M10.35 12.92a2.55 2.55 0 1 0-4.99 1.06 2.55 2.55 0 0 0 4.99-1.06m-.47.8c-.33.73-.83 1-1.55.95q-.32-.09-.56-.78a2.7 2.7 0 0 1 0-1.6c.5-.28 1.22-.17 1.67.22a1 1 0 0 1 .44 1.22" clip-rule="evenodd"/></svg>