<svg xmlns="http://www.w3.org/2000/svg" viewBox="0 0 16 16"><path fill="#ff4040" d="M8.9 3.89c.35.34.44.83.3 1.26l.1.11q.4-.25.88-.26h1.88c.87 0 1.59.7 1.62 1.56a1.6 1.6 0 0 1 1.16-.13L8.7.3c-.4-.4-1.05-.4-1.45 0L5.8 1.75 7.64 3.6c.43-.14.92-.04 1.26.3"/><path fill="#ff4040" d="M8.56 15.44c-.51.26-1.1.23-1.57-.04l.3.3a1 1 0 0 0 1.32.08z"/><path fill="#ff4040" d="M5.45 13.19A1.6 1.6 0 0 1 6 11q-.53-.35-.7-.96c-.11-.41-.05-.85.16-1.23L6.4 7.2c.26-.45.7-.72 1.18-.8v-.5a1.23 1.23 0 0 1-.67-1.6L5.1 2.46.3 7.26c-.4.4-.4 1.05 0 1.45l6.08 6.08z"/><path fill="#a0a0a0" d="m15.69 11.83-.9-.52c-.3-.17-.3-.45 0-.62l.9-.52c.3-.18.4-.56.23-.86l-.94-1.62a.63.63 0 0 0-.85-.23l-.9.52c-.3.17-.55.03-.55-.31V6.63a.63.63 0 0 0-.62-.63h-1.88a.63.63 0 0 0-.62.63v1.04c0 .34-.25.48-.55.31l-.9-.52a.63.63 0 0 0-.85.23L6.32 9.3c-.17.3-.07.68.23.86l.9.52c.3.17.3.45 0 .62l-.9.52c-.3.18-.4.56-.23.86l.94 1.62c.17.3.55.4.85.23l.9-.52c.3-.17.55-.03.55.31v1.05c0 .34.28.62.62.62h1.88c.34 0 .62-.28.62-.62v-1.05c0-.34.24-.48.54-.31l.9.52c.3.17.69.07.86-.23l.94-1.62a.63.63 0 0 0-.23-.86m-3.8.52a1.56 1.56 0 1 1-1.55-2.7 1.56 1.56 0 0 1 1.56 2.7"/></svg>