<svg xmlns="http://www.w3.org/2000/svg" viewBox="0 0 16 16"><path fill="#ffa040" d="M5.78 5.02q.76.27 1.48.63c-.51-.13-.8-.03-1.03.34q.1.13.27.09l1.36-.32q.42-.2.87-.31.3-.12.62-.21c-.68-.63-1.34-1.28-2.04-1.87-.78-.65-1.29-.56-1.93.23-.66.8-.59 1.1.4 1.42"/><path fill="#a0a0a0" d="M5 11a6 6 0 0 1 4.26-5.74q-.78-.04-1.38.47l.01.04h-.03c-.2-.15-.41-.05-.6 0q-.44.11-.92.15c.33-.21.74-.17 1.17-.34-.54-.22-1-.44-1.46-.6-1.08-.38-1.08-.37-.67-1.38L1.87 6.4.23 7.42c-.14.08-.27.17-.22.36.44.89.92 1.74 1.66 2.43q1.5 1.66 3.54 2.35A6 6 0 0 1 5 11"/><path fill="#ff4040" d="M11 6a5 5 0 1 0 0 10 5 5 0 0 0 0-10m2.5 5.63h-5a.62.62 0 1 1 0-1.26h5a.62.62 0 1 1 0 1.26"/></svg>