<svg xmlns="http://www.w3.org/2000/svg" viewBox="0 0 16 16"><path fill="#a0a0a0" d="M12.45 7.48c-.12-.64-.36-1.21-.93-1.59a2.7 2.7 0 0 0-2.14-.63 2 2 0 0 0-1.5.47l.01.04h-.03c-.2-.15-.41-.05-.6 0q-.44.11-.92.15c.33-.21.74-.17 1.17-.34q-.79-.34-1.46-.6C4.97 4.6 4.97 4.6 5.38 3.6L1.87 6.4.23 7.42c-.14.08-.27.17-.22.36.44.89.92 1.74 1.66 2.43a8.3 8.3 0 0 0 4.96 2.7q1.6-.77 3.17-1.58a6 6 0 0 0 1.89-1.45c.56-.7.88-1.49.76-2.4"/><path fill="#ffa040" d="M11.52 5.89c.38.47.69.98.81 1.58a3.3 3.3 0 0 1-.78 2.4c-1.03 1.05-2.35 1.63-3.64 2.26-.45.22-.94.37-1.28.79 2.5.42 4.79-.06 6.84-1.58a7 7 0 0 0 1.8-1.76q.45-.47.73-1.07-2.2-1.37-4.48-2.62"/><path fill="#ffa040" d="m7.86 5.76-1.36.32q-.17.05-.27-.09c.23-.37.52-.47 1.03-.34q-.72-.36-1.48-.63c-.99-.33-1.06-.61-.4-1.42.64-.8 1.15-.88 1.93-.23.71.6 1.38 1.26 2.07 1.89-.5.17-1.04.26-1.52.5"/></svg>