<svg xmlns="http://www.w3.org/2000/svg" viewBox="0 0 16 16"><path fill="#a0ff40" d="M14 3H8L6.59 1.59A2 2 0 0 0 5.17 1H2a2 2 0 0 0-2 2v10c0 1.1.9 2 2 2h4.32q-.16-.25-.27-.46c-.84-.1-2.25-.4-3.12-1.47a4 4 0 0 1-.87-1.98c-.2-1.35.14-2.49.99-3.24 1-.85 1.82-.88 2.63-.84l1.07.06c1.2.07 2.27.14 3.5.16h.82c1.12.02 4.2-.16 4.42-.18.1 0 .3.02.51.09V5a2 2 0 0 0-2-2"/><path fill="#a0ff40" d="M15.76 8.13c-.08-.08-.2-.08-.2-.08-.13.01-3.35.18-4.5.18v2.42l-.34-.16V8.23c-1.81-.01-3.25-.12-5.09-.22-.65-.03-1.18-.03-1.92.59-.93.83-.7 2.14-.66 2.34.03.24.14.92.65 1.5.95 1.16 2.99 1.13 2.99 1.13s.25.6.63 1.15c.52.68 1.05 1.22 1.57 1.28h3.9s.25 0 .59-.21c.29-.18.55-.49.55-.49-.03.1.82-1.14.93-1.51 0 0 1.14-2.42 1.14-4.78-.02-.71-.2-.84-.24-.88M5.48 12.35c-.54-.18-.76-.39-.76-.39s-.4-.27-.6-.82c-.34-.91-.03-1.47-.03-1.47s.18-.46.8-.62c.29-.08.64-.06.64-.06s.15 1.22.33 1.94c.15.6.5 1.6.5 1.6s-.53-.06-.88-.18m7.35-.11c-.13.31-1.14 2.33-1.14 2.33s-.13.3-.4.32c-.12 0-.22-.02-.22-.02l-.1-.05-2.34-1.13s-.23-.12-.27-.33c-.04-.16.06-.37.06-.37l1.12-2.31s.1-.2.25-.27l.1-.03c.33-.05.58.19.84.28l-.29.59c-.3-.02-.5.37-.29.6l-.5 1.04c-.38 0-.51.54-.18.7.36.2.73-.3.43-.59l.5-1.01.13-.01c.08-.02.14-.08.14-.08.24.12.55.2.71.43.04.11-.04.3-.04.3-.05.17-.38.85-.38.85-.38-.02-.53.53-.18.7.35.19.72-.3.44-.58l.4-.86c.01-.04.11-.22.05-.44-.05-.24-.26-.35-.26-.35-.25-.16-.6-.31-.6-.31.01-.04-.05-.25-.1-.28l.27-.57 1.57.76s.26.11.31.33a.6.6 0 0 1-.03.36"/></svg>