<svg xmlns="http://www.w3.org/2000/svg" viewBox="0 0 16 16"><path fill="#ff4040" d="M14 15a2 2 0 0 0 2-2v-.3L13.7 15z"/><path fill="#ff4040" d="M5.48 12.15a1.63 1.63 0 0 1 0-2.32L8.31 7H5.44a2 2 0 0 0-1.9 1.37L2 13V7c0-1.1.9-2 2-2h11c.55 0 1-.45 1-1s-.45-1-1-1H8L6.59 1.59A2 2 0 0 0 5.17 1H2a2 2 0 0 0-2 2v10c0 1.1.9 2 2 2h6.33z"/><path fill="#ff4040" d="M14 7h-.33L16 9.33V9a2 2 0 0 0-2-2"/><path fill="#ff4040" d="M15.81 10.55 11.45 6.2a.64.64 0 0 0-.92 0l-.9.9 1.15 1.16a.76.76 0 0 1 .97.97l1.1 1.1a.76.76 0 1 1-.45.44l-1.04-1.03v2.72q.12.05.2.14a.77.77 0 1 1-.83-.16V9.68a.77.77 0 0 1-.42-1L9.19 7.53l-3 3a.64.64 0 0 0 0 .9l4.37 4.37c.26.25.66.25.92 0l4.34-4.34a.64.64 0 0 0 0-.92"/></svg>