<svg xmlns="http://www.w3.org/2000/svg" viewBox="0 0 16 16"><path fill="#e0e0e0" d="M5.76 7.73q.26-.4.6-.73h-.92a2 2 0 0 0-1.9 1.37L2 13V7c0-1.1.9-2 2-2h11c.55 0 1-.45 1-1s-.45-1-1-1H8L6.59 1.59A2 2 0 0 0 5.17 1H2a2 2 0 0 0-2 2v10c0 1.1.9 2 2 2h4.16a6.1 6.1 0 0 1-.4-7.27"/><path fill="#e0e0e0" d="M9.84 6.08a5.12 5.12 0 0 0-.72 9.86c.21.07.24.07.34 0s.11-.08.11-.6v-.52l-.4.02q-.69.03-1.03-.24a2 2 0 0 1-.32-.48c-.17-.33-.3-.48-.65-.79-.11-.1-.12-.1-.04-.16.2-.15.59 0 .83.29.43.52.6.66.84.71.22.05.42.03.73-.06q.07-.03.12-.22c.02-.1.1-.26.15-.34l.11-.16-.36-.07c-.76-.15-1.23-.43-1.54-.9-.29-.42-.38-.8-.38-1.49 0-.65.07-.92.35-1.28.12-.16.14-.21.1-.3-.07-.17-.05-.85.02-1.05.06-.16.1-.18.21-.2a2 2 0 0 1 .96.33l.33.18.28-.06a7 7 0 0 1 2 0l.28.07.25-.16c.35-.2.79-.36 1-.36.18 0 .18 0 .25.23a2 2 0 0 1 .02.97c-.03.13-.02.17.08.3.48.65.54 1.71.13 2.6-.28.57-.87.97-1.65 1.12l-.38.07.14.24.14.26.02 1 .01.99.11.07c.1.07.13.07.34 0a5.13 5.13 0 0 0-2.79-9.86"/></svg>