<svg xmlns="http://www.w3.org/2000/svg" viewBox="0 0 16 16"><path fill="#ffa040" d="M6.39 13.9a3.55 3.55 0 0 1-1.14-4.11L6.35 7h-.9a2 2 0 0 0-1.9 1.37L2 13V7c0-1.1.9-2 2-2h11c.55 0 1-.45 1-1s-.45-1-1-1H8L6.59 1.59A2 2 0 0 0 5.17 1H2a2 2 0 0 0-2 2v10c0 1.1.9 2 2 2h5.87z"/><path fill="#ffa040" d="m9.38 7 .49 1.47h2.21L12.57 7z"/><path fill="#ffa040" d="M15.57 13.9 14.13 15c.82-.06 1.5-.6 1.76-1.35q-.14.14-.32.27"/><path fill="#ffa040" d="M15.84 10.22v-.03l-1.41-3.57c-.13-.31-.63-.31-.69.03l-.94 2.82H9.15L8.2 6.65c-.03-.3-.56-.3-.66 0l-1.37 3.5a2.5 2.5 0 0 0 .81 2.94l3.75 2.82q.25.18.5 0l.63-.47 1.03-.78 2.1-1.57a2.5 2.5 0 0 0 .84-2.9z"/></svg>