<svg xmlns="http://www.w3.org/2000/svg" viewBox="0 0 16 16"><path fill="#ff4040" d="M8.9 3.89c.35.34.44.83.3 1.26l.01.02a2.23 2.23 0 0 1 3.07 1.7h.6a2.25 2.25 0 0 1 2.25 2.26v.19l.57-.57c.4-.4.4-1.06 0-1.46L8.7.3c-.4-.4-1.05-.4-1.45 0L5.8 1.75 7.64 3.6c.43-.14.92-.04 1.26.3"/><path fill="#ff4040" d="M5 9.13c0-1.25 1-2.26 2.25-2.26h.32V5.9a1.23 1.23 0 0 1-.67-1.6L5.1 2.46.3 7.26c-.4.4-.4 1.05 0 1.45l4.7 4.7z"/><path fill="#ff4040" d="M14.75 10.69h-.62V9.13c0-.7-.56-1.26-1.26-1.26h-1.56v-.62a1.25 1.25 0 0 0-2.5 0v.63H7.25C6.56 7.88 6 8.43 6 9.13v1.56h.63a1.25 1.25 0 1 1 0 2.5H6v1.56c0 .69.56 1.25 1.25 1.25h1.56v-.62a1.25 1.25 0 0 1 2.5 0V16h1.56c.7 0 1.26-.56 1.26-1.25v-1.56h.62a1.25 1.25 0 0 0 0-2.5"/></svg>