<svg xmlns="http://www.w3.org/2000/svg" viewBox="0 0 16 16"><path fill="#40a0ff" fill-rule="evenodd" d="m12.44 8.12-.05.03" clip-rule="evenodd"/><path fill="#40a0ff" fill-rule="evenodd" d="M13.17 5.17a5.17 5.17 0 0 0-10.34 0v2.55h-.85v4.06a5.8 5.8 0 0 1 4.48-2.33c3.13-.23 4.78-.75 5.8-1.24l.06-.03h.02l.05-.03.05-.03h.01l.04-.02h.01l.01-.01.02-.01.02-.01.02-.01h.01l.02-.02h.01l.05-.03h.01l.03-.02.01-.01h.02v-.02l.05-.02.02-.01.02-.01.02-.01.03-.02h.01l.01-.01.02-.02h.02l.01-.01h.01v-.01h.01l.01-.01h.01l.01-.01.02-.01V7.8h.02v-.01h.02v-.01h.01v-.01h.01l.01-.01h.01v-.01h.02v-.01h.01v-.01h.01l.04-.03zm-9.5-.63a4.43 4.43 0 0 1 6.67-3.29 5.16 5.16 0 0 0-6.66 3.3m7.12 3.18H5.21V5.17a2.8 2.8 0 0 1 5.58 0z" clip-rule="evenodd"/><path fill="#40a0ff" fill-rule="evenodd" d="M14.02 8.7V16H3.72c1.14-.63 1.98-.57 3.38-.52 1.91.06 4.02-.74 5.06-1.8s-.1-.25-1.27.05-3.45.33-4.97-.07c4.79.06 6.65-1.49 7.7-2.87 1.07-1.39-.45-.24-1.43.24-.98.47-2.7.82-4.57.57a8.8 8.8 0 0 0 6.4-2.9" clip-rule="evenodd"/></svg>