<svg xmlns="http://www.w3.org/2000/svg" viewBox="0 0 16 16"><path fill="#40a0ff" d="M14 3H8L6.59 1.59A2 2 0 0 0 5.17 1H2a2 2 0 0 0-2 2v10c0 1.1.9 2 2 2h5.47V9.83H8v-.6a4.22 4.22 0 0 1 8-1.9V5a2 2 0 0 0-2-2"/><path fill="#40a0ff" fill-rule="evenodd" d="m15.01 11.08-.03.01" clip-rule="evenodd"/><path fill="#40a0ff" fill-rule="evenodd" d="M15.47 9.23a3.23 3.23 0 0 0-6.47 0v1.6h-.53v2.53a3.6 3.6 0 0 1 2.8-1.46 10 10 0 0 0 3.63-.77l.04-.02.04-.02.03-.01.03-.02h.01l.02-.01.02-.01.02-.02h.01l.03-.01.03-.02h.01v-.01l.03-.02h.02v-.01h.01l.02-.01h.01v-.01h.02v-.01h.01v-.01h.02v-.01h.01l.01-.01.02-.01h.01v-.01h.01l.01-.01.01-.01h.01v-.01h.02v-.01q.02 0 .03-.02zm-5.93-.4a2.77 2.77 0 0 1 4.16-2.05 3.2 3.2 0 0 0-4.16 2.06m4.44 2H10.5v-1.6a1.74 1.74 0 0 1 3.5 0z" clip-rule="evenodd"/><path fill="#40a0ff" fill-rule="evenodd" d="M16 11.44V16H9.56c.71-.4 1.24-.35 2.12-.33a4.6 4.6 0 0 0 3.16-1.12c.64-.66-.06-.16-.8.03-.73.19-2.15.2-3.1-.04 2.99.04 4.15-.93 4.81-1.8.67-.86-.28-.15-.9.15-.6.3-1.68.51-2.85.36 1.78 0 3.13-.9 4-1.81" clip-rule="evenodd"/></svg>