<svg xmlns="http://www.w3.org/2000/svg" viewBox="0 0 16 16"><path fill="#40a0ff" d="M15 3H8L6.59 1.59A2 2 0 0 0 5.17 1H2a2 2 0 0 0-2 2v10c0 1.1.9 2 2 2h3.51q-.4-.63-.41-1.44v-.76l.1-2.33a8 8 0 0 1-.62-.89l-.32-.53.34-.52c.37-.58.71-1.01 1.12-1.42L5.83 7h-.39a2 2 0 0 0-1.9 1.37L2 13V7c0-1.1.9-2 2-2h11c.55 0 1-.45 1-1s-.45-1-1-1"/><path fill="#40a0ff" d="m15.34 13.16-1.42.23-.07.66c0 .17-.13.27-.26.27l-1.81.13a.3.3 0 0 1-.3-.23l-.1-.6h-1.32l-.1.66c0 .1-.13.2-.26.2l-1.85-.13a.26.26 0 0 1-.27-.23l-.03-.7-1.45-.23v.37C6.1 15.2 8.15 16 10.72 16s4.62-.8 4.62-2.44z"/><path fill="#40a0ff" d="M15.04 7.85q-.51.24-.92.53l-.5-.4-.52-.33q.1-.58.1-1.15-.7-.36-1.42-.5l-.5.99h-1.12A7 7 0 0 0 9.63 6c-.46.1-.96.26-1.39.5 0 .4.04.75.1 1.15l-.52.33-.5.4-.9-.56c-.39.4-.68.79-.98 1.25q.3.51.66.92c.23.27 0 2.8 0 2.8v-.09l1.72.16c.13 0 .26.14.26.27l.03.66 1.32.1.1-.63c0-.13.13-.23.3-.23h1.78q.25.01.3.26l.1.6 1.32-.1.03-.66c0-.13.13-.27.26-.27l1.72-.16v.1V10q.36-.45.66-.93a7 7 0 0 0-.96-1.25zm-6.76 4.29a1.02 1.02 0 0 1 0-2.05 1.04 1.04 0 1 1 0 2.08zm2.77-.17q-.02.31-.33.33c-.31.02-.33-.13-.33-.33v-.92c0-.17.13-.33.33-.33s.33.16.33.33zm2.11.23a1.04 1.04 0 1 1 0-2.07 1.04 1.04 0 1 1 0 2.07"/></svg>