<svg xmlns="http://www.w3.org/2000/svg" viewBox="0 0 16 16"><path fill="#40a0ff" d="m15 11.28-2.15.35-.1 1c0 .24-.2.4-.4.4l-2.75.2a.45.45 0 0 1-.45-.36l-.15-.9H7l-.15 1c0 .15-.2.3-.4.3l-2.8-.2a.4.4 0 0 1-.4-.34l-.05-1.05-2.2-.36v.55c0 2.5 3.1 3.7 7 3.7s7-1.2 7-3.7z"/><path fill="#40a0ff" d="M14.55 3.23c-.5.25-1 .5-1.4.8l-.75-.6-.8-.5c.1-.6.15-1.15.15-1.75Q10.71.66 9.6.43l-.75 1.5h-1.7c-.2-.5-.5-1-.8-1.5-.7.15-1.45.4-2.1.75 0 .6.05 1.15.15 1.75l-.8.5-.75.6-1.35-.86c-.6.6-1.05 1.2-1.5 1.9.3.5.65 1 1 1.4s0 4.26 0 4.26v-.16l2.6.25c.2 0 .4.2.4.4l.05 1 2 .15.15-.94c0-.2.2-.35.45-.35h2.7q.38.01.45.4l.15.9 2-.15.05-1c0-.2.2-.4.4-.4l2.6-.25v.15-4.25q.54-.68 1-1.4c-.4-.7-.9-1.3-1.45-1.9zM4.3 9.73a1.55 1.55 0 0 1 0-3.1 1.58 1.58 0 0 1 0 3.14zm4.2-.26c0 .3-.2.5-.5.5s-.5-.2-.5-.5v-1.4c0-.25.2-.5.5-.5s.5.25.5.5zm3.2.35a1.58 1.58 0 0 1 0-3.15 1.58 1.58 0 0 1 0 3.15"/></svg>