<svg xmlns="http://www.w3.org/2000/svg" viewBox="0 0 16 16"><path fill="#40ffff" d="M14 3H8L6.59 1.59A2 2 0 0 0 5.17 1H2a2 2 0 0 0-2 2v10c0 1.1.9 2 2 2h.47a4.4 4.4 0 0 1 .46-4.66A4.8 4.8 0 0 1 6 8.52 4 4 0 0 1 9.7 9.7a5 5 0 0 1 2.4-1.1 4.2 4.2 0 0 1 3.2.54q.4.32.71.67V5a2 2 0 0 0-2-2"/><path fill="#40ffff" d="M15.96 11.9a3 3 0 0 0-1.21-1.91 3.2 3.2 0 0 0-2.48-.4 3.7 3.7 0 0 0-3 2.5h-2.8c-.12 0-.16.09-.2.17l-.4.93c-.08.12-.04.25.12.25h1.66l-.2.32c-.37.44-.94.66-1.5.57a1.34 1.34 0 0 1-1.14-1.34c0-.69.29-1.26.9-1.62q.73-.5 1.54-.16l.4.32c.12.16.12.12.24.08l1.46-.36c.08 0 .12-.09.08-.13-.2-.5-.56-.92-1-1.21a3 3 0 0 0-2.28-.4c-.97.15-1.84.67-2.43 1.45-.56.71-.8 1.62-.7 2.52.09.8.41 1.41 1.06 1.9.68.52 1.55.73 2.4.57a3.6 3.6 0 0 0 2.8-2.03c.11.49.4.97.84 1.34.6.48 1.35.74 2.11.73q.31.02.7-.08 1.22-.18 2.02-1.1a3.3 3.3 0 0 0 1.01-2.92m-2.84 2.27c-.4.24-.89.28-1.37.04a1.4 1.4 0 0 1-.82-1.63c.2-.8.73-1.3 1.5-1.5a1.5 1.5 0 0 1 1.79 1.18v.28c0 .73-.4 1.26-1.1 1.63"/></svg>