<svg xmlns="http://www.w3.org/2000/svg" viewBox="0 0 16 16"><path fill="#ff40ff" d="M15.95 7q-.3-1.48-1.5-2.35c-.9-.58-2-.76-3.04-.5a4.5 4.5 0 0 0-3.69 3.09H4.28c-.15 0-.2.1-.25.2l-.5 1.15c-.1.15-.05.3.15.3h2.04l-.25.4a2 2 0 0 1-1.84.7 1.65 1.65 0 0 1-1.4-1.65c0-.85.35-1.55 1.1-2 .6-.4 1.25-.5 1.9-.2l.5.4c.14.2.14.15.3.1l1.79-.45c.1 0 .15-.1.1-.15a3.3 3.3 0 0 0-1.25-1.5 3.6 3.6 0 0 0-2.8-.5c-1.18.2-2.25.85-2.99 1.8-.68.88-.99 2-.84 3.1.1 1 .5 1.74 1.3 2.34.83.64 1.9.9 2.94.7a4.4 4.4 0 0 0 3.44-2.5c.15.6.5 1.2 1.05 1.65a4 4 0 0 0 2.6.9c.24 0 .54 0 .84-.1a4 4 0 0 0 2.5-1.35 4 4 0 0 0 1.24-3.59m-3.49 2.79c-.5.3-1.1.34-1.7.05a1.75 1.75 0 0 1-1-2q.4-1.49 1.85-1.85c1-.2 2 .4 2.2 1.45v.35c0 .9-.5 1.55-1.35 2"/></svg>