<svg xmlns="http://www.w3.org/2000/svg" viewBox="0 0 16 16"><path fill="#40ffa0" d="M16 5.56c0-.8-.5-1.54-1.15-2-.35-.4-1-.64-1.15-.44l-.35.35c-.1.1-.1.2-.1.25 0 0 0 .1.1.15l.2.15c.85.35 1.7 2.44.1 2.54-.4.1-1.9-1-2.7-1.84-1.8-1.7-4.09-1.6-5.59-1.3-3.34.8-2.84 1.2-1.4 3.6.7 1.34 2.5-.2 2.85-.6-1.05 1.49-2.25 2.09-3.2.84l-.74-1.5C-.88 7.01.12 12.96.12 12.96h1.9c.45-2.1 2.1-2.1 2.4 0h1.44c1-3.6 3.2-1.06 3.9 0h1.54c0-2.25-.25-3.1.95-3.25A4.04 4.04 0 0 0 16 5.5zM9.96 7.51c-1-.3-.65-1.3-.65-1.3l.65.2c-.35.3-.2 1 .35.9.4 0 .5-.35.5-.6l.5.15c-.06.3-.66.9-1.4.65z"/></svg>