<svg xmlns="http://www.w3.org/2000/svg" viewBox="0 0 16 16"><path fill="#40ffa0" d="M13.17 14.35V15H14a2 2 0 0 0 2-2v-.19a4.3 4.3 0 0 1-2.83 1.54"/><path fill="#40ffa0" d="M14 3H8L6.59 1.59A2 2 0 0 0 5.17 1H2a2 2 0 0 0-2 2v10c0 1.1.9 2 2 2-.05-1.57.19-4.3 2.32-5.49q-.05-.37.11-.75c.36-.86 1.39-1.17 2.7-1.48 2.21-.44 4.09 0 5.46 1.3l.22.22q-.04-.15-.04-.3c0-.45.2-.74.37-.91l.26-.26q.32-.36.83-.38c.53-.04 1.14.32 1.5.67l.27.25V5a2 2 0 0 0-2-2"/><path fill="#40ffa0" d="M16 10c0-.65-.4-1.26-.94-1.63-.28-.32-.8-.52-.93-.36l-.28.28q-.1.14-.08.2s0 .09.08.13l.16.12c.69.28 1.38 1.99.08 2.07-.32.08-1.54-.81-2.19-1.5C10.44 7.93 8.57 8 7.36 8.25c-2.72.65-2.31.98-1.14 2.92.57 1.1 2.03-.16 2.31-.48-.85 1.21-1.82 1.7-2.6.69l-.6-1.22C2.29 11.17 3.1 16 3.1 16h1.54c.36-1.7 1.7-1.7 1.95 0h1.17c.81-2.92 2.6-.85 3.17 0h1.25c0-1.83-.2-2.51.78-2.64A3.3 3.3 0 0 0 16 9.96zm-4.91 1.58c-.81-.24-.53-1.06-.53-1.06l.53.17c-.28.24-.16.8.28.73.33 0 .4-.29.4-.5l.41.13c-.04.24-.52.73-1.13.53z"/></svg>