<svg xmlns="http://www.w3.org/2000/svg" viewBox="0 0 16 16"><path fill="#ff40ff" d="M5.45 13.19a1.6 1.6 0 0 1-.21-.9l-.72-.41h.8q.2-.56.67-.88-.17-.13-.32-.3H3.6l-.05-.13-.08-.1 4.4-7.63.13.01.13-.01 1.35 2.33q.32-.16.7-.17h.56L9.62 3.05l2.66 1.54q-.02.21.02.43c.76.12 1.35.76 1.38 1.54q.29-.15.6-.18v-.37l.13-.06a1.43 1.43 0 0 0-1.43-2.47l-.12.08-3.45-1.99.02-.14a1.42 1.42 0 1 0-2.86 0l.02.14-3.45 2-.12-.1a1.43 1.43 0 0 0-1.43 2.48l.13.06v3.98l-.12.06a1.43 1.43 0 0 0 1.42 2.47l.12-.08 2.82 1.63zM2.9 9.09V6a1.4 1.4 0 0 0 .82-1.43L6.4 3.04z"/><path fill="#ff40ff" d="M8.56 15.44c-.6.32-1.33.2-1.82-.22a1.4 1.4 0 0 0 1.9.62 2 2 0 0 1-.08-.4"/><path fill="#a0a0a0" d="m15.69 11.83-.9-.52c-.3-.17-.3-.45 0-.62l.9-.52c.3-.18.4-.56.23-.86l-.94-1.62a.63.63 0 0 0-.85-.23l-.9.52c-.3.17-.55.03-.55-.31V6.63a.63.63 0 0 0-.62-.63h-1.88a.63.63 0 0 0-.62.63v1.04c0 .34-.25.48-.55.31l-.9-.52a.63.63 0 0 0-.85.23L6.32 9.3c-.17.3-.07.68.23.86l.9.52c.3.17.3.45 0 .62l-.9.52c-.3.18-.4.56-.23.86l.94 1.62c.17.3.55.4.85.23l.9-.52c.3-.17.55-.03.55.31v1.05c0 .34.28.62.62.62h1.88c.34 0 .62-.28.62-.62v-1.05c0-.34.24-.48.54-.31l.9.52c.3.17.69.07.86-.23l.94-1.62a.63.63 0 0 0-.23-.86m-3.8.52a1.56 1.56 0 1 1-1.55-2.7 1.56 1.56 0 0 1 1.56 2.7"/></svg>