<svg xmlns="http://www.w3.org/2000/svg" viewBox="0 0 16 16"><path fill="#40ff40" d="M13.98 5c-1-.5-2 .1-2.29.26L8.79 6.9a1.7 1.7 0 0 0-1.89.25 1.7 1.7 0 0 0-.35 2.15c.4.7 1.3 1 2.05.7a1.7 1.7 0 0 0 1.1-1.5l2.94-1.7.4-.15V11c0 .2-.05.4-.25.5l-4.5 2.6q-.29.15-.59 0l-4.49-2.6c-.2-.1-.3-.3-.3-.5V5.76q0-.29.3-.5l3.8-2.1a1.7 1.7 0 0 0 2.59-2 1.7 1.7 0 0 0-3.3.3l-3.98 2.3a2.4 2.4 0 0 0-1.2 2.05v5.18c0 .85.45 1.65 1.15 2.05l4.53 2.64a2.4 2.4 0 0 0 2.4 0l4.48-2.64a2.4 2.4 0 0 0 1.2-2V7.2c0-1.05-.3-1.8-.95-2.14z"/></svg>