<svg xmlns="http://www.w3.org/2000/svg" viewBox="0 0 16 16"><path fill="#ff40ff" d="M8.44 14.89a2 2 0 0 1-.79.02l-.29-.08a1.86 1.86 0 0 1-1.22-2.12l.07-.29q.14-.38.42-.67v-1.49a1.9 1.9 0 0 1 1.82-3.15L8.63 7H5.44a2 2 0 0 0-1.9 1.37L2 13V7c0-1.1.9-2 2-2h11c.55 0 1-.45 1-1s-.45-1-1-1H8L6.59 1.59A2 2 0 0 0 5.17 1H2a2 2 0 0 0-2 2v10c0 1.1.9 2 2 2h6.63z"/><path fill="#ff40ff" d="m15.55 12.28-.08-.03v-2.5q.05 0 .08-.03a.9.9 0 0 0-.89-1.55l-.07.06-2.16-1.25.01-.09a.89.89 0 1 0-1.78 0v.09L8.52 8.23l-.07-.06a.9.9 0 0 0-.9 1.55l.09.03v2.5q-.05 0-.08.03a.9.9 0 0 0 .89 1.55l.07-.05 2.16 1.24-.01.09c0 .5.4.89.89.89s.9-.4.9-.9l-.02-.11 2.13-1.23.1.07a.9.9 0 0 0 .9-1.55m-6.78.33-.05-.07 2.75-4.77.08.01h.08l2.75 4.76-.05.07-.03.08H8.8zm5.45-3.74a.9.9 0 0 0 .52.88v1.92l-2.18-3.76zm-5.86 2.8V9.76a.9.9 0 0 0 .52-.89l1.66-.96zm3.73 2.73a.9.9 0 0 0-1.05-.02l-1.67-.96h4.4z"/></svg>