<svg xmlns="http://www.w3.org/2000/svg" viewBox="0 0 16 16"><path fill="#ff40ff" d="m14.4 10.05-.12-.06V6.01l.13-.06a1.43 1.43 0 0 0-1.43-2.47l-.12.08-3.45-1.99.02-.14a1.42 1.42 0 1 0-2.86 0l.02.14-3.45 2-.12-.1a1.43 1.43 0 0 0-1.43 2.48l.13.06v3.98l-.12.06a1.43 1.43 0 0 0 1.42 2.47l.12-.08 3.45 2-.02.13a1.42 1.42 0 1 0 2.86 0l-.02-.19 3.41-1.97.16.11a1.43 1.43 0 0 0 1.42-2.47m-10.85.52-.08-.1 4.4-7.63.13.01.13-.01 4.4 7.62-.08.11-.05.13H3.6zm8.73-5.98A1.4 1.4 0 0 0 13.1 6v3.07L9.62 3.05zM2.9 9.09V6a1.4 1.4 0 0 0 .82-1.43L6.4 3.04zm5.96 4.35a1.4 1.4 0 0 0-1.68-.03l-2.66-1.53h7.04z"/></svg>