<svg xmlns="http://www.w3.org/2000/svg" viewBox="0 0 16 16"><path fill="#40a0ff" d="M12.94 12.9 8 10.54 3.06 12.9 5 9.14l-5-2.3 6.15.04L8 3.1l1.85 3.78L16 6.84l-5 2.3z"/><path fill="#e0e0e0" d="M8.01 6.72c-.46.08.07.5.07.68-.37.52-.7-.22-.37-.7-.47.37-.45 1.57.15 1.58.76 0 .86-1.4.15-1.56"/><path fill="#e0e0e0" d="M9.6 6.64c-.42.1.11.41.15.62-.3.37-.73-.23-.43-.65-.5.48-.21 1.51.39 1.48.89 0 .55-1.37-.11-1.45"/><path fill="#e0e0e0" d="M14.03 8.35c-.15-.85-.44-3.36-1.39-1.82-.13-.44-.64-.59-.81-.12-.27-.26-.66-.4-.96-.18-.2-.16-.46-.05-.59.18-.45-.54-1.29-.56-1.57.16-.4-.7-1.3-.62-1.63.08-.08-.34-.4-.47-.66-.26-.18-.2-.46-.17-.6.06-.26-.37-.62-.16-.78.2-.05-.24-.04-.5-.24-.64C5.51.93-.04 7.48 2.42 8.9c-.36.05-.54.6-.25.9.28.21.33.85.65 1.06.88-.15 2.27-.4 2.58-1.73.15 1.12 1.58.98 1.59.12.47.6 1.28.33 1.67-.32.44.72 1.56.73 1.94-.15.08.66.63 1.33 1.02 1.25-.13.32.05.67-.27.86-.4.32-.1 1.04.34 1 1.94-.18 3.02-1.4 2.34-3.54m-9.05.8c-.36.92-1.4.9-2 1.23q-.19-.56-.54-.95c.75-.27 2.82-.92 2.03-2.35-.18 1.73-2.9 2.13-2.12-.12.21-.55 1.3-2.4 1.85-2.4.5 0 .21 1.52.04 1.98-.89 2.07-1.98.32-.69-1 .06.47.1.62-.16 1.03-.25.8.45.8.61.17.15-.39.52-2.03.1-2.03-.47 0-1.29 1.43-1.46 1.87-.7 2.65 1.88 1.94 1.85-.11l.1-.02c.02.74.66 1.99.39 2.7m1.67-2c-.07.2-.27.47-.46.47-.24-.01-.36-.36-.5-.12-.11.62.35 1.51.9.92q-.08.46 0 .85c-1.15.84-.64-1.59-1.33-2.13l.23-.38c.13.94.34.55.65 0 .12.11.05.32.29.32.1 0 .16-.28.27-.28q.01.16-.05.34M8.5 8.3c-.7 1.61-1.93.47-1.22-1.1.53-1.4 1.69-.1 1.22 1.1m1.8.13c-1.1 1.81-2.27-1.2-.86-1.92.7 0 1.18 1.06.85 1.92m.23-1.59.12-.18c.25.54.48 2.54 1.2 1.37.19-.45-.18-1.36-.54-1.2 0 .28.2.1 0 .6-.23-.03-.5-.76-.12-.8.75 0 1.13 1.69.8 2.56-1 1.37-1.03-1.78-1.46-2.35m3.2 3.4c-.42 1.48-1.87 1.26-2.3 1.11.3-.21.44-.67.4-1.05 1 .6 2.16.01 1.68-1.92.02.41.04 1.43-.46 1.54-.72 0-.36-2.5-.94-3.1q.06-.1.09-.2c.34.51.36 1.9.86 1.9.72-.23.2-1.51-.01-1.9.06.02.24-.04.24.05.14 1.24.65 2.27.44 3.58"/></svg>