<svg xmlns="http://www.w3.org/2000/svg" viewBox="0 0 16 16"><path fill="#40a0ff" d="M14 3H8L6.59 1.59A2 2 0 0 0 5.17 1H2a2 2 0 0 0-2 2v10c0 1.1.9 2 2 2a2 2 0 0 1 1.38-1.93l1.98-.66A3.03 3.03 0 1 1 9.5 8.12a3.02 3.02 0 1 1 4.14 4.3l1.98.65q.19.06.36.16L16 13V5a2 2 0 0 0-2-2"/><path fill="#40a0ff" d="M6.74 13 3.7 14.03c-1.1.37-.84 1.98.32 1.98h6.09c1.15 0 1.41-1.61.32-1.98l-3.05-1.01q-.31-.1-.64 0"/><circle cx="7.06" cy="9.91" r="2.03" fill="#40a0ff"/><circle cx="11.94" cy="9.91" r="2.03" fill="#40a0ff"/><path fill="#40a0ff" d="m15.3 14.02-3.04-1.01q-.33-.1-.64 0l-.85.28a1.8 1.8 0 0 1 1.14 1.99q-.06.4-.28.72h3.35c1.16 0 1.42-1.61.32-1.98"/></svg>