<svg xmlns="http://www.w3.org/2000/svg" viewBox="0 0 16 16"><path fill="#40a0ff" d="m3.38 13.07 1.98-.66A3.03 3.03 0 0 1 6.25 7h-.8a2 2 0 0 0-1.9 1.37L2 13V7c0-1.1.9-2 2-2h11c.55 0 1-.45 1-1s-.45-1-1-1H8L6.59 1.59A2 2 0 0 0 5.17 1H2a2 2 0 0 0-2 2v10c0 1.1.9 2 2 2a2 2 0 0 1 1.38-1.93"/><path fill="#40a0ff" d="M14 7h-1.25a3.03 3.03 0 0 1 .9 5.41l1.97.66q.19.06.36.16L16 13V9a2 2 0 0 0-2-2"/><path fill="#40a0ff" d="M7.88 7c.66.19 1.23.58 1.62 1.12q.62-.82 1.62-1.12z"/><path fill="#40a0ff" d="M6.74 13 3.7 14.03c-1.1.37-.84 1.98.32 1.98h6.09c1.15 0 1.41-1.61.32-1.98l-3.05-1.01q-.31-.1-.64 0"/><circle cx="7.06" cy="9.91" r="2.03" fill="#40a0ff"/><circle cx="11.94" cy="9.91" r="2.03" fill="#40a0ff"/><path fill="#40a0ff" d="m15.3 14.02-3.04-1.01q-.33-.1-.64 0l-.85.28a1.8 1.8 0 0 1 1.14 1.99q-.06.4-.28.72h3.35c1.16 0 1.42-1.61.32-1.98"/></svg>