<svg xmlns="http://www.w3.org/2000/svg" viewBox="0 0 16 16"><path fill="#ff4040" fill-rule="evenodd" d="M8 12.65a9 9 0 0 1-2.6-.45l.45.8.2 2.5c0 .3.85.5 1.95.5s2-.25 2-.5l.1-2.5.5-.8-.6.2c-.35.1-1.1.2-2 .2z" clip-rule="evenodd"/><path fill="#ff4040" fill-rule="evenodd" d="m9.52 3.52-.02.1v-.1zl.28-1.2 1.8-1.9s0-.15-.15-.25q-.22-.22-.3-.15l-1.95 2-.4 1.54H8c-2 0-3.6.2-3.6.5s1.6.45 3.6.45 3.6-.25 3.6-.5c0-.2-.84-.4-2.08-.5m-.52.8q-.39-.02-.4-.1l.05-.1c0 .1.15.1.35.1l.35-.06h.1c0 .1-.2.15-.45.15" clip-rule="evenodd"/><path fill="#ff4040" fill-rule="evenodd" d="M10.55 4.56q-2.55.33-5.1 0c-.5-.05-.7-.1-1-.25.05.9.5 4.3.5 5.15H5l.2 2.5c.05.1 1.25.5 2.75.5s2.7-.4 2.75-.5l.85-7.65c-.3.15-.5.2-1 .25" clip-rule="evenodd"/></svg>