<svg xmlns="http://www.w3.org/2000/svg" viewBox="0 0 16 16"><path fill="#ffa040" d="M7.75 5.1V0l-5.1 5v5.25z"/><path fill="#e0e0e0" d="M7.75 10.35V5.6l-4.8 4.75z"/><path fill="#ffa040" d="M8.75 8.98V8.5a3.5 3.5 0 0 1 2.1-3.2H8.1v4.2q.28-.31.65-.52"/><path fill="#ffa040" d="M7.54 10.75H2.65v5l4.88-4.98z"/><path fill="#a0a0a0" d="M14.75 9.75V8.5a2.5 2.5 0 0 0-5 0v1.25c-.69 0-1.25.56-1.25 1.25v3.75c0 .69.56 1.25 1.25 1.25h5c.69 0 1.25-.56 1.25-1.25V11c0-.69-.56-1.25-1.25-1.25m-2.5 4.06a.94.94 0 1 1 0-1.87.94.94 0 0 1 0 1.87m1.25-4.06H11V8.5a1.25 1.25 0 0 1 2.5 0z"/></svg>