<svg xmlns="http://www.w3.org/2000/svg" viewBox="0 0 16 16"><path fill="#ffff40" d="m7.6 8.02-1.08 7.8s-1.79.66-3.4-.7l1.77-7.57L1.55.77S2.87.22 3.71.41l2.94 5.53 5.08-4.32s1.71.6 1.87 1.16z"/><path fill="#ffa040" d="M14.29 8.8c-.42-1.51-3.08-1.12-2.87-2.72.04-.81.74-1.28 1.33-1.76.18.13.4.2.7-.44l-.1-.07c.13-.13.33-.21.38-.43-.24-.01-.38.21-.56.31l-1.64-1.12.62-.55c.59.3 1.38 1.03 2.03.91-.26-.65-1.24-1.08-1.91-1.3-.37.14-.76.42-1.07.66-.08-.18-.69 0-.4.33a160 160 0 0 0-3.64 3.14c-.63-1.38-1.33-2.94-2-4.31h.14c.03-.01-.01-.57-.35-.45L4.64.36C4.44-.41 2.6.24 2.22.63 2.75 1 3.68.54 4.32.5l.25.51-1.94.18c-.13-.38-.4-.44-.18.01-.61-.1-.14 1.09.34.8.75 1.73 1.63 3.72 2.42 5.43h.01c-.53 1.76-.97 3.6-1.39 5.39-.01.76-.91 1.87-.15 2.38 4.55 2.9 3.4-2.9 4.27-5.67.7.87 1.9 1.16 2.95 1.32-.71 1.67 2.91 1.29 2.68-.29.66-.3 1.14-1.08.7-1.77m-.23-5.99q0 .02 0 0m-.84-.63q.45.25.82.61a3 3 0 0 1-1.49-.91q.33.11.67.3m-.81-.52.01.04-.01-.01zM3.94.33C3.46.55 2.9.66 2.39.62A5 5 0 0 1 4.1.24zm8.24 4.05L10.1 6.02a9 9 0 0 1 2.07-2.14l.33.25zm-8.7-1.46c.3.31.77.73.56 1.2 0-.04-.55-1.16-.57-1.2m.58 1.24C4.52 3.27 3.14 2.8 3 1.97l.63-.18a7 7 0 0 1 1.12 3.84zm2.8 9.68c-.87.87-.4-2 .17-1zm.7-4.1L7.35 11a9 9 0 0 0-.81-2.14c.5 1.3.99 2.55.51 3.94-.7-1.1-1.2 1.98-.19 1.1l-.26 1.7a3.5 3.5 0 0 1-3.18-.73c.4-2.32 2.46-6.25 2-7.83-.96-1.67-.35-3.76-1.74-5.26.39-.1.8-.21 1.14-.27.7 1.4 1.5 2.97 2.23 4.34C5.9 7.1 10.3 3.53 11.09 2.9c.26.25.65.62 1.07.94-1.5 1.13-3.1 3.05-4.22 4.19-.17.56-.26 1.14-.38 1.71m5.25 1.6c-.54.4-1.28.32-1.91.16q-.03-.3.1-.6c.1.03.44.05.26-.11l-.17-.06q.16-.25.38-.43c.62.46 1.86.43 1.91-.55.1.47-.12.72-.44 1.01a.4.4 0 0 0 .3 0c-.05.23-.24.42-.43.57M14 9.77q-.15.28-.42.48c-.01-.21-.01-.47-.19-.63l-.02.02c-.46 1.36-2.04-.34-2.38 1-1.07-.42-2.33-.82-2.96-1.81q.1-.48.08-.95 1.44-1.03 2.82-2.13c-1 2.42 3.7 1.68 3.07 4.02"/><path fill="#ffa040" d="M6.1 12.5a1.2 1.2 0 0 0-.24.69l-.01.23q-.04.48.08.95.15.46.38.87l-.15-.44q-.08-.22-.13-.45-.09-.45-.06-.91l.01-.24q0-.12.03-.23.05-.21.16-.41t.3-.36q.16-.16.38-.27-.46.17-.75.58"/></svg>