<svg xmlns="http://www.w3.org/2000/svg" viewBox="0 0 16 16"><path fill="#6060ff" d="M15.9 14.05v-.3c-1.84.47-5.74.15-9.38-.3 1.05-.31 3.03-.44 4.08-.3-.15-3.35-.2-5.35 0-7.9v-.6l-4.22 8.78c-2.53-.3-4.91-.68-6.38-.88 0 .2 0 .4.1.5l3.15.5c5.8.85 10.45 1.05 12.7.5z"/><path fill="#40a0ff" d="M10.65 2.1c-.9 2.3-1.15 6-1.5 9.85-1.2-.1-3.2.15-4.7.75z"/><path fill="#6060ff" d="M8.3 9c-1.6-.5-3.35.5-4.9 1.45C4.45 8.8 7.7 3.8 10.5 0a17 17 0 0 0-2.25 9z"/><path fill="#6060ff" d="M4.4 16c.25-.4.75-.75 1.5-.7 1.35.05 2.5.15 4.6 0-2.05 0-4.55-.3-7.6-.85A8 8 0 0 1 4.4 16"/><path fill="#40a0ff" d="M16 14.2c-2.5.65-7.85.4-14.25-.7.4.2.75.5 1.1.8a32 32 0 0 0 12.85.4c.2-.15.25-.25.3-.5"/></svg>