<svg xmlns="http://www.w3.org/2000/svg" viewBox="0 0 16 16"><path fill="#40ffff" d="M15 3H8L6.59 1.59A2 2 0 0 0 5.17 1H2a2 2 0 0 0-2 2v10c0 1.1.9 2 2 2h6.88a5.32 5.32 0 0 1-1.39-8H5.44a2 2 0 0 0-1.9 1.37L2 13V7c0-1.1.9-2 2-2h11c.55 0 1-.45 1-1s-.45-1-1-1"/><path fill="#40ffff" d="M11.56 6a4.38 4.38 0 0 0-.09 8.76q.15.01.16.15v.77c0 .18.15.34.32.32 2.27-.22 4.05-2.65 4.05-5.62 0-2.44-2-4.41-4.44-4.38m.69 7.19c0 .17-.14.31-.31.31h-.63a.3.3 0 0 1-.31-.31v-.63c0-.17.14-.31.31-.31h.63c.17 0 .31.14.31.31zm-.62-1.56h-.32a.3.3 0 0 1-.31-.32v-.62c0-.17.14-.31.31-.31h.31a.94.94 0 1 0-.9-1.17.3.3 0 0 1-.3.23h-.64a.32.32 0 0 1-.31-.38 2.2 2.2 0 0 1 4.28-.14 2.2 2.2 0 0 1-2.12 2.7"/></svg>