<svg xmlns="http://www.w3.org/2000/svg" viewBox="0 0 16 16"><path fill="#e0e0e0" d="M16 2a1 1 0 0 1-1 1H1a1 1 0 0 1-1-1 1 1 0 0 1 1-1h14a1 1 0 0 1 1 1"/><path fill="#e0e0e0" d="M8.02 5.8a6 6 0 0 1 7.36 1.12A1 1 0 0 0 16 6a1 1 0 0 0-1-1H6.63c.59 0 1.1.32 1.39.8"/><path fill="#e0e0e0" d="M5 6.63C5 5.73 5.73 5 6.63 5H1c-.55 0-1 .45-1 1s.45 1 1 1h4z"/><path fill="#e0e0e0" d="m5.44 10.56.17-.17A1.6 1.6 0 0 1 5 9.12V9H1c-.55 0-1 .45-1 1s.45 1 1 1h4.18q.1-.24.26-.44"/><path fill="#e0e0e0" d="M5.35 13H1c-.55 0-1 .45-1 1s.45 1 1 1h5.57a6 6 0 0 1-1.22-2"/><path fill="#40a0ff" d="M15.9 9.98A4.98 4.98 0 0 0 7.25 7.7V6.62c0-.34-.28-.62-.62-.62S6 6.28 6 6.63v2.5c0 .34.28.62.63.62h2.5a.62.62 0 1 0 0-1.25h-.9a3.73 3.73 0 0 1 6.5 2.05 3.75 3.75 0 0 1-7.44.98.6.6 0 0 0-.62-.53.63.63 0 0 0-.62.71 5 5 0 1 0 9.85-1.73"/><path fill="#40a0ff" d="M11.72 10.83a.3.3 0 0 1-.1-.22V9.13a.62.62 0 1 0-1.25 0V11q0 .26.19.44l1.32 1.33c.25.24.64.24.89 0a.6.6 0 0 0 0-.89z"/></svg>