<svg xmlns="http://www.w3.org/2000/svg" viewBox="0 0 16 16"><path fill="#40a0ff" d="M5 11.98a1.71 1.71 0 0 1-.71-3.09L6.94 7h-1.5a2 2 0 0 0-1.9 1.37L2 13V7c0-1.1.9-2 2-2h11c.55 0 1-.45 1-1s-.45-1-1-1H8L6.59 1.59A2 2 0 0 0 5.17 1H2a2 2 0 0 0-2 2v10c0 1.1.9 2 2 2h3z"/><path fill="#40a0ff" d="M14 7h-.36l2.33 1.67A2 2 0 0 0 14 7"/><path fill="#40a0ff" d="M15.57 14.22Q16 13.7 16 13v-1.16q-.2.1-.43.14z"/><path fill="#40a0ff" d="m15.7 9.7-5-3.57a.7.7 0 0 0-.83 0l-5 3.57A.71.71 0 0 0 5.3 11H6v4.29c0 .39.32.71.71.71h1.43c.4 0 .72-.32.72-.71v-2.86h2.85v2.86c0 .39.33.71.72.71h1.43c.39 0 .71-.32.71-.71V11h.71c.7 0 .98-.9.42-1.3"/></svg>