<svg xmlns="http://www.w3.org/2000/svg" viewBox="0 0 16 16"><path fill="#40a0ff" d="M14 3H8L6.59 1.59A2 2 0 0 0 5.17 1H2a2 2 0 0 0-2 2v10c0 1.1.9 2 2 2h3v-3.02a1.71 1.71 0 0 1-.71-3.09l5-3.57c.6-.43 1.4-.43 2 0L16 8.69V5a2 2 0 0 0-2-2"/><path fill="#40a0ff" d="M15.57 14.22Q16 13.7 16 13v-1.16q-.2.1-.43.14z"/><path fill="#40a0ff" d="m15.7 9.7-5-3.57a.7.7 0 0 0-.83 0l-5 3.57A.71.71 0 0 0 5.3 11H6v4.29c0 .39.32.71.71.71h1.43c.4 0 .72-.32.72-.71v-2.86h2.85v2.86c0 .39.33.71.72.71h1.43c.39 0 .71-.32.71-.71V11h.71c.7 0 .98-.9.42-1.3"/></svg>