<svg xmlns="http://www.w3.org/2000/svg" viewBox="0 0 16 16"><path fill="#6060ff" d="M15 3H8L6.59 1.59A2 2 0 0 0 5.17 1H2a2 2 0 0 0-2 2v10c0 1.1.9 2 2 2h2.74a3.67 3.67 0 0 1 2.1-5.15l.35-.07c-.3-.9-.22-1.9.22-2.78H5.44a2 2 0 0 0-1.9 1.37L2 13V7c0-1.1.9-2 2-2h11c.55 0 1-.45 1-1s-.45-1-1-1"/><path fill="#6060ff" d="M14 7h-.09c.38.72.52 1.56.35 2.41l-.12.36c.71.16 1.36.54 1.86 1.07V9a2 2 0 0 0-2-2"/><path fill="#6060ff" d="M13.33 12.67H10c-.36 0-.68.28-.67.63a1.33 1.33 0 1 1-1.75-1.23c.26-.09.42-.36.42-.64 0-.43-.43-.77-.84-.63a2.67 2.67 0 0 0 .2 5.13c1.51.35 2.86-.6 3.21-1.93h2.76a.67.67 0 0 0 0-1.33"/><path fill="#6060ff" d="m10.08 9.05 1.67 2.89c.18.3.58.44.88.26a1.33 1.33 0 1 1-.19 2.13c-.2-.18-.52-.18-.76-.05-.38.22-.45.76-.12 1.05a2.67 2.67 0 0 0 4.33-2.74 2.66 2.66 0 0 0-3.27-1.82l-1.38-2.39a.67.67 0 0 0-.91-.24.67.67 0 0 0-.25.9"/><path fill="#6060ff" d="m8.58 13.63 1.66-2.9c.18-.3.1-.72-.21-.89a1.33 1.33 0 1 1 1.94-.9c-.05.27.1.54.34.68.38.22.88.02.97-.41a2.67 2.67 0 0 0-4.54-2.38 2.66 2.66 0 0 0 .06 3.74l-1.38 2.39a.67.67 0 0 0 .25.9c.31.2.72.08.9-.23"/></svg>