<svg xmlns="http://www.w3.org/2000/svg" viewBox="0 0 16 16"><path fill="#6060ff" d="M12 10.5H7c-.53 0-1.01.42-1 .95A2 2 0 1 1 3.37 9.6c.4-.13.63-.54.63-.95 0-.66-.64-1.15-1.26-.95a4.01 4.01 0 0 0 .3 7.69 4 4 0 0 0 4.82-2.89H12c.55 0 1-.45 1-1s-.45-1-1-1"/><path fill="#6060ff" d="m7.12 5.07 2.5 4.33c.27.47.87.67 1.33.4a2 2 0 1 1-.29 3.2c-.3-.28-.78-.28-1.14-.07-.57.32-.68 1.13-.19 1.56a4.01 4.01 0 0 0 6.5-4.11 4 4 0 0 0-4.9-2.72L8.86 4.07a1 1 0 0 0-1.37-.36 1 1 0 0 0-.37 1.36"/><path fill="#6060ff" d="m4.87 11.94 2.5-4.33c.26-.47.14-1.09-.33-1.34A2 2 0 1 1 9.96 4.9a1 1 0 0 0 .5 1.02c.58.33 1.33.03 1.46-.61A4.01 4.01 0 0 0 5.1 1.74a4 4 0 0 0 .1 5.61l-2.08 3.59c-.27.47-.1 1.09.37 1.36s1.09.11 1.37-.36"/></svg>