<svg xmlns="http://www.w3.org/2000/svg" viewBox="0 0 16 16"><path fill="#6060ff" d="M6.5 0c-.8 0-1.64.25-2.34.75-.5.6-1.5.65-1.75 1.5.55.65.1 1.5-.6 1.9-.95.5.1 1.15.1 1.74-.75.7-.4 1.7.4 2.2.1.75.75 1.35 1.45 1.6.1.25-.15.35-.35.5-1.75 1.15.75 2.7.55 4-.05.45-.9.5-1.1.3-.25-.15-.15-.95-.1-1.05-.55-.55-.9.25-.9 1.1.05 1.1 1.65 1.55 2.5 1.45 1.85-.35 2.2-2.95 1.25-4.2.7.7.9 2.35 1.4 3.2 1.2 1.55 2.5-.3 1.95-1.7.35 1.3 1.94 1.65 3.1 1.25 1.1-.4 1.24-1.7 1.5-2.6-.1-.85 1.49-.6.9-1.35-.5-.5-1.4-.3-1.86.15-.85.5-.5 2-1.45 2.3-.85-.35-.4-1.75-.7-2.5-.05-.4-.5-.7-.75-.9-.1-.2.35-.5.5-.7.6-.35.8-1.1 1.25-1.65.45-.8-.85-1.5 0-2.1.65-1-1-1.3-1.1-2.1.25-.4.5-1.04-.1-1.44C9.05 1.05 8.01 0 6.51 0"/><path fill="#ffa040" d="M14 10.6c-2.3-.66-1.8 3.94-3.35 2.39-.65-.85.15-2.35-.9-2.95-1.1-.6.95-1.05.3-1.85 1-2.54-.05-5.14-2-7A2 2 0 0 0 6.22.5C3.3 1 2 4.85 2.8 7.5c.4.64-.15 1.9 1 2.1.45.74-1.1.9-.9 1.79.2 1.1 1.35 1.8 1.2 2.95-.15.55-1.1.7-1.5.35-.35-.35-.1-1.2-.1-1.2s-.5-.15-.5 1.1c0 .9 1.5 1.4 2.3 1.2 1.3-.2 1.85-1.85 1.5-3-.2-.75-.75-1-.15-1.25 1 1 .95 3.9 2.25 3.9 1.4 0 .9-2.5.35-3.5.75.15.65 1 .95 1.55.4 1.05 1.74 1.3 2.74.95s1.1-1.55 1.4-2.5c.1-1.2 1.75-.6.65-1.35M3.51 9.2c-.65-.5.05-1.36.5-1.36.75.1.35 1.8-.5 1.35m5.5 0c-.7-.4-.1-1.4.35-1.4.7 0 .54 1.74-.35 1.4"/></svg>