<svg xmlns="http://www.w3.org/2000/svg" viewBox="0 0 16 16"><path fill="#ff4040" d="m10.06 5.45.45 1.05-.1-1.15c-.1-1.25-.4-2-1-2.5q-.75-.74-2.4-.5l-.9.05.85.25c1.9.6 2.4 1 3.1 2.8M7.76 9.1c.1-1.3-.1-2.15-.6-2.7-.65-.65-1.7-.7-2.9-.65H3.1l1.3.4c1.2.35 2.5.75 3 3l.25 1.15z"/><path fill="#ff4040" d="m8.86 7.4.3 1.05v-1.1Q9.3 5.4 8.4 4.5c-.75-.75-2-.8-3.3-.75l-1.45.05 1.45.3c2 .4 3.05 1 3.75 3.3"/><path fill="#ff4040" d="M12.8 4.5c-.4-1.55-2-3-5-4.5l-.2.3c2.66 1.75 3.96 3.1 4.1 4.35.2 1.15-.64 2.15-1.64 3.25-1.5 1.7-3.35 3.75-2.1 7.35v.05l2.3.7-.3-.45c-1.9-2.5-.4-4.5 1.05-6.5 1.15-1.5 2.2-2.95 1.8-4.6z"/></svg>