<svg xmlns="http://www.w3.org/2000/svg" viewBox="0 0 16 16"><path fill="#ffa040" d="M11.8 14.56 7.5 2.2l-.2-.1H4.15l-.1.15L4 3l-.1.4L0 14.56c0 .15 0 .2.15.2H2.4q.16 0 .25-.15l.85-2.85H8l.95 2.85c0 .1.1.15.2.15h2.5q.16.01.1-.2zm-7.55-5.2.5-1.7c.35-1.1.75-2.2 1-3.35l.95 3.15.6 1.9z"/><path fill="#ffa040" d="M14.5 4.2c-.4.03-.8-.12-1.1-.4-.25-.3-.4-.7-.4-1.1-.1-1.34 1.75-2 2.6-1.1.25.3.4.7.4 1.1 0 .8-.7 1.56-1.5 1.5"/><path fill="#ffa040" d="M13.15 14.6V5.4c0-.14 0-.2.15-.2h2.35c.15 0 .15.06.15.2v9.2c0 .16 0 .2-.15.2H13.3q-.15.02-.15-.2"/></svg>