<svg xmlns="http://www.w3.org/2000/svg" viewBox="0 0 16 16"><path fill="#ff40a0" d="M3.3 1.35V15.6c0 .15-.1.25-.2.25H.4q-.21-.01-.2-.25V1.35Q.19 1.2.4 1.2h2.7c.05 0 .15 0 .15.15z"/><path fill="#ff40a0" d="M15.7 14.1V.1c0-.1-.1-.1-.1-.1h-2.85c-.1 0-.1.05-.1.15V4.5C10 4.25 7.5 5.2 6.2 7.45c-1 1.7-1 4.45 0 6.05 1.05 1.74 3.08 2.5 5.08 2.5q2.27 0 4.37-.85c.15-.05.15-.15.15-.25 0-.2 0-.5-.1-.8m-3.05-.85-.5.05c-.6.05-1.2.05-1.75-.15q-.51-.16-.95-.55c-.6-.6-.85-1.55-.85-2.4-.1-2.1 1.8-3.4 3.65-3.1l.4.05z"/></svg>