<svg xmlns="http://www.w3.org/2000/svg" viewBox="0 0 16 16"><path fill="#a040ff" d="M6.25 7.25q0-.13.03-.25h-.84a2 2 0 0 0-1.9 1.37L2 13V7c0-1.1.9-2 2-2h11c.55 0 1-.45 1-1s-.45-1-1-1H8L6.59 1.59A2 2 0 0 0 5.17 1H2a2 2 0 0 0-2 2v10c0 1.1.9 2 2 2h4.25z"/><path fill="#a040ff" d="M14.75 13.88h-1.73c-.86 0-1.63-.48-2.01-1.25H9.5V15H14a2 2 0 0 0 1.92-1.47q-.52.33-1.17.35"/><path fill="#a040ff" d="M14.75 7.25h-1.87l-.28-.56A1.3 1.3 0 0 0 11.48 6H8.5c-.69 0-1.25.56-1.25 1.25v8.13a.62.62 0 1 0 1.25 0v-3.76h3.13l.27.56c.22.43.65.7 1.12.7h1.73c.69 0 1.25-.56 1.25-1.26V8.5c0-.69-.56-1.25-1.25-1.25"/></svg>