<svg xmlns="http://www.w3.org/2000/svg" viewBox="0 0 16 16"><path fill="#ff40a0" d="M15 3H8L6.59 1.59A2 2 0 0 0 5.17 1H2a2 2 0 0 0-2 2v10c0 1.1.9 2 2 2h3.97l.47-1.6-1.62-1.24.72-1.31-.83-.29L6 7h-.57a2 2 0 0 0-1.9 1.37L2 13V7c0-1.1.9-2 2-2h11c.55 0 1-.45 1-1s-.45-1-1-1"/><path fill="#40a0ff" d="m12.89 6.17-1.33 1.61.33.72h1.67v5.06h-2.98l-.91.94L12 16l3.83-1.56.17-5.77z"/><path fill="#ff40a0" d="m13.56 10.11.1-.17-.1-.12z"/><path fill="#ff40a0" d="M8.5 13.56V8.5h3.93L10.6 6.39 7.44 6 6 9.94l2.28.78-.84 2.78-.66 2.28 4.05-1.5.48-.72z"/><path fill="#6060ff" d="m16 8.67-3.11-2.5-1.21 1.46.75.87h1.13v3.06z"/><path fill="#ffa040" d="m8.28 10.72-1.29-.44-.88 1.61 1.48 1.14z"/></svg>