<svg xmlns="http://www.w3.org/2000/svg" viewBox="0 0 16 16"><path fill="#6060ff" d="M11.5 1.7 8.25 3.59 0 10.71v1.25c0 2.5 2.75 3.12 4.5 2.25l3.25-1.88 8.25-7V4.08c0-2.62-2.75-3.25-4.5-2.37"/><path fill="#40a0ff" d="M11.63 6.08 4.37.71C2.64-.54 0 .58 0 2.58v9.25l.13-.62c.5-1.75 2.75-2.38 4.25-1.25l7.25 5.25c1.74 1.37 4.37.25 4.37-1.75V4.08c0 1.75-2.25 3.5-4.37 2"/><path fill="#40ffff" d="M11.63 6.08 4.37.71C2.64-.54 0 .58 0 2.58v5.25c0-2 2.63-3.12 4.38-1.87l7.25 5.25c1.74 1.37 4.37.25 4.37-1.88V4.08c0 1.75-2.25 3.5-4.37 2"/></svg>