<svg xmlns="http://www.w3.org/2000/svg" viewBox="0 0 16 16"><path fill="#e0e0e0" d="M.95 3.9a.94.94 0 0 0-.95.95c0 .52.43.94.95.94a.94.94 0 1 0 0-1.88"/><path fill="#e0e0e0" d="M.07 6.02h1.77v5.95H.07z"/><path fill="#e0e0e0" d="M5.87 3.92c-2.3 0-3.77 1.6-3.77 4.09s1.48 4.08 3.77 4.08 3.77-1.6 3.77-4.08-1.48-4.09-3.77-4.09m0 6.55c-1.19 0-1.93-.94-1.93-2.46s.74-2.47 1.93-2.47S7.8 6.5 7.8 8.01s-.74 2.46-1.93 2.46"/><path fill="#e0e0e0" d="m13.66 7.24-.85-.2c-1.02-.24-1.1-.52-1.1-.76 0-.48.45-.79 1.16-.79.74 0 1.2.33 1.26.9l.01.21h1.74v-.24c-.04-1.46-1.24-2.44-3-2.44-1.77 0-3 1.01-3 2.46q-.01 1.76 2.2 2.27l.96.23c1.05.24 1.14.55 1.14.83 0 .48-.53.81-1.28.81-.8 0-1.37-.36-1.44-.92l-.02-.2H9.68l.01.24c.06 1.5 1.3 2.45 3.14 2.45 1.92 0 3.17-1 3.17-2.54 0-1.23-.72-1.94-2.34-2.31"/></svg>