<svg xmlns="http://www.w3.org/2000/svg" viewBox="0 0 16 16"><path fill="#e0e0e0" d="M14 3H8L6.59 1.59A2 2 0 0 0 5.17 1H2a2 2 0 0 0-2 2v10c0 1.1.9 2 2 2h.06v-4.46a1.75 1.75 0 0 1 1.72-2.2c.64.01 1.18.33 1.5.83q1-.78 2.49-.8c1.2 0 2.2.42 2.92 1.17a3.6 3.6 0 0 1 2.78-1.18c1.04 0 1.92.35 2.53.92V5a2 2 0 0 0-2-2"/><path fill="#e0e0e0" d="M3.77 9.35a.76.76 0 0 0-.77.77c0 .42.35.76.77.76a.76.76 0 1 0 0-1.53"/><path fill="#e0e0e0" d="M3.06 11.07H4.5v4.83H3.06z"/><path fill="#e0e0e0" d="M7.77 9.36c-1.86 0-3.07 1.3-3.07 3.32S5.9 16 7.77 16s3.06-1.3 3.06-3.32-1.2-3.32-3.06-3.32m0 5.32c-.97 0-1.57-.76-1.57-2 0-1.23.6-2 1.57-2s1.56.77 1.56 2c0 1.24-.6 2-1.56 2"/><path fill="#e0e0e0" d="m14.1 12.06-.7-.16c-.82-.2-.89-.42-.89-.62 0-.4.37-.64.95-.64.6 0 .98.27 1.02.72l.01.18h1.41v-.2c-.03-1.18-1-1.98-2.43-1.98s-2.45.82-2.45 2q0 1.44 1.8 1.84l.78.19c.85.2.92.45.92.67 0 .4-.43.67-1.04.67-.64 0-1.11-.3-1.17-.75l-.02-.17h-1.42v.2c.06 1.2 1.05 1.99 2.55 1.99C15 16 16 15.19 16 13.94c0-1-.59-1.58-1.9-1.88"/></svg>