<svg xmlns="http://www.w3.org/2000/svg" viewBox="0 0 16 16"><path fill="#ffa040" d="M7.8 6q-.04.2-.05.38.2-.07.41-.1a1.63 1.63 0 0 1 1.89-1.25q.55-.42 1.45-.93l1.5-.9-1.75.45c-.1 0-2.95.75-3.45 2.35"/><path fill="#ffa040" d="M7.05 6.79c-.07-.53.17-1.1 1.1-1.84q1.88-1.49 1.95-2.9c.05-.85-.45-1.4-.5-1.4L9 0l.25.9c.4 1.5-.65 2.25-1.7 3.1-.55.45-1.15.9-1.5 1.45-.48.75-.23 1.5.35 2.26q.21-.55.65-.92"/><path fill="#40a0ff" d="M8.16 15.72a2.3 2.3 0 0 1-1.74-1.4q-1.3-.05-2.57-.27l.6-.2.45-.05.9.05-.75-.5c-.5-.35-1.85.05-2.4.4-.3.2-.45.45-.4.65.1.4.6.5 1 .55l.5.1.55.5c.1 0 .5.3 2.3.4l1.5.05h.17l-.1-.28"/><path fill="#40a0ff" d="M5.59 11q-.2-.16-.33-.38c-.48.23-.7.46-.6.78.04.16.2.3.4.41q.15-.49.53-.81"/><path fill="#40a0ff" d="M5 9.75q.01-.48.28-.87-.62.1-1.43.47c-.45.25-.45.5-.4.6.14.32.8.47 1.75.57a1.6 1.6 0 0 1-.2-.77"/><path fill="#40a0ff" d="M5.13 12.86c-.01.13.03.29.22.44l.13.07a2 2 0 0 1-.35-.5"/><path fill="#40a0ff" d="M15.38 11.63h-.63v-1.26h.63c.34 0 .62-.28.62-.62s-.28-.62-.62-.62h-.63V8.5c0-.69-.56-1.25-1.25-1.25h-.62v-.62c0-.35-.29-.63-.63-.63s-.62.28-.62.63v.62h-1.26v-.62c0-.35-.28-.63-.62-.63s-.62.28-.62.63v.62H8.5c-.69 0-1.25.56-1.25 1.25v.63h-.62c-.35 0-.63.28-.63.62s.28.63.63.63h.62v1.24h-.62c-.35 0-.63.29-.63.63s.28.63.63.63h.62v.62c0 .69.56 1.25 1.25 1.25h.63v.63c0 .34.28.62.62.62s.63-.28.63-.62v-.63h1.24v.63c0 .34.29.62.63.62s.63-.28.63-.62v-.63h.62c.69 0 1.25-.56 1.25-1.25v-.62h.63c.34 0 .62-.29.62-.63s-.28-.62-.62-.62m-2.5 1.87H9.12a.6.6 0 0 1-.62-.62V9.12c0-.34.28-.62.63-.62h3.74c.35 0 .63.28.63.63v3.74c0 .35-.28.63-.62.63"/><path fill="#40a0ff" d="M12.25 11.63c0 .34-.28.62-.62.62h-1.26a.63.63 0 0 1-.62-.62v-1.26c0-.34.28-.62.63-.62h1.24c.35 0 .63.28.63.63z"/></svg>