<svg xmlns="http://www.w3.org/2000/svg" viewBox="0 0 16 16"><path fill="#ffa040" d="m8.15 9.5-1 .85h.35l1-.5.25.15-.1-.25c.02 0 .2-.09.41-.24V8.25h-.25l-.3-.03c.1.14.19.3.14.43 0 .3-.2.5-.3.6L8.2 8.9l-.5-.85c-.7-.95-1.25-1.75.45-3.1q1.88-1.49 1.95-2.9c.05-.85-.45-1.4-.5-1.4L9 0l.25.9c.4 1.5-.65 2.25-1.7 3.1-.55.45-1.15.9-1.5 1.45-.8 1.25.4 2.5 1.8 3.75z"/><path fill="#40a0ff" d="M6.88 14.75v-.4a22 22 0 0 1-3.03-.3l.6-.2.45-.05.9.05-.75-.5c-.5-.35-1.85.05-2.4.4-.3.2-.45.45-.4.65.1.4.6.5 1 .55l.5.1.55.5c.1 0 .5.3 2.3.4l.64.02a2 2 0 0 1-.37-1.22"/><path fill="#40a0ff" d="m6.88 12.88.02-.27-.65-.06.6-.35H7q.22-.66.75-1.09-1 .03-1.99-.11l.1-.05.45-.35h.3c.87 0 1.8-.06 2.63-.17q-.16-.3-.17-.68v-.16q-1.82.16-3.66.06h-.15l1.1-.35L8 8.9l-1.65-.1c-.05 0-1.15-.1-2.5.55-.45.25-.45.5-.4.6.15.35.9.5 2 .6H5.4c-.6.25-.85.5-.75.85s.65.6 1.4.7H6q-.76.29-.85.65c-.05.15-.05.35.2.55a3 3 0 0 0 1.52.5z"/><path fill="#ffa040" d="M8.81 5h1.28q.54-.4 1.41-.9l1.5-.9-1.75.45a7 7 0 0 0-2.8 1.4Q8.63 5 8.81 5"/><path fill="#40a0ff" d="M14.75 6H13.5c-.69 0-1.25.56-1.25 1.25v1.88c0 .69.56 1.24 1.25 1.24h1.25c.69 0 1.25-.55 1.25-1.24V7.25C16 6.56 15.44 6 14.75 6m-.62 3.13a.6.6 0 0 1-.63-.63v-.62c0-.35.28-.63.63-.63s.62.28.62.63v.62c0 .35-.28.63-.62.63"/><path fill="#40a0ff" d="M10.38 11.63H9.12c-.69 0-1.24.55-1.24 1.24v1.88c0 .69.55 1.25 1.25 1.25h1.24c.7 0 1.26-.56 1.26-1.25v-1.87c0-.7-.56-1.26-1.26-1.26m-.63 3.12a.6.6 0 0 1-.62-.62v-.63c0-.35.27-.62.62-.62s.63.27.63.62v.63c0 .34-.28.62-.63.62"/><path fill="#40a0ff" d="M14.44 11.63h-1.25a.62.62 0 1 0 0 1.24h.62c.35 0 .63.28.63.63v1.88a.62.62 0 1 0 1.25 0v-2.5c0-.7-.56-1.26-1.25-1.26"/><path fill="#40a0ff" d="M10.06 6H8.81a.62.62 0 1 0 0 1.25h.63c.34 0 .62.28.62.63v1.87a.62.62 0 1 0 1.25 0v-2.5c0-.69-.56-1.25-1.25-1.25"/></svg>