<svg xmlns="http://www.w3.org/2000/svg" viewBox="0 0 16 16"><path fill="#40a0ff" d="M14.28 9.95q.18.24.26.53a2.2 2.2 0 0 1 1.46.16V8.88l-.91.55q-.58.34-.81.52"/><path fill="#40a0ff" d="M14 3H8L6.59 1.59A2 2 0 0 0 5.17 1H2a2 2 0 0 0-2 2v10c0 1.1.9 2 2 2h5.94l.02-.66q.18-.34.55-.58c.07-.05.8-.17.96-.24l-.79-.6-.01-1.29q.17-.37.66-.66.45-.21.84-.31a1.9 1.9 0 0 1 .18-1.8c.27-.43.67-.75 1.02-1.04l.23-.18c.7-.56.67-.63.62-.82l.18-1.86 1.77.8c.27.28.54.79.55 1.42L16 6.85V5a2 2 0 0 0-2-2"/><path fill="#ffa040" d="m14.6 8.56.93-.56-1.1.28c-.06 0-1.84.47-2.15 1.47q-.19.66.4 1.34.16.16.13.32c0 .18-.12.3-.19.37l-.09-.22-.31-.53c-.44-.6-.78-1.1.28-1.94q1.17-.93 1.22-1.8c.03-.54-.28-.88-.31-.88L13.03 6l.16.56c.25.94-.4 1.4-1.06 1.94-.35.28-.72.56-.94.9-.5.79.25 1.57 1.12 2.35l.19.19-.62.53h.21l.63-.31.15.09-.06-.16c.03 0 .69-.34.81-.87a1 1 0 0 0-.15-.69l-.06-.06c-.22-.31-.32-.47-.32-.69.1-.28.57-.69 1.5-1.22"/><path fill="#40a0ff" d="m15.97 14.6-.25.3s-.19.23-1.28.44l-.6.1c1-.16 1.66-.4 1.75-.69 0-.1.03-.28-.28-.4l-.62-.2.47.44s0 .07-.25.13c-1.68.34-3.41.36-5.1.06l.38-.12.28-.03.56.03-.47-.32c-.31-.21-1.15.04-1.5.25q-.29.21-.25.41c.06.25.38.31.63.34l.31.07.34.3c.07 0 .32.2 1.44.26l.94.03c1.28 0 3.44-.12 3.53-1.03v-.38z"/><path fill="#40a0ff" d="M10.78 12.6q-.56.2-.47.53c.06.21.4.37.88.43h-.03q-.48.19-.54.4c-.03.1-.03.23.13.35.25.22.81.35 1.5.35.53 0 1.16-.1 1.72-.32l.37-.15-.37-.16c-.28-.1-.47-.22-.47-.22l-.06-.06h-.1q-1 .24-2.03.1l.38-.22H12c.69 0 1.44-.1 2.1-.29l.15-.03-.5.4.63-.15c1.24-.31 1.53-.84 1.59-1.15.06-.28 0-.57-.22-.75a1.2 1.2 0 0 0-1.1-.2 1 1 0 0 0-.21.2l-.13.18q-1.75.3-3.53.2h-.1l.7-.23 1.03-.25-1.04-.06c-.03 0-.71-.06-1.56.34-.28.16-.28.32-.25.38.1.22.56.31 1.25.37zm.28.24.28-.21h.2c.87 0 1.87-.1 2.5-.26h.02q.2-.14.4-.24l.6-.26q.16.1.22.22c.1.32-.22.7-.84 1.07l-.35-.13c-.18-.06-.3-.19-.3-.19l-.07-.06h-.1q-1.3.28-2.62.1z"/></svg>