<svg xmlns="http://www.w3.org/2000/svg" viewBox="0 0 16 16"><path fill="#ffa040" d="m11.5 4.1 1.5-.9-1.75.45c-.1 0-2.95.75-3.45 2.35q-.31 1.04.65 2.15c.15.15.25.35.2.5 0 .3-.2.5-.3.6L8.2 8.9l-.5-.85c-.7-.95-1.25-1.75.45-3.1q1.88-1.49 1.95-2.9c.05-.85-.45-1.4-.5-1.4L9 0l.25.9c.4 1.5-.65 2.25-1.7 3.1-.55.45-1.15.9-1.5 1.45-.8 1.25.4 2.5 1.8 3.75l.3.3-1 .85h.35l1-.5.25.15-.1-.25c.05 0 1.1-.55 1.3-1.4.05-.35 0-.75-.25-1.1l-.1-.1c-.35-.5-.5-.75-.5-1.1.15-.45.9-1.1 2.4-1.95"/><path fill="#40a0ff" d="m13.7 13.75-.4.5s-.3.35-2.05.7l-.95.15c1.6-.25 2.65-.65 2.8-1.1 0-.15.05-.45-.45-.65l-1-.3.75.7s0 .1-.4.2a22 22 0 0 1-8.15.1l.6-.2.45-.05.9.05-.75-.5c-.5-.35-1.85.05-2.4.4-.3.2-.45.45-.4.65.1.4.6.5 1 .55l.5.1.55.5c.1 0 .5.3 2.3.4l1.5.05c2.05 0 5.5-.2 5.65-1.65v-.6z"/><path fill="#40a0ff" d="M5.4 10.55c-.6.25-.85.5-.75.85s.65.6 1.4.7H6q-.76.29-.85.65c-.05.15-.05.35.2.55.4.35 1.3.55 2.4.55.85 0 1.85-.15 2.75-.5l.6-.25-.6-.25c-.45-.15-.75-.35-.75-.35l-.1-.1H9.5a9 9 0 0 1-3.25.15l.6-.35h.5c1.1 0 2.3-.15 3.35-.45l.25-.05-.8.65 1-.25c2-.5 2.45-1.35 2.55-1.85.1-.45 0-.9-.35-1.2a1.8 1.8 0 0 0-1.75-.3c-.2.1-.35.3-.35.3l-.2.3q-2.8.45-5.65.3h-.15l1.1-.35L8 8.9l-1.65-.1c-.05 0-1.15-.1-2.5.55-.45.25-.45.5-.4.6.15.35.9.5 2 .6zm.45.4.45-.35h.3c1.4 0 3-.15 4-.4h.05a4 4 0 0 1 .65-.4l.95-.4c.15.1.3.2.35.35.15.5-.35 1.1-1.35 1.7l-.55-.2c-.3-.1-.5-.3-.5-.3l-.1-.1h-.15c-1.37.3-2.8.35-4.2.15z"/></svg>