<svg xmlns="http://www.w3.org/2000/svg" viewBox="0 0 16 16"><path fill="#40a0ff" fill-rule="evenodd" d="M6.49 11.59c.89-.16 1.83-.2 2.77-.26-.52-.31-1.93-.49-1.15-1.26-.73.33-.67-.9-.84-1.3-.46-.2-1.42-.7-1.67-1.16-.73.32-1.42.79-2.1 1.26.63 1.3.9 2.88.9 4.34.67.32 1.3.79 2.2.84-.23-.61.17-2.59-1.05-2.15 0-.26.36-.15.36-.31 0-.1-.16-.16-.1-.37l.42.27c.34-.48-.33-1.34.2-1.57.12.16-.05 1.3.06 1.67" clip-rule="evenodd"/><path fill="#e0e0e0" fill-rule="evenodd" d="M11.93 3.53c.1-.73-.3-2.22-1.26-1.62-.05-.36.25-.51.65-.42a4 4 0 0 0-.96-1.01V.5C8-.9 5.7.82 5.96 3.32c.04.36.42 1.35-.36 1.1-1.12-2.45-2.16 2.13.1 1-.56 1.12.28 2.57 1.73 2.56.1-.26.52-.26.73-.21-.58-.25-1.3-.97-1.36-1.62 2.05 3.55 5.55.61 5.13-2.62M5.44 4.8v.05c-.3-.77-.6-.5-.52.26-.16-.16-.16-.63-.05-.84-.16-.05-.21.06-.27.1.1-.67 1-.3.84.43m4.08.2c.01.85 1.05.18 1.41.06.18-.79-1.12-1.2-.94-2.15.1-.1.1.16.16.21.2.55.8 1.07 1.15 1.52.19.77-2.22 1.62-1.78.37m.73 1.26c-.68 0-1.46-.15-1.62-.62.37.2 1.05.2 1.57.2zm-2.98-3.6c-.6-.45 1.16-1.68 1.1-.69-.63-.15-.94.26-1.1.68m.94.93c.27 0 .53.16.74 0-.1-.26-.37-.68-.27-.94.07.5.5.62.53 1.1-.19.33-1.2.32-1-.16m2.1 3.2c-.59.26-1.45.1-1.78-.53 0-.05-.32-.26 0-.26.31.68 1.2.58 1.93.58 0 .1-.05.2-.15.2m.1-.58v-.3c.44-.08.79-.31 1.1-.53-.2.42-.52.84-1.1.84m.52-2.72.58-.05c-.1-.26-.2-.47-.2-.79h.04l.42.84c-.1.26-.89.52-.84 0" clip-rule="evenodd"/><path fill="#e0e0e0" fill-rule="evenodd" d="M10.1 7.98c-.34.31-.91.58-1.26.1.42.16.84-.1 1.2-.1" clip-rule="evenodd"/><path fill="#40a0ff" fill-rule="evenodd" d="M9.84 11.17c-.27-.52-.48-1.15-.84-1.57-.32.21-.73.42-.84.84q.8.46 1.68.78z" clip-rule="evenodd"/><path fill="#a0a0a0" fill-rule="evenodd" d="M5.07 1.6c.2-.05.64-.13.84-.1.24-.33.7-.84 1.05-1.1-.68-.05-1.62.67-1.89 1.2" clip-rule="evenodd"/><path fill="#a0a0a0" fill-rule="evenodd" d="M4.55 3.58c.52-.3 1.26 0 1.26.63.1.03.08-2.27.05-2.5-1 0-1.55.94-1.3 1.87" clip-rule="evenodd"/><path fill="#e0e0e0" fill-rule="evenodd" d="m10.57 13.84-.37.05.05 1.31.53-.1c0-.48-.16-.84-.21-1.26" clip-rule="evenodd"/><path fill="#e0e0e0" fill-rule="evenodd" d="M13.08 13.32c.84-.25.45-1.48.16-2-.3-.55-1.29.13-1.68.32.16.42.16.94.21 1.47.42 0 .9-.1 1.26 0l-.74.2z" clip-rule="evenodd"/><path fill="#e0e0e0" fill-rule="evenodd" d="M11.56 13.16c0-.52-.05-1.1-.26-1.47h-.37l.21 1.57z" clip-rule="evenodd"/><path fill="#40a0ff" fill-rule="evenodd" d="m11.72 7.93-.58-.63-.39.34q.22 0 .33.23h.06c.23.66-.15 1.29.21 1.73l-1.1 1.78c.5-.18 1.08.11 1.26-.68.16-.8 1.16-2.22.2-2.77" clip-rule="evenodd"/><path fill="#40a0ff" fill-rule="evenodd" d="M11.2 9.6c-.16-.16-.42-.36-.74-.2v.25c0 .45-.04.95-.14 1.36q.46-.65.88-1.4" clip-rule="evenodd"/><path fill="#40a0ff" fill-rule="evenodd" d="M10.78 13.47c-.05-.57-.05-1.25-.21-1.78l-.47.06.05 1.83c.26 0 .42 0 .63-.1" clip-rule="evenodd"/><path fill="#e0e0e0" fill-rule="evenodd" d="M9.89 11.75c-1.05-.21-2.4 0-3.35.15.16 1.42.37 2.62.78 3.88a5 5 0 0 0 2.83.05c-.23-1.32-.08-2.71-.26-4.08" clip-rule="evenodd"/><path fill="#e0e0e0" d="M10.3 9.4c-.2 0-.31-.14-.42-.22-.22-.05-.36.14-.57.06l-.1.15c.42.47.57 1.15.89 1.73.15-.52.15-1.15.2-1.73"/><path fill="#ff4040" d="M7.85 8.03c-.62.06-.25 1.54 0 1.83.4-.1 1.38-.44 1.36-.94l-.53-.1c.16-.06.37-.06.53-.16v-.1c-.26 0-.32-.1-.53-.16h.06z"/><path fill="#ff4040" d="M9.94 9.03c.26.1.63.15 1 .15.33-1.18-.25-1.5-1.16-.78l.1.2h.37c-.3-.05-.34.19-.31.43"/><path fill="#ff4040" d="M9.31 8.56c0 .17-.01.25.1.41.53.16.43-.73-.1-.41"/><path fill="#ff4040" d="M11.88 5.73c-1.53 2.84 2 .48-.27 5.5.4-.2 1.09-.52 1.56-.35a6.2 6.2 0 0 0-1.06-7.71c.06.86-.02 1.8-.23 2.56"/><path fill="#ff4040" d="M3.82 10.75c-.11-.8-1.25-2.08 0-2.46 1.23-.93 1.99-.46 1.3-2.2-1.6-.31-.96-2.05-.92-3.18a6.2 6.2 0 0 0-.15 9.44 7 7 0 0 0-.23-1.6"/><path fill="#e0e0e0" d="M7.22 8.5c.28-.63-.49-.26-.79-.52-.15.2.53.47.79.52"/></svg>