<svg xmlns="http://www.w3.org/2000/svg" viewBox="0 0 16 16"><path fill="#ff4040" d="M15 3H8L6.59 1.59A2 2 0 0 0 5.17 1H2a2 2 0 0 0-2 2v10c0 1.1.9 2 2 2h4c-.29-.8-.31-1.84.22-3.08a2.4 2.4 0 0 1 .03-1.98 2.4 2.4 0 0 1 2.21-1.4q.54 0 1 .21L8.85 7H5.44a2 2 0 0 0-1.9 1.37L2 13V7c0-1.1.9-2 2-2h11c.55 0 1-.45 1-1s-.45-1-1-1"/><path fill="#ff4040" d="M15.67 10.94c0-.59-.36-1.1-.9-1.32L16 6H9.58l1.23 3.64c-.94.36-1.17 1.7-.4 2.36-.31.4-.78.77-1.24.97a.7.7 0 0 1-.25-.7c1.45-.54 1.07-2.73-.49-2.73-1.17-.04-1.86 1.45-1.08 2.32-1.75 3.3.9 5.3 3.9 3.4.5-.24 1.02-.5 1.52-.62.63-.15 1.31-.12 1.93-.48.89-.5 1.24-1.64.8-2.55q.17-.3.17-.67m-7.26-.55c.72 0 .72 1.1 0 1.1-.73 0-.73-1.1 0-1.1m6.38-3.52-.89 2.62-1.11-2.27-1.12 2.26-.88-2.61zm-3.75 3.6q.07-.04.16-.06l.06-.01v-.15l.04.14.27.06.07.03.03.02h.02c.41.3.18 1.01-.34 1-.53.01-.76-.74-.31-1.02m1.54-.22q-.08-.14-.19-.26l.4-.8.4.83a1.4 1.4 0 0 0-.28.52h-.2zm2.23 2.4c-.19 1.04-1.43.95-2.25 1.15-1.17.25-2.49 1.33-3.62 1.36-1.5-.02-1.48-1.74-.9-2.71 0 .64.44 1.22 1.05 1.48a4 4 0 0 0 2.14-1.58c.64.06 1.24-.34 1.45-.94h.25a1.4 1.4 0 0 0 1.87.84q.04.2 0 .4m-.55-1.15c-.53.02-.76-.73-.31-1.02h.1v-.06l.2-.03h.11c.65.13.56 1.11-.1 1.1"/></svg>