<svg xmlns="http://www.w3.org/2000/svg" viewBox="0 0 16 16"><path fill="#ff4040" d="M14.84 7.9c0-.93-.58-1.77-1.44-2.1L15.37 0H5.09l1.97 5.82c-1.5.58-1.87 2.74-.63 3.78a5 5 0 0 1-1.99 1.55 1.1 1.1 0 0 1-.4-1.12c2.32-.86 1.71-4.37-.78-4.37C1.38 5.6.28 7.99 1.53 9.38c-2.8 5.29 1.44 8.48 6.25 5.44.8-.4 1.62-.8 2.42-1 1-.24 2.1-.2 3.1-.77a3.15 3.15 0 0 0 1.27-4.07q.27-.5.27-1.07M3.22 7.03c1.16 0 1.16 1.77 0 1.78-1.17 0-1.17-1.78 0-1.78M13.43 1.4l-1.42 4.2-1.78-3.63-1.79 3.61L7.02 1.4zm-6 5.78q.12-.09.26-.12l.09-.02V6.8l.06.23.43.09.12.04.04.04h.03c.67.47.3 1.62-.53 1.6-.85.02-1.22-1.19-.5-1.63m2.46-.37a2 2 0 0 0-.3-.42l.64-1.28.65 1.33q-.32.37-.46.84h-.32a2 2 0 0 0-.2-.47m3.57 3.83c-.3 1.67-2.29 1.54-3.6 1.85-1.87.4-3.98 2.12-5.8 2.18-2.4-.03-2.36-2.79-1.44-4.34 0 1.02.71 1.95 1.7 2.37a6.7 6.7 0 0 0 3.42-2.53c1.02.1 1.99-.54 2.32-1.5h.4A2.27 2.27 0 0 0 13.45 10q.06.3 0 .63m-.87-1.83c-.86.02-1.23-1.17-.5-1.63h.16v-.1h.01l.3-.05h.19v.01c1.04.2.89 1.77-.16 1.77"/></svg>