<svg xmlns="http://www.w3.org/2000/svg" viewBox="0 0 16 16"><path fill="#ff4040" d="M15.45 1.55c0-.15.2-.25.3-.3l.2-.6-.2-.15C13.35 2.14 3 3.69.4 2.14l.2.8-.6.5c.1.5.8.3 1.15.4l.1.35.44.05.2.7c.35.04 1.5.14 2 .04v.3h.1c.15.25-.4.6-.5.7h.1c-.35.1-1.4 0-1.6 0-.15 0-.15.25-.15.35H2v.75l2-.1-.15 2.69-1.5-.1v-.5h.35v-.25c.2 0 .4-.1.5-.3l-1.45-.35-1.1.35c.06 0 .3.3.4.25v.25h.36v.5l-.4.1c0 .05.1.3.2.35v.5h.2v2.24h-.35v.85l.25.05v1.54h1.2l-.26-1.5H3.6c0 .36-.15 1-.25 1.4h1.64v-1.5l.9-.1-.05 1.5h1.05v-1.5h.1v-.89a7 7 0 0 1-.1-2h.2v-.79h-.25v-.5l.3-.05v-.25l.5-.25-1.25-.25-1.15.25.2.3h.2v.3h.3v.4h-1c0-.8 0-2 .1-2.8l5.04-.24c.05.8-.1 2.04-.1 2.84h-.9v-.7h.4v-.3h.2c.1 0 .25-.25.3-.3l-1.35-.3-1.3.3.16.3h.25v.3h.34v.6h-.34v.3h.1v.7h.24v2.39l-.34.1v.25h.1v.65h.2l-.1 1.7h1.44l-.15-1.7h.75v1.5c.5.1 1.34.14 1.84 0-.2-.5-.15-1.15-.25-1.6h.8v1.5c.35 0 .85.04 1.15-.1q-.1-.75-.15-1.5h.2v-.95h-.1v-2.14h.1v-.6h.1v-.3h-.25v-.6h.4v-.25h.15v-.1l.35-.2-1.35-.3-1.25.3.15.25h.15v.05h.15v.3h.35v.5h-1.05c-.1-.95-.5-2.1-.3-3l2.5-.19.05-.9h.15c.15-.75-1.6 0-2.2-.1v-.1l-.5-.3v-.2h.15v-.44c.55 0 2.05-.25 2.5-.35.15-.5.15-.8.8-.9.04-.3 1.24-.3 1.39-.6l-.5-1zm-3.99 8.97h1v2.19l-.8.05-.15-2.2zm-1.5 2.34h-.84v-2.4l.8.06c0 .6 0 1.74.1 2.34zm.16-7.98c.1.35-.6.4-.6.75H8.27s0-.15.1-.2l.1-.74 1.4-.15v.34zm-6.48 7.73-1.35.05v-2.14l1.45.1a4.5 4.5 0 0 0-.05 2zm2.24 0h-.9l-.05-2h1v2zm.75-6.78-1.25.05v-.1l-.4-.2v-.25h.15v-.4l1.3-.1c-.05.1 0 .25.1.35 0 .1 0 .3.1.4z"/></svg>