<svg xmlns="http://www.w3.org/2000/svg" viewBox="0 0 16 16"><path fill="#6060ff" d="M14 3H8L6.59 1.59A2 2 0 0 0 5.17 1H2a2 2 0 0 0-2 2v10c0 1.1.9 2 2 2h3.04Q5 14.88 5 14.75v-5C5 8.51 6 7.5 7.25 7.5h.25v-.25C7.5 6.01 8.5 5 9.75 5h2.5a2.25 2.25 0 0 1 2.25 2.25v.25h.25q.7.01 1.25.38V5a2 2 0 0 0-2-2"/><path fill="#6060ff" d="M14.75 8.5H13.5V7.25c0-.69-.56-1.25-1.25-1.25h-2.5c-.69 0-1.25.56-1.25 1.25V8.5H7.25C6.56 8.5 6 9.06 6 9.75v5c0 .69.56 1.25 1.25 1.25h7.5c.69 0 1.25-.56 1.25-1.25v-5c0-.69-.56-1.25-1.25-1.25m-4.37-1.25h1.24c.35 0 .63.28.63.63v.62h-2.5v-.62c0-.35.28-.63.63-.63"/></svg>