<svg xmlns="http://www.w3.org/2000/svg" viewBox="0 0 16 16"><path fill="#ffff40" d="M9.92 10.27c.49.8 1.12 1.39 2.25 1.39.94 0 1.55-.48 1.55-1.13 0-.78-.62-1.06-1.66-1.51l-.58-.25c-1.64-.7-2.74-1.58-2.74-3.44 0-1.7 1.3-3.01 3.35-3.01 1.45 0 2.49.5 3.24 1.83l-1.78 1.14c-.39-.7-.8-.98-1.46-.98-.67 0-1.1.42-1.1.98 0 .68.43.96 1.4 1.38l.58.25C14.9 7.75 16 8.6 16 10.5c0 2.05-1.61 3.18-3.78 3.18-2.12 0-3.49-1.01-4.16-2.33z"/><path fill="#ffff40" d="M1.86 10.47c.36.63.68 1.17 1.47 1.17.74 0 1.22-.3 1.22-1.43V2.45h2.28v7.79c0 2.36-1.39 3.44-3.4 3.44A3.5 3.5 0 0 1 0 11.59z"/></svg>