<svg xmlns="http://www.w3.org/2000/svg" viewBox="0 0 16 16"><path fill="#ffff40" d="M5.6 12.88c-.36-.3-.6-.75-.6-1.26v-1.24c0-.51.24-.96.6-1.26-.36-.3-.6-.74-.6-1.24V6.63C5 5.73 5.73 5 6.63 5h.2V2.45H4.55v7.76c0 1.14-.48 1.43-1.22 1.43-.79 0-1.11-.54-1.47-1.17L0 11.59a3.5 3.5 0 0 0 3.42 2.09q1.06 0 1.84-.41.14-.22.34-.4"/><path fill="#ffff40" d="M9.13 5.6c.3-.36.74-.6 1.24-.6h.68c.12-.4.5-.69 1.04-.69.6 0 1 .25 1.37.84q.24-.1.51-.13l1.36-.87c-.75-1.33-1.8-1.83-3.24-1.83-2.02 0-3.3 1.27-3.34 2.95q.21.14.38.33"/><path fill="#ffff40" d="M8.5 7.88c0 .34-.28.62-.62.62H6.63A.63.63 0 0 1 6 7.88V6.63c0-.35.28-.63.63-.63h1.25c.34 0 .62.28.62.63z"/><path fill="#ffff40" d="M8.5 7.88c0 .34-.28.62-.62.62H6.63A.63.63 0 0 1 6 7.88V6.63c0-.35.28-.63.63-.63h1.25c.34 0 .62.28.62.63z"/><path fill="#ffff40" d="M8.5 11.63c0 .34-.28.62-.62.62H6.63a.63.63 0 0 1-.63-.62v-1.26c0-.34.28-.62.63-.62h1.25c.34 0 .62.28.62.63z"/><path fill="#ffff40" d="M8.5 15.38c0 .34-.28.62-.62.62H6.63a.63.63 0 0 1-.63-.62v-1.26c0-.34.28-.62.63-.62h1.25c.34 0 .62.28.62.63z"/><path fill="#ffff40" d="M16 7.88c0 .34-.28.62-.62.62h-1.26a.63.63 0 0 1-.62-.62V6.63c0-.35.28-.63.63-.63h1.24c.35 0 .63.28.63.63z"/><path fill="#ffff40" d="M16 7.88c0 .34-.28.62-.62.62h-1.26a.63.63 0 0 1-.62-.62V6.63c0-.35.28-.63.63-.63h1.24c.35 0 .63.28.63.63z"/><path fill="#ffff40" d="M16 11.63c0 .34-.28.62-.62.62h-1.26a.63.63 0 0 1-.62-.62v-1.26c0-.34.28-.62.63-.62h1.24c.35 0 .63.28.63.63z"/><path fill="#ffff40" d="M16 15.38c0 .34-.28.62-.62.62h-1.26a.63.63 0 0 1-.62-.62v-1.26c0-.34.28-.62.63-.62h1.24c.35 0 .63.28.63.63z"/><path fill="#ffff40" d="M12.25 7.88c0 .34-.28.62-.62.62h-1.26a.63.63 0 0 1-.62-.62V6.63c0-.35.28-.63.63-.63h1.24c.35 0 .63.28.63.63z"/><path fill="#ffff40" d="M12.25 7.88c0 .34-.28.62-.62.62h-1.26a.63.63 0 0 1-.62-.62V6.63c0-.35.28-.63.63-.63h1.24c.35 0 .63.28.63.63z"/><path fill="#ffff40" d="M12.25 11.63c0 .34-.28.62-.62.62h-1.26a.63.63 0 0 1-.62-.62v-1.26c0-.34.28-.62.63-.62h1.24c.35 0 .63.28.63.63z"/><path fill="#ffff40" d="M12.25 15.38c0 .34-.28.62-.62.62h-1.26a.63.63 0 0 1-.62-.62v-1.26c0-.34.28-.62.63-.62h1.24c.35 0 .63.28.63.63z"/></svg>