<svg xmlns="http://www.w3.org/2000/svg" viewBox="0 0 16 16"><path fill="#ffff40" d="m6.81 10.46.02-.22V2.45H4.55v7.76c0 1.14-.48 1.43-1.22 1.43-.79 0-1.11-.54-1.47-1.17L0 11.59a3.5 3.5 0 0 0 3.42 2.09q.49 0 .92-.1a3.3 3.3 0 0 1 2.47-3.12"/><path fill="#ffff40" d="m12.97 6.92-.25-.1 1.03 1.63c.32.51.33 1.16.04 1.7l-.1.13v.05h.98q.73.02 1.3.41l.03-.24c0-1.9-1.1-2.75-3.03-3.58"/><path fill="#ffff40" d="M9.25 5.78a1.7 1.7 0 0 1 1.8-.73c.1-.43.47-.74 1.04-.74.65 0 1.07.28 1.46.98l1.78-1.14c-.75-1.33-1.8-1.83-3.24-1.83-2.04 0-3.35 1.3-3.35 3.01q0 .57.15 1.03z"/><path fill="#ffff40" d="M10.1 6.31 8.44 8.98A.67.67 0 0 0 9 10h3.33c.53 0 .85-.58.57-1.02l-1.67-2.67a.67.67 0 0 0-1.13 0"/><path fill="#ffff40" d="M11.33 12.67c0-.74.6-1.34 1.34-1.34h2c.73 0 1.33.6 1.33 1.34v2c0 .73-.6 1.33-1.33 1.33h-2c-.74 0-1.34-.6-1.34-1.33z"/><circle cx="7.67" cy="13.67" r="2.33" fill="#ffff40"/></svg>