<svg xmlns="http://www.w3.org/2000/svg" viewBox="0 0 16 16"><path fill="#ffff40" d="M5 7.25c0-1.1.79-2 1.83-2.2v-2.6H4.55v7.76c0 1.14-.48 1.43-1.22 1.43-.79 0-1.11-.54-1.47-1.17L0 11.59a3.5 3.5 0 0 0 3.42 2.09q.9 0 1.58-.3z"/><path fill="#ffff40" d="M11.05 5c.12-.4.5-.69 1.04-.69.55 0 .93.21 1.27.69H14l1.33-.85c-.75-1.33-1.8-1.83-3.24-1.83-1.9 0-3.15 1.14-3.31 2.68z"/><circle cx="11" cy="11" r=".98" fill="#ffff40"/><path fill="#ffff40" d="M10.51 10.15a.98.98 0 1 0 .98 1.7.98.98 0 0 0-.98-1.7"/><path fill="#ffff40" d="M14.75 6h-7.5C6.56 6 6 6.56 6 7.25v7.5c0 .69.56 1.25 1.25 1.25h7.5c.69 0 1.25-.56 1.25-1.25v-7.5C16 6.56 15.44 6 14.75 6m-1.46 5.2.57.32c.18.1.25.35.14.54l-.59 1.01a.4.4 0 0 1-.53.14l-.57-.32c-.18-.11-.33-.02-.33.2v.64a.4.4 0 0 1-.4.4h-1.17a.4.4 0 0 1-.39-.4v-.65c0-.21-.15-.3-.33-.2l-.57.33a.4.4 0 0 1-.53-.14L8 12.06a.4.4 0 0 1 .14-.54l.57-.32c.18-.11.18-.29 0-.4l-.57-.32A.4.4 0 0 1 8 9.94l.59-1.01a.4.4 0 0 1 .53-.14l.57.32c.18.11.33.02.33-.2v-.64c0-.22.18-.4.4-.4h1.17a.4.4 0 0 1 .39.4v.65c0 .21.15.3.33.2l.57-.33a.4.4 0 0 1 .53.14L14 9.94a.4.4 0 0 1-.14.54l-.57.32c-.18.11-.18.29 0 .4"/></svg>