<svg xmlns="http://www.w3.org/2000/svg" viewBox="0 0 16 16"><path fill="#ffff40" d="M5 11c0-1.69.7-3.21 1.83-4.3V2.45H4.55v7.76c0 1.14-.48 1.43-1.22 1.43-.79 0-1.11-.54-1.47-1.17L0 11.59a3.5 3.5 0 0 0 3.42 2.09q1.17 0 2-.49A6 6 0 0 1 5 11"/><path fill="#ffff40" d="M11 5h.05c.12-.4.49-.7 1.04-.7.65.01 1.07.29 1.46.99l1.78-1.14c-.75-1.33-1.8-1.83-3.24-1.83-2.04 0-3.35 1.3-3.35 3.01l.01.11Q9.81 5.01 11 5"/><path fill="#ffff40" d="M11 6a5 5 0 1 0 0 10 5 5 0 0 0 0-10m0 8.13a.62.62 0 1 1 0-1.25.62.62 0 0 1 0 1.24m.63-2.5c0 .34-.29.62-.63.62s-.62-.28-.62-.62V8.5c0-.34.28-.62.62-.62s.63.28.63.62z"/></svg>