<svg xmlns="http://www.w3.org/2000/svg" viewBox="0 0 16 16"><path fill="#ffff40" d="M5.8 8.97a2.23 2.23 0 0 1 1.03-3.9V2.44H4.55v7.76c0 1.14-.48 1.43-1.22 1.43-.79 0-1.11-.54-1.47-1.17L0 11.59a3.5 3.5 0 0 0 3.42 2.09c2.02 0 3.4-1.08 3.4-3.44v-.4z"/><path fill="#ffff40" d="m8.75 11.46-.36-.3-.33.19q.27.53.69.97z"/><path fill="#ffff40" d="M11.05 5c.12-.4.5-.69 1.04-.69.55 0 .93.21 1.27.69H14l1.33-.85c-.75-1.33-1.8-1.83-3.24-1.83-1.9 0-3.15 1.14-3.31 2.68z"/><path fill="#ffff40" d="M13.25 11.46v2.11c1.62-.3 2.75-1.36 2.75-3.07q0-.68-.19-1.2z"/><path fill="#ffff40" d="M14.75 6h-7.5a1.25 1.25 0 0 0-.8 2.21L9.75 11v4.38c0 .34.28.62.63.62h1.24c.35 0 .63-.28.63-.62V11l3.3-2.79c.9-.75.37-2.21-.8-2.21"/></svg>