<svg xmlns="http://www.w3.org/2000/svg" viewBox="0 0 16 16"><path fill="#ffff40" d="m2.1 14.73-.39-.81L4.87 12l.51.9c.07.13.22.4.3.45l.01-.17V7h-.25a2 2 0 0 0-1.9 1.37L2 13V7c0-1.1.9-2 2-2h11c.55 0 1-.45 1-1s-.45-1-1-1H8L6.59 1.59A2 2 0 0 0 5.17 1H2a2 2 0 0 0-2 2v10c0 1.1.9 2 2 2h.26q-.1-.13-.16-.27"/><path fill="#ffff40" d="M16 10.87V9.09l-1.32.85q.76.37 1.32.93"/><path fill="#ffff40" d="M9.55 7v.54q.16-.3.39-.54z"/><path fill="#ffff40" d="M11.06 13.23c.4.65.91 1.12 1.83 1.12.76 0 1.25-.38 1.25-.9 0-.64-.5-.87-1.35-1.24l-.46-.2c-1.34-.57-2.22-1.28-2.22-2.8 0-1.38 1.05-2.44 2.71-2.44 1.18 0 2.03.41 2.64 1.48L14 9.18c-.32-.57-.66-.8-1.19-.8-.54 0-.89.35-.89.8 0 .56.35.78 1.14 1.13l.47.2c1.57.67 2.46 1.36 2.46 2.9C16 15.1 14.69 16 12.93 16c-1.72 0-2.84-.82-3.38-1.9z"/><path fill="#ffff40" d="M4.5 13.39c.3.52.56.95 1.2.95.61 0 1-.23 1-1.16v-6.3h1.85v6.32c0 1.92-1.13 2.8-2.77 2.8A2.9 2.9 0 0 1 3 14.3z"/></svg>