<svg xmlns="http://www.w3.org/2000/svg" viewBox="0 0 16 16"><path fill="#ffff40" d="M6.25 11.44v-2.5c0-.57.22-1.08.58-1.49v-5H4.55v7.76c0 1.14-.48 1.43-1.22 1.43-.79 0-1.11-.54-1.47-1.17L0 11.59a3.5 3.5 0 0 0 3.42 2.09c1.3 0 2.33-.45 2.9-1.39a6 6 0 0 1-.07-.85"/><path fill="#ffff40" d="M10.56 5.27q.24-.12.47-.18c.1-.45.47-.78 1.06-.78.65 0 1.07.28 1.46.98l1.78-1.14c-.75-1.33-1.8-1.83-3.24-1.83-2.04 0-3.35 1.3-3.35 3.01q.01.48.1.86z"/><path fill="#ffff40" d="m15.34 7.83-3.13-1.68c-.37-.2-.8-.2-1.17 0L7.9 7.83c-.4.22-.66.64-.66 1.1v2.51A4.5 4.5 0 0 0 11.49 16 4.37 4.37 0 0 0 16 11.63v-2.7c0-.46-.25-.88-.66-1.1m-.59 3.8c0 1.72-1.4 3.12-3.12 3.12V11H8.5V9.68c0-.46.25-.88.66-1.1l1.86-1.01q.3-.15.6-.15V11h3.13z"/></svg>