<svg xmlns="http://www.w3.org/2000/svg" viewBox="0 0 16 16"><path fill="#ffff40" d="M14.75 7.25h-1.87l-.28-.56A1.3 1.3 0 0 0 11.48 6H8.5c-.69 0-1.25.56-1.25 1.25v8.13a.62.62 0 1 0 1.25 0v-3.76h3.13l.27.56c.22.43.65.7 1.12.7h1.73c.69 0 1.25-.56 1.25-1.26V8.5c0-.69-.56-1.25-1.25-1.25"/><path fill="#ffff40" d="M11.01 12.63H9.5v.31a5 5 0 0 0 2.64.74 2.2 2.2 0 0 1-1.13-1.05"/><path fill="#ffff40" d="M11.05 5c.12-.4.5-.69 1.04-.69.65 0 1.07.28 1.46.98l1.78-1.14c-.75-1.33-1.8-1.83-3.24-1.83-1.9 0-3.15 1.14-3.31 2.68z"/><path fill="#ffff40" d="M6.25 7.25c0-.57.22-1.1.58-1.5v-3.3H4.55v7.76c0 1.14-.48 1.43-1.22 1.43-.79 0-1.11-.54-1.47-1.17L0 11.59a3.5 3.5 0 0 0 3.42 2.09c1.24 0 2.24-.41 2.83-1.27z"/></svg>