<svg xmlns="http://www.w3.org/2000/svg" viewBox="0 0 16 16"><path fill="#ffff40" d="m9.66 5.32 5.97 3.58c-.47-.87-1.38-1.43-2.66-1.98l-.57-.25c-.98-.42-1.4-.7-1.4-1.38 0-.56.42-.98 1.09-.98.65 0 1.07.28 1.46.98l1.78-1.14c-.75-1.33-1.8-1.83-3.24-1.83-1.92 0-3.17 1.16-3.32 2.71q.46.05.89.3"/><path fill="#ffff40" d="M6.25 7.25c0-.57.22-1.09.58-1.49V2.45H4.55v7.76c0 1.14-.48 1.43-1.22 1.43-.79 0-1.11-.54-1.47-1.17L0 11.59a3.5 3.5 0 0 0 3.42 2.09c1.24 0 2.24-.41 2.83-1.27z"/><path fill="#40ff40" d="M7.25 7.25v7.5c0 .97 1.06 1.57 1.9 1.07l6.24-3.75c.81-.48.81-1.66 0-2.14L9.14 6.18c-.83-.5-1.89.1-1.89 1.07"/></svg>