<svg xmlns="http://www.w3.org/2000/svg" viewBox="0 0 16 16"><path fill="#a0a0a0" d="M5 11c0-1.54.58-2.94 1.54-4h-1.1a2 2 0 0 0-1.9 1.37L2 13V7c0-1.1.9-2 2-2h11c.55 0 1-.45 1-1s-.45-1-1-1H8L6.59 1.59A2 2 0 0 0 5.17 1H2a2 2 0 0 0-2 2v10c0 1.1.9 2 2 2h4.54A6 6 0 0 1 5 11"/><path fill="#e0e0e0" fill-rule="evenodd" d="M11 13.44c2.18 3.03 4.37-.84 4.37-3.15C15.37 7.54 12.56 6 11 6c-2.56 0-5 2.12-5 5 0 3.21 2.81 5 5 5-.5-.06-2.19-.44-2.19-4.25 0-2.59.84-3.62 2.19-3.15 0 0 1.46.56 1.46 2.44S11 13.44 11 13.44" clip-rule="evenodd"/><path fill="#a0a0a0" fill-rule="evenodd" d="M11 8.6c-1.47-.5-3.25.69-3.25 3.12 0 3.94 2.9 4.28 3.25 4.28 2.56 0 5-2.12 5-5 0-3.21-2.82-5-5-5 .62-.09 3.28.66 3.28 4.32 0 2.4-2 3.68-3.28 3.12-.03 0-1.47-.56-1.47-2.44S11 8.63 11 8.63z" clip-rule="evenodd"/></svg>