<svg xmlns="http://www.w3.org/2000/svg" viewBox="0 0 16 16"><path fill="#ffff40" d="M6.25 6.88h.58V2.45H4.55v5.07a2.6 2.6 0 0 1 1.7-.64"/><path fill="#ffff40" d="M3.63 13.38v-1.76l-.3.02c-.79 0-1.11-.54-1.47-1.17L0 11.59a3.5 3.5 0 0 0 2.88 2.05q.33-.2.75-.26"/><path fill="#ffff40" d="m12.87 6.88-.47-.2c-.98-.43-1.4-.7-1.4-1.4 0-.55.42-.97 1.09-.97.65 0 1.07.28 1.46.98l1.78-1.14c-.75-1.33-1.8-1.83-3.24-1.83-2.04 0-3.35 1.3-3.35 3.01q.01.92.35 1.54z"/><path fill="#ffff40" d="M13.38 12.94h-3.7v.12c.68.38 1.52.62 2.54.62q.71 0 1.33-.17a2 2 0 0 1-.17-.57"/><path fill="#ffff40" d="M15.19 6.25a.8.8 0 0 0-.81.81v.82H6.24c-.9 0-1.62.72-1.62 1.62v4.88H3.8c-.44 0-.81.36-.81.8s.37.82.81.82h5.7c.45 0 .81-.37.81-.81s-.36-.81-.81-.81h-.81v-2.44h5.69v.81c0 .45.36.81.8.81s.82-.36.82-.81V7.06a.8.8 0 0 0-.81-.81"/></svg>