<svg xmlns="http://www.w3.org/2000/svg" viewBox="0 0 16 16"><path fill="#ffff40" d="M5 12.88c0-.79.4-1.48 1.01-1.88C5.41 10.6 5 9.9 5 9.13V7.25c0-1.1.79-2 1.83-2.2v-2.6H4.55v7.76c0 1.14-.48 1.43-1.22 1.43-.79 0-1.11-.54-1.47-1.17L0 11.59a3.5 3.5 0 0 0 3.42 2.09q.9 0 1.58-.3z"/><path fill="#ffff40" d="M11.05 5c.12-.4.5-.69 1.04-.69.55 0 .93.21 1.27.69H14l1.33-.85c-.75-1.33-1.8-1.83-3.24-1.83-1.9 0-3.15 1.14-3.31 2.68z"/><path fill="#ffff40" d="M14.75 11.63h-7.5c-.69 0-1.25.56-1.25 1.24v1.88c0 .69.56 1.25 1.25 1.25h7.5c.69 0 1.25-.56 1.25-1.25v-1.87c0-.7-.56-1.26-1.25-1.26m-6.56 3.12a.94.94 0 1 1 0-1.87.94.94 0 0 1 0 1.87"/><path fill="#ffff40" d="M14.75 6h-7.5C6.56 6 6 6.56 6 7.25v1.88c0 .68.56 1.24 1.25 1.24h7.5c.69 0 1.25-.56 1.25-1.24V7.25C16 6.56 15.44 6 14.75 6M8.19 9.13a.94.94 0 1 1 0-1.88.94.94 0 0 1 0 1.88"/></svg>