<svg xmlns="http://www.w3.org/2000/svg" viewBox="0 0 16 16"><path fill="#ffff40" d="m5.84 12.22-.65-1.12a1.4 1.4 0 0 1 .17-1.66 1.4 1.4 0 0 1-.17-1.66l.65-1.12c.22-.38.59-.61.99-.68V2.45H4.55v7.76c0 1.14-.48 1.43-1.22 1.43-.79 0-1.11-.54-1.47-1.17L0 11.59a3.5 3.5 0 0 0 3.42 2.09c1.16 0 2.1-.37 2.7-1.12q-.16-.15-.28-.34"/><path fill="#ffff40" d="m13.05 6.95.47.83a1.4 1.4 0 0 1-.16 1.66q.22.25.3.57.06.2.04.38l.02.14-.03.1h.58c.46 0 .86.24 1.09.6q.27.01.52.14.11-.4.12-.87c0-1.88-1.07-2.73-2.95-3.55"/><path fill="#ffff40" d="M10 5q.62.02 1.02.46l-.03-.17c0-.56.43-.98 1.1-.98.65 0 1.07.28 1.46.98l1.78-1.14c-.75-1.33-1.8-1.83-3.24-1.83-1.9 0-3.15 1.14-3.31 2.68z"/><path fill="#ffff40" d="m15.86 14.18-.4-.23c-.12-.08-.12-.2 0-.27l.4-.23a.27.27 0 0 0 .1-.38l-.4-.7a.27.27 0 0 0-.38-.1l-.4.22q-.21.1-.23-.13v-.46a.27.27 0 0 0-.28-.27h-.82a.27.27 0 0 0-.27.27v.46q-.01.23-.24.13l-.4-.23a.27.27 0 0 0-.37.1l-.4.71c-.08.13-.04.3.1.38l.39.23c.13.07.13.2 0 .27l-.4.23a.27.27 0 0 0-.1.37l.41.71c.08.13.25.18.38.1l.4-.23c.12-.07.23-.01.23.14v.46c0 .15.12.27.27.27h.82c.15 0 .28-.12.28-.27v-.46q.02-.24.23-.14l.4.23c.13.08.3.03.37-.1l.41-.7a.27.27 0 0 0-.1-.38m-1.65.22a.68.68 0 1 1-.69-1.18.68.68 0 0 1 .69 1.18"/><path fill="#ffff40" d="m12.5 10.01-.62-.36c-.2-.12-.2-.3 0-.43l.62-.36c.2-.11.27-.38.16-.58L12 7.16a.43.43 0 0 0-.59-.16l-.62.36c-.2.12-.37.02-.37-.21v-.72c0-.24-.2-.43-.43-.43H8.71c-.23 0-.43.2-.43.43v.72c0 .23-.17.33-.37.21L7.29 7a.43.43 0 0 0-.59.16l-.64 1.12c-.12.2-.05.47.15.58l.63.36c.2.12.2.31 0 .43l-.63.36a.43.43 0 0 0-.15.59l.64 1.11c.12.2.38.28.59.16l.62-.36c.2-.12.37-.02.37.22v.72c0 .23.2.43.43.43h1.3c.23 0 .42-.2.42-.43v-.72c0-.24.17-.34.37-.22l.62.36c.2.12.47.05.6-.16l.64-1.11a.43.43 0 0 0-.16-.59m-2.6.36A1.07 1.07 0 1 1 8.81 8.5a1.07 1.07 0 0 1 1.07 1.86"/></svg>