<svg xmlns="http://www.w3.org/2000/svg" viewBox="0 0 16 16"><path fill="#ffff40" d="M5 7.25c0-1.1.79-2 1.83-2.2v-2.6H4.55v7.76c0 1.14-.48 1.43-1.22 1.43-.79 0-1.11-.54-1.47-1.17L0 11.59a3.5 3.5 0 0 0 3.42 2.09q.9 0 1.58-.3z"/><path fill="#ffff40" d="M11.05 5c.12-.4.5-.69 1.04-.69.56 0 .95.22 1.3.73q.2.04.38.1l1.56-1c-.75-1.32-1.8-1.82-3.24-1.82-1.9 0-3.15 1.14-3.31 2.68z"/><path fill="#ffff40" d="M12.98 6H7.25C6.56 6 6 6.56 6 7.25v7.5c0 .69.56 1.25 1.25 1.25h7.5c.69 0 1.25-.56 1.25-1.25V9.02q0-.51-.37-.89l-1.76-1.76a1.3 1.3 0 0 0-.89-.37M7.25 8.5v-.62c0-.35.28-.63.63-.63h3.75c.34 0 .62.28.62.63v.62c0 .34-.28.63-.62.63H7.87a.63.63 0 0 1-.62-.63m4.14 6.2a1.57 1.57 0 0 1-.78-3.03 1.57 1.57 0 0 1 .78 3.03"/></svg>