<svg xmlns="http://www.w3.org/2000/svg" viewBox="0 0 16 16"><path fill="#ffff40" d="M1.86 10.47c.36.63.68 1.17 1.47 1.17.74 0 1.22-.3 1.22-1.43V2.45h2.28v7.79c0 2.36-1.39 3.44-3.4 3.44A3.5 3.5 0 0 1 0 11.59z"/><path fill="#ffff40" d="M14.2 7.53q-.34.51-.95.68v1.42q.42.3.46.81l1.76 1.82A3 3 0 0 0 16 10.5c0-1.45-.64-2.29-1.8-2.97"/><path fill="#ffff40" d="M9.13 5h1.92c.12-.4.5-.69 1.04-.69.58 0 .98.24 1.34.8l.24.1 1.66-1.06c-.75-1.33-1.8-1.83-3.24-1.83-1.92 0-3.17 1.16-3.32 2.72q.17-.03.36-.04"/><path fill="#ffff40" d="m15.63 13.87-3.38-3.5V7.26h.63c.34 0 .62-.28.62-.62S13.22 6 12.88 6H9.12a.63.63 0 0 0 .01 1.25h.62v3.13l-3.38 3.49c-.79.78-.23 2.13.88 2.13h7.5c1.11 0 1.67-1.35.88-2.13"/></svg>