<svg xmlns="http://www.w3.org/2000/svg" viewBox="0 0 16 16"><path fill="#ffff40" d="M4.29 13.14q0-.36.13-.67-.5-.3-.72-.87-.18.04-.37.04c-.79 0-1.11-.54-1.47-1.17L0 11.59a3.5 3.5 0 0 0 3.42 2.09q.46 0 .87-.09z"/><path fill="#ffff40" d="M6 7.14h.83V2.45H4.55v5.19c.4-.3.9-.5 1.45-.5"/><path fill="#ffff40" d="M9.87 5h.83q.18 0 .34.03c.12-.42.49-.72 1.05-.72.65 0 1.07.28 1.46.98l1.78-1.14c-.75-1.33-1.8-1.83-3.24-1.83-2.04 0-3.35 1.3-3.35 3.01l.01.1Q9.23 5 9.87 5"/><path fill="#ffff40" d="M14.57 12.43h-3.21a.7.7 0 0 1-.72.71h-.71a.7.7 0 0 1-.72-.71H6a.7.7 0 0 0-.71.71v1.43c0 .79.64 1.43 1.42 1.43h7.15c.79 0 1.43-.64 1.43-1.43v-1.43a.7.7 0 0 0-.72-.71"/><path fill="#ffff40" d="M14.57 8.14h-2.14v-.42a.7.7 0 0 0-.21-.5L11.2 6.2a.7.7 0 0 0-.5-.21h-.84a.7.7 0 0 0-.5.2L8.34 7.23a.7.7 0 0 0-.2.5v.42H6c-.79 0-1.43.64-1.43 1.43V11c0 .4.32.71.72.71H9.2c0-.39.33-.71.72-.71h.71c.4 0 .72.32.72.71h3.93c.39 0 .71-.32.71-.71V9.57c0-.79-.64-1.43-1.43-1.43m-4.64-.71h.71c.2 0 .36.16.36.36v.35H9.57V7.8c0-.2.16-.36.36-.36"/></svg>