<svg xmlns="http://www.w3.org/2000/svg" viewBox="0 0 16 16"><path fill="#a040ff" d="M14 3H8L6.59 1.59A2 2 0 0 0 5.17 1H2a2 2 0 0 0-2 2v10c0 1.1.9 2 2 2h2.54a3.4 3.4 0 0 1 .69-3.9 3.4 3.4 0 0 1 2.37-1 3.4 3.4 0 0 1-.44-1.65 3.45 3.45 0 0 1 6.9 0q-.02.9-.44 1.66c.93.01 1.77.4 2.38 1.02V5a2 2 0 0 0-2-2"/><path fill="#a040ff" d="M13.55 11.1a2.45 2.45 0 1 0 0 4.9 2.45 2.45 0 0 0 0-4.9"/><path fill="#ff4040" d="M7.67 11.1a2.45 2.45 0 1 0-.01 4.9 2.45 2.45 0 0 0 0-4.9"/><path fill="#40ff40" d="M10.6 6a2.45 2.45 0 1 0 0 4.9h.01a2.45 2.45 0 1 0 0-4.9"/></svg>