<svg xmlns="http://www.w3.org/2000/svg" viewBox="0 0 16 16"><path fill="#a040ff" d="M4.21 13.55A3.43 3.43 0 0 1 7.6 10.1 3.4 3.4 0 0 1 7.49 7H5.44a2 2 0 0 0-1.9 1.37L2 13V7c0-1.1.9-2 2-2h11c.55 0 1-.45 1-1s-.45-1-1-1H8L6.59 1.59A2 2 0 0 0 5.17 1H2a2 2 0 0 0-2 2v10c0 1.1.9 2 2 2h2.54a3.4 3.4 0 0 1-.33-1.45"/><path fill="#a040ff" d="M14 7h-.28a3.4 3.4 0 0 1-.1 3.1c.93.02 1.77.41 2.38 1.03V9a2 2 0 0 0-2-2"/><path fill="#a040ff" d="M13.55 11.1a2.45 2.45 0 1 0 0 4.9 2.45 2.45 0 0 0 0-4.9"/><path fill="#ff4040" d="M7.67 11.1a2.45 2.45 0 1 0-.01 4.9 2.45 2.45 0 0 0 0-4.9"/><path fill="#40ff40" d="M10.6 6a2.45 2.45 0 1 0 0 4.9h.01a2.45 2.45 0 1 0 0-4.9"/></svg>