<svg xmlns="http://www.w3.org/2000/svg" viewBox="0 0 16 16"><path fill="#a040ff" d="M15.71 10.93c.42-.42.37-1.17-.09-1.54-.42-.39-1.7-.11-2.28-.12l-.22-3.43q-.02-.48-.38-.8v-.01c-.74-.65-2.09-.08-1.95.95l.27 4.37c0 .62.56 1.13 1.18 1.05l2.69-.17c.28-.02.57-.1.78-.3"/><path fill="#40ffff" d="M11.36 6.94q-.3-.83-1.02-1.35c-.78-.67-2.36-.8-3.37-1-.6-.14-1.22.3-1.28.91l-.76 4.32c-.14.6.29 1.22.9 1.29 1.02.15 2.56.57 3.51.21a3 3 0 0 0 1.42-.93c.72-.87 1-2.38.6-3.45M8.95 9.57l-.02-.03zm-.23-.33c-.2.2-.89.17-1.32.06l.43-2.48c.45.05 1.1.25 1.22.51.35.31.1 1.73-.33 1.9"/><path fill="#ff4040" d="M5.87 9.24 4.22 7.8l1.26-1.46c.2-.23.33-.51.3-.83q-.04-.45-.39-.73-.34-.3-.79-.26t-.74.4L2.4 6.65l-.06-.79q-.03-.48-.4-.8-.39-.3-.87-.25-.48.02-.82.4-.29.36-.25.84l.36 4.37c.03.3.14.6.38.8v.01h.01q.38.3.86.25.48-.03.82-.38.31-.39.26-.87l-.07-.91 1.75 1.52q.38.35.88.32.46-.04.75-.39a1.07 1.07 0 0 0-.13-1.53"/></svg>