<svg xmlns="http://www.w3.org/2000/svg" viewBox="0 0 16 16"><path fill="#e0e0e0" d="M2.01 12.96 2 13V7c0-1.1.9-2 2-2h11c.55 0 1-.45 1-1s-.45-1-1-1H8L6.59 1.59A2 2 0 0 0 5.17 1H2a2 2 0 0 0-2 2v10c0 1.1.9 2 2 2h.66a4 4 0 0 1-.65-2.04"/><path fill="#e0e0e0" d="M14 7H5.44a2 2 0 0 0-1.9 1.37l-.56 1.7a4.22 4.22 0 0 1 7.1.87h5.1q.45 0 .82.21V9a2 2 0 0 0-2-2"/><path fill="#e0e0e0" d="M15.19 11.94h-5.8a3.25 3.25 0 1 0 0 1.62h.59l.57.58c.32.31.83.31 1.15 0l.24-.24.23.24c.32.31.84.31 1.15 0l.24-.24.24.24c.32.31.83.31 1.15 0l.81-.82a.81.81 0 0 0-.57-1.38m-8.94 2.44a1.63 1.63 0 1 1 0-3.26 1.63 1.63 0 0 1 0 3.26"/></svg>