<svg xmlns="http://www.w3.org/2000/svg" viewBox="0 0 16 16"><path fill="#40a0ff" d="M15 3H8L6.59 1.59A2 2 0 0 0 5.17 1H2a2 2 0 0 0-2 2v10c0 1.1.9 2 2 2h4.45l-1.37-1.7a1.7 1.7 0 0 1-.33-1.44l.88-3.83c.1-.44.37-.8.73-1.03h-.92a2 2 0 0 0-1.9 1.37L2 13V7c0-1.1.9-2 2-2h11c.55 0 1-.45 1-1s-.45-1-1-1"/><path fill="#40a0ff" d="M10.44 10.1v-.04l.06-.99q-.62.11-1.08.52l.8.57.04.03c.07.05.17 0 .18-.09"/><path fill="#40a0ff" d="m10.9 12.3-.05-.02a.1.1 0 0 0-.1.06l-.02.04-.47.86q.6.16 1.19 0l-.5-.9z"/><path fill="#40a0ff" d="m10.85 11.49.24-.11.06-.26-.16-.21h-.27l-.17.21.06.26z"/><path fill="#40a0ff" d="M9.76 10.99q.06-.11-.05-.18l-.73-.66q-.3.54-.26 1.16l.99-.29z"/><path fill="#40a0ff" d="m9.91 11.83-.05.01-.96.16q.24.57.74.93l.37-.9.02-.05a.1.1 0 0 0-.1-.15"/><path fill="#40a0ff" d="M15.1 8.25a.7.7 0 0 0-.37-.46c-.1-.01-3.93-1.97-3.91-1.78q-.14 0-.26.07l-3.58 1.7a.7.7 0 0 0-.37.47l-.89 3.84q-.06.31.14.58l2.47 3.07q.21.26.54.26h3.97q.32-.01.53-.26l2.48-3.08a.7.7 0 0 0 .13-.57zm-.4 3.81c-.15.46-.71.05-1 .02l-.07.04h-.07a3 3 0 0 1-1.2 1.5h.01l.04.04-.03.04q-.03.05-.01.07c.05.15.2.34.3.5.25.45-.37.72-.53.26-.07-.18-.12-.42-.21-.55q-.02-.03-.08-.04l-.03-.03-.01-.02c-.62.21-1.3.21-1.9 0l-.04.05c-.17.02-.16.25-.23.39q-.03.12-.09.24v.06h-.03c-.25.35-.7 0-.48-.36.1-.16.25-.36.3-.5l-.02-.1.02-.06a3 3 0 0 1-1.19-1.49l-.05.01-.1-.04c-.16.02-.38.12-.56.18l-.05.02h-.03c-.37.07-.5-.46-.13-.58h.04l.04-.02.22-.01q.2-.02.36-.06l.06-.08.06-.02c-.08-.65.07-1.3.42-1.86l-.04-.04V9.6l-.02-.08c-.12-.11-.33-.21-.49-.32l-.03-.02C7.6 9 7.7 8.6 8 8.62q.15.01.25.11c.13.13.29.32.42.4q.02.02.05 0h.04l.04.02.02.02a3 3 0 0 1 1.72-.83v-.05q.06-.05.07-.1.01-.14-.02-.35l-.03-.22c-.05-.45.57-.52.59-.06q0 .14-.03.27l-.03.38.06.06.01.05v.02q1 .12 1.72.83l.05-.04h.11q.12-.09.27-.25l.04-.04c.33-.5.96-.04.48.35q-.1.07-.2.1l-.3.22-.01.08-.05.07c.35.54.5 1.21.43 1.85l.05.02q.03.05.07.08.16.04.36.06c.24-.02.59.11.52.39"/><path fill="#40a0ff" d="m11.2 9.08.06.98v.04c.01.11.15.13.21.06l.8-.57q-.46-.41-1.06-.51"/><path fill="#40a0ff" d="m12.72 10.15-.73.65-.03.03c-.07.06-.04.17.04.19l.05.02.94.27c.02-.4-.07-.82-.27-1.16"/><path fill="#40a0ff" d="M11.86 11.83h-.07c-.1 0-.13.11-.08.19l.38.92q.51-.37.75-.94z"/></svg>