<svg xmlns="http://www.w3.org/2000/svg" viewBox="0 0 16 16"><path fill="#ff4040" d="m6.38 12.4-2.7-1.5 2.85-1.65 3.15-1.8L12.38 9l-2 1.15z"/><path fill="#ff4040" d="M12.63 5.45v3.1l-1.1-.65-1.6-.95V3.9l1.15.65z"/><path fill="#ff4040" d="m12.93 1.85 2.7 1.55-2.7 1.55-2.7-1.55z"/><path fill="#ff4040" d="m4.58 9.75-1.15.65V3.6l1.54-.9 1.16-.65v6.8z"/><path fill="#ff4040" d="m3.13 0 2.75 1.55-2.75 1.6-2.7-1.6z"/><path fill="#ff4040" d="m.18 2 1.09.7 1.61.9V11h.05v.05l.05.05 3.15 1.75V16l-6-3.5V2z"/><path fill="#ff4040" d="M12.63 12.55 6.68 16v-3.1l4.4-2.55 1.55-.9z"/><path fill="#ff4040" d="m15.88 6.95-2.7 1.6v-3.1l1.6-.9 1.1-.65z"/></svg>