<svg xmlns="http://www.w3.org/2000/svg" viewBox="0 0 16 16"><path fill="#ff40a0" d="M14 3H8L6.59 1.59A2 2 0 0 0 5.17 1H2a2 2 0 0 0-2 2v10c0 1.1.9 2 2 2h4.53l-1.71-.98a1.67 1.67 0 0 1 .17-3l-.17-.1a1.7 1.7 0 0 1 0-2.94l4.82-2.76a1.7 1.7 0 0 1 1.68 0L16 7.9V5a2 2 0 0 0-2-2"/><path fill="#ff40a0" d="M10.14 6.1 5.31 8.84a.7.7 0 0 0 0 1.2l4.83 2.76c.21.12.47.12.68 0l4.83-2.76a.7.7 0 0 0 0-1.2l-4.83-2.76a.7.7 0 0 0-.68 0"/><path fill="#ff40a0" d="M15.91 12.2a.7.7 0 0 0-.94-.25l-4.32 2.47a.3.3 0 0 1-.34 0L6 11.95a.7.7 0 0 0-.94.26.7.7 0 0 0 .25.94l4.83 2.76c.21.12.47.12.68 0l4.83-2.76a.7.7 0 0 0 .26-.94"/></svg>