<svg xmlns="http://www.w3.org/2000/svg" viewBox="0 0 16 16"><path fill="#ff40a0" d="M15 3H8L6.59 1.59A2 2 0 0 0 5.17 1H2a2 2 0 0 0-2 2v10c0 1.1.9 2 2 2h3v-1.5c0-.5.24-.95.6-1.25-.36-.3-.6-.74-.6-1.25V7.07a2 2 0 0 0-1.46 1.3L2 13V7c0-1.1.9-2 2-2h11c.55 0 1-.45 1-1s-.45-1-1-1"/><path fill="#ff40a0" d="M6 6.63c0-.35.28-.63.63-.63h3.12c.34 0 .63.28.63.63V11c0 .34-.29.63-.63.63H6.63A.63.63 0 0 1 6 11z"/><path fill="#ff40a0" d="M11.63 6.63c0-.35.28-.63.62-.63h3.13c.34 0 .62.28.62.63V8.5c0 .34-.28.63-.62.63h-3.13a.63.63 0 0 1-.62-.63z"/><path fill="#ff40a0" d="M11.63 11c0-.34.28-.62.62-.62h3.13c.34 0 .62.28.62.62v4.38c0 .34-.28.62-.62.62h-3.13a.63.63 0 0 1-.62-.62z"/><path fill="#ff40a0" d="M6 13.5c0-.34.28-.62.63-.62h3.12c.34 0 .63.28.63.62v1.88c0 .34-.29.62-.63.62H6.63a.63.63 0 0 1-.63-.62z"/></svg>