<svg xmlns="http://www.w3.org/2000/svg" viewBox="0 0 16 16"><path fill="#a040ff" d="M15.97 8.38c-.46.12-.19.7-.7.49-.07-.08.37.02.36-.12-.07.05-.54.06-.58-.07.03-.2.47.02.24-.42-.17-.16 0-.18.13-.24-.1-.24-.4.03-.54.11-.28.06-.57.27-.84.13-.02.05.2.2.06.23-.75.01-.15-1.53-1.56-1.67-.12-.06-.97-.15-.57-.29.58-.1 1.13.54 1.73.51.42-.09 1.1.97 1.18.46.09-.27-.38-.28-.22-.38.39.32.85.26 1.22-.04-.53-.36-.53.4-1.02-.12.16-.09.18-.16.2.01.2-.11.28-.43.53-.48q-.73-.15-1.46-.19c-.53.21-1.07.37-1.42-.28-.56-.37.36-.09.34.16-.1.2.54-.06.59-.1-1.4-.26.57-.48 1.03-.24.22.01-.32-.61-.12-.29.26.33-.1.1-.12-.02 0-.21.36-.25.52-.4.06-.03.22-.57.15-.55-.07.06-.62.35-.39.42.2.18-.56.3-.59.08-.03-.1.23-.02.24.01.29-.06-.44-.5-.06-.7-.4-.06-.57.97-1.03.72-.35-.14-.04.13.07.23-.27.09-.57.07-.13.23-.3 0-.83-.05-.38-.22.03-.28-.16-.6.23-.7-.46-.25-1.1.82-1.37.2-.05.35-.17.02-.3-.02-.08.38.26.83-.37.85-.12-.4.07.06.13-.14.07-.15-.16-.5.02-.58.18-.29-.66.09-.82.04a2.1 2.1 0 0 1 1.85-.28c-.17-.32-.17-.45.14-.62.18.33.11-.3.25-.37.1-.08.13-.1-.01-.1-.35.02-.37.46-.62.44-.31.03-.37-.22-.15-.16.08-.2.02-.18.12-.03.18-.25-.1-.57.1-.77-.27-.11-.6.62-.85.42-.1.15-.15.52-.43.41-.17-.02.15.2-.17.25-.15.07.4.06.2.17-.43.04-.76.56-1.1.63-.12-.18-.05.06-.12.1-.14.02-.53-.27-.44-.43.21-.06.53.46.54-.05.02-.18-.04-.22-.12-.29.02-.03.36-.16.34-.06-.03.04.76-.27.32-.28-.1 0-.61-.13-.48.04.12.18-.4.02-.18-.18.21.17.07-.44.25-.46.22-.1-.04-.15-.16-.1-.44.25-.69.28-1.1.44-.2-.06-.17-.09-.2.08-.15.01-.18.14.02.12.1.1-.67.3-.66.36.2.12.44.07.67.1-.1.47.17.31.12.64.19-.15.19.11.34.18.01.12.59.2.37.27-1.56 2.03 2.06 1.5 1.75 2.16.31 0-.15.71-.13.3-.36.2-.75.12-1.25-.1-.44-.22-.8-.77-.95-1.21.01-.27.05-.76-.22-.26-.08-.07-.94-.55-.63-.45.79-.35-.92-1.43-1.48-1.84-.61-.48-3.68-2.3-3.06-1.54.19.14.9.51.55.64-.4.06 1.2.52.16.63-.1.13.47.19.54.38.38.69-1.35-.26-1.66-.15-.18 0-.62-.03-.67.14.17.05.69.08.78.25-.12.17-2.44.25-1.33.4 1.3.11-1.75.58-1.58.91.25-.08 1.89-.48 1.53-.04.37 0 2.58-.38 1.72.61-.52.55.32.02.56.17.84.14 1.26.84.6 1.42.38-.14.9-.12 1.3.22.5.32-2.01 1.03-2.43 1.15-.6.08-3.06-1.43-1.51-.68 0-.4-.53-.54-.78-.74C.65 7.64.84 6.83.64 6.6c-.41.4.03 3.11.2 1.82.19.54 2.02.99.93 1.2-1.1.37-1.8 2.25-.38 2.76.57.43 1.57-.19 2.02.32.22.2.41 0 .52.23.17 0-.04-.3.16-.25.53.02.4.12.2-.56.36.28.15-.25-.11-.2-.75.3-.56.28-.15-.34.17-.54.23-.6.77-.54.28-.01.54-.25.39.16.2.02.33-.24.35-.4.14.02.51.06.65.16.28.2-.08.19-.05.38.06.14.3.1.39.18.03.19.18.15.3.21-.02.25-.08.95.25.62.54-.46 1.13.57 1.67.38.17-.16.13.46.22-.02-.07-.28 0-.63.25-.3.28-.36-.85-.6-.24-.51-.35-.53-1.15.34-1.54-.43-.25-.24-.32-1.15.11-.92-.03-.38-.55-.68-.91-.69C8.54 8.8 8.1 11 8.5 10.63c.07-.5.32-.7.73-.27.3.35.9.17 1 .5-.09.34.18.45.12.84.26-.17.14.33.26.4.11.2-.55.4-.02.78-.06-.76.95.45 1.27.63.25-.09.3-.13.3.13.3-.05.03-.5.22-.45.18.07.18-.16.3-.14.1.37.34 0 .16-.2-.41-.56-1.17 0-1.47-.67-.17-.3-.2-1.83.15-.83.07.23.32.4.55.48-.35-.02-.46.59-.1.44.11-.3.59.12.88.4.4.45.49.06.7.36.27-.2-.1-.4.33-.66.12.45.32-.05-.04-.28-.4-.36-.94.14-1.25-.5-.99-1.44-.3-2.41.6-3.55 0 .18.69 1 .23.93-.26.04-.12.08.07.08.22.01.4-.07.51.07.01.06-.46.36-.14.29.88-.9 1.62.68 1.56-.25-.02-.27.33-.33.45-.35.03-.07.2-.47.1-.43"/></svg>