<svg xmlns="http://www.w3.org/2000/svg" viewBox="0 0 16 16"><path fill="#6060ff" d="M14 3H8L6.59 1.59A2 2 0 0 0 5.17 1H2a2 2 0 0 0-2 2v10c0 1.1.9 2 2 2h4.5a1.6 1.6 0 0 1-.25-.87V9.75a1.6 1.6 0 0 1 1.76-1.62q.6.05 1.18.2-.12-.36-.13-.77a2.57 2.57 0 0 1 5.13 0q-.01.4-.13.77.59-.14 1.19-.2.38-.03.75.13V5a2 2 0 0 0-2-2"/><circle cx="11.63" cy="7.56" r="1.56" fill="#6060ff"/><path fill="#6060ff" d="M15.33 9.13a7 7 0 0 0-3.53 1.3.3.3 0 0 1-.35 0 7.3 7.3 0 0 0-3.53-1.3.62.62 0 0 0-.67.62v4.38c0 .32.25.59.58.61.39.03.82.05 1.3.18.92.24 1.64.63 2.16.98.2.13.46.13.67 0a7 7 0 0 1 2.16-.98c.48-.13.91-.15 1.3-.18a.6.6 0 0 0 .58-.62V9.75c0-.36-.3-.65-.67-.62"/></svg>