<svg xmlns="http://www.w3.org/2000/svg" viewBox="0 0 16 16"><path fill="#e0e0e0" d="M10 14.5a1 1 0 0 1-1 1H1a1 1 0 0 1-1-1 1 1 0 0 1 1-1h8a1 1 0 0 1 1 1"/><path fill="#e0e0e0" d="M15.7 12.8 6.54 3.61a1 1 0 1 0-1.41 1.41l9.17 9.18a1 1 0 1 0 1.41-1.41"/><path fill="#e0e0e0" d="M7.76 9.09 4.4 5.74a1 1 0 0 0-1.41 0l-.7.7a1 1 0 0 0 0 1.42l3.34 3.35a1 1 0 0 0 1.41 0l.7-.7a1 1 0 0 0 0-1.42"/><path fill="#e0e0e0" d="M12.7 4.14 9.37.79a1 1 0 0 0-1.41 0l-.7.7a1 1 0 0 0 0 1.42l3.34 3.35a1 1 0 0 0 1.41 0l.7-.7a1 1 0 0 0 0-1.42"/></svg>