<svg xmlns="http://www.w3.org/2000/svg" viewBox="0 0 16 16"><path fill="#e0e0e0" d="M14 3H8L6.59 1.59A2 2 0 0 0 5.17 1H2a2 2 0 0 0-2 2v10c0 1.1.9 2 2 2h2.37c.15-.76.83-1.33 1.63-1.33h2.2l-2.05-2.05a1.66 1.66 0 0 1 0-2.36l.47-.47q.41-.4.95-.47.08-.55.47-.95.4-.38.95-.45.06-.56.46-.96l.47-.47a1.67 1.67 0 0 1 2.36 0l2.23 2.23a1.66 1.66 0 0 1 0 2.36l-.47.47q-.12.12-.26.2L16 12.99V5a2 2 0 0 0-2-2"/><path fill="#e0e0e0" d="M12 15.33c0 .37-.3.67-.67.67H6a.67.67 0 0 1-.67-.67c0-.36.3-.66.67-.66h5.33c.37 0 .67.3.67.66"/><path fill="#e0e0e0" d="M15.8 14.2 9.7 8.08a.66.66 0 1 0-.94.94l6.11 6.12a.67.67 0 1 0 .94-.94"/><path fill="#e0e0e0" d="M10.5 11.72 8.29 9.5a.67.67 0 0 0-.95 0l-.47.48a.67.67 0 0 0 0 .94l2.23 2.23c.26.26.69.26.94 0l.48-.47a.67.67 0 0 0 0-.95"/><path fill="#e0e0e0" d="M13.8 8.42 11.59 6.2a.67.67 0 0 0-.95 0l-.47.48a.67.67 0 0 0 0 .94l2.23 2.23c.26.26.68.26.94 0l.48-.47a.67.67 0 0 0 0-.95"/></svg>