<svg xmlns="http://www.w3.org/2000/svg" viewBox="0 0 16 16"><path fill="#ff4040" d="M3.57 9.36v-.18q.01-.7.25-1.34a2 2 0 0 0-.28.53L2 13V7c0-1.1.9-2 2-2h11c.55 0 1-.45 1-1s-.45-1-1-1H8L6.59 1.59A2 2 0 0 0 5.17 1H2a2 2 0 0 0-2 2v10c0 1.1.9 2 2 2h4.9c-2.1-1.75-3.25-3.67-3.33-5.64"/><path fill="#ff4040" d="M13.67 15H14a2 2 0 0 0 2-2v-.59q-.84 1.35-2.33 2.59"/><path fill="#ff4040" d="M12.79 6c-.95 0-1.79.41-2.37 1.06a.17.17 0 0 1-.26 0 3.21 3.21 0 0 0-5.58 2.15v.11c.1 3.04 3.22 5.33 5.35 6.58.22.13.49.13.7 0 2.14-1.25 5.25-3.54 5.37-6.58v-.1A3.2 3.2 0 0 0 12.79 6"/></svg>