<svg xmlns="http://www.w3.org/2000/svg" viewBox="0 0 16 16"><path fill="#40a0ff" d="M3.6 8.27A5 5 0 0 1 5.97 7h-.53A2 2 0 0 0 3.6 8.27"/><path fill="#40a0ff" d="M2.08 12.77 2 13V7c0-1.1.9-2 2-2h11c.55 0 1-.45 1-1s-.45-1-1-1H8L6.59 1.59A2 2 0 0 0 5.17 1H2a2 2 0 0 0-2 2v10c0 1.1.9 2 2 2h1.06a5 5 0 0 1-.98-2.23"/><path fill="#40a0ff" d="M14 7h-.98c1.21.27 2.26.97 2.97 1.94A2 2 0 0 0 14 7"/><path fill="#40a0ff" d="M10.5 7h-2c.43.16.8.48 1 .9.2-.42.57-.74 1-.9"/><path fill="#40a0ff" d="M7.88 14.38h-.82a2.44 2.44 0 1 1 0-4.88h.82a.81.81 0 0 0 0-1.62h-.82a4.06 4.06 0 0 0 0 8.12h.82a.81.81 0 0 0 0-1.62"/><path fill="#40a0ff" d="M11.13 14.38h.8a2.44 2.44 0 1 0 0-4.88h-.8a.81.81 0 0 1 0-1.62h.8a4.06 4.06 0 0 1 0 8.12h-.8a.81.81 0 0 1 0-1.62"/><path fill="#40a0ff" d="M11.94 11.13H7.06a.81.81 0 0 0 0 1.62h4.88a.81.81 0 0 0 0-1.62"/></svg>