<svg xmlns="http://www.w3.org/2000/svg" viewBox="0 0 16 16"><path fill="#40a0ff" d="M14 3H8L6.59 1.59A2 2 0 0 0 5.17 1H2a2 2 0 0 0-2 2v10c0 1.1.9 2 2 2h1.06A5 5 0 0 1 2 11.94c0-2.8 2.27-5.06 5.06-5.06h.82c.71 0 1.33.42 1.62 1.02.3-.6.9-1.03 1.63-1.03h.8c1.68 0 3.15.83 4.07 2.08V5a2 2 0 0 0-2-2"/><path fill="#40a0ff" d="M7.88 14.38h-.82a2.44 2.44 0 1 1 0-4.88h.82a.81.81 0 0 0 0-1.62h-.82a4.06 4.06 0 0 0 0 8.12h.82a.81.81 0 0 0 0-1.62"/><path fill="#40a0ff" d="M11.13 14.38h.8a2.44 2.44 0 1 0 0-4.88h-.8a.81.81 0 0 1 0-1.62h.8a4.06 4.06 0 0 1 0 8.12h-.8a.81.81 0 0 1 0-1.62"/><path fill="#40a0ff" d="M11.94 11.13H7.06a.81.81 0 0 0 0 1.62h4.88a.81.81 0 0 0 0-1.62"/></svg>