<svg xmlns="http://www.w3.org/2000/svg" viewBox="0 0 16 16"><path fill="#e0e0e0" d="M14 3H8L6.59 1.59A2 2 0 0 0 5.17 1H2a2 2 0 0 0-2 2v10c0 1.1.9 2 2 2h4.58v-.08q.07-.32.16-.5l.03-.07-.02-.1c-.04-.4-.1-.98.36-1.45q.3-.29.63-.35v-.03c.1-.4.23-.65.34-.85l.1-.2.16-.42c.18-.52.39-1.1 1-1.7l.1-.1q0-.28-.03-.56c-.06-.7-.12-1.49.21-2.28.3-.63.84-1.06 1.49-1.23l1.53-.02 1.06.8q.16.18.28.39c.37.58.4 1.24.41 1.78.02.45.04.75.2.94l.72.92.13.2.56.08V5a2 2 0 0 0-2-2"/><path fill="#e0e0e0" d="M15.12 12.06a4 4 0 0 0-.6-1.55c-.22-.3-.55-.6-.73-.92-.68-.88-.15-2-.69-2.85-.51-.91-2.07-1.05-2.56-.04-.35.84-.07 1.82-.1 2.68l-.08.22c-.05.09-.2.23-.29.34-.61.57-.67 1.1-.96 1.81-.12.27-.3.51-.37.8-.05.35.17.67.37.94.3.4.72.73 1.2.9.25.32.59.68.43 1.12a5 5 0 0 1 2.42.14c-.11-.28-.03-.6.02-.88.11-.52.1-1.06.08-1.59.04-.27.37-.16.56-.13-.25.76.65.84 1.02.33.37-.3.35-.89.28-1.32m-3.4-4.3c.41-.8 1.16-.02.86.62-.35.63-1.05-.13-.86-.63m-1.1-.04c.13-.4.56-.2.63.12.15.34-.08 1.04-.51.7-.18-.22-.17-.56-.12-.82m.13 2.94c-.31.1-.54.22-.74.44q.04-.07 0-.16c.13-.22.1-.19.11-.43l.1-.25.05-.1s-.08.24-.01.34c.03.05-.03.23.77.11zm.32 2.62-.01.1c-.21-.6-.08-1.4.02-2.02.04.64-.06 1.28-.01 1.92m.14-2.29c.02-.23-.02-.42-.3-.4.26-.03.38-.12.38-.38-.05.21.16.39.36.37a.4.4 0 0 0-.25.06.5.5 0 0 0-.19.35m1.39-.23a6 6 0 0 0-.97-.17c.17-.01.95.05 1.19-.14.16-.11.2-.38.2-.38s.02.33.07.5c.09.25.4.53.36.75-.3-.24-.45-.45-.85-.56"/><path fill="#ffff40" d="m12.63 8.66-.02-.01c-.01-.18-.43-.16-.57-.28a.84.84 0 0 0-1.19.13c-.14.1-.26.23-.27.41v.02l.02.03q.03.04.08.06c.19.12.27.35.44.48.25.16.58.07.82-.07.18-.12.34-.28.56-.33q.12-.06.11-.2c.01-.07.05-.16.02-.24"/><path fill="#ffa040" d="M15.99 14.39c-.22-.26-.62-.38-.7-.74-.02-.2-.02-.46-.26-.52q-.05.16-.2.25c-.36.51-1.26.43-1.01-.33-.2-.03-.52-.14-.56.13a7 7 0 0 1-.08 1.59c-.17.68-.11 1.28.75 1.23.44-.07.67-.51 1.03-.72.3-.26 1.15-.38 1.03-.9"/><path fill="#ffa040" d="M10.75 15.09c-.07-.27-.28-.47-.44-.7a2.6 2.6 0 0 1-1.5-1.43c-.14.18-.22.45-.48.45-.74-.08-.62.33-.57.88.06.3-.14.53-.19.8q.01.17.16.23c.57.22 1.18.3 1.75.5.65.4 1.43.1 1.27-.73"/></svg>