<svg xmlns="http://www.w3.org/2000/svg" viewBox="0 0 16 16"><path fill="#e0e0e0" d="M13.47 2.53A8.6 8.6 0 0 0 7.43 0a8.7 8.7 0 0 0-4.45 1.15 4.4 4.4 0 0 1 1.92-.11c.95.15 1.85.6 2.53 1.3a4.5 4.5 0 0 1 0 6.36 4.25 4.25 0 0 0 0 6.05 4.24 4.24 0 0 0 6.04 0A8.6 8.6 0 0 0 16 8.65c0-2.31-.9-4.48-2.53-6.12m-.57 10a27 27 0 0 0-1.52-4.33 25 25 0 0 1-2.05 4.33H7.84c1.82-3.62 3.8-6.1.9-9.29h1.48a35 35 0 0 1 4.16 9.29z"/><path fill="#e0e0e0" d="m3.34 9.32-.09-.21a27 27 0 0 1-1.5-4.27H.46a35 35 0 0 0 4.1 9.1h1.22c-2.4-2.76-1.2-5.04.33-7.91l.62-1.19H5.44a26 26 0 0 0-2.01 4.27z"/></svg>