<svg xmlns="http://www.w3.org/2000/svg" viewBox="0 0 16 16"><path fill="#40a0ff" d="M14 3H8L6.59 1.59A2 2 0 0 0 5.17 1H2a2 2 0 0 0-2 2v10c0 1.1.9 2 2 2h4.65a2 2 0 0 1-.4-.22 1.63 1.63 0 0 1-.28-2.28L7 11.17l-.27-.27a1.6 1.6 0 0 1-.45-1.44 1.63 1.63 0 0 1 .34-3.21h1.55a1.63 1.63 0 0 1 3.16 0h1.55c.9 0 1.62.73 1.62 1.63q-.01.59-.37 1.02c.4.17.73.48.9.9l.97 2.6V5a2 2 0 0 0-2-2"/><path fill="#40a0ff" d="M10.38 13.88q-.61 0-1.06-.4l-.79 1.02q-.28.35-.68.5h2.2l.05-.2.35-.93z"/><path fill="#40a0ff" d="m15.96 15.15-1.87-5a.6.6 0 0 0-.59-.4c-.25 0-.5.16-.59.4l-1.87 5a.63.63 0 1 0 1.17.44l.32-.84h1.94l.32.84c.12.32.48.49.8.37a.63.63 0 0 0 .37-.8M13 13.5l.5-1.34.5 1.34z"/><path fill="#40a0ff" d="M12.88 7.25h-2.5v-.62a.62.62 0 1 0-1.26 0v.62h-2.5a.63.63 0 0 0 .01 1.25h3.72L9.1 10.1l-.8-.8c-.24-.24-.63-.24-.88 0s-.24.65 0 .9l.9.9-1.57 2.02a.63.63 0 0 0 .1.87c.28.22.67.17.88-.1l1.48-1.9.71.7c.25.25.64.25.89 0s.24-.64 0-.88l-.82-.82 1.93-2.49h.95c.34 0 .62-.28.62-.62s-.28-.63-.62-.63"/></svg>