<svg xmlns="http://www.w3.org/2000/svg" viewBox="0 0 16 16"><path fill="#40a0ff" d="m15.94 14.64-3-8A1 1 0 0 0 12 6a1 1 0 0 0-.94.65l-3 8a1 1 0 0 0 1.87.7l.51-1.35h3.12l.5 1.34a1 1 0 0 0 1.3.59 1 1 0 0 0 .58-1.29M11.19 12 12 9.85l.8 2.15z"/><path fill="#40a0ff" d="M11 2H7V1a1 1 0 1 0-2 0v1H1c-.55 0-1 .45-1 1s.45 1 1 1h5.96l-2 2.55L3.72 5.3A1 1 0 1 0 2.3 6.7l1.43 1.44-2.52 3.25a1 1 0 0 0 .17 1.4 1 1 0 0 0 1.4-.17l2.38-3.05 1.13 1.14A1 1 0 1 0 7.7 9.3L6.4 7.97 9.48 4H11c.55 0 1-.45 1-1s-.45-1-1-1"/></svg>