<svg xmlns="http://www.w3.org/2000/svg" viewBox="0 0 16 16"><path fill="#e0e0e0" d="M15.29 14.14h-3.02q.32.36.42.86H14a2 2 0 0 0 1.67-.9q-.18.04-.38.04"/><path fill="#e0e0e0" d="M14 3H8L6.59 1.59A2 2 0 0 0 5.17 1H2a2 2 0 0 0-2 2v10c0 1.1.9 2 2 2h1.6c.09-.47.36-.89.74-1.14a1.7 1.7 0 0 1 0-2.86 1.7 1.7 0 0 1 0-2.86A1.71 1.71 0 0 1 5.3 5h10q.38 0 .71.16V5a2 2 0 0 0-2-2"/><path fill="#e0e0e0" d="M16 6.71c0 .4-.32.72-.71.72h-10a.7.7 0 0 1-.72-.72c0-.39.32-.71.72-.71h10c.39 0 .71.32.71.71"/><path fill="#e0e0e0" d="M16 9.57c0 .4-.32.72-.71.72h-10a.7.7 0 0 1-.72-.72c0-.4.32-.71.72-.71h10c.39 0 .71.32.71.71"/><path fill="#e0e0e0" d="M16 12.43a.7.7 0 0 1-.71.71h-10a.7.7 0 0 1-.72-.71c0-.4.32-.72.72-.72h10c.39 0 .71.33.71.72"/><path fill="#e0e0e0" d="M11.71 15.29c0 .39-.32.71-.71.71H5.29a.7.7 0 0 1-.72-.71c0-.4.32-.72.72-.72H11c.4 0 .71.32.71.72"/></svg>