<svg xmlns="http://www.w3.org/2000/svg" viewBox="0 0 16 16"><path fill="#ff40ff" d="M14 3H8L6.59 1.59A2 2 0 0 0 5.17 1H2a2 2 0 0 0-2 2v10c0 1.1.9 2 2 2h8.07q.08-.35.29-.63a1.6 1.6 0 0 1-.97-1.74H6.62a1.63 1.63 0 0 1 0-3.26H9.4a1.6 1.6 0 0 1 .96-1.74 1.6 1.6 0 0 1-.36-1c0-.9.73-1.63 1.63-1.63h3.12q.7.01 1.25.38V5a2 2 0 0 0-2-2"/><path fill="#ff40ff" d="m13.32 10.56-1.88-1.88c-.24-.24-.64-.24-.88 0s-.25.64 0 .89l.8.8H6.64c-.35 0-.63.29-.63.63s.28.63.63.63h4.74l-.81.8c-.25.25-.25.64 0 .89s.64.24.88 0l1.87-1.87a.6.6 0 0 0 .19-.45.6.6 0 0 0-.18-.44"/><path fill="#ff40ff" d="M11 6.63c0 .34.28.62.63.62h2.5c.34 0 .62.28.62.63v6.25c0 .34-.28.62-.62.62h-2.5a.62.62 0 1 0 0 1.25h3.12c.69 0 1.25-.56 1.25-1.25v-7.5C16 6.56 15.44 6 14.75 6h-3.12a.6.6 0 0 0-.63.63"/></svg>