<svg xmlns="http://www.w3.org/2000/svg" viewBox="0 0 16 16"><path fill="#ff40ff" d="M5 14.75v-7.5l.02-.18a2 2 0 0 0-1.48 1.3L2 13V7c0-1.1.9-2 2-2h11c.55 0 1-.45 1-1s-.45-1-1-1H8L6.59 1.59A2 2 0 0 0 5.17 1H2a2 2 0 0 0-2 2v10c0 1.1.9 2 2 2h3.04Q5 14.88 5 14.75"/><path fill="#ff40ff" d="M14 7h-2.07q-.08.35-.29.63a1.6 1.6 0 0 1 .97 1.75h2.76q.34 0 .63.12V9a2 2 0 0 0-2-2"/><path fill="#ff40ff" d="M12.6 12.63a1.6 1.6 0 0 1-.96 1.74q.22.28.3.63H14a2 2 0 0 0 2-2v-.5q-.3.12-.62.12z"/><path fill="#ff40ff" d="M10.38 14.75h-2.5a.6.6 0 0 1-.63-.62V7.87c0-.34.28-.62.63-.62h2.5a.62.62 0 1 0 0-1.25H7.25C6.56 6 6 6.56 6 7.25v7.5c0 .69.56 1.25 1.25 1.25h3.13a.62.62 0 1 0 0-1.25"/><path fill="#ff40ff" d="M15.38 10.38h-4.75l.81-.81c.25-.25.25-.64 0-.89s-.64-.24-.88 0l-1.87 1.87a.6.6 0 0 0-.19.45q0 .25.18.44l1.88 1.88c.24.24.64.24.88 0s.25-.64 0-.89l-.8-.8h4.74c.34 0 .62-.29.62-.63s-.28-.62-.62-.62"/></svg>