<svg xmlns="http://www.w3.org/2000/svg" viewBox="0 0 16 16"><path fill="#ffa040" d="M10.9.55c.3-.25.6-.4.95-.55q.54 1.29.4 2.65-.01 1.29-.25 2.5l2 1.5.55 7.25c.05.5.05 1 .15 1.45l-5.2.5-1.25.15V2.55l.7.5q.74-1.44 2-2.5z"/><path fill="#e0e0e0" d="M11 1c.2-.15.4-.3.6-.35q.36.91.35 1.9c0 1-.15 1.95-.35 2.9l-.65-.3q.22-1.11.15-2.15 0-.29-.15-.5-.76.39-1.15 1.15l-.55-.35a9 9 0 0 1 1.8-2.3z"/><path fill="#e0e0e0" d="M10 3.75q.31-.52.85-.9.15.74 0 1.55z"/><path fill="#e0e0e0" d="M8.25 4.6V2.65l-1.5.95-.8.45.4-.25c-.5-.7-1.1-1.5-2-1.6-.3 1-.4 2-.2 2.95l.5-.35-.8.5c-.5.4-1.1.7-1.65 1.05l-.25.2-.15 2.5-.5 6.3 7 .6V4.6z"/><path fill="#ffa040" d="M4.15 1.75q.66.01 1.25.4.75.66 1.35 1.4l-.8.5.4-.3c-.5-.7-1.1-1.4-2-1.55-.3.95-.4 2-.2 2.95l.5-.35-.8.5a8 8 0 0 1 .3-3.55"/><path fill="#ffa040" d="M4.85 3.7c.35.05.65.25.9.5l-.25.1c-.15-.1-.3-.25-.5-.3-.1.25-.1.5-.1.75h-.2zM5.8 5q.15-.15.3 0v1.6c0 .3-.3.5-.6.5-.1 0-.15-.2-.15-.3V5.65c0-.3.15-.6.45-.75zm.1.6c.1-.15.15-.35.1-.5-.15.1-.35.35-.1.5m-2.7.8c.1-.05.25-.1.35-.05l-.05 1.5c0 .2-.2.4-.45.4H3v-1.3c0-.2.1-.4.2-.5zm.1.5c.15-.1.2-.25.25-.4-.25 0-.25.25-.25.4M4.15 9c.1-.15.3-.25.4-.1 0 .25-.15.45-.3.6-.1-.15-.25-.4-.1-.5m3-2.3c-.75.35-1.45.8-2 1.4q-.37.24-.6.7l.65-.6c.5-.5 1.15-1 1.85-1.3l1.15-.5.05-.15q-.59.15-1.1.45M4.7 8.95l.4-.2c.8-.5 1.65-.9 2.55-1.1V7.5c-.9.2-1.8.6-2.6 1.15-.15.05-.3.1-.35.3m-1.25-.3a3 3 0 0 0-1.6.25l-.05.15q.66-.3 1.4-.3c.3 0 .6.15.9.25a1 1 0 0 0-.65-.35m3.55 0A6 6 0 0 0 4.9 9c-.15 0-.35 0-.35.25.5-.2 1-.3 1.5-.4.35-.1.75-.1 1.1.05 0-.15 0-.25-.2-.25zm-3.5.6c.15 0 .35 0 .5-.1-.65-.05-1.3.05-1.85.35-.1 0-.15.1-.2.2l.6-.25 1-.2zm-1.3 1.1a5 5 0 0 1 1.5-.8c.1-.05.3-.1.35-.25q-.66.14-1.25.5c-.25.1-.55.25-.6.55m3.3-.25c.5-.1.85-.4 1.1-.75.2-.1.15.15.15.25-.1.25-.3.5-.55.6 0 1.3-.35 2.55-1 3.65-.3.5-.75.75-1.25.7a1.2 1.2 0 0 1-.9-.85c-.3-.85-.5-1.75-.4-2.65l-.25-.2c-.1-.1 0-.25 0-.35l.35.25q.6-.01 1.05-.25c.2-.1.35-.2.45-.4l.2.15q.51.03 1-.15zm-1.25.5c-.4.3-.9.5-1.4.45 0 .7 0 1.35.2 2 .1-.25.3-.5.5-.7.4-.3.9-.35 1.35-.15.2.2.4.4.5.7q.46-1.26.55-2.6a3 3 0 0 1-1.7.3m-.2 1.85q-.61.24-.85.85c-.05.15.05.25.15.4.15.25.45.55.8.5.5-.15.85-.5 1-.9a.9.9 0 0 0-1.1-.85"/></svg>