<svg xmlns="http://www.w3.org/2000/svg" viewBox="0 0 16 16"><path fill="#6060ff" d="M15.72 11.64a5.3 5.3 0 0 1-1.13 3.26A2 2 0 0 0 16 13V9.15q-.33.23-.74.33.46 1 .46 2.16"/><path fill="#6060ff" d="M14 3H8L6.59 1.59A2 2 0 0 0 5.17 1H2a2 2 0 0 0-2 2v10c0 1.1.9 2 2 2h4.2a5.37 5.37 0 0 1 6.3-8.26A2.28 2.28 0 0 1 16 5.39V5a2 2 0 0 0-2-2"/><path fill="#6060ff" d="M10.36 7.28a4.36 4.36 0 1 0 0 8.72 4.36 4.36 0 0 0 0-8.72m1.8 3.83a1.28 1.28 0 1 1 0-2.56 1.28 1.28 0 0 1 0 2.56"/><path fill="#6060ff" d="M16 7.28a1.28 1.28 0 1 0-2.56 0 1.28 1.28 0 0 0 2.56 0"/></svg>