<svg xmlns="http://www.w3.org/2000/svg" viewBox="0 0 16 16"><path fill="#40a0ff" d="M14 3H8L6.59 1.59A2 2 0 0 0 5.17 1H2a2 2 0 0 0-2 2v10c0 1.1.9 2 2 2h.09a3 3 0 0 1-.09-.62v-6.5a2.63 2.63 0 0 1 2.63-2.63h9.75q.93.02 1.62.58V5a2 2 0 0 0-2-2"/><path fill="#40a0ff" d="M14.38 6.25H4.62C3.74 6.25 3 6.98 3 7.88v6.5c0 .89.73 1.62 1.63 1.62h9.75c.89 0 1.62-.73 1.62-1.62v-6.5c0-.9-.73-1.63-1.62-1.63m-.52 3.2L9.8 11.06a.8.8 0 0 1-.6 0L5.14 9.44a.8.8 0 0 1-.46-1.05.8.8 0 0 1 1.06-.46l3.6 1.45q.15.06.31 0l3.61-1.45a.8.8 0 0 1 1.06.46.8.8 0 0 1-.46 1.05"/></svg>