<svg xmlns="http://www.w3.org/2000/svg" viewBox="0 0 16 16"><path fill="#e0e0e0" d="m10.46 6.82.05-.3c-.3 0-.2.1-.05.3"/><path fill="#e0e0e0" d="m10.76 7.32.6 1c0-.4-.2-.7-.3-1.1z"/><path fill="#e0e0e0" d="M2.96 6.67V5.62c1.5-.4 3.15-4.55 5.35-2l.2-.15c-.65 1.5 1.45 1.25 1 2 .7-.25-.65-.6.35-1.1.6-.6-.5-1.15-1-1.25.4.15.65.5.5 1 0 .1.3.1.2.3-.4-.3-.15-1-.75-1.1-.5.05-.65-.55-1.15-.7-2.25-1.25-3.3 2.5-4.95 2.7-2.05-.6-.5-4.1 1.35-3.95.9-.1 1.95.55 2.45-.3-2.8-1.1-6.75-.8-6.5 3.3-.2 1.4 2.5 4.6 3 2.3z"/><path fill="#e0e0e0" d="M15.91 2.97c-.65-2.6-3.55-2.8-5.5-1.7.55.9 2.15-.2 2.95.5 1.25.5 1.8 3.3.15 3.5-1.5-.8-2.5-4.15-4.55-2.3.85.15 1.8 1.15.7 1.75-.2.1-.1.3.1.4.2.3-.3.65-.55.35.9-.35-1.1-.5-.9-1.15-1.4.5-3 0-4.25 1.1-.7.5-1.2 2.8-1.55 3.8-.2.15-.6.25-.5.65 1.5-.5 3.85-1.1 3.95-3.5.05.75-.4 1.8.2 2.5-.2-.2-.4-.6-.5-.9-.65.75-1 1.2-.8 2.2.3.2.25.5.3.8.3.2.4.1.5.5.4 0 .5.3.25.55-.1.25.05.4.25.45 1.4.15.1 1.1.95 1.5-.25-.6.2-.65.5-1-.05.4 0 .8.5.5-.5.45 0 1 .5 1.1-.1.35 0 .7.35.9-.7-.9 1.1-.9.85-1.75.15.25.1.55 0 .8l.3-.35v.2c.75-.35.15-.8.2-1.3-.25-.15-.5 0-.75.1-.25-.05-.4-.25-.65-.2.55-.3 1.8-.35 2.5-.35.5-.65-.15-1-.8-.85-2.4.75-2-.85-3.3-1.8.4-.1.6.35.75.6.1-.3.05-.45.35-.65-1 1.35 1.15 2.25 2.25 1.65 1.65.15 2.1-.8.3-.75.8-.25 1.85-.8 1.5-1.8-.9-.5-.95.3-1.6-1.25-2-2 .3-3.4-.45-2 .2 0 .35 0 .45.15-.35-.35-.7.2-.65.5.85-.05 1.35-.6.55-1.25-.15-.45-.15-.8-.75-.7.6-.5-.15-1.15-.6-1.4 1.9-.85 2.8 2 4.25 2.7l-.25.85c.1 1.5 1.75.2 2.15-.65.5-.85.5-2 .35-2.9zm-7.55 2.2c.1 0 .1-.1.15-.1.2.6.5 1.05.7 1.65-.4-.4-.4-.85-.65-1.3-.25 0-.5-.15-.5-.4zm-1.85.7-.25.1c.2-.15.1-.5.15-.65-.2-.1-.35.25-.35.45-.3.15-.5.45-.85.5.5-.2.5-.8 1-1.1.3 0 .6-.1.8-.4 0 .4-.05.85-.5 1.1m.5 3.75c0 .1 0 .15-.15.2-.1-.35.2-.3.5-.3zm.85-2.35c-1.55-.15-1.25-1.1.2-1 .05-.8-.8-.4-1.2-.2.8-.65 1.35-.4 1.5.55-.05-.2-.3-.15-.5-.1.25.1.15.5-.1.5-.5.15-.3-.75-.8-.25.25.5 1.25.7 1.4 0 0 .35-.2.5-.5.5m.3.3c.25-.1.3-.3.35-.55 0 .3 0 .5-.35.5zm2 2.75-.15-.4c-.1-.2-.35-.5-.6-.5.15.25-.2.35-.35.2-.25-1.05 1.4-.05 1.1.7m-.1-1.65c.4.2.65.65 1.1.7-.8 0-2.3-1.85-2.7-.35.15-.3.65-.4.75 0-.5-.5-.45.45-.7.25l.05.35c-1-1 .75-1.8 1.5-.95"/><path fill="#e0e0e0" d="M10.81 4.77c.1.45.85 1 .25 1.5.2.05.3.3.25.5-.15 0-.15-.2-.3-.2.05.2 0 .45-.25.45h-.2c.2.35.5-.1.8-.05-.7.75 2.3 2 2.65 1.15-1-.25-1.5-4.2-3.2-3.35"/></svg>