<svg xmlns="http://www.w3.org/2000/svg" viewBox="0 0 16 16"><path fill="#40a0ff" d="M14 7H5.44a2 2 0 0 0-1.9 1.37l-.15.46h1.92l1.31 1.66 1.34-1.66h7.21v3.16H16V9a2 2 0 0 0-2-2"/><path fill="#40a0ff" d="M15 3H8L6.59 1.59A2 2 0 0 0 5.17 1H2a2 2 0 0 0-2 2v10c0 1.1.9 2 2 2V7c0-1.1.9-2 2-2h11c.55 0 1-.45 1-1s-.45-1-1-1"/><path fill="#40a0ff" d="M6.62 12.1 4.83 9.82H3V16h1.83v-3.53l1.79 2.27 1.82-2.27V16h1.83V9.82H8.44z"/><path fill="#40a0ff" d="M14.17 12.99V9.82h-1.79v3.17h-1.82L13.28 16 16 12.99z"/></svg>