<svg xmlns="http://www.w3.org/2000/svg" viewBox="0 0 16 16"><path fill="#ff4040" d="M9.15 6.4s-.65.2-1.15.2c-.55 0-1.15-.2-1.15-.2 0 .4 0 .8-.15 1.1-.15.6-.55 1.15-.55 1.15l1 .4.85.9s.35-.55.8-.9l1.05-.4s-.5-.55-.65-1.05c-.2-.55-.05-1.2-.05-1.2"/><path fill="#ff4040" d="M10.5 7.1c-.4-1 .1-2.65.1-2.65s-1.55.9-2.7.9c-1 0-2.5-.9-2.5-.9s.4 1.6.1 2.65c-.35 1.15-1.7 2.3-1.7 2.3s1.8.15 2.6.7S8 12.45 8 12.45s.5-1.6 1.5-2.25c1.1-.75 2.7-.85 2.7-.85s-1.4-1.2-1.7-2.25M9.15 9.6C8.4 10.1 8 11.1 8 11.1s-.5-1-1.2-1.55c-.75-.5-1.7-.65-1.7-.65q.7-.62 1-1.5c.3-1.1.1-1.9.1-1.9S6.85 6 8 6s1.85-.5 1.85-.5-.3 1 0 1.85c.35.75 1.05 1.6 1.05 1.6s-1 .1-1.75.65"/><path fill="#ff4040" d="m13.4 8 2.2-2.5-3.25-.65.35-3.3-3 1.3L8 0 6.3 2.85l-3-1.3.35 3.3L.4 5.5 2.6 8 .4 10.5l3.25.65-.35 3.3 3-1.3L8 16l1.7-2.85 3 1.3-.35-3.3 3.25-.65zm-3.5 2.65c-.6.4-1.9 3.25-1.9 3.25s-1-2.6-2-3.25c-1-.7-3.6-.8-3.6-.8s2-1.6 2.35-3c.4-1.45-.2-3.6-.2-3.6S6.45 4.7 7.9 4.7s3.6-1.5 3.6-1.5-.6 3.1-.45 3.65c.25.65 2.5 2.9 2.5 2.9s-3.1.5-3.7.9z"/></svg>