<svg xmlns="http://www.w3.org/2000/svg" viewBox="0 0 16 16"><path fill="#40a0ff" d="m0 8.89 4.55-1.84q.7-.93 1.56-1.69c.38-.2 1.08-.1 2.38-1.7C9.75 2.09 10.15.74 10.74.74c.93 0 1.61 2.01 2.65 5.06A66 66 0 0 0 16 12.64c-1.09-1.01-2.01-2.1-3.07-2.07-.98.02-2.07 1.18-3.27 2.68-.95 1.2-2.2 2.02-2.7 2 0 0-1.26-3.58-2.33-4.16a1.5 1.5 0 0 0-1.36.11z"/><path fill="#6060ff" d="M10.17 1.15c-.38.52-.84 1.46-1.68 2.5-1.3 1.62-2 1.51-2.38 1.71q-.87.76-1.56 1.69l1.89 1.37c1.6-2.18 2.46-4.55 3.13-6.08q.25-.61.6-1.19"/><path fill="#ffa040" d="M10.74.74c-1.24 0-2.1 6.56-6.7 10.23 1.3-.22 2.42 2.99 2.93 4.29 2.29-.4 4.12-4.76 5.96-4.7 1.06.05 1.98 1.07 3.07 2.08C13.52 7.43 12.36.74 10.74.74"/></svg>