<svg xmlns="http://www.w3.org/2000/svg" viewBox="0 0 16 16"><path fill="#ff4040" d="M15 3H8L6.59 1.59A2 2 0 0 0 5.17 1H2a2 2 0 0 0-2 2v10c0 1.1.9 2 2 2h5.68l-1.12-4.81-.09-2.87.01-.32H5.44a2 2 0 0 0-1.9 1.37L2 13V7c0-1.1.9-2 2-2h11c.55 0 1-.45 1-1s-.45-1-1-1"/><path fill="#ff4040" d="m10.08 7 .65 2.66 1.05-1.37L13 7z"/><path fill="#ff4040" d="m12.63 14.89-.1.11H14a2 2 0 0 0 2-2V9.81l-3.26 4.9z"/><path d="M10.76 9.47h-.07"/><path fill="none" d="M9.13 9.19v.03zm5 .78h-.03z"/><path fill="#ff4040" d="m9.85 10.47-.31.34c.22-.3.25-.65.19-1.03q-.1.3-.32.5c.32-.47.22-1.06 0-1.53a1 1 0 0 1-.28.44v.03l-.78.69-.84-.4c.09 1.33.3 2.7.93 3.96.07 0 .82.44.88.4l.25-.21c.78-.78.62-2.19.25-3.19zm-.66 3.37.1.07"/><path fill="#ffa040" d="m9.04 6.97-.13-.19c-.78-1.37-1.5-.78-1.43.57-.07.68-.04 1.43 0 2.15l.9.4.72-.68c.44-.75.13-1.53-.06-2.28z"/><path fill="#ffa040" d="M15.91 6.81c-.31-.8-.94-.3-1.65.32q-.9.83-1.7 1.78c.04.06.32 1.03.41 1.03 1.47.37 2.44-.81 2.91-2.06.25-.72.03-1.07.03-1.07"/><path fill="#ff4040" d="M14.66 9.88c-.15.06-.37.09-.56.09l-1.22-.13-.31-.93c-.94 1.43-2.97 3.18-2.03 5h.4-.03c1.25 0 2.25-1.25 2.75-2.35q-.22.07-.47.07.61-.16.94-.7c-.12.07-.4.16-.62.16.62-.12 1-.68 1.21-1.25z"/><path fill="#a040ff" d="M9.16 14.69q-.15.13-.43.22.4.03.5-.03-.23.2-.32.59.23-.43.5-.53c.1.37 0 .72-.18 1.06h.06l.31-.5.16.5h.06c-.13-.37-.16-.75.06-1.1.22.07.31.23.4.48 0-.2 0-.38-.15-.54.69.16 1.31.04 1.66-.5-.16.16-.32.2-.63.13.48-.1.9-.4 1.16-.81-.56.43-1.88.56-1.94-.25-.12-.22 0-.5-.1-.75q-.02.12-.09.25v-.07c-.12.25-.15.54-.43.63-.41-.44-.25-.19-.13.12-.31.54-.84 0-1.22-.12l.38.72c-1.25-.22.15.15.37.5"/></svg>