<svg xmlns="http://www.w3.org/2000/svg" viewBox="0 0 16 16"><path fill="none" d="M3.86 5.1v.05zm8 1.25h-.05z"/><path fill="#ff4040" d="m5 7.15-.5.55c.36-.5.4-1.05.3-1.65a2 2 0 0 1-.5.8c.5-.75.36-1.7 0-2.45-.04.25-.24.5-.44.7v.05L2.6 6.25 1.26 5.6c.15 2.15.5 4.35 1.5 6.35.1 0 1.3.7 1.4.65l.4-.35c1.25-1.25 1-3.5.4-5.1zm-1.04 5.4.15.1"/><path fill="#ffa040" d="m3.7 1.55-.2-.3C2.27-.95 1.1 0 1.2 2.15c-.1 1.1-.04 2.3 0 3.45l1.46.65 1.15-1.1c.7-1.2.2-2.45-.1-3.65z"/><path fill="#ffa040" d="M14.7 1.3c-.5-1.3-1.5-.5-2.64.5a31 31 0 0 0-2.7 2.85c.05.1.5 1.65.65 1.65 2.35.6 3.9-1.3 4.65-3.3.4-1.15.05-1.7.05-1.7"/><path fill="#ff4040" d="M12.7 6.2c-.24.1-.6.15-.9.15l-1.94-.2-.5-1.5c-1.5 2.3-4.75 5.1-3.25 8h.65-.05c2 0 3.6-2 4.4-3.75q-.37.1-.75.1a2.5 2.5 0 0 0 1.5-1.1c-.2.1-.65.25-1 .25 1-.2 1.6-1.1 1.95-2z"/><path fill="#a040ff" d="M3.9 13.9q-.23.21-.7.35c.46.05.7 0 .8-.05-.24.2-.4.55-.5.95q.37-.69.8-.85c.16.6 0 1.15-.3 1.7h.1l.5-.8.26.8h.1c-.2-.6-.25-1.2.1-1.75.35.1.5.35.65.75 0-.3 0-.6-.25-.85 1.1.25 2.1.05 2.65-.8-.25.25-.5.3-1 .2a3 3 0 0 0 1.85-1.3c-.9.7-3 .9-3.1-.4-.2-.35 0-.8-.15-1.2 0 .15-.1.25-.15.4v-.1c-.2.4-.25.85-.7 1-.65-.7-.4-.3-.2.2-.5.85-1.35 0-1.95-.2l.6 1.15c-2-.35.25.25.6.8"/></svg>