<svg xmlns="http://www.w3.org/2000/svg" viewBox="0 0 16 16"><path fill="#a0a0a0" d="M8.06.3c-5.7.72-5.8 6.76-.77 8.2 4.36 1.24.9 4.01 1 5.86s3.8 2.52 6.7-2.33C17.84 7.26 14.39-.47 8.06.3m1.35 9.2c-.14.09-.43-.63-1.68-1-.97-.3-2.23-.7-2.95-1.65-.54-.7-.8-1.47-.88-1.91q-.04-.25 0-.32c.02-.02.4.84.97 1.56a3.7 3.7 0 0 0 2.01 1.3c.6.14 1.8.44 2.22.79s.46 1.14.31 1.23m3.37 5.05c-1.43 1.03-3.1 1.61-3.75.55-.18-.28.09-.6.36-.57.43.04 1.38 0 2.12-.43 1.86-1.06 4.72-6.15 3.28-9.36a7 7 0 0 0-1.62-2.55c-.14-.14-.06-.14.03-.09.36.2.99.92 1.64 2.11a8.4 8.4 0 0 1 .63 5.91c-.29 1.05-1.26 3.41-2.69 4.43"/><path fill="#e0e0e0" d="M9.74 15.23c-.02.22.24.27.58.21.44-.06.82-.11 1.32-.37a5.5 5.5 0 0 0 1.9-1.51c1.52-2 2.06-4.36 1.98-4.7-.03.28-.4 1.76-1.24 3.08-1.08 1.7-1.86 2.62-3.67 3.06-.5.12-.85-.07-.87.23"/><path fill="#e0e0e0" d="M5.73 7.47c.2.17.63.4 1.46.68 1 .33 1.49.61 1.7.75s.35.47.36.18q.03-.45-.56-.67c-.27-.08-.72-.3-1.15-.38-.27-.06-.73-.17-1.11-.29-.21-.06-.43-.18-.7-.27"/><path fill="#a0a0a0" d="M6.82 12.02a2.47 2.47 0 1 0-4.77 1.26 2.47 2.47 0 1 0 4.77-1.26m-3.85 2.44c-.1-.1-.02-.26.2-.15.76.4 1.7.32 2.4-.18.7-.52 1.07-1.5.67-2.76-.07-.18.12 0 .26.25 1.28 2.17-1.61 4.64-3.53 2.84"/><path fill="#e0e0e0" d="M4.47 14.83c.25-.05 1.67-.42 2-1.6.1-.37.13-.3.1-.1a2.2 2.2 0 0 1-1.92 1.8c-.16.02-.38-.06-.18-.1"/><path fill="#a0a0a0" d="M.73 8.62c-.01-.11.1-.2.33-.12.22.06.77.21 1.2-.1.43-.3.93-.98.67-1.69-.1-.28.02-.15.12.02l.04.07a1.6 1.6 0 0 0-1.63-1.04c-.89.1-1.54.89-1.45 1.78.05.54.38.97.81 1.23q-.08-.07-.1-.15"/><path fill="#e0e0e0" d="M1.63 8.78c.06-.05.39-.03.68-.19s.64-.5.7-1c.04-.3.05-.22.06-.06-.04.82-.8 1.28-1.22 1.34-.12.01-.32 0-.22-.09"/><path fill="#e0e0e0" d="M11.28 11.68c-1.25-.16-3.06 2.7-1.36 2.36s-1.7.33 0 0a3.2 3.2 0 0 0 2.1-1.11c.8-.91 1.97-2.87 2.31-4.14.3-1.07.15-2.73-.15-1.17-.3 1.6-1.65 4.21-2.9 4.06"/><path fill="#e0e0e0" d="M1.91 8.2c.38-.1.88-.63.63-1.02-.3-.5-1.16-.07-1.19.47-.02.54.16.65.56.54"/><path fill="#e0e0e0" d="M4.75 14.05c.32-.08 1.3-.49 1.12-1.94-.09-.73-.49.92-1.22 1.16-1.11.37-.99 1.07.1.78"/></svg>