<svg xmlns="http://www.w3.org/2000/svg" viewBox="0 0 16 16"><path fill="#a0a0a0" d="M6.29 12.7c-2.48-.91-1.93-4.32.75-4.12q.03-.9.42-1.58H5.44a2 2 0 0 0-1.9 1.37L2 13V7c0-1.1.9-2 2-2h11c.55 0 1-.45 1-1s-.45-1-1-1H8L6.59 1.59A2 2 0 0 0 5.17 1H2a2 2 0 0 0-2 2v10c0 1.1.9 2 2 2h4.16c-.3-.74-.27-1.63.13-2.3"/><path fill="#a0a0a0" d="M10.88 6.04c-3.69.45-3.75 4.35-.5 5.28 2.81.8.58 2.6.65 3.79.06 1.19 2.44 1.62 4.32-1.51 1.84-3.08-.4-8.07-4.47-7.56m.87 5.92c-.1.06-.28-.4-1.09-.65-.62-.18-1.43-.45-1.9-1.06a3 3 0 0 1-.57-1.23q-.03-.17 0-.2c.01-.02.26.54.62 1 .37.47.88.74 1.3.84.38.09 1.17.28 1.43.5.28.24.3.74.2.8m2.17 3.26c-.92.66-2 1.04-2.42.36-.11-.19.06-.39.23-.37.28.02.9 0 1.37-.28 1.2-.68 3.05-3.97 2.12-6.04a5 5 0 0 0-1.05-1.65c-.09-.09-.04-.08.02-.05.24.12.64.6 1.06 1.36.7 1.3.67 2.84.4 3.81-.18.68-.8 2.2-1.73 2.86"/><path fill="#e0e0e0" d="M11.96 15.67c-.01.14.15.17.37.14.29-.05.53-.08.86-.25.44-.22.9-.54 1.22-.97a6 6 0 0 0 1.28-3.03 6 6 0 0 1-.8 1.99c-.7 1.1-1.2 1.68-2.37 1.97-.32.08-.55-.04-.56.15"/><path fill="#e0e0e0" d="M9.37 10.66c.14.1.4.26.94.44.65.2.96.4 1.1.48.14.1.22.3.23.12q.02-.3-.36-.43c-.17-.06-.46-.2-.74-.25-.18-.04-.47-.1-.72-.19z"/><path fill="#a0a0a0" d="M10.08 13.6a1.6 1.6 0 1 0-3.09.8 1.6 1.6 0 1 0 3.09-.8m-2.5 1.57c-.06-.06 0-.17.14-.1.5.26 1.1.2 1.55-.12.45-.33.69-.97.43-1.77-.04-.12.08 0 .17.15.82 1.4-1.04 3-2.28 1.84"/><path fill="#e0e0e0" d="M8.56 15.41c.16-.03 1.07-.27 1.29-1.03.07-.24.08-.2.06-.07a1.4 1.4 0 0 1-1.23 1.16c-.11.01-.25-.03-.12-.06"/><path fill="#a0a0a0" d="M6.14 11.4q0-.12.21-.08c.15.04.5.14.78-.06s.6-.63.43-1.1c-.06-.18.02-.1.08.02l.03.05a1 1 0 0 0-1.06-.67 1.03 1.03 0 0 0-.41 1.94q-.05-.05-.06-.1"/><path fill="#e0e0e0" d="M6.72 11.5c.04-.03.25-.02.44-.12.2-.1.42-.33.46-.64.02-.2.03-.15.04-.04-.03.53-.52.82-.8.86-.07 0-.2 0-.14-.05"/><path fill="#e0e0e0" d="M12.95 13.37c-.8-.1-1.97 1.74-.87 1.53 1.1-.22-1.1.21 0 0 .53-.08.96-.27 1.35-.72a9 9 0 0 0 1.5-2.67c.18-.7.09-1.76-.1-.76-.2 1.03-1.07 2.72-1.88 2.62"/><path fill="#e0e0e0" d="M6.9 11.12c.25-.06.57-.4.41-.65-.2-.32-.74-.05-.76.3-.02.36.1.42.36.35"/><path fill="#e0e0e0" d="M8.74 14.9c.2-.05.84-.3.72-1.24-.06-.48-.31.58-.79.74-.71.24-.63.7.07.5"/></svg>