<svg xmlns="http://www.w3.org/2000/svg" viewBox="0 0 16 16"><path fill="#ff4040" d="M7.69 8.75 3.55 6.24v4.42L8 13.23l4.45-2.57V6.24L8.31 8.75a.6.6 0 0 1-.62 0"/><path fill="#ff4040" d="M14.08 3.1 9.2.3a2.7 2.7 0 0 0-2.4 0L1.92 3.1a2.7 2.7 0 0 0-1.2 2.1v5.62c0 .76.54 1.7 1.2 2.09L6.8 15.7a2.6 2.6 0 0 0 2.4 0l4.88-2.81a2.7 2.7 0 0 0 1.2-2.09V5.2c0-.76-.54-1.7-1.2-2.09M7.44 1.88a1.2 1.2 0 0 1 1.12 0l3.14 1.81-1.17.71L8 2.94 5.47 4.4 4.3 3.7zm6.22 7.6v1.22c-.01.4-.23.77-.56.98L8.56 14.3q-.26.14-.56.14t-.56-.14L2.9 11.68a1.2 1.2 0 0 1-.56-.98V5.17a.6.6 0 0 1 .92-.51L8 7.53l4.74-2.88a.6.6 0 0 1 .92.51z"/></svg>