<svg xmlns="http://www.w3.org/2000/svg" viewBox="0 0 16 16"><path fill="#40ff40" fill-rule="evenodd" d="M14.35 15.96a2 2 0 0 0 1.61-1.6 6 6 0 0 1-1.6 1.6" clip-rule="evenodd"/><path fill="#40ff40" fill-rule="evenodd" d="M14 0H2a2 2 0 0 0-2 2v12c0 1.1.9 2 2 2h5.69a6 6 0 0 1-1.88-2H4V8h1.81L6 7.69V6H2V2h4v4h1.69A6 6 0 0 1 10 5.09V2h4v3.81q1.22.72 2 1.88V2a2 2 0 0 0-2-2" clip-rule="evenodd"/><path fill="#ff4040" d="M11 6a5 5 0 1 0 0 10 5 5 0 0 0 0-10m2.5 5.63h-5a.62.62 0 1 1 0-1.26h5a.62.62 0 1 1 0 1.26"/></svg>