<svg xmlns="http://www.w3.org/2000/svg" viewBox="0 0 16 16"><path fill="#a0a0a0" d="M15 3H8L6.59 1.59A2 2 0 0 0 5.17 1H2a2 2 0 0 0-2 2v10c0 1.1.9 2 2 2h6.79q-.03-.12-.04-.25v-7.5q0-.13.03-.25H5.44a2 2 0 0 0-1.9 1.37L2 13V7c0-1.1.9-2 2-2h11c.55 0 1-.45 1-1s-.45-1-1-1"/><path fill="#a0a0a0" d="M14.75 6H11c-.69 0-1.25.56-1.25 1.25v7.5c0 .69.56 1.25 1.25 1.25h3.75c.69 0 1.25-.56 1.25-1.25v-7.5C16 6.56 15.44 6 14.75 6M11 13.5V7.88c0-.35.28-.63.63-.63h2.5c.34 0 .62.28.62.63v5.62c0 .35-.28.63-.62.63h-2.5a.6.6 0 0 1-.63-.63"/></svg>