<svg xmlns="http://www.w3.org/2000/svg" viewBox="0 0 16 16"><path fill="#ffa040" d="M12.35 5.7h-8.7a.5.5 0 0 0-.5.5c0 1.55.25 7 2.55 9.65q.14.15.35.15h3.9c.15 0 .25 0 .35-.15 2.3-2.6 2.5-8 2.5-9.65h.05a.5.5 0 0 0-.5-.5m-2.6 8.8q-.14.15-.35.15H6.65c-.15 0-.25 0-.3-.15C4.75 12.65 4.5 9 4.5 7.6c0-.2.2-.45.5-.45h6.1c.25 0 .5.2.5.5 0 1.25-.25 4.95-1.85 6.85"/><path fill="#ffa040" d="M8.9 4.8s1.6-1 .6-2.8c-.55-.9-.85-1.65-.6-2-.6.75-1.65 1.5-.5 3.2.35.45.5 1.3.5 1.6"/><path fill="#ffa040" d="M7 4.95s1.15-.65.45-1.9C7 2.5 6.85 1.9 7 1.7c-.45.5-1.1 1-.35 2.2.25.25.35.85.35 1z"/><path fill="#ffa040" d="M10.85 10.3A7.5 7.5 0 0 1 9.5 14l-.3.15H6.9c-.1 0-.25-.05-.3-.15a7 7 0 0 1-1.15-2.6s2.7.35 4.2-.2c1.15-.4 1.2-.8 1.2-.8z"/></svg>