<svg xmlns="http://www.w3.org/2000/svg" viewBox="0 0 16 16"><path fill="#a0ff40" d="M15 3H8L6.59 1.59A2 2 0 0 0 5.17 1H2a2 2 0 0 0-2 2v10c0 1.1.9 2 2 2h3.04l.2-1.4q.08-.53.46-.92l5.43-5.44q.15-.14.34-.24H5.44a2 2 0 0 0-1.9 1.37L2 13V7c0-1.1.9-2 2-2h11c.55 0 1-.45 1-1s-.45-1-1-1"/><path fill="#a0ff40" d="M14.76 10.87 10.62 15H14a2 2 0 0 0 2-2V9.6q-.35.3-.8.39-.08.5-.44.88"/><path fill="#a0ff40" d="M15.82 7.5c.24.25.24.65 0 .9l-.44.43a.63.63 0 0 1-.89 0l-1.32-1.32a.63.63 0 0 1 0-.89l.44-.44a.63.63 0 0 1 .88 0z"/><path fill="#a0ff40" d="m14.05 9.28-1.33-1.33a.6.6 0 0 0-.88 0L6.4 13.39q-.14.15-.17.35L6 15.29c-.06.4.3.76.7.7l1.55-.22a.6.6 0 0 0 .35-.17l5.44-5.44a.6.6 0 0 0 0-.88"/></svg>