<svg xmlns="http://www.w3.org/2000/svg" viewBox="0 0 16 16"><path fill="#40ffa0" d="M14 3H8L6.59 1.59A2 2 0 0 0 5.17 1H2a2 2 0 0 0-2 2v10c0 1.1.9 2 2 2h3.04Q5 14.88 5 14.75v-.62c0-1.05.71-1.93 1.68-2.18l1.9-2.72a2.2 2.2 0 0 1-.46-1.36v-.62A2.27 2.27 0 0 1 10.39 5h1.24a2.25 2.25 0 0 1 2.26 2.25v.63q-.01.76-.46 1.35l1.9 2.72q.38.1.68.3V5a2 2 0 0 0-2-2"/><path fill="#40ffa0" d="m14.75 12.88-2.69-3.84c.48-.18.81-.63.81-1.16v-.63c0-.69-.56-1.25-1.24-1.25h-1.26c-.68 0-1.24.56-1.24 1.25v.63c0 .53.33.98.8 1.16l-2.68 3.84c-.69 0-1.25.56-1.25 1.24v.63c0 .69.56 1.25 1.25 1.25H8.5c.69 0 1.25-.56 1.25-1.25v-.62c0-.6-.43-1.1-1-1.23L11 9.7l2.24 3.2c-.56.12-.99.63-.99 1.22v.63c0 .69.56 1.25 1.25 1.25h1.25c.69 0 1.25-.56 1.25-1.25v-.62c0-.7-.56-1.26-1.25-1.26"/></svg>