<svg xmlns="http://www.w3.org/2000/svg" viewBox="0 0 16 16"><path fill="#40ffa0" d="M14 3H8L6.59 1.59A2 2 0 0 0 5.17 1H2a2 2 0 0 0-2 2v10c0 1.1.9 2 2 2h5.65l-.06-.15a1.6 1.6 0 0 1-.7-1.08l-.62-3.75q-.1-.66.28-1.2a1.6 1.6 0 0 1-.3-.86q-.03-.86.5-1.65A2.9 2.9 0 0 1 9.5 5.02c.8.1 1.53.57 2 1.29l.11.2A2.85 2.85 0 0 1 16 5.7V5a2 2 0 0 0-2-2"/><path fill="#40ffa0" d="M7.87 8.5h2.5c.33 0 .62-.25.63-.57q.03-.5-.33-1.07A1.9 1.9 0 0 0 9.13 6q-.13 0-.25.02c-.53.06-1 .4-1.3.84q-.36.57-.33 1.07c.01.32.3.57.62.57"/><path fill="#40ffa0" d="M14.13 6c-1.04 0-1.88.84-1.88 1.88v6.25c0 .34-.28.62-.62.62h-1.25a.63.63 0 0 1-.63-.62c.3 0 .57-.23.62-.53l.62-3.75a.62.62 0 0 0-.61-.72h-2.5a.63.63 0 0 0-.62.72l.62 3.75c.05.3.31.53.62.53 0 1.03.84 1.87 1.88 1.87h1.25c1.03 0 1.87-.84 1.87-1.87V7.87a.63.63 0 0 1 1.25 0v7.5c0 .35.28.63.63.63s.62-.28.62-.62v-7.5C16 6.84 15.16 6 14.13 6"/></svg>