<svg xmlns="http://www.w3.org/2000/svg" viewBox="0 0 16 16"><path fill="#40ffff" d="M4.33 12.71h-.15l-.75-.75v-.15l1.15-1.15h.8l.1.1v.8l-1.15 1.17z"/><path fill="#40ffff" d="M3.43 4.19v-.15l.75-.75h.15l1.15 1.15v.8l-.1.1h-.8z"/><path fill="#e0e0e0" d="M10.06 10.29h-1.1l-.1-.09V7.63c0-.45-.17-.82-.72-.83l-.95.01-.05.07v3.32l-.1.09h-1.1l-.09-.09V5.81l.09-.1H8.4c.96 0 1.74.8 1.74 1.75v2.74z"/><path fill="#40ffff" d="M4.47 8.65H.1l-.1-.1V7.46l.09-.08h4.38l.11.08v1.1z"/><path fill="#40ffff" d="M15.91 8.65h-4.38l-.1-.1V7.46l.1-.08h4.37l.1.08v1.1z"/><path fill="#40ffff" d="M7.36 4.34V1.05l.1-.09h1.1l.09.09v3.3l-.09.09h-1.1z"/><path fill="#40ffff" d="M7.36 14.94v-3.28l.1-.1h1.1l.09.1v3.29l-.09.09h-1.1z"/></svg>