<svg xmlns="http://www.w3.org/2000/svg" viewBox="0 0 16 16"><path fill="#40ff40" d="M14 3H8L6.59 1.59A2 2 0 0 0 5.17 1H2a2 2 0 0 0-2 2v10c0 1.1.9 2 2 2h5.73l-.77-.45a1.5 1.5 0 0 1-.76-1.32V8.76c0-.54.3-1.05.77-1.32l3.87-2.24a1.5 1.5 0 0 1 1.53 0L16 7.3V5a2 2 0 0 0-2-2"/><path fill="#40ff40" d="M16 8.76a.5.5 0 0 0-.26-.45l-3.88-2.24a.5.5 0 0 0-.52 0L7.46 8.31a.5.5 0 0 0-.26.45v4.48q0 .14.07.26l.2.19 3.87 2.24q.26.15.52 0l3.88-2.24a.5.5 0 0 0 .26-.45zm-2.16.53v3.43a.5.5 0 0 1-.56.49q-.4 0-.69-.3l-2.23-2.69v2.49a.5.5 0 1 1-1 0V9.28a.5.5 0 0 1 .57-.49q.4 0 .68.3l.15.19 2.08 2.5V9.29a.5.5 0 0 1 1 0"/></svg>