<svg xmlns="http://www.w3.org/2000/svg" viewBox="0 0 16 16"><path fill="#6060ff" fill-rule="evenodd" d="M8.5 3.64H6.38L4.9 1.06h-.91l-.44.77 1.03 1.81H2.49L1.61 5.2h7.8z" clip-rule="evenodd"/><path fill="#6060ff" fill-rule="evenodd" d="m4.89 8.17-.9 1.56 1.06 1.84-1.49 2.57.45.79h.89l1.05-1.81 1.04 1.82 1.79-.02z" clip-rule="evenodd"/><path fill="#6060ff" fill-rule="evenodd" d="M15.56 7.21h-2.09l1.05-1.81-.91-1.54-3.9 6.75 1.8-.01 1.07-1.84 2.97.01.45-.79z" clip-rule="evenodd"/><path fill="#40a0ff" fill-rule="evenodd" d="M12.46 1.86 12 1.07h-.89l-1.05 1.8-1.04-1.81-1.79.02 3.9 6.75.89-1.56-1.06-1.85z" clip-rule="evenodd"/><path fill="#40a0ff" fill-rule="evenodd" d="M14.39 10.78h-7.8l.9 1.56h2.13l1.48 2.58h.91l.44-.77-1.04-1.81h2.09z" clip-rule="evenodd"/><path fill="#40a0ff" fill-rule="evenodd" d="M4.5 5.39 3.43 7.23.46 7.22 0 8.01l.45.77 2.09.01-1.06 1.81.91 1.54 3.9-6.75z" clip-rule="evenodd"/></svg>