<svg xmlns="http://www.w3.org/2000/svg" viewBox="0 0 16 16"><path fill="#40ff40" d="M15 3H8L6.59 1.59A2 2 0 0 0 5.17 1H2a2 2 0 0 0-2 2v10c0 1.1.9 2 2 2h5.58l-.53-.3a1.9 1.9 0 0 1-.96-1.66V8.95c0-.68.37-1.32.96-1.65l.51-.3H5.44a2 2 0 0 0-1.9 1.37L2 13V7c0-1.1.9-2 2-2h11c.55 0 1-.45 1-1s-.45-1-1-1"/><path fill="#40ff40" d="M15.55 8.16 12 6.12a1 1 0 0 0-.9 0L7.54 8.16a.9.9 0 0 0-.46.8v4.08c0 .33.18.63.46.79l.94.54c.48.24.67.24.89.24.75 0 1.2-.48 1.2-1.27V9.3a.3.3 0 0 0-.26-.26h-.45a.26.26 0 0 0-.26.26v4.04q-.01.16-.14.25-.18.1-.47-.03L8.06 13V8.98l3.49-2.01 3.49 2.01v4.03l-3.5 2.02-.87-.53a.3.3 0 0 0-.26 0c-.24.13-.27.15-.5.23a.24.24 0 0 0-.19.2c0 .14.14.22.19.25l1.18.7q.22.12.46.12t.45-.12l3.55-2.05a.9.9 0 0 0 .45-.79V8.95a.9.9 0 0 0-.45-.79"/><path fill="#40ff40" d="M12.64 12.23c-.9 0-1-.21-1.05-.56a.3.3 0 0 0-.26-.23h-.46a.27.27 0 0 0-.27.27c0 .55.27 1.47 2.04 1.47 1.2 0 1.93-.5 1.93-1.37 0-.97-.8-1.15-1.75-1.28-1.07-.14-1.07-.2-1.07-.32 0-.1 0-.33.75-.33.71 0 .86.15.94.52q.06.19.26.2h.46q.12 0 .2-.08a.3.3 0 0 0 .07-.2q-.11-1.4-1.93-1.4c-1.1 0-1.78.5-1.78 1.31 0 1 .89 1.17 1.72 1.25 1.1.11 1.1.26 1.1.35 0 .14 0 .4-.9.4"/></svg>