<svg xmlns="http://www.w3.org/2000/svg" viewBox="0 0 16 16"><path fill="#40ff40" d="M14.4 3.46 8.73.2a1.5 1.5 0 0 0-1.45 0L1.6 3.46c-.45.26-.73.74-.73 1.26v6.55c0 .51.28 1 .73 1.26l1.5.86c.78.39 1.08.39 1.43.39 1.21 0 1.94-.76 1.94-2.04V5.28c0-.23-.2-.42-.43-.42h-.72a.4.4 0 0 0-.42.42v6.46q-.01.25-.22.4-.3.17-.75-.05l-1.5-.87V4.77L8 1.55l5.59 3.22v6.45L8 14.44l-1.4-.83a.4.4 0 0 0-.41-.02c-.39.22-.45.25-.81.37-.07.03-.28.1-.3.31-.01.24.22.37.3.41l1.9 1.13q.34.19.72.19.4 0 .73-.2l5.67-3.27c.45-.26.73-.75.73-1.26V4.72c0-.51-.28-1-.73-1.26"/><path fill="#40ff40" d="M9.75 9.97c-1.44 0-1.6-.34-1.68-.9a.4.4 0 0 0-.42-.36h-.73a.4.4 0 0 0-.43.42c0 .88.42 2.36 3.26 2.36 1.93 0 3.09-.82 3.09-2.2 0-1.54-1.27-1.84-2.8-2.04-1.71-.23-1.71-.33-1.71-.5s0-.54 1.19-.54c1.14 0 1.38.24 1.51.83.05.2.22.33.42.33h.74q.18 0 .31-.13a.4.4 0 0 0 .11-.33q-.16-2.24-3.09-2.22c-1.75 0-2.84.8-2.84 2.08 0 1.6 1.42 1.87 2.75 2 1.76.17 1.76.4 1.76.56 0 .22 0 .64-1.44.64"/></svg>