<svg xmlns="http://www.w3.org/2000/svg" viewBox="0 0 16 16"><path fill="#40ff40" d="M14.65 3.72 8.38.1a.8.8 0 0 0-.76 0L1.35 3.72a.8.8 0 0 0-.38.66v7.24c0 .27.15.52.38.66l6.27 3.62c.23.13.52.13.76 0l6.27-3.62a.8.8 0 0 0 .38-.66V4.38a.8.8 0 0 0-.38-.66m-2.37 8.85a.23.23 0 0 1-.34.2l-2.26-1.3a.5.5 0 0 1-.23-.4V8.33a.5.5 0 0 0-.23-.4l-.97-.55a.5.5 0 0 0-.46 0l-.96.55a.5.5 0 0 0-.23.4v2.76q-.01.25-.23.4l-2.26 1.3a.2.2 0 0 1-.23 0 .2.2 0 0 1-.12-.2v-5.9q0-.27.23-.4l.27-.17c-.43-.63-.68-1.59-.36-3.01 0 0 .73 2.03 2.18 1.97l1.71-.99.21-.07h.04q.12 0 .21.06l1.71.99c1.46.06 2.19-1.97 2.19-1.97.32 1.42.06 2.38-.37 3.01l.28.16q.22.15.23.4z"/></svg>