<svg xmlns="http://www.w3.org/2000/svg" viewBox="0 0 16 16"><path fill="#40ffa0" d="M14 7H9.31q.12.11.2.24l.77 1.32a1.9 1.9 0 0 1 1.7-.84c.58 0 1.16.33 1.5.86L16 12.92V9a2 2 0 0 0-2-2"/><path fill="#40ffa0" d="m2.3 14.11 4.02-6.83q.1-.16.23-.28h-1.1a2 2 0 0 0-1.9 1.37L2 13V7c0-1.1.9-2 2-2h11c.55 0 1-.45 1-1s-.45-1-1-1H8L6.59 1.59A2 2 0 0 0 5.17 1H2a2 2 0 0 0-2 2v10c0 1.1.9 2 2 2h.01q.02-.46.29-.89"/><path fill="#40ffa0" d="m15.88 14.7-3.24-5.58a.9.9 0 0 0-.73-.4.9.9 0 0 0-.8.4l-.82 1.46-1.61-2.8a.9.9 0 0 0-1.5 0l-4.05 6.88a.8.8 0 0 0 0 .9.9.9 0 0 0 .81.4h3q1.8 0 2.7-1.5l1.46-2.55.81-1.33 2.35 4.04h-3.12l-.8 1.38h4.77c.5 0 .89-.4.89-.89 0-.12 0-.28-.12-.4m-7.45-.93c-.4.65-.85.9-1.57.9l-2.07-.05 3.12-5.38 1.58 2.71z"/></svg>