<svg xmlns="http://www.w3.org/2000/svg" viewBox="0 0 16 16"><path fill="#40a0ff" d="M8 9.43 5.95 6.25v2.67l-3.5-5.9H0v9.95h2.43l.01-5.88L5.9 12.7z"/><path fill="#40a0ff" d="M5.96 5.58H8.4V3.03H5.97z"/><path fill="#40a0ff" d="M12.15 8.34a1.4 1.4 0 0 0-1.31.9 1.3 1.3 0 0 1 1.56-.5c.26.1.6.28.88.19a1.4 1.4 0 0 0-1.13-.59"/><path fill="#40a0ff" d="M14.9 9.54c0-.3-.16-.37-.5-.5a1.4 1.4 0 0 1-.73-.45l-.12-.17a1.4 1.4 0 0 0-.35-.43q-.3-.21-.8-.22c-.66 0-1.27.41-1.52 1.03a1.55 1.55 0 0 1 2.67.26.5.5 0 0 0 .55.22c.33-.07.31.24.8.35z"/><path fill="#40a0ff" d="M15.99 9.47c0-1.97-1.6-3.66-3.58-3.66-1.2 0-2.33.6-3 1.61V7.4L8.38 5.8H5.96l2.31 3.62-2.25 3.55h2.36L9.4 11.4l1.05 1.58h2.36L10.67 9.6l-.06-.21a1.8 1.8 0 0 1 1.8-1.8c.99 0 1.15.6 1.37.88.42.55 1.26.3 1.26 1.02a.47.47 0 1 0 .95 0z"/><path fill="#40a0ff" d="M16 9.98a1 1 0 0 1-.08.5c-.13.3-.36.2-.36.2s-.19-.1-.07-.27c.13-.2.39-.18.5-.43"/></svg>