<svg xmlns="http://www.w3.org/2000/svg" viewBox="0 0 16 16"><path fill="#ffa040" d="M9.8 12.03v-.5c-.67-.72-.68-1.86-.7-2.8l-.05-.1v-.1c3.1.13 3.76-.44 4.76-2.9a5 5 0 0 1 1.65-.5c.28.04.62.22.45-.15.5-.86-1.21-1.46-1.9-1.35-.6.15-.6-.2-.95-.2-.4 0-1.15 0-1.3.4-.06.34-.36.32-.2.75-.18.4-.22 1.46-.76 1.55l-1-.05c-.4-.1-1.53-.76-1.4-.85-.83-.9-.94-3.92-2.85-2.9-.25.57-.57 1.41-.9 1.95-.05 0-.15.1-.25.05-.26.1-.58-.72-.7-.85l-.5-.85c-.66-.75-1.52-.27-1.7.6A4 4 0 0 1 0 5.18v5.15c.16-.57.78-.96.95-1.55.19-.92.64-.76 1.25-.15.44.14 1.34.35 1.8.4.3.07.94-.01 1.2.15-.53.28-.63 1.2-.85 1.7-.36.52-.52.66-.45 1.3-.1.44-.22 1.16-.35 1.6l.6-.1c.03-1.08.7-1.66 1-2.6.52-.74.8-1.96 1.75-2.25.4.23 1.04.82 1.3 1.2.45.77.37 1.73.85 2.3l.3.5c0 .1.1.4.2.5l.2.55h.55a6 6 0 0 1-.5-1.85"/></svg>