<svg xmlns="http://www.w3.org/2000/svg" viewBox="0 0 16 16"><path fill="#a0a0a0" d="M7.5 14.75V11c0-.88.51-1.65 1.25-2.02V8.5A3.48 3.48 0 0 1 15 6.36v-1.4c0-.55-.4-1.23-.87-1.5L8.87.41a2 2 0 0 0-1.74 0L1.88 3.45c-.49.28-.88.96-.88 1.52v6.06c0 .56.4 1.24.88 1.52l5.25 3.03q.28.14.64.18a2 2 0 0 1-.27-1.01M7 12.33a.5.5 0 0 1-.75.43L3.5 11.18a1 1 0 0 1-.5-.87V7.13a.5.5 0 0 1 .75-.43L6.5 8.3c.3.17.49.5.49.84zM4.75 4.97a.5.5 0 0 1 0-.87L7.5 2.52a1 1 0 0 1 1 0l2.75 1.58a.5.5 0 0 1 0 .87L8.5 6.57a1 1 0 0 1-.98 0z"/><path fill="#a0a0a0" d="M14.75 9.75V8.5a2.5 2.5 0 0 0-5 0v1.25c-.69 0-1.25.56-1.25 1.25v3.75c0 .69.56 1.25 1.25 1.25h5c.69 0 1.25-.56 1.25-1.25V11c0-.69-.56-1.25-1.25-1.25m-2.5 4.06a.94.94 0 1 1 0-1.87.94.94 0 0 1 0 1.87m1.25-4.06H11V8.5a1.25 1.25 0 0 1 2.5 0z"/></svg>