<svg xmlns="http://www.w3.org/2000/svg" viewBox="0 0 16 16"><path fill="#ffa040" d="m1.07 15.44.85-.6s0-.1-.35-.4l-.4-.4-1.14 1.7c0 .15.05.3.2.25l.84-.5z"/><path fill="#ffa040" d="M2.52 14.45q3.51-2.93 6.77-6.13L7.65 6.68Q4.8 9.52 2.17 12.55l-.9 1.3.85.85.45-.25z"/><path fill="#ffa040" d="m11.04 8.62.1-.2v-.2c-.1-.15 0-.25.1-.5l1.44-1.5c1.5-1.49 2.34-2.48 2.79-2.98.2-.25.3-.45.3-.7l-.15-.45q-.09-.14.05-.35.59-.9.05-1.49c-.3-.3-.85-.35-1.3-.05a105 105 0 0 0-6.57 6.33l1.64 1.59 1.5-1.5q2.04-1.93 3.98-3.98c.05-.05.05 0 .05 0 0 .1 0 .15-.2.4a63 63 0 0 1-3.98 4.23c-.2.25-.35.5-.35.75-.1.35.1.7.4.7.05 0 .1 0 .15-.1"/></svg>