<svg xmlns="http://www.w3.org/2000/svg" viewBox="0 0 16 16"><circle cx="1.71" cy="3.42" r=".71" fill="#ff40a0"/><circle cx="12.58" cy="2.82" r=".71" fill="#ff40a0"/><circle cx="13.15" cy="11.94" r=".71" fill="#ffa040"/><circle cx="4.61" cy=".71" r=".71" fill="#ffa040"/><path fill="#40a0ff" d="M8.81 6.34a.55.55 0 0 1-.54-.68l.06-.27q-.26.1-.53.12-.49.01-.85-.16-.38-.18-.59-.54a1.5 1.5 0 0 1 .07-1.54c.28-.45.76-.7 1.28-.65q.63.05 1.05.44l.15-.47A13 13 0 0 0 9.3.53a.55.55 0 0 1 1.1.1c0 .05-.1 1.14-.42 2.27a6 6 0 0 1-.56 1.42l.04.26q.06.66-.1 1.35a.55.55 0 0 1-.54.41m-1.2-2.61c-.07 0-.17 0-.25.14-.08.12-.09.29-.03.39.07.13.3.14.42.14q.23-.02.45-.26l-.08-.15a.6.6 0 0 0-.49-.26z"/><path fill="#ffa040" d="M7.21 7.86c-2.3-1.8-4.7-2.6-5.36-1.75a1 1 0 0 0-.15.3v.12L.37 14.15a1.6 1.6 0 0 0 2.16 1.74l7.06-2.81a2 2 0 0 0 .57-.41c.67-.84-.65-3-2.96-4.8"/><path fill="#6060ff" d="M4.93 14.94c-.87.01-1.57-.42-2.41-1.09-.99-.78-1.64-1.7-1.7-2.24l-.27 1.64c.12.46.56 1.06 1.2 1.56.54.42 1.07.7 1.62.75z"/><path fill="#6060ff" d="M4.06 11.97c-1.64-1.3-2.7-2.78-2.68-3.63l-.27 1.6c.02.75.9 1.98 2.17 2.98 1.13.9 2.31 1.52 3.22 1.4l1.53-.62c-1.24.1-2.54-.6-3.97-1.73"/><circle cx="7.47" cy="7.98" r=".71" fill="#40a0ff"/><path fill="#ff40a0" d="m11.25 7.27-.91-.79a5 5 0 0 1 2.8-1.44q.98-.14 2.03.1a.6.6 0 1 1-.27 1.18 4 4 0 0 0-1.55-.09 3.7 3.7 0 0 0-2.1 1.04"/><path fill="#ff40a0" d="M4.74 2.59a.7.7 0 0 0-1.2.75c.04.04.56.89.66 2.06a4.3 4.3 0 0 1-1.03 3.24q.4.52.96 1.05a5.7 5.7 0 0 0 1.47-4.5 6.5 6.5 0 0 0-.86-2.6"/><path fill="#40a0ff" d="M13.55 9.38q.56.16.73.25a.7.7 0 0 0 .6-1.28 7.5 7.5 0 0 0-6.54.37 10 10 0 0 0-2.67 2.23q.6.42 1.2.76a6.8 6.8 0 0 1 4.72-2.52q1-.06 1.96.2"/></svg>