<svg xmlns="http://www.w3.org/2000/svg" viewBox="0 0 16 16"><path fill="#40ff40" d="M14 3H8L6.59 1.59A2 2 0 0 0 5.17 1H2a2 2 0 0 0-2 2v10c0 1.1.9 2 2 2h1.65q.03-.3.15-.58A2.6 2.6 0 0 1 2 11.94V7.88a2.63 2.63 0 0 1 2.63-2.63h7.3c1.17 0 2.14.76 2.49 1.8q.36-.16.77-.17.44 0 .81.2V5a2 2 0 0 0-2-2"/><path fill="#40ff40" d="M14.38 8.69v5.28a.4.4 0 0 1-.41.4H5.44a.81.81 0 0 0 0 1.63h9.75a.8.8 0 0 0 .81-.81v-6.5a.81.81 0 0 0-1.62 0"/><path fill="#40ff40" d="M11.94 6.25H4.63c-.9 0-1.63.73-1.63 1.63v4.06c0 .9.73 1.62 1.63 1.62h7.3c.9 0 1.63-.73 1.63-1.62V7.88c0-.9-.72-1.63-1.62-1.63m-3.15 5.63a2.04 2.04 0 0 1-1.01-3.94 2.04 2.04 0 0 1 1 3.94"/></svg>