<svg xmlns="http://www.w3.org/2000/svg" viewBox="0 0 16 16"><path fill="#ff4040" d="M15.5 9.65c-.7-.8-3.3-.8-5.2-.4-.7-.84-1.6-2-2-2.84.36-1.5 1.06-3.75.36-5.2C8.16.06 6.5-.14 6 1.06c-.45 1.1 0 3.45.6 4.8a64 64 0 0 1-2.1 5c-2 1-5.75 2.54-4.1 4.5 2.5 1.54 4.3-1.76 5.75-3.9 1.45-.5 2.5-.76 3.75-1 1.35 1.34 4.15 2.24 5.4 1.5.9-.46.9-1.7.15-2.3zm-2.34 1.25c-.55-.2-1.35-.5-1.7-.75 3.2-.55 3.4 1.2 1.7.75m-5.8-8.14c0 .35-.15.8-.2 1.2-.7-1.95.4-4 .2-1.2m-.5 7.3c.25-.6.75-1.75.9-2.35q.62.9 1.35 1.74zM1.1 14.5c-.1-.5.65-1 2.2-1.9-.75 1-1.5 2.1-2.2 1.85z"/></svg>