<svg xmlns="http://www.w3.org/2000/svg" viewBox="0 0 16 16"><path fill="#ff4040" d="M11.8 13.66c-.5.1-.95.23-1.5.4l-.08.13-.56.81H14q.54-.01.97-.26a5.3 5.3 0 0 1-3.17-1.08"/><path fill="#ff4040" d="M14 3H8L6.59 1.59A2 2 0 0 0 5.17 1H2a2 2 0 0 0-2 2v10c0 1.1.9 2 2 2h2.69q0-.15.03-.25c.27-1.27 1.81-2.02 3.06-2.63l.05-.02q.57-1.22 1.04-2.47c-.35-.98-.64-2.5-.24-3.49.3-.7.94-1.13 1.69-1.14h.01c.8 0 1.53.48 1.85 1.22.54 1.1.18 2.55-.08 3.61q.22.36.64.9c.84-.11 2.34-.2 3.26.34V5a2 2 0 0 0-2-2"/><path fill="#ff4040" d="M15.68 12.07c-.45-.52-2.13-.52-3.35-.26a11 11 0 0 1-1.3-1.84c.23-.97.69-2.42.23-3.35-.32-.74-1.38-.87-1.7-.1-.3.71 0 2.23.38 3.1q-.6 1.65-1.35 3.22c-1.29.65-3.7 1.64-2.64 2.9 1.6 1 2.77-1.13 3.7-2.51a17 17 0 0 1 2.42-.65c.87.87 2.68 1.45 3.48.97.58-.29.58-1.1.1-1.48zm-1.51.8a6 6 0 0 1-1.1-.48c2.06-.36 2.2.77 1.1.48m-3.74-5.25c0 .22-.1.51-.13.77-.45-1.25.26-2.58.13-.77m-.33 4.7c.17-.38.49-1.12.58-1.51q.4.6.87 1.13zM6.4 15.2c-.07-.32.42-.64 1.42-1.22-.49.64-.97 1.35-1.42 1.2z"/></svg>