<svg xmlns="http://www.w3.org/2000/svg" viewBox="0 0 16 16"><path fill="#a040ff" d="M6.05 12.5c-.25.9-1 2.6-1.65 1 .35-.45 1-1 1.7-1z"/><path fill="#a040ff" d="M11.34 10.85c-.4 1 .15 4.7-1.5 2.75.15-.9.75-2 1.5-2.75"/><path fill="#a040ff" d="M15.84 4.5c-.25-.8-.75-.35-1.4-.3a23 23 0 0 0-3.4-2.2l.3 1.15c0-.05-1.2-1-2.5-1.54 0 .05.4.84.4 1 0 0-1.25-.4-3-.56 0 0 .85.55 1.15 1h-3s1 .45 1.5.8c-.3 0-2.74.35-3.44.6 0 0 1.4.5 1.75.85 0 0-1.75.5-3.5 1.5 0 0 1 .2 1.75.5 0 0-1 .75-2.45 2.6.05 0 1.4-.2 1.8-.15 0 0-.9 1.1-1.4 2.75 0 0 .5-.3 1.05-.45 0 0 .05 2 1.15 2.3 1.45 0 1.75-2.6 3.6-2.2 1.24.05 1.34 1.9 2.4 2.24.5 0 .64-.54.84-1.24.5-4.2 7.9-4 6.35-8.65zm-6.1.2L8.8 5l-2.1-.55 3 .2zm-2.3.8-.7.5-2-.2zm-3.7 4.15-1.3 1.15L3.8 8.75zM2.5 8.5l2.45-1.75-.45.9zM7.2 8l-2.65.6 3.1-1.5-.5.9zm2.5-1.35-2-.1 2.74-.3-.7.4zm1.14-1.2-1.55.1 2-.45zm-.25-1.3-1.75-.8L11.4 4z"/></svg>