<svg xmlns="http://www.w3.org/2000/svg" viewBox="0 0 16 16"><path fill="#ffa040" d="M15.3 7.86c-.14-.15-.5-1-.14-.95-.8-1.65-1.75-3.2-2.5-4.95C12.45-.3 10.2-.4 8.6.6c-.5.35-.95 1.3-1.5 1.7-1.1.5-2.1 1.65-2.05 3-.65.05-.3-.85-.2-1.2l.1.15s.25-.55.1-.9l.15.05c.05-.55.25-1.35-.3-1.75.35-.5-.5-1.25-.95-1.3L4 .26s-.15 0-.25.1a.3.3 0 0 1-.1-.2s-.2.05-.2.2a.5.5 0 0 0-.6.3l.04.05c-.3.4-1.65-.05-1.85.5 0 0-.15.05-.2.3 0 0-.3.4-.05.35 0 0-.1.3.25.35.1.2.95.05 1.1.4-.1.3-.3.55-.5.75h.15c-.25.2-.4.5-.5.8 0 0 .15-.15.25-.15a3.5 3.5 0 0 0 .15 2.55l.1-.15q.01.44.25.8s0-.2.1-.25c.3.85 1.5 1.3 2 1.85 0 0 .26-.25.26-.4v.3c1.6-1 .35.8.85 2-.2.3 0 .7.05.9-.15.5.15 1.2-.05 1.76a3 3 0 0 1-.35 1.05c-.1.15-.5.35-.4.7-2.4.5.55 1.35.8.55 0-.2-.15-.25 0-.35.35-.2.15-1.3.5-1.7-.1-.8.7-1.4.35-2.2h.15c-.2-.85.5-1.65.5-2.5h.95c-.35.7-.5 1.45-.55 2.2-.55 1 1.35 1.5 1.55 2.5-.1.05-.2.25-.15.4 0 0-.3.1-.25.3-2.4.6 1.5 1.35.8 0 .1 0 .15 0 .2-.1-.05-.05.4 1.25.7.8.5.2.55-1.35-.2-1.4 0-.1 0-.2-.1-.25-.15-.05 1.25-1.85 1.4-2-.15-1.05 0-2.3.95-3.6 0 1.04.35 2.1.85 3 0 .15 0 .3.1.45-.3.85.1 1.8-.15 2.7 0 .15-.5.7-.3 1.1-.45.15-.55 1.15.15.7.4.4 1.4-.05.76-.55.35-.4-.1-.65-.1-1.2-.15-.7.75-2.25.3-2.7.2-1.6-.4-2.7.45-4.8 1 1.8-.65 2.4-.1 3.8l.4-.45c.05-.5.6-.86.5-1.4l.1.1v-.66zm-5.4 4-.65 1.16c-.55-.25-.75-.8-1.1-1.25l.25-.6s.1 0 .15.2c.35-.4.5-.85.6-1.35l.15.15c0-.6.5-1 .5-1.6h.2c-.25.9.3 2.7-.1 3.3"/></svg>