<svg xmlns="http://www.w3.org/2000/svg" viewBox="0 0 16 16"><path fill="#ffa040" d="M14 3H8L6.59 1.59A2 2 0 0 0 5.17 1H2a2 2 0 0 0-2 2v10c0 1.1.9 2 2 2h5.96q.18-.2.52-.36l.2-.22.1-.4-.07-1.53-1.2-.72-.88-1.15-.45-1.54.02-1.1a1 1 0 0 1-.2-.35 1.1 1.1 0 0 1 .05-1.12q.1-.25.26-.4c.35-.5.97-.54 1.3-.55q.23-.22.54-.3.14-.09.32-.13l.85.13.85.65a2 2 0 0 1 .3.5l.08-.11c.19-.25.4-.54.69-.74.98-.61 2.07-.73 2.9-.32a2.2 2.2 0 0 1 1.18 1.72q.31.68.68 1.36V5a2 2 0 0 0-2-2"/><path fill="#ffa040" d="M16 10.91c-.1-.09-.31-.62-.1-.59-.5-1.03-1.09-2-1.56-3.1-.12-1.4-1.53-1.47-2.53-.84-.31.22-.6.81-.94 1.06-.69.32-1.31 1.03-1.28 1.88-.4.03-.19-.53-.13-.75l.06.1s.16-.35.07-.57l.1.03c.02-.34.15-.84-.2-1.1.22-.3-.3-.78-.6-.8l.04-.07s-.1 0-.16.06a.2.2 0 0 1-.06-.12s-.12.03-.12.12a.3.3 0 0 0-.38.19l.03.03c-.19.25-1.03-.03-1.15.31 0 0-.1.04-.13.2 0 0-.19.24-.03.21 0 0-.06.19.16.22.06.13.59.03.68.25q-.1.28-.3.47h.08q-.22.2-.3.5s.09-.1.15-.1c-.17.53-.14 1.1.1 1.6l.05-.1q.01.29.16.5s0-.12.06-.15c.2.53.94.82 1.25 1.16 0 0 .16-.16.16-.25v.19c1-.63.22.5.53 1.25-.12.19 0 .44.03.56-.09.31.1.75-.03 1.1q-.04.35-.22.65c-.06.1-.3.22-.25.44-1.5.31.35.85.5.34 0-.12-.09-.15 0-.21.22-.13.1-.82.32-1.07-.07-.5.43-.87.22-1.37h.09c-.13-.54.31-1.04.31-1.57h.6q-.32.66-.35 1.38c-.34.62.85.94.97 1.56-.06.03-.12.16-.1.25 0 0-.18.06-.15.19-1.5.38.94.84.5 0q.1.01.13-.06c-.03-.03.25.78.44.5.3.12.34-.85-.13-.88q.01-.1-.06-.15c-.1-.04.78-1.16.87-1.26-.09-.65 0-1.43.6-2.25 0 .66.22 1.32.53 1.88q-.01.15.06.28c-.19.53.07 1.13-.1 1.69 0 .1-.3.44-.18.69-.28.1-.34.72.1.44.24.25.87-.04.46-.35.22-.25-.06-.4-.06-.75-.1-.44.47-1.4.19-1.69.12-1-.25-1.69.28-3 .63 1.13-.4 1.5-.06 2.38l.25-.29c.03-.3.37-.53.31-.87l.06.06v-.4zm-3.38 2.5-.4.73c-.35-.16-.47-.5-.7-.79l.16-.37s.07 0 .1.12c.22-.25.31-.53.37-.84l.1.1c0-.38.3-.63.3-1h.13c-.15.56.2 1.68-.06 2.06"/></svg>