<svg xmlns="http://www.w3.org/2000/svg" viewBox="0 0 16 16"><path fill="#ffa040" d="m15.85 13.31.1.14A2 2 0 0 0 16 13v-1.38q-.54.37-1.24.38z"/><path fill="#ffa040" d="M14 3H8L6.59 1.59A2 2 0 0 0 5.17 1H2a2 2 0 0 0-2 2v10c0 1.1.9 2 2 2h3.65c-.07-.6.1-1.2.5-1.69L7.24 12a2.25 2.25 0 0 1-.03-4.5l-.02-.25A2.25 2.25 0 0 1 11 5.64a2.24 2.24 0 0 1 3.81 1.61l-.02.25q.68.02 1.21.39V5a2 2 0 0 0-2-2"/><path fill="#ffa040" d="m15.09 13.95-3.13-3.75c-.5-.6-1.42-.6-1.92 0l-3.13 3.75c-.67.81-.1 2.05.96 2.05h6.26c1.05 0 1.63-1.24.96-2.05"/><circle cx="7.25" cy="9.75" r="1.25" fill="#ffa040"/><circle cx="14.75" cy="9.75" r="1.25" fill="#ffa040"/><circle cx="12.56" cy="7.25" r="1.25" fill="#ffa040"/><circle cx="9.44" cy="7.25" r="1.25" fill="#ffa040"/></svg>