<svg xmlns="http://www.w3.org/2000/svg" viewBox="0 0 16 16"><path fill="#ffa040" d="M10.93 9.08c-1.7.5-4.05-.06-4.63-1.93-.17-.53.16-.9.71-.82.4.05.66.37.96.6.63.52 1.53.55 2.34 0-1.88 0-2.88-1.52-3.97-2.77C4.87 2.18 1.92 2.07 0 3.48c1.94-.2 2 2.13 2.04 3.51C2.19 8.97 4 10.54 6 10.16a2.1 2.1 0 0 1-1.85-1.58c-.17-.53.13-.92.69-.94 1 .03 1.42 1.14 2.07 1.75 1.04 1.42 2.98.8 4.07-.25zM2.45 3.4q-.32.08-.58-.22.45-.1.88-.12-.04.29-.3.34"/><path fill="#ffa040" d="M9.74 12.05c-.52-.9-1.75-.6-2.6-.87-.53-.22-.3-.57.38-.65-.33-.21-.66-.24-1.09-.07-1.07.46-2.18.03-3.11-.55H3.3q0-.04-.04-.01l.03.02c.88 1.31 2.42 2.29 4.05 2.05a4.6 4.6 0 0 1 2.4.08"/><path fill="#ffa040" d="M7.66 5.14c-.03-.02-.05-.06-.1-.02a4.1 4.1 0 0 0 4.55 1.3q1.21-.4 1.68.77c.09-1.57-1.5-2.01-2.7-1.47a3.8 3.8 0 0 1-3.43-.58"/><path fill="#ffa040" d="m13.83 8.65.48.04c-.92-.7-2.2-.22-2.88.59-.4.41-.76.88-1.35 1.05a3.3 3.3 0 0 0 2.57-.82c.37-.3.62-.9 1.18-.86"/><path fill="#ffa040" d="M11.84 7.59c-1.22.02-2.04 1.32-3.3.94v.04c.97.43 2.08.28 2.96-.28.66-.45 1.27-.31 1.95-.28a2.3 2.3 0 0 0-1.61-.42"/><path fill="#ffa040" d="M9.55 5.41c.33.01.67-.03 1.02-.24-.77.19-1.37-.13-1.93-.63a3 3 0 0 0-1.94-.57c.7.86 1.72 1.39 2.85 1.44"/><path fill="#ffa040" d="M15.18 9.45c-.48-.48-1.13-.54-1.73-.12.56 0 .86.31 1.2.65.37.29.99.3 1.35.03-.42-.16-.42-.16-.82-.56"/><path fill="#ffa040" d="M10.38 13.11c-.42-.79-1.13-.97-1.96-.91.87.13 1.43 1.42 2.32 1.25a1 1 0 0 1-.36-.34"/></svg>