<svg xmlns="http://www.w3.org/2000/svg" viewBox="0 0 16 16"><path fill="#40a0ff" d="M5.79 2.34C4.39 1.8 2.29 2.1.75 2.1H.1c-.1 0-.1.05-.1.1v11.33c0 .15.05.15.15.15H2.3c.1 0 .1-.1.1-.2v-3.5c1.9.16 4.14 0 5.29-1.64 1.34-2 .6-5.24-1.9-5.99m-.2 4.9q-.37.38-.9.54c-.7.25-1.5.2-2.3.2V4.24h1.25a3 3 0 0 1 1.3.25q.45.15.75.6c.2.3.25.65.25 1 0 .5-.1.84-.35 1.14"/><path fill="#40a0ff" d="M15.27 7.23a4.6 4.6 0 0 0-3-.4c-.14 0-.24.1-.34.2a.5.5 0 0 0 0 .6c.35.3.8.5 1.2.65 1 .35 2.04.8 2.6 1.75a2.6 2.6 0 0 1-.16 2.6 3 3 0 0 1-1.25 1 6.4 6.4 0 0 1-4.64-.16c-.1-.05-.15-.15-.15-.2v-2s.1-.1.15 0c.45.2.9.4 1.4.5.6.16 1.65.26 2.2 0 .2-.04.3-.24.3-.5-.1-.5-.6-.6-1.35-.9a9 9 0 0 1-1.55-.79q-.54-.4-.85-1c-.43-.72-.26-1.71.1-2.44.3-.4.7-.8 1.2-1 1.15-.55 3-.5 4.24 0l.15.05v2l-.05.04z"/></svg>