<svg xmlns="http://www.w3.org/2000/svg" viewBox="0 0 16 16"><path fill="#6060ff" d="M2.7 9.12q.73 0 1.09-.27.33-.27.47-.91.1-.6-.1-.83t-.88-.23h-.79l-.44 2.24zM.11 11.88a.12.12 0 0 1-.12-.14L1.16 5.8q.02-.1.12-.1h2.49q1.17 0 1.73.63.55.63.34 1.75a3 3 0 0 1-.85 1.52q-.41.38-.91.54t-1.25.16h-1l-.3 1.48a.1.1 0 0 1-.11.1z"/><path fill="#6060ff" d="M8.8 10.3a.12.12 0 0 1-.12-.14l.51-2.63q.07-.38-.03-.5c-.04-.05-.17-.13-.55-.13h-.93l-.64 3.3a.1.1 0 0 1-.12.1H5.63a.12.12 0 0 1-.12-.14l1.16-5.94q.02-.1.12-.1h1.28a.12.12 0 0 1 .12.14L7.91 5.7h1q1.13 0 1.57.4.45.43.29 1.34l-.54 2.76a.1.1 0 0 1-.12.1z"/><path fill="#6060ff" d="M12.8 9.12q.74 0 1.09-.27t.47-.91q.12-.6-.09-.83t-.89-.23h-.79l-.43 2.24zm-2.57 2.76a.12.12 0 0 1-.12-.14l1.15-5.94q.02-.1.12-.1h2.5q1.17 0 1.72.63t.34 1.75a3 3 0 0 1-.85 1.52q-.41.38-.9.54t-1.25.16h-1.01l-.29 1.48a.1.1 0 0 1-.12.1z"/></svg>