<svg xmlns="http://www.w3.org/2000/svg" viewBox="0 0 16 16"><path fill="#6060ff" d="M14 7H5.44a2 2 0 0 0-1.9 1.37L2 13V7c0-1.1.9-2 2-2h11c.55 0 1-.45 1-1s-.45-1-1-1H8L6.59 1.59A2 2 0 0 0 5.17 1H2a2 2 0 0 0-2 2v10c0 1.1.9 2 2 2h.15l.8-4.14c.1-.51.56-.89 1.09-.89h2.02q.77.01 1.25.24l.13-.63c.1-.52.55-.89 1.08-.89h1.52l.37.4c.2.24.29.57.23.9q.55.04.95.21.29-.22.66-.23h2.02c.8 0 1.35.23 1.73.5V9a2 2 0 0 0-2-2"/><path fill="#6060ff" d="M5.19 13.76q.6 0 .89-.22.27-.23.38-.74.1-.5-.07-.68t-.73-.19h-.64l-.35 1.83zM3.09 16a.1.1 0 0 1-.09-.12l.94-4.83a.1.1 0 0 1 .1-.08h2.02q.96 0 1.4.52.45.52.28 1.42a2.3 2.3 0 0 1-.69 1.23q-.33.32-.74.45t-1 .13h-.83l-.23 1.2a.1.1 0 0 1-.1.08z"/><path fill="#6060ff" d="M10.15 14.72a.1.1 0 0 1-.1-.12l.42-2.14q.06-.31-.03-.4c-.03-.05-.14-.11-.45-.11h-.75l-.52 2.69a.1.1 0 0 1-.1.08H7.58a.1.1 0 0 1-.1-.12l.94-4.83a.1.1 0 0 1 .1-.08h1.04a.1.1 0 0 1 .1.12l-.23 1.16h.8q.93 0 1.29.33.37.35.23 1.09l-.44 2.25a.1.1 0 0 1-.1.08z"/><path fill="#6060ff" d="M13.4 13.76q.6 0 .89-.22.27-.23.38-.74.1-.5-.07-.68t-.73-.19h-.64l-.35 1.83zM11.3 16a.1.1 0 0 1-.09-.12l.94-4.83a.1.1 0 0 1 .1-.08h2.02q.96 0 1.4.52.46.52.28 1.42a2.3 2.3 0 0 1-.69 1.23q-.33.32-.74.45t-1 .13h-.83l-.23 1.2a.1.1 0 0 1-.1.08z"/></svg>