<svg xmlns="http://www.w3.org/2000/svg" viewBox="0 0 16 16"><path fill="#40ff40" fill-rule="evenodd" d="M2.45 10.76.08 14.24c-.2.3 0 .7.35.7h15.14c.35 0 .55-.4.35-.7L13.1 10.2l-1.32.81a1.34 1.34 0 1 1-2.67 0v-.15L6.99 9.35c-.25.15-.5.25-.86.25-.35 0-.7-.15-.96-.4z" clip-rule="evenodd"/><path fill="#40ff40" fill-rule="evenodd" d="M7.65 1.22 2.5 8.5c-.15.2-.1.5.1.6l.5.3 1.77-1v-.1a1.32 1.32 0 0 1 2.63.25l2.06 1.51q.38-.39.96-.4c.58-.01.8.2 1.01.5l1.92-1.1c.15-.16.2-.41.05-.56L8.35 1.22a.45.45 0 0 0-.7 0" clip-rule="evenodd"/></svg>