<svg xmlns="http://www.w3.org/2000/svg" viewBox="0 0 16 16"><path fill="#6060ff" d="M15.19 14.56a1.8 1.8 0 0 1-1.8-1.62h-3.7v.44a1.8 1.8 0 0 1 1.6 1.62H14q.72-.02 1.24-.44z"/><path fill="#6060ff" d="M14 3H8L6.59 1.59A2 2 0 0 0 5.17 1H2a2 2 0 0 0-2 2v10c0 1.1.9 2 2 2h.02a1.8 1.8 0 0 1 1.6-1.62V9.5a2.63 2.63 0 0 1 2.63-2.62h7.13A1.8 1.8 0 0 1 16 5.46V5a2 2 0 0 0-2-2"/><path fill="#6060ff" d="M15.19 6.25a.8.8 0 0 0-.81.81v.82H6.24c-.9 0-1.62.72-1.62 1.62v4.88H3.8c-.44 0-.81.36-.81.8s.37.82.81.82h5.7c.45 0 .81-.37.81-.81s-.36-.81-.81-.81h-.81v-2.44h5.69v.81c0 .45.36.81.8.81s.82-.36.82-.81V7.06a.8.8 0 0 0-.81-.81"/></svg>