<svg xmlns="http://www.w3.org/2000/svg" viewBox="0 0 16 16"><path fill="#6060ff" d="m10.55 6.7-3.3 1.8v.05l4.2 2.55 3.25-1.8.05-.05z"/><path fill="#ffa040" d="M6.9 6.7 3.65 8.5l-.05.05 4.2 2.55 3.3-1.8v-.05z"/><path fill="#ff4040" d="M3.3 6.7.05 8.5 0 8.55l4.2 2.55 3.25-1.8.05-.05z"/><path fill="#e0e0e0" d="M14.7 4.9v4.35l-3.25 1.8-.35-1.8-3.25 1.8-.4-1.8-3.25 1.8v1.85H16V4.15z"/><path fill="#a0a0a0" d="M10.25 11.05h-.5l-.1.1v.5c0 .1 0 .1.1.15h.5l.1-.1v-.5z"/><path fill="#a0a0a0" d="M6.65 11.05h-.5c-.1 0-.1.05-.15.1v.5c0 .1.05.1.1.15h.5c.1 0 .1-.05.15-.1v-.5z"/><path fill="#a0a0a0" d="M13.9 11.05h-.55l-.1.1v.55l.1.1h.5l.15-.1v-.5c0-.1-.1-.1-.15-.15z"/><path fill="#40a0ff" d="m14.7 4.9-1.8-1.05-.05-.05v4.4h.05l1.75 1.05h.05v.05z"/><path fill="#40a0ff" d="M4.2 11.05.05 8.55V8.5H0v1.85h.05l4.1 2.55h.05z"/><path fill="#a0a0a0" d="M6.2 11.05h.3q.18.02.2.2v.3a.2.2 0 0 1-.2.2h-.3a.2.2 0 0 1-.2-.2v-.3q.02-.18.2-.2"/><path fill="none" d="M13.45 11.05h.3q.18.02.2.2v.3a.2.2 0 0 1-.2.2h-.3a.2.2 0 0 1-.2-.2v-.3q.02-.18.2-.2"/><path fill="none" d="M9.85 11.05h.3q.18.02.2.2v.3a.2.2 0 0 1-.2.2h-.3a.2.2 0 0 1-.2-.2v-.3q.02-.18.2-.2"/><path fill="#a0a0a0" d="M15.95 4.15 14.2 3.1h-.1l-1.2.7-.05.05h.05l1.75 1.05.05.05.05-.05 1.2-.7H16z"/></svg>