<svg xmlns="http://www.w3.org/2000/svg" viewBox="0 0 16 16"><path fill="#ff40ff" d="M14 7H5.44a2 2 0 0 0-1.9 1.37L2 13V7c0-1.1.9-2 2-2h11c.55 0 1-.45 1-1s-.45-1-1-1H8L6.59 1.59A2 2 0 0 0 5.17 1H2a2 2 0 0 0-2 2v10c0 1.1.9 2 2 2h.07A7.5 7.5 0 0 1 16 12.27V9a2 2 0 0 0-2-2"/><path fill="#ff40ff" d="M9.5 9.5A6.5 6.5 0 0 0 3 16h1.3a5.2 5.2 0 1 1 10.4 0H16a6.5 6.5 0 0 0-6.5-6.5"/><path fill="#ff40ff" d="M9.5 11.45A4.5 4.5 0 0 0 4.95 16h1.3a3.25 3.25 0 0 1 6.5 0h1.3c0-2.5-2-4.55-4.55-4.55"/><path fill="#ff40ff" d="M9.5 13.4A2.6 2.6 0 0 0 6.9 16h1.3a1.3 1.3 0 0 1 2.6 0h1.3c0-1.45-1.15-2.6-2.6-2.6"/></svg>