<svg xmlns="http://www.w3.org/2000/svg" viewBox="0 0 16 16"><path fill="#a0a0a0" d="M14.75 9.75V8.5a2.5 2.5 0 0 0-5 0v1.25c-.69 0-1.25.56-1.25 1.25v3.75c0 .69.56 1.25 1.25 1.25h5c.69 0 1.25-.56 1.25-1.25V11c0-.69-.56-1.25-1.25-1.25m-2.5 4.06a.94.94 0 1 1 0-1.87.94.94 0 0 1 0 1.87m1.25-4.06H11V8.5a1.25 1.25 0 0 1 2.5 0z"/><path fill="#ff40ff" d="M9.93 5.9c.54-.48 1.23-.8 2-.87A8 8 0 0 0 0 12h1.59a6.4 6.4 0 0 1 8.33-6.1"/><path fill="#ff40ff" d="M8.75 8.98V8.9q-.36-.08-.75-.1A3.2 3.2 0 0 0 4.8 12h1.6c0-.74.5-1.35 1.18-1.54a2.3 2.3 0 0 1 1.17-1.48"/><path fill="#ff40ff" d="M8.8 8.08q.09-.83.54-1.52Q8.69 6.41 8 6.4A5.54 5.54 0 0 0 2.4 12H4a4 4 0 0 1 4.8-3.92"/></svg>