<svg xmlns="http://www.w3.org/2000/svg" viewBox="0 0 16 16"><path fill="#40ff40" d="M14.8 4.65a9.2 9.2 0 0 1-7.1-1.9c-.65-.5-.9-.9-1.2-.35a14 14 0 0 0-.85 2.5c-.7 2.5-1.2 7.7 2.9 8.8s6.3-3.7 7-6.15q.38-1.71.45-2.6c0-.6-.4-.45-1.25-.3zM6.5 6.7s.65-1 1.75-.7C9.3 6.35 9.4 7.55 9.4 7.55zm2.65 4.5c-1.9-.5-2.2-2.05-2.2-2.05l5.15 1.45s-1 1.2-2.95.65zM11 8.05s.65-1 1.75-.65c1.1.3 1.15 1.5 1.15 1.5z"/><path fill="#ff4040" d="m5.4 10.15-2 .55S3.6 9.45 5.15 9h.05c-.1-1.5.15-3.05.45-4.1l.2-.75a7.4 7.4 0 0 1-4.9 1.1C.3 5.1-.05 5 0 5.45c0 .45.15 1.1.35 2 .5 1.9 2.2 5.55 5.35 4.7l.5-.15c-.4-.55-.65-1.2-.8-1.85m-3.8-2.7 2.25-.6s-.1.9-.95 1.1-1.3-.5-1.3-.5"/></svg>