<svg xmlns="http://www.w3.org/2000/svg" viewBox="0 0 16 16"><path fill="#ff40ff" d="M14 3H8L6.59 1.59A2 2 0 0 0 5.17 1H2a2 2 0 0 0-2 2v10c0 1.1.9 2 2 2h3.04Q5 14.88 5 14.75V9.13c0-1.25 1-2.26 2.25-2.26h.6a2.25 2.25 0 0 1 4.43 0h.6a2.25 2.25 0 0 1 2.25 2.26v.59q.48.08.87.36V5a2 2 0 0 0-2-2"/><path fill="#ff40ff" d="M14.75 10.69h-.62V9.13c0-.7-.56-1.26-1.26-1.26h-1.56v-.62a1.25 1.25 0 0 0-2.5 0v.63H7.25C6.56 7.88 6 8.43 6 9.13v1.56h.63a1.25 1.25 0 1 1 0 2.5H6v1.56c0 .69.56 1.25 1.25 1.25h1.56v-.62a1.25 1.25 0 0 1 2.5 0V16h1.56c.7 0 1.26-.56 1.26-1.25v-1.56h.62a1.25 1.25 0 0 0 0-2.5"/></svg>