<svg xmlns="http://www.w3.org/2000/svg" viewBox="0 0 16 16"><path fill="#ffa040" d="M16 5h-5V0h5z"/><path fill="#ffa040" d="M10.5 5h-5V0h5z"/><path fill="#ffa040" d="M5 5H0V0h5z"/><path fill="#e0e0e0" d="M5 16H0v-5h5z"/><path fill="#ffa040" d="M14.02 5.5a3.5 3.5 0 0 1 1.73 3v.48q.14.08.25.18V5.5z"/><path fill="#e0e0e0" d="M7.5 14.75V11h-2v5h2.38a2.2 2.2 0 0 1-.38-1.25"/><path fill="#e0e0e0" d="M8.75 8.98V8.5c0-1.28.7-2.39 1.73-3H5.5v5h2.07c.15-.66.59-1.22 1.18-1.52"/><path fill="#a0a0a0" d="M14.75 9.75V8.5a2.5 2.5 0 0 0-5 0v1.25c-.69 0-1.25.56-1.25 1.25v3.75c0 .69.56 1.25 1.25 1.25h5c.69 0 1.25-.56 1.25-1.25V11c0-.69-.56-1.25-1.25-1.25m-2.5 4.06a.94.94 0 1 1 0-1.87.94.94 0 0 1 0 1.87m1.25-4.06H11V8.5a1.25 1.25 0 0 1 2.5 0z"/></svg>