<svg xmlns="http://www.w3.org/2000/svg" viewBox="0 0 16 16"><path fill="#6060ff" d="M7.5 14.75v-3.39c-1.8.94-3.83 1.45-5.9 1.44l.49.5 2.7 2.7q1.43-.3 2.77-.83-.04-.2-.06-.42"/><path fill="#40a0ff" d="M7.5 11c0-.88.51-1.65 1.25-2.02V8.5q.01-.6.2-1.14L1.6 0v12.8c2.07 0 4.1-.5 5.9-1.44z"/><path fill="#40ffff" d="M12.25 5q.55 0 1.05.18C14 3.59 14.4 1.85 14.4 0H1.6l7.36 7.36A3.5 3.5 0 0 1 12.25 5"/><path fill="#a0a0a0" d="M14.75 9.75V8.5a2.5 2.5 0 0 0-5 0v1.25c-.69 0-1.25.56-1.25 1.25v3.75c0 .69.56 1.25 1.25 1.25h5c.69 0 1.25-.56 1.25-1.25V11c0-.69-.56-1.25-1.25-1.25m-2.5 4.06a.94.94 0 1 1 0-1.87.94.94 0 0 1 0 1.87m1.25-4.06H11V8.5a1.25 1.25 0 0 1 2.5 0z"/></svg>