<svg xmlns="http://www.w3.org/2000/svg" viewBox="0 0 16 16"><path fill="#a0ff40" d="M5.06 7.07a2 2 0 0 0-1.52 1.3L2 13V7c0-1.1.9-2 2-2h11c.55 0 1-.45 1-1s-.45-1-1-1H8L6.59 1.59A2 2 0 0 0 5.17 1H2a2 2 0 0 0-2 2v10c0 1.1.9 2 2 2h5.33z"/><path fill="#a0ff40" d="m11.82 15-.74-.74-.19.74z"/><path fill="#a0ff40" d="M14.26 11.08 16 12.82V10.6l-.23.1z"/><path fill="#a0ff40" d="m15.82 14.05-3.52-3.51 3.23-.8c.62-.16.63-1.04.02-1.22L6.8 6.02a.62.62 0 0 0-.78.78l2.5 8.75c.18.61 1.06.6 1.21-.02l.8-3.22 3.52 3.5c.24.25.64.25.88 0l.89-.88a.63.63 0 0 0 0-.88"/></svg>