<svg xmlns="http://www.w3.org/2000/svg" viewBox="0 0 16 16"><path fill="#ff4040" d="m6.39 14.81-.58-1a6 6 0 0 1-2.76-2.01h2.32q.18-.5.62-.8-.53-.35-.7-.96c-.11-.41-.05-.85.16-1.23L6.4 7.2c.3-.52.83-.8 1.39-.8q.25-.1.52-.1.15 0 .29.04c.14-.76.8-1.33 1.59-1.33h1.47v-.3h-.5l-2-2.85a6.2 6.2 0 0 1 4.9 4.58 1.6 1.6 0 0 1 1.46.35A7.6 7.6 0 1 0 .85 10.55L0 11.8h1.4a7.6 7.6 0 0 0 6.24 3.81c-.5-.05-.98-.33-1.25-.8M9.4 4.75H6.5L8 2.7zM1.8 8c0-3 2.15-5.6 5.05-6.1l-5 7.2zm.85 2.4L4.8 7.3v3.1z"/><path fill="#ff4040" d="M8.56 15.44q-.4.2-.83.18l.85-.02z"/><path fill="#a0a0a0" d="m15.69 11.83-.9-.52c-.3-.17-.3-.45 0-.62l.9-.52c.3-.18.4-.56.23-.86l-.94-1.62a.63.63 0 0 0-.85-.23l-.9.52c-.3.17-.55.03-.55-.31V6.63a.63.63 0 0 0-.62-.63h-1.88a.63.63 0 0 0-.62.63v1.04c0 .34-.25.48-.55.31l-.9-.52a.63.63 0 0 0-.85.23L6.32 9.3c-.17.3-.07.68.23.86l.9.52c.3.17.3.45 0 .62l-.9.52c-.3.18-.4.56-.23.86l.94 1.62c.17.3.55.4.85.23l.9-.52c.3-.17.55-.03.55.31v1.05c0 .34.28.62.62.62h1.88c.34 0 .62-.28.62-.62v-1.05c0-.34.24-.48.54-.31l.9.52c.3.17.69.07.86-.23l.94-1.62a.63.63 0 0 0-.23-.86m-3.8.52a1.56 1.56 0 1 1-1.55-2.7 1.56 1.56 0 0 1 1.56 2.7"/></svg>