<svg xmlns="http://www.w3.org/2000/svg" viewBox="0 0 16 16"><path fill="#40a0ff" d="M6.1 2.22c-1.5-.55-3.7-.25-5.35-.25H0v11.95c0 .15.05.15.15.15H2.4c.1 0 .1-.05.1-.15v-3.7c2 .1 4.3 0 5.6-1.75 1.4-2.05.6-5.45-2-6.25m-.2 4.95a2 2 0 0 1-1 .65c-.75.25-1.6.2-2.4.15v-3.9h1.3c.45 0 .95.05 1.35.25.3.15.6.35.8.65s.3.65.3 1.05c0 .5-.15.9-.35 1.15"/><path fill="#40a0ff" d="M10.4 4.82h2c.15 0 .25.1.3.2l.05.3.1.75a4 4 0 0 1 3-1.45c.05 0 .15.05.15.15v2.3c0 .1-.05.1-.2.1q-1.14-.01-2.2.45-.37.15-.6.45v5.9c0 .1 0 .15-.15.15h-2.3q-.15 0-.15-.15l-.05-8.2v-.95z"/></svg>