<svg xmlns="http://www.w3.org/2000/svg" viewBox="0 0 16 16"><path fill="#ff4040" fill-rule="evenodd" d="M1.52 15.24h3.81a.38.38 0 0 1 0 .76h-3.8a.38.38 0 0 1 0-.76" clip-rule="evenodd"/><path fill="#ffff40" fill-rule="evenodd" d="M4.57 13.71h.76c.21 0 .38.17.38.39 0 .2-.17.38-.38.38h-.76a.38.38 0 0 1 0-.76" clip-rule="evenodd"/><path fill="#40ffa0" fill-rule="evenodd" d="M1.52 13.71h1.53c.2 0 .38.17.38.39 0 .2-.17.38-.38.38H1.52a.38.38 0 0 1 0-.76" clip-rule="evenodd"/><path fill="#a040ff" fill-rule="evenodd" d="M1.52 12.2h3.81c.21 0 .38.16.38.37s-.17.38-.38.38h-3.8a.38.38 0 0 1 0-.76" clip-rule="evenodd"/><path fill="#ffff40" fill-rule="evenodd" d="M3.81 10.67h6.86c.2 0 .38.17.38.38s-.17.38-.38.38H3.8a.38.38 0 0 1 0-.76" clip-rule="evenodd"/><path fill="#a040ff" fill-rule="evenodd" d="M1.52 10.67h.77c.2 0 .38.17.38.38s-.17.38-.38.38h-.77a.38.38 0 0 1 0-.76" clip-rule="evenodd"/><path fill="#a040ff" fill-rule="evenodd" d="M10.67 9.14h2.28a.38.38 0 0 1 0 .76h-2.28a.38.38 0 1 1 0-.76" clip-rule="evenodd"/><path fill="#ff4040" fill-rule="evenodd" d="M6.1 9.14h3.04a.38.38 0 0 1 0 .76H6.1a.38.38 0 0 1 0-.76" clip-rule="evenodd"/><path fill="#40ffa0" fill-rule="evenodd" d="M1.52 9.14h3.05a.38.38 0 0 1 0 .76H1.52a.38.38 0 0 1 0-.76" clip-rule="evenodd"/><path fill="#40ffa0" fill-rule="evenodd" d="M7.62 7.62h6.1c.2 0 .38.17.38.38s-.18.38-.39.38h-6.1a.38.38 0 0 1 0-.76" clip-rule="evenodd"/><path fill="#ffff40" fill-rule="evenodd" d="M3.81 7.62H6.1c.2 0 .38.17.38.38s-.17.38-.38.38H3.8a.38.38 0 0 1 0-.76" clip-rule="evenodd"/><path fill="#ff4040" fill-rule="evenodd" d="M1.52 7.62h.77c.2 0 .38.17.38.38s-.17.38-.38.38h-.77a.38.38 0 0 1 0-.76" clip-rule="evenodd"/><path fill="#ffff40" fill-rule="evenodd" d="M10.67 6.1h3.8a.38.38 0 1 1 .01.76h-3.81a.38.38 0 0 1 0-.76" clip-rule="evenodd"/><path fill="#a040ff" fill-rule="evenodd" d="M1.52 6.1h3.81a.38.38 0 0 1 0 .76h-3.8a.38.38 0 0 1 0-.76" clip-rule="evenodd"/><path fill="#ff4040" fill-rule="evenodd" d="M10.67 4.57h3.8a.38.38 0 1 1 .01.76h-3.81a.38.38 0 0 1 0-.76" clip-rule="evenodd"/><path fill="#40ffa0" fill-rule="evenodd" d="M4.57 4.57h.76a.38.38 0 0 1 0 .76h-.76a.38.38 0 0 1 0-.76" clip-rule="evenodd"/><path fill="#ffff40" fill-rule="evenodd" d="M1.52 4.57h1.53c.2 0 .38.17.38.38s-.17.38-.38.38H1.52a.38.38 0 0 1 0-.76" clip-rule="evenodd"/><path fill="#40ffa0" fill-rule="evenodd" d="M12.95 3.05h.76c.21 0 .39.17.39.38s-.18.38-.39.38h-.76a.38.38 0 0 1 0-.76" clip-rule="evenodd"/><path fill="#a040ff" fill-rule="evenodd" d="M8.38 3.05h3.05c.2 0 .38.17.38.38s-.17.38-.38.38H8.38a.38.38 0 0 1 0-.76" clip-rule="evenodd"/><path fill="#40ffa0" fill-rule="evenodd" d="M1.52 3.05h5.34c.2 0 .38.17.38.38s-.17.38-.38.38H1.52a.38.38 0 0 1 0-.76" clip-rule="evenodd"/><path fill="#ffff40" fill-rule="evenodd" d="M5.33 1.52h7.62a.38.38 0 0 1 0 .76H5.33a.38.38 0 0 1 0-.76" clip-rule="evenodd"/><path fill="#ff4040" fill-rule="evenodd" d="M1.52 1.52h2.29a.38.38 0 0 1 0 .76H1.52a.38.38 0 0 1 0-.76" clip-rule="evenodd"/><path fill="#40ffa0" fill-rule="evenodd" d="M1.52 0h9.15c.2 0 .38.17.38.38s-.17.38-.38.38H1.52a.38.38 0 0 1 0-.76" clip-rule="evenodd"/></svg>