<svg xmlns="http://www.w3.org/2000/svg" viewBox="0 0 16 16"><path fill="#ff4040" d="M11 6a5 5 0 1 0 0 10 5 5 0 0 0 0-10m2.5 5.63h-5a.62.62 0 1 1 0-1.26h5a.62.62 0 1 1 0 1.26"/><path fill="#ff4040" fill-rule="evenodd" d="M1.52 15.24h3.81a.38.38 0 0 1 0 .76h-3.8a.38.38 0 0 1 0-.76" clip-rule="evenodd"/><path fill="#ffff40" fill-rule="evenodd" d="M4.57 13.71h.76c.21 0 .38.17.38.39 0 .2-.17.38-.38.38h-.76a.38.38 0 0 1 0-.76" clip-rule="evenodd"/><path fill="#40ffa0" fill-rule="evenodd" d="M1.52 13.71h1.53c.2 0 .38.17.38.39 0 .2-.17.38-.38.38H1.52a.38.38 0 0 1 0-.76" clip-rule="evenodd"/><path fill="#a040ff" fill-rule="evenodd" d="M1.52 12.2h3.81c.21 0 .38.16.38.37s-.17.38-.38.38h-3.8a.38.38 0 0 1 0-.76" clip-rule="evenodd"/><path fill="#a040ff" fill-rule="evenodd" d="M1.52 10.67h.77c.2 0 .38.17.38.38s-.17.38-.38.38h-.77a.38.38 0 0 1 0-.76" clip-rule="evenodd"/><path fill="#40ffa0" fill-rule="evenodd" d="M1.52 9.14h3.05a.38.38 0 0 1 0 .76H1.52a.38.38 0 0 1 0-.76" clip-rule="evenodd"/><path fill="#ff4040" fill-rule="evenodd" d="M1.52 7.62h.77c.2 0 .38.17.38.38s-.17.38-.38.38h-.77a.38.38 0 0 1 0-.76" clip-rule="evenodd"/><path fill="#a040ff" fill-rule="evenodd" d="M1.52 6.1h3.81a.38.38 0 0 1 0 .76h-3.8a.38.38 0 0 1 0-.76" clip-rule="evenodd"/><path fill="#40ffa0" fill-rule="evenodd" d="M4.57 4.57h.76a.38.38 0 0 1 0 .76h-.76a.38.38 0 0 1 0-.76" clip-rule="evenodd"/><path fill="#ffff40" fill-rule="evenodd" d="M1.52 4.57h1.53c.2 0 .38.17.38.38s-.17.38-.38.38H1.52a.38.38 0 0 1 0-.76" clip-rule="evenodd"/><path fill="#40ffa0" fill-rule="evenodd" d="M12.95 3.05h.76c.21 0 .39.17.39.38s-.18.38-.39.38h-.76a.38.38 0 0 1 0-.76" clip-rule="evenodd"/><path fill="#a040ff" fill-rule="evenodd" d="M8.38 3.05h3.05c.2 0 .38.17.38.38s-.17.38-.38.38H8.38a.38.38 0 0 1 0-.76" clip-rule="evenodd"/><path fill="#40ffa0" fill-rule="evenodd" d="M1.52 3.05h5.34c.2 0 .38.17.38.38s-.17.38-.38.38H1.52a.38.38 0 0 1 0-.76" clip-rule="evenodd"/><path fill="#ffff40" fill-rule="evenodd" d="M5.33 1.52h7.62a.38.38 0 0 1 0 .76H5.33a.38.38 0 0 1 0-.76" clip-rule="evenodd"/><path fill="#ff4040" fill-rule="evenodd" d="M1.52 1.52h2.29a.38.38 0 0 1 0 .76H1.52a.38.38 0 0 1 0-.76" clip-rule="evenodd"/><path fill="#40ffa0" fill-rule="evenodd" d="M1.52 0h9.15c.2 0 .38.17.38.38s-.17.38-.38.38H1.52a.38.38 0 0 1 0-.76" clip-rule="evenodd"/><path fill="#ff4040" fill-rule="evenodd" d="M11 5q1.02 0 1.94.33h1.54a.38.38 0 1 0 0-.76h-3.81a.4.4 0 0 0-.38.38l.01.1A6 6 0 0 1 11 5" clip-rule="evenodd"/><path fill="#ffff40" fill-rule="evenodd" d="m5 11 .02-.33H3.8a.38.38 0 0 0 0 .76h1.22Q5 11.23 5 11" clip-rule="evenodd"/><path fill="#ffff40" fill-rule="evenodd" d="M6.05 7.62H3.8a.38.38 0 0 0 0 .76h1.8q.19-.4.44-.76" clip-rule="evenodd"/></svg>