<svg xmlns="http://www.w3.org/2000/svg" viewBox="0 0 16 16"><path fill="#6060ff" d="M14.04 7 16 11.16V9a2 2 0 0 0-1.96-2"/><path fill="#6060ff" d="M15 3H8L6.59 1.59A2 2 0 0 0 5.17 1H2a2 2 0 0 0-2 2v10c0 1.1.9 2 2 2h5.88l-.97-1.5a1.8 1.8 0 0 1-.02-1.96L9.7 7H5.45a2 2 0 0 0-1.9 1.37L2 13V7c0-1.1.9-2 2-2h11c.55 0 1-.45 1-1s-.45-1-1-1"/><path fill="#6060ff" d="m15.92 13.34-3.24-6.87A.8.8 0 0 0 12 6a.8.8 0 0 0-.75.39l-3.5 5.68a.8.8 0 0 0 0 .89l1.72 2.66a.85.85 0 0 0 .95.35l4.98-1.48a.84.84 0 0 0 .52-1.15m-5.11 1.33 1.37-6.6 2.56 5.44z"/></svg>