<svg xmlns="http://www.w3.org/2000/svg" viewBox="0 0 16 16"><path fill="#ff4040" d="M13.14 2.92h.05c-.2-.64-.5-2 .5-2.84-1.1-.2-2.25.25-2.9 1.15a6.8 6.8 0 0 0-5.48 0A2.7 2.7 0 0 0 2.36.08c1 .8.7 2.25.5 2.9a8 8 0 0 0-2 5.23c0 1.6 1 3.45 1.25 5.9l1.3-1.15c1.4.8 3 1.14 4.59 1.1 1.6.04 3.2-.3 4.6-1.1l1.29 1.14c.2-2.5 1.25-4.29 1.25-5.89 0-1.94-.7-3.84-2-5.29M5.32 7.18a1.42 1.42 0 1 1 0-2.84 1.42 1.42 0 0 1 0 2.84m6.58.05a1.42 1.42 0 1 1 0-2.83 1.42 1.42 0 0 1 0 2.83"/><path fill="#e0e0e0" d="M4.96 5.25a.24.24 0 1 0 0 .48.24.24 0 0 0 0-.48"/><path fill="#e0e0e0" d="M11.46 5.25a.24.24 0 1 0 0 .48.24.24 0 0 0 0-.48"/><path fill="#a0a0a0" d="M4.3 15.85a1.2 1.2 0 1 1 2.4-.05v.1a1.65 1.65 0 1 0-2.4.1z"/><path fill="#a0a0a0" d="M11.64 15.85a1.2 1.2 0 1 0-2.4-.05v.1a1.65 1.65 0 1 1 2.4.1z"/><path fill="#e0e0e0" d="M4.76 2.82a2.84 2.84 0 1 0 0 5.7 2.84 2.84 0 0 0 0-5.7m.56 4.36a1.42 1.42 0 1 1 0-2.84 1.42 1.42 0 0 1 0 2.84"/><path fill="#e0e0e0" d="M11.3 2.82a2.84 2.84 0 1 0 0 5.7 2.84 2.84 0 0 0 0-5.7m.6 4.41a1.42 1.42 0 1 1 0-2.83 1.42 1.42 0 0 1 0 2.83"/><path fill="#a0a0a0" d="M8.05 11.16c0-1 1.55-2.5 1.55-3.6a1.6 1.6 0 0 0-3.2 0c0 1.1 1.6 2.55 1.6 3.6z"/></svg>