<svg xmlns="http://www.w3.org/2000/svg" viewBox="0 0 16 16"><circle cx="11.22" cy="6.56" r=".29" fill="#e0e0e0"/><circle cx="4.91" cy="6.56" r=".29" fill="#e0e0e0"/><path fill="#e0e0e0" d="M13.39 6.15c-.03-.55.05-1.04-.2-1.45-.6-1.02-2.1-1.62-5.1-1.62s-4.57.6-5.17 1.63c-.23.43-.2.9-.25 1.45-.02.44-.22.9-.13 1.4.1.65.13 1.3.23 1.9.08.49.75.9.82 1.36q.12 1.02 1.35 1.46-.07-.1-.13-.23l-.01-.03-.1-.33v-.02l-.07-.45-.01-.12-.02-.6c0-.73-.05-1.03.57-1.79a4 4 0 0 1 1.3-1.04l.04-.03q.26-.12.56-.21c.09-.26.48-.53 1.02-.54.57 0 .95.28 1.03.55q.3.1.57.23a4 4 0 0 1 1.29 1.04c.62.76.59 1.09.57 1.81a8 8 0 0 1-.09 1.15l-.11.39-.12.22q1.18-.45 1.3-1.46c.06-.47.68-.87.76-1.36.1-.6.14-1.25.24-1.9.08-.5-.12-.97-.14-1.4m-5.32-1.6h.02c.48.03.85.54.85.54-.43-.41-.85-.4-.85-.4s-.43-.01-.86.4c0 0 .48-.51.85-.53zM4.62 8.15a1.1 1.1 0 1 1 0-2.2 1.1 1.1 0 0 1 0 2.2m3.49-2.01c-.13 0-.87-.01-1.73.58 0 0 .72-.76 1.71-.8-.02 0 .02 0 0 0h.02-.02c.98.04 1.71.8 1.71.8-.86-.6-1.7-.58-1.7-.58m1.2-.23c-.13.08-.24-.37-1.25-.42-1-.05-1.15.46-1.27.42-.1-.03.33-.72-.2-.9a3 3 0 0 0-1.3-.07c2.04-.43 1.72.65 1.7.65 1.28-.63 2.19.07 2.19.07-.07-1.15 1.51-.72 1.51-.72-1.51-.28-1.24.9-1.37.97m2.2 2.24a1.1 1.1 0 1 1 0-2.2 1.1 1.1 0 0 1 0 2.2"/><path fill="#ffa040" d="M11.14 3.4s1.45 1.21 1.87 2.61.25 3.1.58 3.31c.46.3.98-1.48 1.16-1.67.27-.3 1.19-1.06 1.25-1.2s-1.85-2.22-2.69-2.63c-1-.48-2.26-.52-2.17-.42"/><path fill="#ffa040" d="M4.86 3.4S3.4 4.61 2.99 6.01s-.25 3.1-.58 3.31c-.46.3-.98-1.48-1.16-1.67C.98 7.35.06 6.59 0 6.45s1.85-2.22 2.7-2.63c1-.48 2.26-.52 2.17-.42"/><path fill="#ffa040" d="M10.98 8.71a4 4 0 0 0-1.86-1.27c-.08-.27-.46-.55-1.03-.55-.54 0-.93.28-1.02.54-.83.24-1.46.74-1.9 1.28-.62.76-.57 1.06-.57 1.79 0 2.62.92 1.87 1.53 2.2.63.3 1.28.2 1.94.2h.01c.68 0 1.31.1 1.94-.22.6-.31 1.53.46 1.53-2.16.02-.72.05-1.05-.57-1.81M8.26 7.29q.1 0 .14.16c.03.1 0 .2-.05.2s-.11-.05-.14-.15 0-.2.05-.2m-.59.16q.06-.17.15-.15t.04.2q-.06.17-.15.15t-.04-.2m1.75 4.3c.18-.35-.03-1.11-.09-1.3a2 2 0 0 0-.32-.47 2 2 0 0 0-.9-.37c-.23 0-.67.17-1.02.44q-.15.18-.25.37c-.02.06-.3.94-.1 1.34l-.28-.13s.12-.52.25-.9c.1-.66.6-1.19 1.06-1.37A5 5 0 0 0 8 8.04h.01v.02-.02h.1c.02.29.1 1.05.23 1.3a1.8 1.8 0 0 1 1.1 1.41c.14.38.25.88.25.88z"/></svg>