<svg xmlns="http://www.w3.org/2000/svg" viewBox="0 0 16 16"><circle cx="11.22" cy="6.56" r=".29" fill="#e0e0e0"/><circle cx="4.91" cy="6.56" r=".29" fill="#e0e0e0"/><path fill="#ffa040" d="M4.86 3.4S3.4 4.61 2.99 6.01s-.25 3.1-.58 3.31c-.46.3-.98-1.48-1.16-1.67C.98 7.35.06 6.59 0 6.45s1.85-2.22 2.7-2.63c1-.48 2.26-.52 2.17-.42"/><path fill="#ffa040" d="M13.01 6.01q.17.59.24 1.18l.66-.66c.5-.5 1.25-.6 1.9-.38-.49-.62-1.83-2-2.5-2.33-1-.48-2.26-.52-2.17-.42 0 0 1.45 1.21 1.87 2.61"/><path fill="#e0e0e0" d="m2.77 9.46.03.1c.56-.36 1.3-.38 1.9-.07q.08-.32.47-.78a4 4 0 0 1 1.3-1.04l.04-.03q.26-.12.56-.21c.09-.26.48-.53 1.02-.54.57 0 .95.28 1.03.55q.3.1.57.23a4 4 0 0 1 1.29 1.04q.2.23.31.44l2.22-2.22-.12-.78c-.03-.55.05-1.04-.2-1.45-.6-1.02-2.1-1.62-5.1-1.62s-4.57.6-5.17 1.63c-.23.43-.2.9-.25 1.45-.02.44-.22.9-.13 1.4.1.65.13 1.3.23 1.9m5.34-3.32c-.13 0-.87-.01-1.73.58 0 0 .72-.76 1.71-.8-.02 0 .02 0 0 0h.02-.02c.98.04 1.71.8 1.71.8-.86-.6-1.7-.58-1.7-.58m3.4-.19a1.1 1.1 0 1 1 0 2.2 1.1 1.1 0 0 1 0-2.2M8.06 4.56h.02c.48.03.85.54.85.54-.43-.41-.85-.4-.85-.4s-.43-.01-.86.4c0 0 .48-.51.85-.53zM6.99 5.6c1.28-.63 2.19.07 2.19.07-.07-1.15 1.51-.72 1.51-.72-1.51-.28-1.24.9-1.37.97-.14.08-.25-.37-1.26-.42-1-.05-1.15.46-1.27.42-.1-.03.33-.72-.2-.9a3 3 0 0 0-1.3-.07c2.04-.43 1.72.65 1.7.65m-2.37.36a1.1 1.1 0 1 1 0 2.2 1.1 1.1 0 0 1 0-2.2"/><path fill="#ffa040" d="m5.1 9.78 1.46 1.46q.06-.26.15-.51c.1-.66.6-1.19 1.06-1.37A5 5 0 0 0 8 8.04h.01v.02-.02h.1c.02.29.1 1.05.23 1.3a1.8 1.8 0 0 1 1.1 1.41l.06.18 1.78-1.78-.31-.44a4 4 0 0 0-1.86-1.27c-.08-.27-.46-.55-1.03-.55-.54 0-.93.28-1.02.54a3.8 3.8 0 0 0-2.38 2.06q.22.12.4.29m3.16-2.49q.1 0 .14.16c.03.1 0 .2-.05.2s-.11-.05-.14-.15 0-.2.05-.2m-.59.16q.06-.17.15-.15t.04.2q-.06.17-.15.15t-.04-.2"/><path fill="#ffa040" d="M9.01 9.98a2 2 0 0 0-.9-.37c-.23 0-.67.17-1.02.44q-.15.18-.25.37c-.01.05-.17.53-.17.94l1.2 1.2 1.58-1.58c-.03-.23-.1-.44-.12-.53a2 2 0 0 0-.32-.47"/><path fill="#40ff40" d="M15.76 7.3a.8.8 0 0 0-1.15 0l-6.45 6.45a.4.4 0 0 1-.57 0l-3.2-3.2a.8.8 0 0 0-1.15 0 .8.8 0 0 0 0 1.15l4.06 4.06a.8.8 0 0 0 1.15 0l7.31-7.31a.8.8 0 0 0 0-1.15"/></svg>