<svg xmlns="http://www.w3.org/2000/svg" viewBox="0 0 16 16"><path fill="#ffff40" d="m5.1 9.78 2.78 2.78.24-.25H8v-.48h.62l5.3-5.3a1.8 1.8 0 0 1 1.73-.43l-.02-.08c-.27-1.1-.8-1.94-1.9-1.94h-1.44v1.7a2.45 2.45 0 0 1-2.4 2.42H6.1c-.78 0-1.44.48-1.74 1.15q.41.12.74.43"/><path fill="#ffff40" d="M4.2 14.01c.12.8.8 1.31 1.6 1.6z"/><path fill="#ffff40" d="M13.74 11.83c1.06-.02 1.48-.75 1.85-1.86z"/><path fill="#ffff40" d="m9.85 15.72.04-.01c.97-.28 1.91-.84 1.91-1.94z"/><path fill="#40a0ff" d="M2 11.06q.01-.75.53-1.28a1.8 1.8 0 0 1 1.33-.51 2.4 2.4 0 0 1 2.22-1.56H9.9c1.07 0 1.91-.87 1.91-1.94V2.14c0-1.03-.87-1.81-1.9-1.98a12 12 0 0 0-3.82 0c-1.61.28-1.9.88-1.9 1.98v1.45H8v.49H2.74c-1.1 0-2.08.67-2.38 1.93a7 7 0 0 0 0 3.88c.25 1.06.83 1.82 1.8 1.92a2 2 0 0 1-.16-.75m3.84-8.44a.7.7 0 0 1-.71-.72c0-.4.32-.73.71-.73a.73.73 0 0 1 0 1.45"/><path fill="#40ff40" d="M15.76 7.3a.8.8 0 0 0-1.15 0l-6.45 6.45a.4.4 0 0 1-.57 0l-3.2-3.2a.8.8 0 0 0-1.15 0 .8.8 0 0 0 0 1.15l4.06 4.06a.8.8 0 0 0 1.15 0l7.31-7.31a.8.8 0 0 0 0-1.15"/></svg>