<svg xmlns="http://www.w3.org/2000/svg" viewBox="0 0 16 16"><path fill="#40a0ff" d="M7.66 14.6v-.2h-.12c-1.1 0-1.94-.75-2.24-1.98a5.4 5.4 0 0 1 0-2.9 2.5 2.5 0 0 1 2.36-1.97v-.21q0-.18.03-.34H5.44a2 2 0 0 0-1.9 1.37L2 13V7c0-1.1.9-2 2-2h11c.55 0 1-.45 1-1s-.45-1-1-1H8L6.59 1.59A2 2 0 0 0 5.17 1H2a2 2 0 0 0-2 2v10c0 1.1.9 2 2 2h5.7a2 2 0 0 1-.04-.4"/><path fill="#40a0ff" d="M14.62 7.55q.42-.02.96.24a2 2 0 0 0-1.18-.75l.03.3v.21z"/><path fill="#40a0ff" d="M14.62 14.4h-.19v.2q0 .15-.04.36a2 2 0 0 0 1.27-.85q-.4.27-1.04.28"/><path fill="#40a0ff" d="M11 6q-.62 0-1.14.1c-1.01.18-1.2.55-1.2 1.24v.9h2.39v.31H7.76c-.69 0-1.3.42-1.48 1.2a4.5 4.5 0 0 0 0 2.43c.17.71.57 1.21 1.26 1.21h.83V12.3c0-.78.68-1.48 1.49-1.48h2.38c.66 0 1.2-.54 1.2-1.21V7.34c0-.65-.55-1.13-1.2-1.24Q11.6 6 11 6m-1.3.73c.25 0 .45.2.45.46 0 .25-.2.45-.44.45a.45.45 0 0 1-.45-.45c0-.25.2-.46.45-.46"/><path fill="#ffff40" d="M13.73 8.55v1.06c0 .82-.7 1.51-1.5 1.51H9.87c-.66 0-1.2.56-1.2 1.21v2.28c0 .64.57 1.02 1.2 1.2a4 4 0 0 0 2.38 0c.6-.17 1.2-.52 1.2-1.2v-.91h-2.4v-.3h3.58c.7 0 .96-.49 1.2-1.22a4 4 0 0 0 0-2.42c-.17-.7-.5-1.21-1.2-1.21zm-1.34 5.75c.25 0 .45.2.45.46 0 .25-.2.45-.45.45a.45.45 0 0 1-.45-.45c0-.25.2-.46.45-.46"/></svg>