<svg xmlns="http://www.w3.org/2000/svg" viewBox="0 0 16 16"><path fill="#40a0ff" d="M7.9 0q-.99 0-1.82.16c-1.61.28-1.9.88-1.9 1.98v1.45h3.81v.49H2.74c-1.1 0-2.08.67-2.38 1.93a7 7 0 0 0 0 3.88c.27 1.13.92 1.94 2.02 1.94H3.7v-1.74A2.43 2.43 0 0 1 6.08 7.7H9.9c1.07 0 1.91-.87 1.91-1.94V2.14c0-1.03-.87-1.81-1.9-1.98Q8.9 0 7.9 0M5.85 1.17c.4 0 .72.33.72.73s-.32.73-.72.73a.7.7 0 0 1-.71-.73c0-.4.32-.73.71-.73"/><path fill="#ffff40" d="M12.28 4.08v1.7a2.45 2.45 0 0 1-2.39 2.41H6.1c-1.05 0-1.92.9-1.92 1.94v3.64c0 1.03.9 1.64 1.91 1.94 1.21.35 2.37.42 3.81 0 .97-.28 1.91-.84 1.91-1.94V12.3H8v-.48h5.72c1.11 0 1.52-.77 1.91-1.94.4-1.2.38-2.34 0-3.87-.27-1.1-.8-1.94-1.9-1.94zm-2.15 9.2c.4 0 .72.33.72.73s-.32.73-.72.73a.7.7 0 0 1-.71-.73c0-.4.32-.73.71-.73"/></svg>