<svg xmlns="http://www.w3.org/2000/svg" viewBox="0 0 16 16"><path fill="#a0a0a0" fill-rule="evenodd" d="M8 12.55c-4.42 0-8-2.4-8-5.36s3.58-5.36 8-5.36 8 2.4 8 5.36-3.58 5.36-8 5.36m1.22-8.62c-3.35 0-6.08 1.64-6.08 3.66s2.73 3.66 6.08 3.66 5.84-1.12 5.84-3.66-2.48-3.66-5.84-3.66" clip-rule="evenodd"/><path fill="#40a0ff" fill-rule="evenodd" d="M12.18 10.13s.49.15.77.29c.1.05.27.15.39.28a1 1 0 0 1 .17.25l1.91 3.22h-3.08l-1.44-2.7s-.3-.52-.48-.66c-.15-.13-.22-.17-.37-.17h-.73v3.53H6.6V5.16h5.48s2.5.04 2.5 2.42-2.39 2.55-2.39 2.55M11 7.1H9.34v1.53H11s.76 0 .76-.78c0-.79-.76-.75-.76-.75" clip-rule="evenodd"/></svg>