<svg xmlns="http://www.w3.org/2000/svg" viewBox="0 0 16 16"><path fill="#ff4040" d="M11 6a5 5 0 1 0 0 10 5 5 0 0 0 0-10m2.5 5.63h-1.87v1.87a.62.62 0 1 1-1.26 0v-1.87H8.5a.62.62 0 1 1 0-1.26h1.88V8.5a.62.62 0 1 1 1.24 0v1.88h1.88a.62.62 0 1 1 0 1.24"/><path fill="#ff4040" fill-rule="evenodd" d="m12.1 3.97.03-.5a3 3 0 0 0-.68-.26l-.03.5z" clip-rule="evenodd"/><path fill="#ff4040" fill-rule="evenodd" d="M8.83 3.22h.07l-.15-.46q-.32 0-.67.05l.13.44q.3-.03.62-.03" clip-rule="evenodd"/><path fill="#ff4040" fill-rule="evenodd" d="m5.96 4.01-.32-.52q-.26.14-.55.33l.33.52z" clip-rule="evenodd"/><path fill="#ff4040" fill-rule="evenodd" d="m3.3 6.25-.5-.47-.53.56.54.5z" clip-rule="evenodd"/><path fill="#ff4040" fill-rule="evenodd" d="m1.16 9.61-.8-.32-.36.9.81.32z" clip-rule="evenodd"/><path fill="#ff4040" fill-rule="evenodd" d="M5 11a6 6 0 0 1 10.48-3.98l.27.2.25-.2s-3.67-3.9-7.75-3.47c-2.06.2-4.58 2.2-6.06 4.83a14 14 0 0 0-1.7 4.86h4.94A6 6 0 0 1 5 11" clip-rule="evenodd"/></svg>