<svg xmlns="http://www.w3.org/2000/svg" viewBox="0 0 16 16"><path fill="#ffff40" d="M11.06 13.23c.4.65.91 1.12 1.83 1.12.76 0 1.25-.38 1.25-.9 0-.64-.5-.87-1.35-1.24l-.46-.2c-1.34-.57-2.22-1.28-2.22-2.8 0-1.38 1.05-2.44 2.71-2.44 1.18 0 2.03.41 2.64 1.48L14 9.18c-.32-.57-.66-.8-1.19-.8-.54 0-.89.35-.89.8 0 .56.35.78 1.14 1.13l.47.2c1.57.67 2.46 1.36 2.46 2.9C16 15.1 14.69 16 12.93 16c-1.72 0-2.84-.82-3.38-1.9z"/><path fill="#ffff40" d="M4.5 13.39c.3.52.56.95 1.2.95.61 0 1-.23 1-1.16v-6.3h1.85v6.32c0 1.92-1.13 2.8-2.77 2.8A2.9 2.9 0 0 1 3 14.3z"/><path fill="#ff4040" fill-rule="evenodd" d="m12.1 3.97.03-.5a3 3 0 0 0-.68-.26l-.03.5z" clip-rule="evenodd"/><path fill="#ff4040" fill-rule="evenodd" d="M8.83 3.22h.07l-.15-.46q-.32 0-.67.05l.13.44q.3-.03.62-.03" clip-rule="evenodd"/><path fill="#ff4040" fill-rule="evenodd" d="m5.96 4.01-.32-.52q-.26.14-.55.33l.33.52z" clip-rule="evenodd"/><path fill="#ff4040" fill-rule="evenodd" d="m3.3 6.25-.5-.47-.53.56.54.5z" clip-rule="evenodd"/><path fill="#ff4040" fill-rule="evenodd" d="m1.16 9.61-.8-.32-.36.9.81.32z" clip-rule="evenodd"/><path fill="#ff4040" fill-rule="evenodd" d="M9.55 5.88v.53l.39-.16-.16-.5-.32.13z" clip-rule="evenodd"/><path fill="#ff4040" fill-rule="evenodd" d="m11.44 5.57-.03.44a4 4 0 0 1 .71-.18l.01-.16a5 5 0 0 0-.7-.1" clip-rule="evenodd"/><path fill="#ff4040" fill-rule="evenodd" d="m4.87 12 .51.9.2.34h.11V5.88h2.99c.7-.38 2.33-1.16 4.83-.04q1.47.19 2.36 1.29l.13-.1s-3.67-3.91-7.75-3.48c-2.06.2-4.58 2.2-6.06 4.83a14 14 0 0 0-1.7 4.86h2.34z" clip-rule="evenodd"/></svg>