<svg xmlns="http://www.w3.org/2000/svg" viewBox="0 0 16 16"><path fill="#ff4040" fill-rule="evenodd" d="M.5 13.24h5.57S5 8.05 8.53 5.95c.77-.4 3.22-1.89 7.22 1.27l.25-.2s-3.67-3.9-7.75-3.47c-2.06.2-4.58 2.2-6.06 4.83s-1.7 4.86-1.7 4.86" clip-rule="evenodd"/><path fill="#ff4040" fill-rule="evenodd" d="m12.1 3.97.03-.5a3 3 0 0 0-.68-.26l-.03.5z" clip-rule="evenodd"/><path fill="#ff4040" fill-rule="evenodd" d="m11.44 5.57-.03.47q.34.01.7.1l.02-.47a5 5 0 0 0-.7-.1" clip-rule="evenodd"/><path fill="#ff4040" fill-rule="evenodd" d="M8.83 3.22h.07l-.15-.46q-.32 0-.67.05l.13.44q.3-.03.62-.03" clip-rule="evenodd"/><path fill="#ff4040" fill-rule="evenodd" d="m9.16 6 .17.51q.3-.16.61-.26l-.16-.5z" clip-rule="evenodd"/><path fill="#ff4040" fill-rule="evenodd" d="m5.96 4.01-.32-.52q-.26.14-.55.33l.33.52z" clip-rule="evenodd"/><path fill="#ff4040" fill-rule="evenodd" d="m7.4 7.4.35.54q.18-.28.41-.53l-.32-.52q-.24.24-.43.5" clip-rule="evenodd"/><path fill="#ff4040" fill-rule="evenodd" d="m6.38 9.82.58.48q.03-.44.14-.88L6.6 9q-.14.42-.22.83" clip-rule="evenodd"/><path fill="#ff4040" fill-rule="evenodd" d="m3.3 6.25-.5-.47-.53.56.54.5z" clip-rule="evenodd"/><path fill="#ff4040" fill-rule="evenodd" d="m1.16 9.61-.8-.32-.36.9.81.32z" clip-rule="evenodd"/><path fill="#ff4040" fill-rule="evenodd" d="M6.28 11.73q.03.6.08.95l.85.32q-.1-.44-.17-.97z" clip-rule="evenodd"/></svg>