<svg xmlns="http://www.w3.org/2000/svg" viewBox="0 0 16 16"><path fill="#ff4040" d="m15.61 6.53-1.15-.48a.63.63 0 0 0-.82.34l-3.42 8.27c-.13.32.02.68.34.81l1.15.48c.32.13.69-.02.82-.34l3.42-8.27a.63.63 0 0 0-.34-.81"/><path fill="#ff4040" fill-rule="evenodd" d="m12.1 3.97.03-.5a3 3 0 0 0-.68-.26l-.03.5z" clip-rule="evenodd"/><path fill="#ff4040" fill-rule="evenodd" d="m11.44 5.57-.03.47q.34.01.7.1l.02-.47a5 5 0 0 0-.7-.1" clip-rule="evenodd"/><path fill="#ff4040" fill-rule="evenodd" d="M8.83 3.22h.07l-.15-.46q-.32 0-.67.05l.13.44q.3-.03.62-.03" clip-rule="evenodd"/><path fill="#ff4040" fill-rule="evenodd" d="m9.16 6 .17.51q.3-.16.61-.26l-.16-.5z" clip-rule="evenodd"/><path fill="#ff4040" fill-rule="evenodd" d="m5.96 4.01-.32-.52q-.26.14-.55.33l.33.52z" clip-rule="evenodd"/><path fill="#ff4040" fill-rule="evenodd" d="m7.4 7.4.35.54q.18-.28.41-.53l-.32-.52q-.24.24-.43.5" clip-rule="evenodd"/><path fill="#ff4040" fill-rule="evenodd" d="m6.38 9.82.58.48q.03-.44.14-.88L6.6 9q-.14.42-.22.83" clip-rule="evenodd"/><path fill="#ff4040" fill-rule="evenodd" d="m3.3 6.25-.5-.47-.53.56.54.5z" clip-rule="evenodd"/><path fill="#ff4040" fill-rule="evenodd" d="m1.16 9.61-.8-.32-.36.9.81.32z" clip-rule="evenodd"/><path fill="#ff4040" fill-rule="evenodd" d="M6.28 11.73q.03.6.08.95l.85.32q-.1-.44-.17-.97z" clip-rule="evenodd"/><path fill="#ff4040" fill-rule="evenodd" d="M12.96 5.61q.27-.34.68-.5c-1.43-.91-3.36-1.77-5.4-1.56S3.68 5.75 2.2 8.38a14 14 0 0 0-1.7 4.86h5.58S5 8.05 8.53 5.95c.57-.3 2.06-1.18 4.43-.34" clip-rule="evenodd"/></svg>