<svg xmlns="http://www.w3.org/2000/svg" viewBox="0 0 16 16"><path fill="#ff4040" fill-rule="evenodd" d="M5.6 12.88c-.36-.3-.6-.75-.6-1.26v-1.24c0-.51.24-.96.6-1.26-.36-.3-.6-.74-.6-1.24V6.63C5 5.73 5.73 5 6.63 5h1.25c.5 0 .95.24 1.25.6.3-.36.74-.6 1.24-.6h1.26c.49 0 .92.23 1.22.58h.04q.3-.34.72-.48c-1.42-.92-3.34-1.76-5.36-1.55-2.06.2-4.59 2.2-6.07 4.83S.49 13.24.49 13.24h4.8q.12-.2.3-.37" clip-rule="evenodd"/><path fill="#ff4040" d="M8.5 7.88c0 .34-.28.62-.62.62H6.63A.63.63 0 0 1 6 7.88V6.63c0-.35.28-.63.63-.63h1.25c.34 0 .62.28.62.63z"/><path fill="#ff4040" d="M8.5 7.88c0 .34-.28.62-.62.62H6.63A.63.63 0 0 1 6 7.88V6.63c0-.35.28-.63.63-.63h1.25c.34 0 .62.28.62.63z"/><path fill="#ff4040" d="M8.5 11.63c0 .34-.28.62-.62.62H6.63a.63.63 0 0 1-.63-.62v-1.26c0-.34.28-.62.63-.62h1.25c.34 0 .62.28.62.63z"/><path fill="#ff4040" d="M8.5 15.38c0 .34-.28.62-.62.62H6.63a.63.63 0 0 1-.63-.62v-1.26c0-.34.28-.62.63-.62h1.25c.34 0 .62.28.62.63z"/><path fill="#ff4040" d="M16 7.88c0 .34-.28.62-.62.62h-1.26a.63.63 0 0 1-.62-.62V6.63c0-.35.28-.63.63-.63h1.24c.35 0 .63.28.63.63z"/><path fill="#ff4040" d="M16 7.88c0 .34-.28.62-.62.62h-1.26a.63.63 0 0 1-.62-.62V6.63c0-.35.28-.63.63-.63h1.24c.35 0 .63.28.63.63z"/><path fill="#ff4040" d="M16 11.63c0 .34-.28.62-.62.62h-1.26a.63.63 0 0 1-.62-.62v-1.26c0-.34.28-.62.63-.62h1.24c.35 0 .63.28.63.63z"/><path fill="#ff4040" d="M16 15.38c0 .34-.28.62-.62.62h-1.26a.63.63 0 0 1-.62-.62v-1.26c0-.34.28-.62.63-.62h1.24c.35 0 .63.28.63.63z"/><path fill="#ff4040" d="M12.25 7.88c0 .34-.28.62-.62.62h-1.26a.63.63 0 0 1-.62-.62V6.63c0-.35.28-.63.63-.63h1.24c.35 0 .63.28.63.63z"/><path fill="#ff4040" d="M12.25 7.88c0 .34-.28.62-.62.62h-1.26a.63.63 0 0 1-.62-.62V6.63c0-.35.28-.63.63-.63h1.24c.35 0 .63.28.63.63z"/><path fill="#ff4040" d="M12.25 11.63c0 .34-.28.62-.62.62h-1.26a.63.63 0 0 1-.62-.62v-1.26c0-.34.28-.62.63-.62h1.24c.35 0 .63.28.63.63z"/><path fill="#ff4040" d="M12.25 15.38c0 .34-.28.62-.62.62h-1.26a.63.63 0 0 1-.62-.62v-1.26c0-.34.28-.62.63-.62h1.24c.35 0 .63.28.63.63z"/><path fill="#ff4040" fill-rule="evenodd" d="m12.1 3.97.03-.5a3 3 0 0 0-.68-.26l-.03.5z" clip-rule="evenodd"/><path fill="#ff4040" fill-rule="evenodd" d="M8.83 3.22h.07l-.15-.46q-.32 0-.67.05l.13.44q.3-.03.62-.03" clip-rule="evenodd"/><path fill="#ff4040" fill-rule="evenodd" d="m5.96 4.01-.32-.52q-.26.14-.55.33l.33.52z" clip-rule="evenodd"/><path fill="#ff4040" fill-rule="evenodd" d="m3.3 6.25-.5-.47-.53.56.54.5z" clip-rule="evenodd"/><path fill="#ff4040" fill-rule="evenodd" d="m1.16 9.61-.8-.32-.36.9.81.32z" clip-rule="evenodd"/></svg>