<svg xmlns="http://www.w3.org/2000/svg" viewBox="0 0 16 16"><path fill="#e0e0e0" d="m15.63 8.13-1.76-1.76a1.3 1.3 0 0 0-.89-.37H9.75c-.69 0-1.25.56-1.25 1.25v7.5c0 .69.56 1.25 1.25 1.25h5c.69 0 1.25-.56 1.25-1.25V9.02q0-.51-.37-.89m-3.38-.25c0-.56.67-.84 1.07-.45l1.25 1.25c.4.4.11 1.07-.45 1.07h-1.24a.6.6 0 0 1-.63-.62zm1.88 6.87h-3.76c-.34 0-.62-.28-.62-.62s.28-.63.63-.63h3.74c.35 0 .63.28.63.63s-.28.62-.62.62m0-2.5h-3.76c-.34 0-.62-.28-.62-.62s.28-.63.63-.63h3.74c.35 0 .63.28.63.63s-.28.62-.62.62"/><path fill="#ff4040" fill-rule="evenodd" d="m12.1 3.97.03-.5a3 3 0 0 0-.68-.26l-.03.5z" clip-rule="evenodd"/><path fill="#ff4040" fill-rule="evenodd" d="M8.83 3.22h.07l-.15-.46q-.32 0-.67.05l.13.44q.3-.03.62-.03" clip-rule="evenodd"/><path fill="#ff4040" fill-rule="evenodd" d="m5.96 4.01-.32-.52q-.26.14-.55.33l.33.52z" clip-rule="evenodd"/><path fill="#ff4040" fill-rule="evenodd" d="m6.38 9.82.58.48q.03-.44.14-.88L6.6 9q-.14.42-.22.83" clip-rule="evenodd"/><path fill="#ff4040" fill-rule="evenodd" d="m3.3 6.25-.5-.47-.53.56.54.5z" clip-rule="evenodd"/><path fill="#ff4040" fill-rule="evenodd" d="m1.16 9.61-.8-.32-.36.9.81.32z" clip-rule="evenodd"/><path fill="#ff4040" fill-rule="evenodd" d="M6.28 11.73q.03.6.08.95l.85.32q-.1-.44-.17-.97z" clip-rule="evenodd"/><path fill="#ff4040" fill-rule="evenodd" d="m7.5 7.3-.1.1.1.15z" clip-rule="evenodd"/><path fill="#ff4040" fill-rule="evenodd" d="M7.57 6.72A2.25 2.25 0 0 1 9.75 5h3.23q.34 0 .64.1c-1.42-.91-3.35-1.76-5.37-1.55-2.06.2-4.58 2.2-6.06 4.83a14 14 0 0 0-1.7 4.86h5.58s-.85-4.15 1.5-6.52" clip-rule="evenodd"/></svg>