<svg xmlns="http://www.w3.org/2000/svg" viewBox="0 0 16 16"><path fill="#ff4040" d="M9.5 6.25A6.8 6.8 0 0 0 3 11.13a6.77 6.77 0 0 0 13 0 6.8 6.8 0 0 0-6.5-4.88m0 8.13a3.25 3.25 0 1 1 0-6.51 3.25 3.25 0 0 1 0 6.5"/><path fill="#ff4040" fill-rule="evenodd" d="m12.1 3.97.03-.5a3 3 0 0 0-.68-.26l-.03.5z" clip-rule="evenodd"/><path fill="#ff4040" fill-rule="evenodd" d="M8.83 3.22h.07l-.15-.46q-.32 0-.67.05l.13.44q.3-.03.62-.03" clip-rule="evenodd"/><path fill="#ff4040" fill-rule="evenodd" d="m5.96 4.01-.32-.52q-.26.14-.55.33l.33.52z" clip-rule="evenodd"/><path fill="#ff4040" fill-rule="evenodd" d="m3.3 6.25-.5-.47-.53.56.54.5z" clip-rule="evenodd"/><path fill="#ff4040" fill-rule="evenodd" d="m1.16 9.61-.8-.32-.36.9.81.32z" clip-rule="evenodd"/><path fill="#ff4040" fill-rule="evenodd" d="m2.04 11.4-.08-.28.08-.27a7.8 7.8 0 0 1 8.32-5.54c1.25-.19 3.05.07 5.4 1.91l.24-.2s-3.67-3.9-7.75-3.47c-2.06.2-4.58 2.2-6.06 4.83a14 14 0 0 0-1.7 4.86h2.37a8 8 0 0 1-.82-1.84" clip-rule="evenodd"/><circle cx="9.5" cy="11.13" r="1.63" fill="#ff4040"/></svg>