<svg xmlns="http://www.w3.org/2000/svg" viewBox="0 0 16 16"><path fill="#ff4040" fill-rule="evenodd" d="M13.55 13.24c-1.1.9-2.83.59-3.89-.7-1.05-1.27-1-3.04.08-3.94 1.1-.9 2.84-.59 3.9.69 1.04 1.28 1 3.04-.09 3.94" clip-rule="evenodd"/><path fill="#ff4040" fill-rule="evenodd" d="M2.57 13.25c-1.06-.87-1.1-2.59-.08-3.83 1.03-1.24 2.71-1.54 3.78-.67 1.07.88 1.1 2.6.08 3.83-1.02 1.25-2.71 1.55-3.78.67" clip-rule="evenodd"/><path fill="#6060ff" fill-rule="evenodd" d="M9.71 7.95C8.61 6.6 9 4.48 10.56 3.2s3.72-1.24 4.81.1c1.1 1.34.72 3.46-.84 4.75-1.56 1.27-3.72 1.23-4.82-.1" clip-rule="evenodd"/><path fill="#6060ff" fill-rule="evenodd" d="M6.29 7.93c1.1-1.34.72-3.47-.85-4.75s-3.72-1.24-4.81.1c-1.1 1.34-.72 3.46.84 4.75 1.56 1.27 3.72 1.23 4.82-.1" clip-rule="evenodd"/><path fill="#ff4040" fill-rule="evenodd" d="M2.7 5.95c-.6 0-1.1-.48-1.1-1.07S2.1 3.8 2.7 3.8s1.1.48 1.1 1.08-.5 1.07-1.1 1.07" clip-rule="evenodd"/><path fill="#6060ff" fill-rule="evenodd" d="M3.76 11.8c-.3-.24-.26-.8.1-1.26.37-.45.92-.6 1.23-.35s.25.81-.11 1.26c-.37.45-.92.6-1.22.35" clip-rule="evenodd"/><path fill="#6060ff" fill-rule="evenodd" d="M12.15 11.88c-.3.25-.85.09-1.21-.35-.37-.45-.42-1.02-.1-1.27.3-.25.84-.1 1.2.35.37.45.42 1.01.11 1.27" clip-rule="evenodd"/><path fill="#ff4040" fill-rule="evenodd" d="M11.5 7.25c-.52 0-.95-.44-.95-.97s.43-.97.96-.97.95.43.95.97-.43.97-.95.97" clip-rule="evenodd"/><path fill="#ffff40" fill-rule="evenodd" d="M8.02 11.13c-1.44 0-2.6-.93-2.6-2.08s1.16-2.08 2.6-2.08 2.6.93 2.6 2.08-1.17 2.08-2.6 2.08" clip-rule="evenodd"/><path fill="#ff4040" d="M8.27 10.51c-.3 0-.62-.1-.86-.24q-.46-.3-.43-.69l.3.04c-.03.19.18.34.28.4.35.21.84.27 1.05.12.04-.03.15-.11.09-.38v-.1h.29v.05c.08.39-.1.58-.21.67a1 1 0 0 1-.52.14z"/><path fill="#e0e0e0" fill-rule="evenodd" d="M6.23 9.02a1.04 1.04 0 0 1 0-2.08 1.04 1.04 0 0 1 0 2.08" clip-rule="evenodd"/><path d="M6.23 9.14c-.63 0-1.15-.52-1.15-1.15a1.16 1.16 0 0 1 2.31 0c0 .63-.52 1.15-1.16 1.15m0-2.08a.93.93 0 1 0 0 1.86.93.93 0 0 0 0-1.86"/><path fill="#e0e0e0" fill-rule="evenodd" d="M9.68 9.02c-.58 0-1.05-.47-1.05-1.03s.47-1.04 1.05-1.04a1.04 1.04 0 1 1 0 2.07" clip-rule="evenodd"/><path d="M9.68 9.14c-.64 0-1.16-.52-1.16-1.15a1.16 1.16 0 0 1 2.31 0c0 .63-.52 1.15-1.15 1.15m0-2.08a.93.93 0 1 0-.14 1.85.93.93 0 0 0 .14-1.85"/><path fill-rule="evenodd" d="M6.26 8.5a.52.52 0 0 1 0-1.04.52.52 0 1 1 0 1.04" clip-rule="evenodd"/><path fill-rule="evenodd" d="M9.72 8.44a.52.52 0 0 1 0-1.03.52.52 0 1 1 0 1.03" clip-rule="evenodd"/><path fill="#40ff40" d="M14.85 4.83a2 2 0 0 0-1.87-.74l-.4.08v.35l.4.07q.56.1.95.56c.5.63.49 1.5-.05 1.94q-.22.18-.51.23l-.8.15v.2l.8.15c.48.1.99-.03 1.37-.34.37-.32.59-.77.6-1.26 0-.5-.17-1-.49-1.38"/><path fill="#40ff40" d="M6.13 4.76c-.22-.69-.8-1.2-1.5-1.34l-.41-.07-.12.33.36.2q.49.3.7.86c.26.76-.06 1.57-.71 1.8q-.27.1-.56.05l-.8-.14-.07.2.7.4c.42.25.93.3 1.4.15.46-.17.82-.52 1-.98s.18-.98.01-1.47"/></svg>