<svg xmlns="http://www.w3.org/2000/svg" viewBox="0 0 16 16"><path fill="#40ffff" d="M15.15 13.7q0 .56-.1 1a2 2 0 0 0 .94-1.61q-.36.34-.84.61"/><path fill="#40ffff" d="M14 3H8L6.59 1.59A2 2 0 0 0 5.17 1H2a2 2 0 0 0-2 2v10c0 1.1.9 2 2 2h3.96q-.17-.54-.17-1.3c-1.19-.68-1.85-1.63-1.85-2.7s.66-2.02 1.85-2.7c-.02-1.83.85-2.63 1.41-2.96.57-.32 1.7-.68 3.27.26 1.58-.94 2.7-.58 3.26-.26.56.33 1.44 1.13 1.42 2.96q.48.28.85.62V5a2 2 0 0 0-2-2"/><circle cx="10.53" cy="11" r="1.01" fill="#40ffff"/><path fill="#40ffff" d="M16 11c0-.86-.73-1.6-1.9-2.1l.02-.14c.13-1.24-.19-2.15-.89-2.55s-1.63-.22-2.64.5l-.12.1-.12-.1c-1-.72-1.95-.9-2.65-.5s-1 1.3-.88 2.55l.02.13c-1.18.5-1.9 1.25-1.9 2.11s.72 1.6 1.9 2.1l-.02.14c-.13 1.24.19 2.15.88 2.55q.37.21.82.21.84 0 1.83-.71l.12-.1.12.1q.99.7 1.83.71.45 0 .81-.21c.7-.4 1.02-1.3.9-2.55l-.03-.13c1.17-.5 1.9-1.25 1.9-2.11m-3.58-4.05q.2 0 .34.08c.33.2.49.77.42 1.55q-.54-.14-1.18-.23a9 9 0 0 0-.8-.9q.7-.5 1.22-.5m.52 5.26.08.26-.27.07.1-.17zm-.91-.3q-.26.43-.55.84a11 11 0 0 1-2.02 0A11 11 0 0 1 8.45 11a11 11 0 0 1 1-1.75 11 11 0 0 1 2.03 0A11 11 0 0 1 12.49 11q-.2.45-.46.9m-1.56 2.03-.19-.2.19.01h.18zm-2.38-1.57.1.17-.27-.07.08-.26zM8 9.8l-.08-.26.27-.07-.1.17zm2.47-1.73.18.2h-.37zm2.38 1.57-.1-.17.27.07-.08.26zm-4.67-2.6q.14-.08.34-.08.51 0 1.22.5-.41.4-.8.9-.63.09-1.19.23c-.06-.78.1-1.36.43-1.55M5.88 11c0-.4.43-.81 1.15-1.15q.15.57.4 1.15-.24.58-.4 1.15C6.31 11.8 5.9 11.4 5.9 11m2.3 3.97c-.34-.2-.5-.77-.43-1.55q.56.14 1.2.23.37.5.79.9c-.65.45-1.23.61-1.56.42m4.58 0c-.34.2-.92.03-1.56-.42q.4-.4.8-.9.64-.09 1.18-.23c.07.78-.09 1.36-.42 1.55m1.15-2.82q-.15-.57-.4-1.15.24-.58.4-1.15c.71.34 1.14.75 1.14 1.15s-.43.81-1.14 1.15"/></svg>