<svg xmlns="http://www.w3.org/2000/svg" viewBox="0 0 16 16"><path fill="#40ffff" d="M5.21 13.84a1 1 0 0 1-.52-.1c-.49-.28-.71-1.12-.62-2.24q.8.21 1.72.33.26.34.53.65l1.82-1.88H8q-.76 0-1.46-.07A15 15 0 0 1 5.07 8a16 16 0 0 1 1.47-2.53q.7-.08 1.46-.08h.07q.44-.37 1.05-.39h3.76c.9 0 1.62.73 1.62 1.63q-.01.36-.17.67.3.35.3.7c0 .52-.51 1.06-1.38 1.52v.45l.7.73C15.24 10 16 9.06 16 8c0-1.25-1.05-2.33-2.75-3.05l.03-.2c.18-1.79-.27-3.1-1.28-3.68S9.63.75 8.17 1.8L8 1.93l-.17-.13C6.37.75 5.01.5 4 1.07c-1 .58-1.46 1.9-1.28 3.68q0 .1.03.2C1.05 5.67 0 6.75 0 8s1.05 2.33 2.75 3.05l-.03.2c-.18 1.79.27 3.1 1.28 3.68q.49.26 1.08.29-.15-.72.13-1.38m-.9-3.71.12-.38.13.24.14.24zM4.57 6l-.13.24-.11-.38.38-.1zm6.26-3.87q.29 0 .5.12c.48.28.7 1.12.6 2.24q-.8-.21-1.7-.33-.57-.72-1.16-1.31a3.4 3.4 0 0 1 1.76-.72M8 3.74l.27.29h-.54zM4.69 2.27q.2-.12.49-.12c.48 0 1.1.25 1.76.72q-.6.6-1.15 1.3-.9.13-1.72.34c-.1-1.12.13-1.96.62-2.24m-1.66 7.4C1.99 9.17 1.37 8.57 1.37 8S2 6.83 3.03 6.34q.22.82.57 1.66-.35.84-.57 1.66"/><path fill="#40ffff" d="M8 9.46q.42 0 .75-.21V8.21A1.6 1.6 0 0 1 7.5 6.63 1.46 1.46 0 0 0 8 9.46"/><path fill="#40ffff" d="m15.63 13.87-3.38-3.5V7.26h.63c.34 0 .62-.28.62-.62S13.22 6 12.88 6H9.12a.63.63 0 0 0 .01 1.25h.62v3.13l-3.38 3.49c-.79.78-.23 2.13.88 2.13h7.5c1.11 0 1.67-1.35.88-2.13"/></svg>