<svg xmlns="http://www.w3.org/2000/svg" viewBox="0 0 16 16"><path fill="#40a0ff" d="M8 0a8 8 0 1 0 0 16A8 8 0 0 0 8 0M4.36 8.78 3.57 8l.79-.78.78.78zm1.52-1.56-.78-.79.78-.78.78.78zm1.56-3.13.79-.79.78.79-.78.78zm5.9 8.74-.34.34q-.25.25-.66.25c-.4 0-.49-.09-.65-.25l-2.04-2.04a.9.9 0 0 1-.21-1l-.4-.45a1 1 0 0 1 0-1.38l2.42-2.42L10.6 5l-.18.18-.12-.17-.57-.57.18-.18a1 1 0 0 1 1.4 0l.9.92c.41.4.41.99 0 1.4L9.8 9.03l.32.33a.9.9 0 0 1 1.2.1l2.03 2c.36.42.36 1 0 1.36"/><path fill="#40a0ff" d="M10.32 10.42v.07l2.03 2.02.38-.37-2.06-2.02z"/><path fill="#40ffff" d="m10.35 5.09-.56-.56c-.18-.22-.48-.22-.7 0l-4.4 4.39a.47.47 0 0 0 0 .65l.61.6c.18.18.48.18.66 0l4.39-4.39c.17-.21.17-.52 0-.7"/><path fill="#40ffff" d="m7.49 4.13.78-.78-.78-.79-.78-.78-.79.78.74.74-.78.79.78.78.78-.78z"/><path fill="#40ffff" d="m2.79 7.22.78-.79.79.79-.79.78z"/><path fill="#40ffff" d="m5.1 6.43.78-.78-.78-.78-.79-.74-.78.74.78.78z"/><path fill="#40ffff" d="m5.88 5.65.79-.78.78.78-.78.79z"/><path fill="#40ffff" d="m4.36 7.21.78-.78.79.78-.79.79z"/><path fill="#40ffff" d="m1.23 5.65.79-.78.78.78-.78.78z"/><path fill="#40ffff" d="m3.57 3.35.78-.79.79.79-.79.78z"/></svg>