<svg xmlns="http://www.w3.org/2000/svg" viewBox="0 0 16 16"><path fill="#6060ff" d="M14 3H8L6.59 1.59A2 2 0 0 0 5.17 1H2a2 2 0 0 0-2 2v10c0 1.1.9 2 2 2h1.61l-.04-.43V7.43A2.43 2.43 0 0 1 6 5h2.27c.64 0 1.25.25 1.71.71l.72.72h3.87q.82.02 1.43.47V5a2 2 0 0 0-2-2"/><path fill="#6060ff" d="M14.57 7.43H10.3L9.28 6.42A1.4 1.4 0 0 0 8.27 6H6c-.79 0-1.43.64-1.43 1.43v7.14c0 .79.64 1.43 1.43 1.43h8.57c.79 0 1.43-.64 1.43-1.43V8.86c0-.8-.64-1.43-1.43-1.43M11 13.86H7.43a.7.7 0 0 1-.72-.72c0-.39.33-.71.72-.71H11c.4 0 .71.32.71.71 0 .4-.32.72-.71.72M13.14 11H7.43a.7.7 0 0 1-.72-.71c0-.4.33-.72.72-.72h5.71a.72.72 0 1 1 0 1.43"/></svg>