<svg xmlns="http://www.w3.org/2000/svg" viewBox="0 0 16 16"><circle cx="8" cy="8.01" r="6.49" fill="#40ffa0"/><circle cx="8" cy="8.01" r="3.25" fill="#ff4040"/><path fill="#6060ff" d="M14.64 3.71 8.4.11a.8.8 0 0 0-.8 0l-6.24 3.6a.8.8 0 0 0-.4.7v7.2c0 .3.15.5.4.7L7.6 15.9l.4.1c.15 0 .3 0 .4-.1l6.24-3.6a.8.8 0 0 0 .4-.7V4.4a.8.8 0 0 0-.4-.69m-8.39-1 1.7-1h.1l4.45 2.55c.1.05.1.2 0 .25l-1.65 1h-.15l-1.5-.9.2-.1c.1 0 .1-.2 0-.25L8 3.56h-.15l-.3.15-1.3-.7a.15.15 0 0 1 0-.25zm4.5 4.85V9.1l-.35.2-.05.15v.34L9 10.6c-.1 0-.2 0-.2-.15v-1.9l.05-.14 1.7-1c.05 0 .2 0 .2.15M4.5 8.66l-.2-.1a.15.15 0 0 0-.2.15v1.5l.05.1.35.2V12c0 .14-.15.2-.25.14l-1.65-1s-.1 0-.1-.1V6.01c0-.1.15-.2.25-.15l1.65 1 .1.1zm-1-4.15a.15.15 0 0 1 0-.25l1.7-1h.15l1.5.9-.2.1c-.1.05-.1.2 0 .25l.15.1-1.5.85h-.1zm3.7 9.1c0 .1-.1.2-.2.14l-1.65-1-.1-.1V10.9l.15.1c.1.1.25 0 .25-.1v-.2l1.5.85.05.15zm-.2-3-1.35-.8v-.35L5.6 9.3l-.35-.2V7.6c0-.15.15-.2.2-.15l1.7.95.05.1v2c0 .1-.1.2-.2.14zm1.05-3.55H8l-1.7-1a.15.15 0 0 1 0-.2l1.35-.8.3.2h.15l.35-.2 1.35.8c.1 0 .1.2 0 .25L8 7zm5.4 4-.05.14L9 13.7c-.1.1-.25 0-.25-.1v-1.9c0-.05 0-.1.1-.15l1.5-.85v.2c0 .1.1.15.2.1l1.25-.7.1-.15V9.8l1.35-.8c.1 0 .2 0 .2.16zm0-3.15-.05.15-1.5.85v-.2c0-.1-.15-.2-.25-.1l-.15.05V7c0-.05 0-.1.1-.1l1.65-1c.1 0 .2 0 .2.15v1.9z"/></svg>