<svg xmlns="http://www.w3.org/2000/svg" viewBox="0 0 16 16"><path fill="#a0a0a0" d="M14 3H8L6.59 1.59A2 2 0 0 0 5.17 1H2a2 2 0 0 0-2 2v10c0 1.1.9 2 2 2h4.57a6 6 0 0 1-1.5-3.15 1.6 1.6 0 0 1 .54-1.46A1.6 1.6 0 0 1 5 9.12v-2.5a1.63 1.63 0 0 1 3.02-.83A6 6 0 0 1 16 7.7V5a2 2 0 0 0-2-2"/><path fill="#a0a0a0" d="M15.9 9.98A4.98 4.98 0 0 0 7.25 7.7V6.62c0-.34-.28-.62-.62-.62S6 6.28 6 6.63v2.5c0 .34.28.62.63.62h2.5a.62.62 0 1 0 0-1.25h-.9a3.73 3.73 0 0 1 6.5 2.05 3.75 3.75 0 0 1-7.44.98.6.6 0 0 0-.62-.53.63.63 0 0 0-.62.71 5 5 0 1 0 9.85-1.73"/><circle cx="11" cy="11" r="1.25" fill="#a0a0a0"/></svg>