<svg xmlns="http://www.w3.org/2000/svg" viewBox="0 0 16 16"><path fill="#ffff40" d="M14.41 7.04q.9.75 1.57 1.73a2 2 0 0 0-1.57-1.73"/><path fill="#ffff40" d="M15 3H8L6.59 1.59A2 2 0 0 0 5.17 1H2a2 2 0 0 0-2 2v10c0 1.1.9 2 2 2h2.33a8 8 0 0 1-2.04-2.87L2 13V7c0-1.1.9-2 2-2h11c.55 0 1-.45 1-1s-.45-1-1-1"/><path fill="#ffff40" d="M14.9 14.78a2 2 0 0 0 1-1.2q-.45.66-1 1.2"/><circle cx="9.5" cy="11.13" r="1.63" fill="#ffff40"/><path fill="#ffff40" d="M9.5 6.25A6.8 6.8 0 0 0 3 11.13a6.77 6.77 0 0 0 13 0 6.8 6.8 0 0 0-6.5-4.88m0 8.13a3.25 3.25 0 1 1 0-6.51 3.25 3.25 0 0 1 0 6.5"/></svg>