<svg xmlns="http://www.w3.org/2000/svg" viewBox="0 0 16 16"><path fill="#ff4040" d="M4.47 10.43c0 .1-.07.08-.13.08h-1.1a.2.2 0 0 1-.19-.1L1.4 7.67a.4.4 0 0 1-.04-.22v-1.3a.3.3 0 0 1 .14-.25l.66-.4q.2-.1.07-.27-.3-.48-.58-.97c-.1-.2-.25-.16-.4-.14s-.08.16-.08.25v5.79c0 .32 0 .32-.34.32H.2c-.15.01-.2-.02-.2-.18V3.12q-.01-.2.18-.18h1.96q.16 0 .25.15L4 5.72c0 .11-.1.13-.17.17q-.67.4-1.34.77c-.18.1-.15.18-.07.31l1.07 1.8z"/><path fill="#ff4040" d="m7.53 9.91-.1.14c-.12.37-.37.47-.76.44-.59-.03-1.18 0-1.77 0-.09 0-.18.01-.24-.06l-.04-.09-1.98-3.3c-.1-.15-.09-.22.08-.31L4 6.02q.15-.1.33-.09H7q.18-.01.27.14.35.63.74 1.22c.14.2.08.28-.1.4q-1.2.66-2.4 1.37c-.07.03-.16.04-.14.13.02.1.11.1.2.1h.53q.22.03.19-.2c0-.1-.02-.2.1-.28q.67-.37 1.39-.8c-.1.66.15 1.32-.25 1.9M6.27 7.19l-.01-.03H4.13l.5.84c.06.1.12.06.18.03z"/><path fill="#ff4040" d="m11.09 7.09-.52.97c-.07.13-.02.23.05.34l1.27 2.08h-1.38c-.08 0-.1-.08-.12-.13l-.83-1.34-.73 1.28a.3.3 0 0 1-.35.2q-.54-.02-1.1-.01c.07-.22.25-.37.3-.57l.93-1.6a.3.3 0 0 0 0-.35q-.6-.98-1.2-2c.11-.06.24 0 .35-.05q.42.02.86.01.23-.01.34.2l.58.9c.07.1.12.15.2 0l.6-1.03a.1.1 0 0 1 .1 0l.06.1q.32.48.59 1"/><path fill="#ff4040" d="M15.76 5.1q.1-.16.24-.32V2.33c-.11-.03-.14.06-.18.12l-.39.67-1.54 2.6-.07.1c-.17.41-.45.76-.65 1.15l-.21.36-.84-1.29c-.05-.07-.08-.12-.18-.12h-1.25q-.1-.02-.1.08.38.48.65 1.03l.67 1.05q.08.14-.01.26l-.46.8c-.03.05-.1.09-.05.16l.72 1.15.84-1.4 1.14 1.9.56.92.05.07q.3.53.63 1.04l.2.34q.16.28.47.36V11.6l-1.16-1.88-.8-1.35a.3.3 0 0 1-.02-.32z"/></svg>