<svg xmlns="http://www.w3.org/2000/svg" viewBox="0 0 16 16"><path fill="#40ffff" d="M8.79 13.03q.1-.2.24-.4l-.69.13c-.5.06-.96.19-1.32.29a1.5 1.5 0 0 1-.7.1 1.56 1.56 0 0 1-1.43-1.68v-.91C4.89 7.49 7.39 5 10.44 5H16a2 2 0 0 0-2-2H8L6.59 1.59A2 2 0 0 0 5.17 1H2a2 2 0 0 0-2 2v10c0 1.1.9 2 2 2h6.91a2.2 2.2 0 0 1-.12-1.97"/><path fill="#40ffff" d="M5.89 10.56v1a.56.56 0 0 0 .78.55c.39-.11.94-.28 1.5-.33 5-.9 4.22-1.28 3.83-1.5-.39-.28-1.06-.84 1-1.22 1.06-.23 2.17-.34 3-.4V6h-5.56a4.56 4.56 0 0 0-4.55 4.56"/><path fill="#6060ff" d="M15.44 9.28c-3.22.83 1 1.6-2.05 2.5-1.33.33-4.67.83-3.56 2.83A3.6 3.6 0 0 0 12.4 16c3.33-.78 3.78-3.89 3.55-6.89l-.55.17z"/></svg>