<svg xmlns="http://www.w3.org/2000/svg" viewBox="0 0 16 16"><path fill="#40ffa0" d="M14.95 7.25c.38.43.62.99.62 1.6v.65q.24.11.43.27V9a2 2 0 0 0-1.05-1.75"/><path fill="#40ffa0" d="M5 14.57v-.64A2.43 2.43 0 0 1 5 9.5v-.64c0-.75.35-1.41.88-1.86h-.44a2 2 0 0 0-1.9 1.37L2 13V7c0-1.1.9-2 2-2h11c.55 0 1-.45 1-1s-.45-1-1-1H8L6.59 1.59A2 2 0 0 0 5.17 1H2a2 2 0 0 0-2 2v10c0 1.1.9 2 2 2h3.04z"/><path fill="#40ffa0" d="M15.57 14.22q.17-.21.28-.47-.13.1-.28.18z"/><path fill="#40ffa0" d="M14.57 10.29V8.86c0-.79-.64-1.43-1.43-1.43h-1.43a1.43 1.43 0 1 0-2.85 0H7.43C6.64 7.43 6 8.07 6 8.86v1.43a1.43 1.43 0 1 0 0 2.85v1.43c0 .79.64 1.43 1.43 1.43h5.71c.79 0 1.43-.64 1.43-1.43v-1.43a1.43 1.43 0 1 0 0-2.85m-7.14.35a1.07 1.07 0 1 1 2.14 0 1.07 1.07 0 0 1-2.14 0m4.28 3.93H8.86a.7.7 0 0 1-.72-.71c0-.4.32-.72.72-.72h2.85a.72.72 0 1 1 0 1.43m.36-2.86a1.07 1.07 0 1 1 0-2.14 1.07 1.07 0 0 1 0 2.14"/></svg>