<svg xmlns="http://www.w3.org/2000/svg" viewBox="0 0 16 16"><path fill="#6060ff" d="M14 3H8L6.59 1.59A2 2 0 0 0 5.17 1H2a2 2 0 0 0-2 2v10c0 1.1.9 2 2 2h4.91l-.04-.25V9.13a2.26 2.26 0 0 1 2.26-2.26h.11a2.88 2.88 0 0 1 5.4 0h.11q.7.02 1.25.39V5a2 2 0 0 0-2-2"/><path fill="#6060ff" d="M14.75 7.88h-.94a1.88 1.88 0 0 0-3.75 0h-.94c-.68 0-1.24.56-1.24 1.25v5.62c0 .69.56 1.25 1.25 1.25h5.62c.69 0 1.25-.56 1.25-1.25V9.13c0-.7-.56-1.26-1.25-1.26m-2.81-.63a.63.63 0 1 1 0 1.25.63.63 0 0 1 0-1.25m0 1.88a1.4 1.4 0 1 1 0 2.8 1.4 1.4 0 0 1 0-2.8m2.1 5.62h-4.2c-.8 0-.98-1.12-.22-1.37l2.1-.7a.7.7 0 0 1 .45 0l2.1.7c.77.25.58 1.37-.21 1.37"/></svg>