<svg xmlns="http://www.w3.org/2000/svg" viewBox="0 0 16 16"><path fill="#ff4040" d="M11.38 10.17a.24.24 0 0 1 .1-.33 5.27 5.27 0 0 0 1.96-7.16l-.1-.18A5.3 5.3 0 0 0 8.94 0h-6.4q-.23.02-.25.24v15.1h.34v.53h11.24c.18 0 .3-.19.22-.35z"/><path fill="#ffa040" d="M10.83 3.37q0-.02-.02-.03L9.7 4.94c-.52-.6-.88-1.45-.53-2.27.63-1.45 3.13-1.18 4.29 0l-.11-.17-.15-.15.07.05q-.14-.14-.29-.26l-.24-.22q-.2-.14-.41-.25l-.25-.14q-.24-.1-.5-.17l-.22-.07q-.37-.09-.76-.09c-1.96 0-2.46.7-6.23 7.63-3.14 5.78-2.56 6.46-2.18 6.88l.17.15-.02-.05c.36.26.9.23 1.25.04.17-.1.78-1.18 1.64-2.57a54 54 0 0 1 2.6-3.85 16 16 0 0 1 2.72-2.77C12 5.43 12 5.57 10.82 3.34z"/></svg>