<svg xmlns="http://www.w3.org/2000/svg" viewBox="0 0 16 16"><path fill="#6060ff" d="m8.92 14.84-1.77-1.76a1.63 1.63 0 0 1 0-2.3L8.92 9c.36-.35.84-.5 1.3-.47-.04-.46.12-.94.47-1.3l.24-.24H5.44a2 2 0 0 0-1.9 1.37L2 13V7c0-1.1.9-2 2-2h11c.55 0 1-.45 1-1s-.45-1-1-1H8L6.59 1.59A2 2 0 0 0 5.17 1H2a2 2 0 0 0-2 2v10c0 1.1.9 2 2 2h7.11z"/><path fill="#6060ff" d="M15.23 14.56c.47-.36.77-.92.77-1.56V9.88q-.36.16-.77.13z"/><path fill="#6060ff" d="M11.03 15h.95v-1.19a.25.25 0 0 0-.25-.25h-.04v.14c0 .43-.16.84-.47 1.14z"/><path fill="#6060ff" d="m15.82 7.95-1.77-1.77a.6.6 0 0 0-.88 0L11.4 7.95a.62.62 0 1 0 .88.88l.7-.7v3.53q-.56-.34-1.25-.35H9.81l.7-.7a.62.62 0 1 0-.88-.9L7.86 11.5a.6.6 0 0 0 0 .88l1.77 1.77a.62.62 0 1 0 .88-.89l-.7-.69h1.92c.7 0 1.25.56 1.25 1.25v1.57a.62.62 0 1 0 1.25 0V8.13l.7.7a.62.62 0 1 0 .89-.88"/></svg>