<svg xmlns="http://www.w3.org/2000/svg" viewBox="0 0 16 16"><path fill="#ff4040" fill-rule="evenodd" d="M11.98 15.38V13.8a.25.25 0 0 0-.25-.25h-.04v.14a1.62 1.62 0 0 1-2.77 1.14l-1.77-1.76a1.63 1.63 0 0 1 0-2.3L8.92 9c.36-.35.84-.5 1.3-.47-.04-.46.12-.94.47-1.3l1.77-1.76a1.63 1.63 0 0 1 2.3 0l1 1L16 3.24c0-.4 0-.75-.1-1.15-.3-1.1-1.1-1.8-2.5-2S9.05.1 9.05.1L5.5 1.3 2.2 4.4c-.1 0-1.4 2.55-2 3.75L0 12.8c.1 3.05 2.3 3.15 3.25 3.2.62.04 5.44-.31 8.74-.56z" clip-rule="evenodd"/><path fill="#ff4040" fill-rule="evenodd" d="m15.5 10-.27.01v3.42z" clip-rule="evenodd"/><path fill="#ff4040" d="m15.82 7.95-1.77-1.77a.6.6 0 0 0-.88 0L11.4 7.95a.62.62 0 1 0 .88.88l.7-.7v3.53q-.56-.34-1.25-.35H9.81l.7-.7a.62.62 0 1 0-.88-.9L7.86 11.5a.6.6 0 0 0 0 .88l1.77 1.77a.62.62 0 1 0 .88-.89l-.7-.69h1.92c.7 0 1.25.56 1.25 1.25v1.57a.62.62 0 1 0 1.25 0V8.13l.7.7a.62.62 0 1 0 .89-.88"/></svg>