<svg xmlns="http://www.w3.org/2000/svg" viewBox="0 0 16 16"><path fill="#ff4040" fill-rule="evenodd" d="M3.57 14.57V7.43A2.43 2.43 0 0 1 6 5h7.14c1.25 0 2.28.95 2.42 2.16l.14.05.3-3.97c0-.4 0-.75-.1-1.15-.3-1.1-1.1-1.8-2.5-2S9.05.1 9.05.1L5.5 1.3 2.2 4.4c-.1 0-1.4 2.55-2 3.75L0 12.8c.1 3.05 2.3 3.15 3.25 3.2q.2.01.78-.02a2.4 2.4 0 0 1-.46-1.4" clip-rule="evenodd"/><path fill="#ff4040" d="M9.57 10.29c0 .39-.32.71-.71.71H7.43a.7.7 0 0 1-.72-.71V8.86c0-.4.33-.72.72-.72h1.43c.39 0 .71.32.71.72z"/><path fill="#ff4040" d="M9.57 13.14c0 .4-.32.72-.71.72H7.43a.7.7 0 0 1-.72-.72v-.71c0-.4.33-.72.72-.72h1.43c.39 0 .71.33.71.72z"/><path fill="#ff4040" d="M12.43 13.14c0 .4-.32.72-.72.72H11a.7.7 0 0 1-.71-.72v-1.43c0-.39.32-.71.71-.71h.71c.4 0 .72.32.72.71z"/><path fill="#ff4040" d="M12.43 9.57c0 .4-.32.72-.72.72H11a.7.7 0 0 1-.71-.72v-.71c0-.4.32-.72.71-.72h.71c.4 0 .72.32.72.72z"/><path fill="#ff4040" d="M15.29 11.71c.39 0 .71-.32.71-.71s-.32-.71-.71-.71h-.72v-.72h.72a.71.71 0 0 0 0-1.43h-.72v-.71c0-.79-.64-1.43-1.43-1.43H6c-.79 0-1.43.64-1.43 1.43v7.14c0 .79.64 1.43 1.43 1.43h7.14c.8 0 1.43-.64 1.43-1.43v-.71h.72a.72.72 0 0 0 0-1.43h-.72v-.72zm-2.86 2.86H6.7a.7.7 0 0 1-.71-.71V8.14c0-.4.32-.71.71-.71h5.72c.4 0 .71.32.71.71v5.72a.7.7 0 0 1-.71.71"/></svg>