<svg xmlns="http://www.w3.org/2000/svg" viewBox="0 0 16 16"><path fill="#ff4040" fill-rule="evenodd" d="M6.25 10.3a5.4 5.4 0 0 1 5.3-5.3c1.45 0 2.82.53 3.85 1.55q.18.19.32.39l.28-3.7c0-.4 0-.75-.1-1.15-.3-1.1-1.1-1.8-2.5-2S9.05.1 9.05.1L5.5 1.3 2.2 4.4c-.1 0-1.4 2.55-2 3.75L0 12.8c.1 3.05 2.3 3.15 3.25 3.2.52.03 3.95-.2 7-.43a5.4 5.4 0 0 1-4-5.25" clip-rule="evenodd"/><path fill="#ff4040" d="M11.56 6a4.38 4.38 0 0 0-.09 8.76q.15.01.16.15v.77c0 .18.15.34.32.32 2.27-.22 4.05-2.65 4.05-5.62 0-2.44-2-4.41-4.44-4.38m.69 7.19c0 .17-.14.31-.31.31h-.63a.3.3 0 0 1-.31-.31v-.63c0-.17.14-.31.31-.31h.63c.17 0 .31.14.31.31zm-.62-1.56h-.32a.3.3 0 0 1-.31-.32v-.62c0-.17.14-.31.31-.31h.31a.94.94 0 1 0-.9-1.17.3.3 0 0 1-.3.23h-.64a.32.32 0 0 1-.31-.38 2.2 2.2 0 0 1 4.28-.14 2.2 2.2 0 0 1-2.12 2.7"/></svg>