<svg xmlns="http://www.w3.org/2000/svg" viewBox="0 0 16 16"><path fill="#ff4040" fill-rule="evenodd" d="M5.87 15.65a1.7 1.7 0 0 1-.87-1.5v-1.1q0-.46.28-.82-.27-.41-.28-.93v-1.1q.01-.54.35-.91A2 2 0 0 1 5 8.14C5 6.08 8.02 5 11 5c1.81 0 3.63.4 4.78 1.18L16 3.24c0-.4 0-.75-.1-1.15-.3-1.1-1.1-1.8-2.5-2S9.05.1 9.05.1L5.5 1.3 2.2 4.4c-.1 0-1.4 2.55-2 3.75L0 12.8c.1 3.05 2.3 3.15 3.25 3.2.29.02 1.47-.05 2.98-.15z" clip-rule="evenodd"/><path fill="#ff4040" d="M16 14.16a.7.7 0 0 1-.36.62 9.5 9.5 0 0 1-9.28 0 .7.7 0 0 1-.36-.62v-1.11c0-.27.28-.45.52-.32a9.5 9.5 0 0 0 8.95 0c.24-.12.53.04.53.3z"/><path fill="#ff4040" d="M16 11.3a.7.7 0 0 1-.36.63 9.5 9.5 0 0 1-9.28 0A.7.7 0 0 1 6 11.3v-1.1c0-.27.28-.45.52-.32a9.5 9.5 0 0 0 8.95 0c.24-.12.53.04.53.31z"/><ellipse cx="11" cy="8.14" fill="#ff4040" rx="5" ry="2.14"/></svg>