<svg xmlns="http://www.w3.org/2000/svg" viewBox="0 0 16 16"><path fill="#ff4040" fill-rule="evenodd" d="M5 14.75v-5C5 8.51 6 7.5 7.25 7.5h.25v-.25C7.5 6.01 8.5 5 9.75 5h2.5a2.25 2.25 0 0 1 2.25 2.25v.25h.25q.5.02.91.22L16 3.24c0-.4 0-.75-.1-1.15-.3-1.1-1.1-1.8-2.5-2S9.05.1 9.05.1L5.5 1.3 2.2 4.4c-.1 0-1.4 2.55-2 3.75L0 12.8c.1 3.05 2.3 3.15 3.25 3.2.23.02 1.02-.02 2.08-.09q-.31-.52-.33-1.15" clip-rule="evenodd"/><path fill="#ff4040" d="M14.75 8.5H13.5V7.25c0-.69-.56-1.25-1.25-1.25h-2.5c-.69 0-1.25.56-1.25 1.25V8.5H7.25C6.56 8.5 6 9.06 6 9.75v5c0 .69.56 1.25 1.25 1.25h7.5c.69 0 1.25-.56 1.25-1.25v-5c0-.69-.56-1.25-1.25-1.25m-4.37-1.25h1.24c.35 0 .63.28.63.63v.62h-2.5v-.62c0-.35.28-.63.63-.63"/></svg>