<svg xmlns="http://www.w3.org/2000/svg" viewBox="0 0 16 16"><path fill="#ff4040" fill-rule="evenodd" d="M5 14.75v-1.87c0-.79.4-1.48 1.01-1.88C5.41 10.6 5 9.9 5 9.13V7.25C5 6.01 6 5 7.25 5h7.5q.6.01 1.1.3L16 3.25c0-.4 0-.75-.1-1.15-.3-1.1-1.1-1.8-2.5-2S9.05.1 9.05.1L5.5 1.3 2.2 4.4c-.1 0-1.4 2.55-2 3.75L0 12.8c.1 3.05 2.3 3.15 3.25 3.2.23.02 1.02-.02 2.08-.09q-.31-.52-.33-1.15" clip-rule="evenodd"/><path fill="#ff4040" d="M14.75 11.63h-7.5c-.69 0-1.25.56-1.25 1.24v1.88c0 .69.56 1.25 1.25 1.25h7.5c.69 0 1.25-.56 1.25-1.25v-1.87c0-.7-.56-1.26-1.25-1.26m-6.56 3.12a.94.94 0 1 1 0-1.87.94.94 0 0 1 0 1.87"/><path fill="#ff4040" d="M14.75 6h-7.5C6.56 6 6 6.56 6 7.25v1.88c0 .68.56 1.24 1.25 1.24h7.5c.69 0 1.25-.56 1.25-1.24V7.25C16 6.56 15.44 6 14.75 6M8.19 9.13a.94.94 0 1 1 0-1.88.94.94 0 0 1 0 1.88"/></svg>