<svg xmlns="http://www.w3.org/2000/svg" viewBox="0 0 16 16"><path fill="#ff4040" d="m5 14.03.13-3.2.1-.19c.99-1.98 1.3-2.61 1.65-2.8L7.77 7H5.44a2 2 0 0 0-1.9 1.37L2 13V7c0-1.1.9-2 2-2h11c.55 0 1-.45 1-1s-.45-1-1-1H8L6.59 1.59A2 2 0 0 0 5.17 1H2a2 2 0 0 0-2 2v10c0 1.1.9 2 2 2h3.14a4 4 0 0 1-.15-.97"/><path fill="#ff4040" fill-rule="evenodd" d="M15.94 7.3q-.27-1.04-1.57-1.24c-.87-.13-2.72 0-2.72 0l-2.22.75-2.06 1.93c-.06 0-.88 1.6-1.25 2.35l-.13 2.9c.07 1.91 1.44 1.98 2.04 2 .6.04 7.4-.5 7.4-.5L16 8.04q.02-.36-.06-.72" clip-rule="evenodd"/></svg>