<svg xmlns="http://www.w3.org/2000/svg" viewBox="0 0 16 16"><path fill="#ff4040" fill-rule="evenodd" d="M2.28 15.55a2.6 2.6 0 0 1 .25-2.75l2.43-3.25a2.6 2.6 0 0 1 2.86-.94l.96-1.9a2.6 2.6 0 0 1 2.34-1.46c1 0 1.9.56 2.35 1.45l1.97 3.94.56-7.4c0-.4 0-.75-.1-1.15-.3-1.1-1.1-1.8-2.5-2S9.05.1 9.05.1L5.5 1.3 2.2 4.4c-.1 0-1.4 2.55-2 3.75L0 12.8c.08 2.43 1.5 2.99 2.54 3.14q-.15-.17-.26-.38" clip-rule="evenodd"/><path fill="#ff4040" d="m15.83 13.65-3.25-6.5a1.62 1.62 0 0 0-2.9 0l-.63 1.23 3.54 4.7a.8.8 0 0 1-.16 1.13.8.8 0 0 1-1.14-.16L8.2 9.98c-.7-.7-1.85-.62-2.45.17L3.33 13.4a1.63 1.63 0 0 0 1.3 2.6h9.74c1.21 0 2-1.27 1.46-2.35"/></svg>