<svg xmlns="http://www.w3.org/2000/svg" viewBox="0 0 16 16"><path fill="#ff4040" fill-rule="evenodd" d="M8.75 15.38v-3.92L5.81 8.97c-.73-.6-1-1.58-.67-2.49A2.2 2.2 0 0 1 7.25 5h7.5q.6.01 1.1.3L16 3.25c0-.4 0-.75-.1-1.15-.3-1.1-1.1-1.8-2.5-2S9.05.1 9.05.1L5.5 1.3 2.2 4.4c-.1 0-1.4 2.55-2 3.75L0 12.8c.1 3.05 2.3 3.15 3.25 3.2.43.03 2.94-.14 5.53-.32z" clip-rule="evenodd"/><path fill="#ff4040" fill-rule="evenodd" d="M13.25 11.46v3.88l1.85-.15.43-5.65z" clip-rule="evenodd"/><path fill="#ff4040" d="M14.75 6h-7.5a1.25 1.25 0 0 0-.8 2.21L9.75 11v4.38c0 .34.28.62.63.62h1.24c.35 0 .63-.28.63-.62V11l3.3-2.79c.9-.75.37-2.21-.8-2.21"/></svg>