<svg xmlns="http://www.w3.org/2000/svg" viewBox="0 0 16 16"><path fill="#ff4040" fill-rule="evenodd" d="M2 14.38v-6.5a2.63 2.63 0 0 1 2.63-2.63h9.75c.53 0 1.02.18 1.43.45L16 3.24c0-.4 0-.75-.1-1.15-.3-1.1-1.1-1.8-2.5-2S9.05.1 9.05.1L5.5 1.3 2.2 4.4c-.1 0-1.4 2.55-2 3.75L0 12.8c.08 2.43 1.48 2.99 2.53 3.14A2.6 2.6 0 0 1 2 14.38" clip-rule="evenodd"/><path fill="#ff4040" d="M14.38 6.25H4.62C3.74 6.25 3 6.98 3 7.88v6.5c0 .89.73 1.62 1.63 1.62h9.75c.89 0 1.62-.73 1.62-1.62v-6.5c0-.9-.73-1.63-1.62-1.63m-.52 3.2L9.8 11.06a.8.8 0 0 1-.6 0L5.14 9.44a.8.8 0 0 1-.46-1.05.8.8 0 0 1 1.06-.46l3.6 1.45q.15.06.31 0l3.61-1.45a.8.8 0 0 1 1.06.46.8.8 0 0 1-.46 1.05"/></svg>