<svg xmlns="http://www.w3.org/2000/svg" viewBox="0 0 16 16"><path fill="#ff4040" fill-rule="evenodd" d="M7.5 14.75v-7.5C7.5 6.01 8.5 5 9.75 5h3.23c.6 0 1.17.23 1.6.66l1.15 1.16.27-3.58c0-.4 0-.75-.1-1.15-.3-1.1-1.1-1.8-2.5-2S9.05.1 9.05.1L5.5 1.3 2.2 4.4c-.1 0-1.4 2.55-2 3.75L0 12.8c.1 3.05 2.3 3.15 3.25 3.2.38.02 2.3-.1 4.5-.25a2 2 0 0 1-.25-.99" clip-rule="evenodd"/><path fill="#ff4040" d="m15.63 8.13-1.76-1.76a1.3 1.3 0 0 0-.89-.37H9.75c-.69 0-1.25.56-1.25 1.25v7.5c0 .69.56 1.25 1.25 1.25h5c.69 0 1.25-.56 1.25-1.25V9.02q0-.51-.37-.89m-1.5 1.62h-1.26a.6.6 0 0 1-.62-.62V7.88c0-.56.67-.84 1.07-.45l1.25 1.25c.4.4.11 1.07-.45 1.07"/></svg>