<svg xmlns="http://www.w3.org/2000/svg" viewBox="0 0 16 16"><path fill="#ff4040" fill-rule="evenodd" d="M5 11a6 6 0 0 1 10.7-3.71l.3-4.05c0-.4 0-.75-.1-1.15-.3-1.1-1.1-1.8-2.5-2S9.05.1 9.05.1L5.5 1.3 2.2 4.4c-.1 0-1.4 2.55-2 3.75L0 12.8c.1 3.05 2.3 3.15 3.25 3.2.35.02 2.09-.08 4.13-.23A6 6 0 0 1 5 11" clip-rule="evenodd"/><path fill="#ff4040" d="M11 6a5 5 0 1 0 0 10 5 5 0 0 0 0-10m2.5 5.63h-1.87v1.87a.62.62 0 1 1-1.26 0v-1.87H8.5a.62.62 0 1 1 0-1.26h1.88V8.5a.62.62 0 1 1 1.24 0v1.88h1.88a.62.62 0 1 1 0 1.24"/></svg>