<svg xmlns="http://www.w3.org/2000/svg" viewBox="0 0 16 16"><path fill="#ff4040" fill-rule="evenodd" d="M5 14.75v-7.5C5 6.01 6 5 7.25 5h7.5q.6.01 1.1.3L16 3.25c0-.4 0-.75-.1-1.15-.3-1.1-1.1-1.8-2.5-2S9.05.1 9.05.1L5.5 1.3 2.2 4.4c-.1 0-1.4 2.55-2 3.75L0 12.8c.1 3.05 2.3 3.15 3.25 3.2.23.02 1.02-.02 2.08-.09q-.31-.52-.33-1.15" clip-rule="evenodd"/><circle cx="11" cy="11" r=".98" fill="#ff4040"/><path fill="#ff4040" d="M10.51 10.15a.98.98 0 1 0 .98 1.7.98.98 0 0 0-.98-1.7"/><path fill="#ff4040" d="M14.75 6h-7.5C6.56 6 6 6.56 6 7.25v7.5c0 .69.56 1.25 1.25 1.25h7.5c.69 0 1.25-.56 1.25-1.25v-7.5C16 6.56 15.44 6 14.75 6m-1.46 5.2.57.32c.18.1.25.35.14.54l-.59 1.01a.4.4 0 0 1-.53.14l-.57-.32c-.18-.11-.33-.02-.33.2v.64a.4.4 0 0 1-.4.4h-1.17a.4.4 0 0 1-.39-.4v-.65c0-.21-.15-.3-.33-.2l-.57.33a.4.4 0 0 1-.53-.14L8 12.06a.4.4 0 0 1 .14-.54l.57-.32c.18-.11.18-.29 0-.4l-.57-.32A.4.4 0 0 1 8 9.94l.59-1.01a.4.4 0 0 1 .53-.14l.57.32c.18.11.33.02.33-.2v-.64c0-.22.18-.4.4-.4h1.17a.4.4 0 0 1 .39.4v.65c0 .21.15.3.33.2l.57-.33a.4.4 0 0 1 .53.14L14 9.94a.4.4 0 0 1-.14.54l-.57.32c-.18.11-.18.29 0 .4"/></svg>