<svg xmlns="http://www.w3.org/2000/svg" viewBox="0 0 16 16"><path fill="#ffa040" d="m15.85 7.8-.65-.4v-.2c.9-.8.9-.85-.26-1.2l-.05-.2c.76-.95.7-1-.5-1.1l-.05-.2c.5-1.06.5-1.1-.7-1l-.15-.16c.35-1.15.3-1.2-.85-.9l-.15-.1c.1-1.2.05-1.25-1-.7l-.2-.1c-.1-1.15-.2-1.2-1.1-.45l-.2-.05C9.64-.11 9.54-.11 8.79.79h-.2c-.6-1.05-.66-1.05-1.2 0h-.26c-.75-.9-.8-.9-1.15.25l-.2.05c-.95-.75-1-.7-1.15.5l-.15.05c-1.05-.5-1.1-.5-1 .7l-.2.1c-1.1-.3-1.16-.25-.8.9l-.1.15c-1.2-.1-1.26-.05-.7 1l-.1.2c-1.16.1-1.2.16-.5 1.1V6c-1.16.36-1.16.46-.26 1.2v.2c-1.05.56-1.05.66 0 1.21v.2c-.95.8-.95.85.15 1.2v.2c-.7.95-.65 1 .5 1.1l.1.2c-.55 1.06-.5 1.1.7 1l.1.2c-.3 1.1-.25 1.16.86.86l.2.1c-.15 1.2-.05 1.25 1 .7l.15.1c.15 1.15.2 1.2 1.15.5h.2c.35 1.15.4 1.15 1.15.25h.25c.55 1.05.65 1.05 1.2 0h.2c.76.9.86.9 1.2-.25h.2c.9.7 1 .65 1.1-.5l.2-.1c1.06.5 1.11.5 1.01-.7l.15-.1c1.15.3 1.2.25.85-.85l.15-.2c1.2.1 1.25.05.7-1l.1-.2c1.16-.1 1.2-.16.45-1.1l.05-.2c1.16-.36 1.16-.4.25-1.2v-.2c.2-.16 1.16-.51.7-.81M2.38 9.7c-.2-.8-.3-1.65-.16-2.5l.96-.45h-.05c.35-.15.2-.6 0-.9h1V9.7zm9.86 2.3c-1.55-.24-1.5-.24-1.75 1.3a6 6 0 0 1-5.01 0c-.2-1.54-.2-1.54-1.75-1.24l-.5-.5h4.85c.15 0 0-1.76.05-1.8.05-.16-1.35 0-1.35-.06V8.6h1.45c1.56 0 .66 2.86 2.1 2.9h2.36zm-5.5-5.1v-1c.54.05 2.8-.35 2.75.5-.1.9-2.16.4-2.76.5m7.05 1.6s-.65-.05-.65.1c.25 1-.95 1.6-1.35.6-.1-.65-.5-1.2-.85-1.4 2.05-1 1-3.76-1.05-3.7H3.63c.85-.96 2-1.6 3.25-1.8v-.06c1.1 1.15 1.1 1.15 2.16 0 1.8.3 3.25 1.45 4.1 2.96-.8 1.4-.8 1.35.65 2z"/></svg>