<svg xmlns="http://www.w3.org/2000/svg" viewBox="0 0 16 16"><path fill="#ffa040" d="M6.25 14.75V13.6a5 5 0 0 1-.77-.3c-.2-1.54-.2-1.54-1.75-1.24l-.5-.5h3.02v-4.3a2.25 2.25 0 0 1 3.41-1.94l2.3 1.38c.39-1.18-.57-2.64-2.07-2.6H3.63c.85-.96 2-1.6 3.25-1.8v-.06c1.1 1.15 1.1 1.15 2.16 0 1.8.3 3.25 1.45 4.1 2.96-.8 1.4-.8 1.35.65 2v.6l1.36.81c.2-.16 1.15-.51.7-.81l-.65-.4v-.2c.9-.8.9-.85-.26-1.2l-.05-.2c.76-.95.7-1-.5-1.1l-.05-.2c.5-1.06.5-1.1-.7-1l-.15-.16c.35-1.15.3-1.2-.85-.9l-.15-.1c.1-1.2.05-1.25-1-.7l-.2-.1c-.1-1.15-.2-1.2-1.1-.45l-.2-.05C9.64-.11 9.54-.11 8.79.79h-.2c-.6-1.05-.66-1.05-1.2 0h-.26c-.75-.9-.8-.9-1.15.25l-.2.05c-.95-.75-1-.7-1.15.5l-.15.05c-1.05-.5-1.1-.5-1 .7l-.2.1c-1.1-.3-1.16-.25-.8.9l-.1.15c-1.2-.1-1.26-.05-.7 1l-.1.2c-1.16.1-1.2.16-.5 1.1V6c-1.16.36-1.16.46-.26 1.2v.2c-1.05.56-1.05.66 0 1.21v.2c-.95.8-.95.85.15 1.2v.2c-.7.95-.65 1 .5 1.1l.1.2c-.55 1.06-.5 1.1.7 1l.1.2c-.3 1.1-.25 1.16.86.86l.2.1c-.15 1.2-.05 1.25 1 .7l.15.1c.15 1.15.2 1.2 1.15.5h.2c.24.78.34 1.02.6.83a2 2 0 0 1-.28-1.04M2.38 9.7a6 6 0 0 1-.16-2.5l.96-.45h-.05c.35-.15.2-.6 0-.9h1V9.7z"/><path fill="#40ff40" d="M7.25 7.25v7.5c0 .97 1.06 1.57 1.9 1.07l6.24-3.75c.81-.48.81-1.66 0-2.14L9.14 6.18c-.83-.5-1.89.1-1.89 1.07"/></svg>