<svg xmlns="http://www.w3.org/2000/svg" viewBox="0 0 16 16"><path fill="#ffa040" d="M5 14.75v-2.8c-.23-.09-.6-.02-1.27.1l-.5-.5H5V9.13c0-1.19.93-2.16 2.1-2.23h-.37v-1c.27.03.96-.05 1.58-.04a2.24 2.24 0 0 1 3.74.35 2.1 2.1 0 0 0-2.16-2.1H3.63c.85-.96 2-1.6 3.25-1.8v-.06c1.1 1.15 1.1 1.15 2.16 0 1.8.3 3.25 1.45 4.1 2.96-.65 1.14-.76 1.32.02 1.7a2.25 2.25 0 0 1 1.96 2.23v.59q.18.04.34.1c.54-.22.4-.38-.32-1.02v-.2c.2-.15 1.16-.5.7-.8l-.64-.4v-.2c.9-.8.9-.85-.26-1.2l-.05-.2c.76-.95.7-1-.5-1.1l-.05-.2c.5-1.06.5-1.1-.7-1l-.15-.16c.35-1.15.3-1.2-.85-.9l-.15-.1c.1-1.2.05-1.25-1-.7l-.2-.1c-.1-1.15-.2-1.2-1.1-.45l-.2-.05C9.64-.11 9.54-.11 8.79.79h-.2c-.6-1.05-.66-1.05-1.2 0h-.26c-.75-.9-.8-.9-1.15.25l-.2.05c-.95-.75-1-.7-1.15.5l-.15.05c-1.05-.5-1.1-.5-1 .7l-.2.1c-1.1-.3-1.16-.25-.8.9l-.1.15c-1.2-.1-1.26-.05-.7 1l-.1.2c-1.16.1-1.2.16-.5 1.1V6c-1.16.36-1.16.46-.26 1.2v.2c-1.05.56-1.05.66 0 1.21v.2c-.95.8-.95.85.15 1.2v.2c-.7.95-.65 1 .5 1.1l.1.2c-.55 1.06-.5 1.1.7 1l.1.2c-.3 1.1-.25 1.16.86.86l.2.1c-.15 1.2-.05 1.25 1 .7l.15.1c.1.8.17 1.06.51.91q-.08-.3-.09-.62M2.38 9.7a6 6 0 0 1-.16-2.5l.96-.45h-.05c.35-.15.2-.6 0-.9h1V9.7z"/><path fill="#ffa040" d="M14.75 10.69h-.62V9.13c0-.7-.56-1.26-1.26-1.26h-1.56v-.62a1.25 1.25 0 0 0-2.5 0v.63H7.25C6.56 7.88 6 8.43 6 9.13v1.56h.63a1.25 1.25 0 1 1 0 2.5H6v1.56c0 .69.56 1.25 1.25 1.25h1.56v-.62a1.25 1.25 0 0 1 2.5 0V16h1.56c.7 0 1.26-.56 1.26-1.25v-1.56h.62a1.25 1.25 0 0 0 0-2.5"/></svg>