<svg xmlns="http://www.w3.org/2000/svg" viewBox="0 0 16 16"><path fill="#ffa040" d="M6.46 14.72q-.25-.1-.45-.38a1 1 0 0 1-.2-.56q-.22-.16-.36-.46-.14-.33-.08-.6-.19-.2-.27-.52-.06-.36.05-.63a1.1 1.1 0 0 1 .02-1.15q-.1-.27-.04-.62.08-.32.27-.51-.06-.3.08-.6.12-.3.35-.46 0-.28.19-.55.2-.3.47-.4.03-.15.11-.28H5.44a2 2 0 0 0-1.9 1.37L2 13V7c0-1.1.9-2 2-2h11c.55 0 1-.45 1-1s-.45-1-1-1H8L6.59 1.59A2 2 0 0 0 5.17 1H2a2 2 0 0 0-2 2v10c0 1.1.9 2 2 2h4.57q-.08-.14-.11-.28"/><path fill="#ffa040" d="m15.93 10.87-.41-.25v-.12c.56-.5.56-.53-.16-.75l-.03-.13c.47-.6.44-.62-.31-.69l-.03-.12c.3-.66.3-.69-.44-.63l-.1-.1c.22-.71.2-.74-.53-.55l-.1-.07c.07-.75.04-.78-.62-.43l-.12-.07c-.07-.72-.13-.75-.7-.28l-.12-.03c-.22-.72-.28-.72-.75-.16h-.12c-.38-.65-.41-.65-.75 0h-.16c-.47-.56-.5-.56-.72.16l-.13.03c-.6-.47-.62-.44-.72.31l-.09.04c-.66-.32-.69-.32-.63.43l-.12.07c-.69-.2-.72-.16-.5.56l-.06.1c-.76-.07-.79-.04-.44.62L7 8.93c-.71.07-.75.1-.3.7v.12c-.73.22-.73.28-.16.75v.12c-.66.35-.66.41 0 .76v.12c-.6.5-.6.53.09.75v.13c-.44.6-.4.62.31.69l.06.12c-.34.66-.3.69.44.63l.07.12c-.2.7-.16.72.53.53l.12.07c-.1.75-.03.78.63.44l.1.06c.09.72.12.75.71.31h.13c.22.72.25.72.72.16h.15c.35.65.41.65.76 0h.12c.47.56.53.56.75-.16h.13c.56.44.62.4.69-.31l.12-.06c.66.3.69.3.63-.44l.1-.07c.71.2.74.16.52-.53l.1-.12c.75.06.78.03.44-.63l.06-.12c.72-.07.75-.1.28-.7l.03-.12c.72-.22.72-.25.16-.75v-.12c.12-.1.72-.32.44-.5m-8.42 1.2a4 4 0 0 1-.1-1.57l.6-.28h-.03c.21-.1.12-.38 0-.57h.62v2.41zm6.16 1.43c-.97-.15-.94-.15-1.1.82-.92.45-2.2.45-3.12 0-.13-.97-.13-.97-1.1-.78l-.31-.32h3.03c.1 0 0-1.1.04-1.12.03-.1-.85 0-.85-.04v-.68h.9c.98 0 .41 1.78 1.32 1.81h1.47zm-3.44-3.19V9.7c.34.03 1.75-.22 1.72.3-.06.57-1.35.26-1.72.32m4.41 1s-.4-.03-.4.07c.15.62-.6 1-.85.37-.06-.4-.31-.75-.53-.88 1.28-.62.62-2.34-.66-2.31H8.29c.53-.6 1.25-1 2.03-1.13V7.4c.7.72.7.72 1.35 0 1.13.19 2.03.9 2.56 1.85-.5.87-.5.84.41 1.25z"/></svg>