<svg xmlns="http://www.w3.org/2000/svg" viewBox="0 0 16 16"><path fill="#ffa040" d="M6.25 14.13v-.53a5 5 0 0 1-.77-.3c-.2-1.54-.2-1.54-1.75-1.24l-.5-.5h3.02v-1.8a1.6 1.6 0 0 1 1.76-1.62q.6.05 1.18.2-.12-.37-.13-.78.01-.4.14-.78c-.6.33-1.99.04-2.47.12v-1c.51.04 2.46-.29 2.7.34A2.6 2.6 0 0 1 11.64 5h.05a2.1 2.1 0 0 0-1.8-.9H3.64c.85-.96 2-1.6 3.25-1.8v-.06c1.1 1.15 1.1 1.15 2.16 0 1.8.3 3.25 1.45 4.1 2.96l-.12.22c.7.45 1.17 1.24 1.17 2.14q-.01.4-.13.77.59-.14 1.19-.2.28-.01.56.07c.16-.13.23-.27.04-.4l-.65-.4v-.2c.9-.8.9-.85-.26-1.2l-.05-.2c.76-.95.7-1-.5-1.1l-.05-.2c.5-1.06.5-1.1-.7-1l-.15-.16c.35-1.15.3-1.2-.85-.9l-.15-.1c.1-1.2.05-1.25-1-.7l-.2-.1c-.1-1.15-.2-1.2-1.1-.45l-.2-.05C9.64-.11 9.54-.11 8.79.79h-.2c-.6-1.05-.66-1.05-1.2 0h-.26c-.75-.9-.8-.9-1.15.25l-.2.05c-.95-.75-1-.7-1.15.5l-.15.05c-1.05-.5-1.1-.5-1 .7l-.2.1c-1.1-.3-1.16-.25-.8.9l-.1.15c-1.2-.1-1.26-.05-.7 1l-.1.2c-1.16.1-1.2.16-.5 1.1V6c-1.16.36-1.16.46-.26 1.2v.2c-1.05.56-1.05.66 0 1.21v.2c-.95.8-.95.85.15 1.2v.2c-.7.95-.65 1 .5 1.1l.1.2c-.55 1.06-.5 1.1.7 1l.1.2c-.3 1.1-.25 1.16.86.86l.2.1c-.15 1.2-.05 1.25 1 .7l.15.1c.15 1.15.2 1.2 1.15.5h.2c.32 1.05.4 1.13.97.47a1.6 1.6 0 0 1-.65-1.3M2.38 9.7a6 6 0 0 1-.16-2.5l.96-.45h-.05c.35-.15.2-.6 0-.9h1V9.7z"/><circle cx="11.63" cy="7.56" r="1.56" fill="#ffa040"/><path fill="#ffa040" d="M15.33 9.13a7 7 0 0 0-3.53 1.3.3.3 0 0 1-.35 0 7.3 7.3 0 0 0-3.53-1.3.62.62 0 0 0-.67.62v4.38c0 .32.25.59.58.61.39.03.82.05 1.3.18.92.24 1.64.63 2.16.98.2.13.46.13.67 0a7 7 0 0 1 2.16-.98c.48-.13.91-.15 1.3-.18a.6.6 0 0 0 .58-.62V9.75c0-.36-.3-.65-.67-.62"/></svg>