<svg xmlns="http://www.w3.org/2000/svg" viewBox="0 0 16 16"><path fill="#ff40a0" d="M5 15.38v-1.26c0-.5.24-.95.6-1.24q-.14-.12-.25-.26c-.18.5-.84 1.1-1.26 1.14.04-.42.63-1.03 1.11-1.37q-.19-.35-.2-.77v-1.24c0-.51.24-.96.6-1.26q-.25-.2-.4-.5c-.75-.58-1.44-1.2-1.41-1.93.2-2.5 6.51-5.05 8.21-4.2.76.25.6.75.25 1.4-.06.31-.46.72-1.02 1.11h.4c.5 0 .95.24 1.24.6.3-.36.75-.6 1.26-.6h.07c.5-.82.73-1.75.46-2.76-2.15-6.51-20.84 2.7-10.17 8.41-2.1.95-4.16 3.86-1.6 5.21.73.24 1.48.15 2.15-.13z"/><path fill="#ff40a0" d="M8.5 7.88c0 .34-.28.62-.62.62H6.63A.63.63 0 0 1 6 7.88V6.63c0-.35.28-.63.63-.63h1.25c.34 0 .62.28.62.63z"/><path fill="#ff40a0" d="M8.5 7.88c0 .34-.28.62-.62.62H6.63A.63.63 0 0 1 6 7.88V6.63c0-.35.28-.63.63-.63h1.25c.34 0 .62.28.62.63z"/><path fill="#ff40a0" d="M8.5 11.63c0 .34-.28.62-.62.62H6.63a.63.63 0 0 1-.63-.62v-1.26c0-.34.28-.62.63-.62h1.25c.34 0 .62.28.62.63z"/><path fill="#ff40a0" d="M8.5 15.38c0 .34-.28.62-.62.62H6.63a.63.63 0 0 1-.63-.62v-1.26c0-.34.28-.62.63-.62h1.25c.34 0 .62.28.62.63z"/><path fill="#ff40a0" d="M16 7.88c0 .34-.28.62-.62.62h-1.26a.63.63 0 0 1-.62-.62V6.63c0-.35.28-.63.63-.63h1.24c.35 0 .63.28.63.63z"/><path fill="#ff40a0" d="M16 7.88c0 .34-.28.62-.62.62h-1.26a.63.63 0 0 1-.62-.62V6.63c0-.35.28-.63.63-.63h1.24c.35 0 .63.28.63.63z"/><path fill="#ff40a0" d="M16 11.63c0 .34-.28.62-.62.62h-1.26a.63.63 0 0 1-.62-.62v-1.26c0-.34.28-.62.63-.62h1.24c.35 0 .63.28.63.63z"/><path fill="#ff40a0" d="M16 15.38c0 .34-.28.62-.62.62h-1.26a.63.63 0 0 1-.62-.62v-1.26c0-.34.28-.62.63-.62h1.24c.35 0 .63.28.63.63z"/><path fill="#ff40a0" d="M12.25 7.88c0 .34-.28.62-.62.62h-1.26a.63.63 0 0 1-.62-.62V6.63c0-.35.28-.63.63-.63h1.24c.35 0 .63.28.63.63z"/><path fill="#ff40a0" d="M12.25 7.88c0 .34-.28.62-.62.62h-1.26a.63.63 0 0 1-.62-.62V6.63c0-.35.28-.63.63-.63h1.24c.35 0 .63.28.63.63z"/><path fill="#ff40a0" d="M12.25 11.63c0 .34-.28.62-.62.62h-1.26a.63.63 0 0 1-.62-.62v-1.26c0-.34.28-.62.63-.62h1.24c.35 0 .63.28.63.63z"/><path fill="#ff40a0" d="M12.25 15.38c0 .34-.28.62-.62.62h-1.26a.63.63 0 0 1-.62-.62v-1.26c0-.34.28-.62.63-.62h1.24c.35 0 .63.28.63.63z"/></svg>