<svg xmlns="http://www.w3.org/2000/svg" viewBox="0 0 16 16"><path fill="#ff40a0" d="M14.66 2.24C12.5-4.27-6.18 4.94 4.49 10.65c-2.1.95-4.16 3.86-1.6 5.21 2.5.8 5.16-2 4.56-4.46.8-.05 2.15.25 2.2 1.1-.15.5-.8.36-.7 1.1 0 .26.25.66.85.56 1.35-.2 2-2.46.65-3.6-.8-1.01-2.7-1.16-3.96-.86-.85-.9-2.75-1.8-2.7-3 .2-2.51 6.51-5.06 8.21-4.21.76.25.6.75.25 1.4-.2 1-3.9 3.05-5.25 1.9-.15-.15-.5-.55-1-.3-.86.6.1 2 1.3 2.3 2.7 1 8.36-1.8 7.36-5.55M5.39 12.5c-.1.5-.85 1.2-1.3 1.26.05-.5.9-1.3 1.4-1.56z"/></svg>