<svg xmlns="http://www.w3.org/2000/svg" viewBox="0 0 16 16"><path fill="#ff40a0" d="M13.81 11.7q.12.08.2.2a2.36 2.36 0 0 1 .34 3.06A2 2 0 0 0 16 13v-2.71l-.26.27q-.86.76-1.93 1.13"/><path fill="#ff40a0" d="M6.83 14.76a3.2 3.2 0 0 1 1-2.08c-1.4-1.2-1.4-2.49-1.23-3.23.2-.9.83-1.75 1.67-2.45H5.44a2 2 0 0 0-1.9 1.37L2 13V7c0-1.1.9-2 2-2h11c.55 0 1-.45 1-1s-.45-1-1-1H8L6.59 1.59A2 2 0 0 0 5.17 1H2a2 2 0 0 0-2 2v10c0 1.1.9 2 2 2h4.86z"/><path fill="#ff40a0" d="M15.93 7.4C14.58 3.33 2.9 9.09 9.57 12.66c-1.31.6-2.6 2.4-1 3.25 1.57.5 3.22-1.25 2.85-2.78.5-.03 1.34.15 1.38.69-.1.3-.5.21-.44.68 0 .16.15.41.53.35.85-.13 1.25-1.54.4-2.26-.5-.62-1.68-.72-2.47-.53-.53-.56-1.72-1.12-1.69-1.88.13-1.56 4.07-3.16 5.14-2.63.47.16.37.47.15.88-.12.63-2.44 1.91-3.28 1.2-.1-.1-.32-.35-.63-.2-.53.38.06 1.26.81 1.44 1.7.63 5.23-1.12 4.6-3.47m-5.8 6.42c-.06.3-.53.75-.8.78.02-.31.55-.82.87-.97z"/></svg>