<svg xmlns="http://www.w3.org/2000/svg" viewBox="0 0 16 16"><path fill="#ff4040" d="M8.7 7H5.43a2 2 0 0 0-1.9 1.37L2 13V7c0-1.1.9-2 2-2h11c.55 0 1-.45 1-1s-.45-1-1-1H8L6.59 1.59A2 2 0 0 0 5.17 1H2a2 2 0 0 0-2 2v10c0 1.1.9 2 2 2h6.7z"/><path fill="#ff4040" fill-rule="evenodd" d="M16 8.44V6c0 .23-.6.43-1.2.6a22 22 0 0 1-5.1.68v2.44c.09.12.82.35 1.92.58a20 20 0 0 1-1.93.12v2.42l.01.02c.09.12.82.35 1.92.58-.73.08-1.42.12-1.93.12V16c.86 0 3.54-.28 5.16-.73.6-.16 1.15-.35 1.15-.55v-2.46q0-.25-.33-.4.32-.13.33-.28V9.14v.02-.04q-.01-.25-.32-.4.31-.13.32-.28" clip-rule="evenodd"/></svg>