<svg xmlns="http://www.w3.org/2000/svg" viewBox="0 0 16 16"><path fill="#ffa040" d="M13.15 10.5c-.1-1.55 0-2.75-1.2-3.5.35-1.2.35-3.1.5-4.05.25-1.35-.45-2.7-1.9-2.9L10.4 0c-.7 0-1.25.45-1.5 1-1.25-.9-3.25-.5-4.2.8a6.4 6.4 0 0 0-1.1 3.1v.05a15 15 0 0 0-.05 3.55c-.7 1-.7 2.35-.7 3.4v1.4c0 .5 0 1.15.5 1.7.7.75 2 1.4 3.05.7.45-.35.6-.7.65-1.15 2.7.75 6.1-.95 6.1-4.1zM5.9 12.25c-.15.5.15 1.35-.25 1.85-.55.45-1.25-.3-1.15-.85.15-.5-.4-3.75.3-4.25 1.55-.9 1 1.35 1.9 2 .75.8 3.45.85 3.35-.65-.2-2.15-3.25-1.4-4.3-2.65-1.95-2.35 1.4-8 3.65-4.15.5-.35-.35-2.35 1.3-1.35.3.5 0 .95 0 1.7-.15.85.1 4-1.45 3-.35-1-.05-2.3-.95-3.15-1.5-.85-2 1.65-1.75 2.65.3.85.7.75 1.7 1 6.1 1.15 2.25 7.75-2.3 4.85z"/></svg>