<svg xmlns="http://www.w3.org/2000/svg" viewBox="0 0 16 16"><path fill="#40ffa0" d="m13.62 13-1.95 2H14a2 2 0 0 0 2-2v-.34l-1.37 1.37z"/><path fill="#40ffa0" d="M14 3H8L6.59 1.59A2 2 0 0 0 5.17 1H2a2 2 0 0 0-2 2v10c0 1.1.9 2 2 2h1.92L1.6 12.66l2.78-2.79.98 1 2.6-2.6a4.54 4.54 0 0 1 6.17-.3h.02l.35.3L16 9.8V5a2 2 0 0 0-2-2"/><path fill="#ff4040" d="m4.37 11.3 2.22 2.27c.65.66 1.7.67 2.36.02l.02-.02 1.77-1.82a.7.7 0 0 1 .96 0l.86.91-2.23 2.28a3.54 3.54 0 0 1-5.05 0L3 12.66z"/><path fill="#40ffa0" d="M13.77 8.97 16 11.24l-1.37 1.37-2.22-2.28a1.67 1.67 0 0 0-2.36-.01l-.02.01-1.77 1.83a.64.64 0 0 1-.91 0l-.96-.92 2.28-2.27a3.54 3.54 0 0 1 5.05 0z"/></svg>