<svg xmlns="http://www.w3.org/2000/svg" viewBox="0 0 16 16"><path fill="#40ffa0" d="M15.96 7.64a3.1 3.1 0 0 0-3.09-2.76q-.53 0-1.02.18a6 6 0 0 1 4.11 2.58"/><path fill="#40ffa0" d="M9.4 5.22a3.05 3.05 0 0 0-3.83.84v-.02c-.19.21-.25.34-.45.65h-.1c.1-.24.23-.47.43-.78a3.12 3.12 0 1 0-2.33 5.22c.73 0 1.38-.26 1.9-.67a6 6 0 0 1 4.39-5.24M3.14 9.75a1.75 1.75 0 1 1 0-3.5 1.75 1.75 0 0 1 0 3.5"/><path fill="#ff4040" d="M11 6a5 5 0 1 0 0 10 5 5 0 0 0 0-10m2.5 5.63h-5a.62.62 0 1 1 0-1.26h5a.62.62 0 1 1 0 1.26"/></svg>