<svg xmlns="http://www.w3.org/2000/svg" viewBox="0 0 16 16"><path fill="#40ffa0" d="M12.88 4.88c-.89 0-1.73.37-2.33 1.03q.3.44.43.78h-.1c-.2-.31-.26-.44-.44-.65l-.01.02a3.1 3.1 0 0 0-4.86 0v-.02c-.19.21-.25.34-.45.65h-.1c.1-.24.23-.47.43-.78a3.12 3.12 0 1 0 .1 4.03l.01.01.1-.11.05-.08.01-.02q.14-.18.24-.44L6 9.25h.1q-.03.14-.09.28-.14.29-.3.56l-.01.01a3.13 3.13 0 0 0 4.62 0L10 9.52l-.1-.28h.11l.03.05a2 2 0 0 0 .25.46l.06.08.08.11h.02A3.1 3.1 0 0 0 16 8c0-1.73-1.4-3.12-3.12-3.12M3.12 9.75a1.75 1.75 0 1 1 0-3.5 1.75 1.75 0 0 1 0 3.5m4.88 0a1.75 1.75 0 1 1 0-3.5 1.75 1.75 0 0 1 0 3.5m4.88 0a1.75 1.75 0 1 1 0-3.5 1.75 1.75 0 0 1 0 3.5"/></svg>