<svg xmlns="http://www.w3.org/2000/svg" viewBox="0 0 16 16"><path fill="#a040ff" d="M9.53 1.75c-.35-.65-.9-1-1.5-1s-1.16.35-1.51 1l-1.9 3.31a10.7 10.7 0 0 1 5.41 8.53h-1.2a9.4 9.4 0 0 0-4.87-7.47l-2.2 3.91a5 5 0 0 1 2.5 3.51h-2a.4.4 0 0 1-.36-.4V13l.5-.85a5 5 0 0 0-1.25-1l-.85 1.5c-.35.6-.4 1.26-.1 1.76s.9.85 1.6.85h4.22c.25-2.1-.54-4.2-2.1-5.62l.6-1.15a7.8 7.8 0 0 1 2.65 6.72h4.52q.03-.82-.05-1.66a12.3 12.3 0 0 0-4.87-9.03l.9-1.5c.05-.15.2-.25.36-.25s.25.1.35.2L14.05 13v.15c0 .2-.15.4-.36.4h-.9q.06.81 0 1.61h1.36c.75 0 1.35-.3 1.65-.8s.25-1.2-.1-1.8z"/></svg>