<svg xmlns="http://www.w3.org/2000/svg" viewBox="0 0 16 16"><path fill="#a0a0a0" d="m15.78 13.08-.63-.36c-.2-.12-.2-.32 0-.44l.63-.36c.21-.12.28-.4.16-.6l-.65-1.14a.44.44 0 0 0-.6-.16l-.63.37c-.21.12-.38.02-.38-.22v-.73c0-.24-.2-.44-.44-.44h-1.31c-.24 0-.44.2-.44.44v.73c0 .24-.17.34-.38.22l-.63-.37a.44.44 0 0 0-.6.16l-.66 1.14c-.12.2-.04.48.16.6l.64.36c.2.12.2.32 0 .44l-.64.36a.44.44 0 0 0-.16.6l.66 1.14c.12.2.39.28.6.16l.63-.37c.2-.12.38-.02.38.22v.73c0 .24.2.44.44.44h1.3c.25 0 .45-.2.45-.44v-.73c0-.24.17-.34.38-.22l.63.37c.2.12.48.05.6-.16l.65-1.14a.44.44 0 0 0-.16-.6m-2.65.37a1.1 1.1 0 1 1-1.1-1.9 1.1 1.1 0 0 1 1.1 1.9"/><path fill="#a0a0a0" d="m10.4 6.42-1-.58c-.32-.19-.32-.5 0-.68l1-.58a.7.7 0 0 0 .25-.94L9.62 1.86a.7.7 0 0 0-.94-.25l-1 .57c-.32.19-.6.03-.6-.34V.69A.66.66 0 0 0 6.4 0H4.34c-.38 0-.69.3-.69.69v1.15c0 .37-.27.53-.6.34l-.99-.57a.7.7 0 0 0-.94.25L.1 3.64a.7.7 0 0 0 .25.94l1 .58c.32.19.32.5 0 .68l-1 .58a.7.7 0 0 0-.25.94l1.03 1.78c.2.33.61.44.94.25l1-.57c.32-.19.6-.03.6.34v1.15c0 .38.3.69.68.69H6.4c.38 0 .69-.3.69-.69V9.16c0-.37.27-.53.6-.34l.99.57c.33.2.75.08.94-.25l1.03-1.78a.7.7 0 0 0-.25-.94m-4.17.57A1.72 1.72 0 1 1 4.51 4a1.72 1.72 0 0 1 1.72 3"/></svg>