<svg xmlns="http://www.w3.org/2000/svg" viewBox="0 0 16 16"><path fill="#a0a0a0" d="M15 3H8L6.59 1.59A2 2 0 0 0 5.17 1H2a2 2 0 0 0-2 2v10c0 1.1.9 2 2 2h3.04Q5 14.88 5 14.75v-1.87c0-.79.4-1.48 1.01-1.88C5.41 10.6 5 9.9 5 9.13V7.25l.02-.18a2 2 0 0 0-1.48 1.3L2 13V7c0-1.1.9-2 2-2h11c.55 0 1-.45 1-1s-.45-1-1-1"/><path fill="#a0a0a0" d="M14.75 11.63h-7.5c-.69 0-1.25.56-1.25 1.24v1.88c0 .69.56 1.25 1.25 1.25h7.5c.69 0 1.25-.56 1.25-1.25v-1.87c0-.7-.56-1.26-1.25-1.26m-6.56 3.12a.94.94 0 1 1 0-1.87.94.94 0 0 1 0 1.87"/><path fill="#a0a0a0" d="M14.75 6h-7.5C6.56 6 6 6.56 6 7.25v1.88c0 .68.56 1.24 1.25 1.24h7.5c.69 0 1.25-.56 1.25-1.24V7.25C16 6.56 15.44 6 14.75 6M8.19 9.13a.94.94 0 1 1 0-1.88.94.94 0 0 1 0 1.88"/></svg>