<svg xmlns="http://www.w3.org/2000/svg" viewBox="0 0 16 16"><path fill="#ff40a0" d="M10 6.5a.5.5 0 0 0-.5-.5h-1a.5.5 0 0 0-.5.5v1c0 .28.22.5.5.5h1a.5.5 0 0 0 .5-.5z"/><path fill="#ff40a0" d="M6 6.5a.5.5 0 0 0-.5-.5h-1a.5.5 0 0 0-.5.5v1c0 .28.22.5.5.5h1a.5.5 0 0 0 .5-.5z"/><path fill="#ff40a0" d="M6 6.5a.5.5 0 0 0-.5-.5h-1a.5.5 0 0 0-.5.5v1c0 .28.22.5.5.5h1a.5.5 0 0 0 .5-.5z"/><path fill="#ff40a0" d="M6 10.5a.5.5 0 0 0-.5-.5h-1a.5.5 0 0 0-.5.5v1c0 .28.22.5.5.5h1a.5.5 0 0 0 .5-.5z"/><path fill="#ff40a0" d="M8 8.5a.5.5 0 0 0-.5-.5h-1a.5.5 0 0 0-.5.5v1c0 .28.22.5.5.5h1a.5.5 0 0 0 .5-.5z"/><path fill="#ff40a0" d="M10 10.5a.5.5 0 0 0-.5-.5h-1a.5.5 0 0 0-.5.5v1c0 .28.22.5.5.5h1a.5.5 0 0 0 .5-.5z"/><path fill="#ff40a0" d="M12 8.5a.5.5 0 0 0-.5-.5h-1a.5.5 0 0 0-.5.5v1c0 .28.23.5.5.5h1a.5.5 0 0 0 .5-.5z"/><path fill="#ff40a0" d="M14 0H2a2 2 0 0 0-2 2v12c0 1.1.9 2 2 2h12a2 2 0 0 0 2-2V2a2 2 0 0 0-2-2m-2 14v-1.5a.5.5 0 0 0-.5-.5h-1a.5.5 0 0 0-.5.5V14H8v-1.5a.5.5 0 0 0-.5-.5h-1a.5.5 0 0 0-.5.5V14H4v-1.5a.5.5 0 0 0-.5-.5H2v-2h1.5a.5.5 0 0 0 .5-.5v-1a.5.5 0 0 0-.5-.5H2V3a1 1 0 0 1 1-1h10a1 1 0 0 1 1 1v3h-1.5a.5.5 0 0 0-.5.5v1c0 .28.22.5.5.5H14v2h-1.5a.5.5 0 0 0-.5.5v1c0 .28.22.5.5.5H14v1a1 1 0 0 1-1 1z"/></svg>