<svg xmlns="http://www.w3.org/2000/svg" viewBox="0 0 16 16"><path fill="#ff40a0" d="M15 3H8L6.59 1.59A2 2 0 0 0 5.17 1H2a2 2 0 0 0-2 2v10c0 1.1.9 2 2 2h3.04Q5 14.88 5 14.75v-7.5l.02-.18a2 2 0 0 0-1.48 1.3L2 13V7c0-1.1.9-2 2-2h11c.55 0 1-.45 1-1s-.45-1-1-1"/><path fill="#ff40a0" d="M12.25 10.06a.3.3 0 0 0-.31-.31h-.63a.3.3 0 0 0-.31.31v.63c0 .17.14.31.31.31h.63c.17 0 .31-.14.31-.31z"/><path fill="#ff40a0" d="M9.75 10.06a.3.3 0 0 0-.31-.31H8.8a.3.3 0 0 0-.31.31v.63c0 .17.14.31.31.31h.63c.17 0 .31-.14.31-.31z"/><path fill="#ff40a0" d="M9.75 10.06a.3.3 0 0 0-.31-.31H8.8a.3.3 0 0 0-.31.31v.63c0 .17.14.31.31.31h.63c.17 0 .31-.14.31-.31z"/><path fill="#ff40a0" d="M9.75 12.56a.3.3 0 0 0-.31-.31H8.8a.3.3 0 0 0-.31.31v.63c0 .17.14.31.31.31h.63c.17 0 .31-.14.31-.31z"/><path fill="#ff40a0" d="M11 11.31a.3.3 0 0 0-.31-.31h-.63a.3.3 0 0 0-.31.31v.63c0 .17.14.31.31.31h.63c.17 0 .31-.14.31-.31z"/><path fill="#ff40a0" d="M12.25 12.56a.3.3 0 0 0-.31-.31h-.63a.3.3 0 0 0-.31.31v.63c0 .17.14.31.31.31h.63c.17 0 .31-.14.31-.31z"/><path fill="#ff40a0" d="M13.5 11.31a.3.3 0 0 0-.31-.31h-.63a.3.3 0 0 0-.31.31v.63c0 .17.14.31.31.31h.63c.17 0 .31-.14.31-.31z"/><path fill="#ff40a0" d="M14.75 6h-7.5C6.56 6 6 6.56 6 7.25v7.5c0 .69.56 1.25 1.25 1.25h7.5c.69 0 1.25-.56 1.25-1.25v-7.5C16 6.56 15.44 6 14.75 6m-1.25 8.75v-.94a.3.3 0 0 0-.31-.31h-.63a.3.3 0 0 0-.31.31v.94H11v-.94a.3.3 0 0 0-.31-.31h-.63a.3.3 0 0 0-.31.31v.94H8.5v-.94a.3.3 0 0 0-.31-.31h-.94v-1.25h.94c.17 0 .31-.14.31-.31v-.63a.3.3 0 0 0-.31-.31h-.94V7.88c0-.35.28-.63.63-.63h6.25c.34 0 .62.28.62.63v1.87h-.94a.3.3 0 0 0-.31.31v.63c0 .17.14.31.31.31h.94v1.25h-.94a.3.3 0 0 0-.31.31v.63c0 .17.14.31.31.31h.94v.63c0 .34-.28.62-.62.62z"/></svg>