<svg xmlns="http://www.w3.org/2000/svg" viewBox="0 0 16 16"><path fill="#ff40ff" d="M14 3H8L6.59 1.59A2 2 0 0 0 5.17 1H2a2 2 0 0 0-2 2v10c0 1.1.9 2 2 2h4.39l-2.42-2.9a1.7 1.7 0 0 1 0-2.2l3.57-4.28a1.7 1.7 0 0 1 1.9-.52 1.7 1.7 0 0 1 1.13 1.62v1.21A6.9 6.9 0 0 1 16 12.05V5a2 2 0 0 0-2-2"/><path fill="#ff40ff" d="M10.57 14.3v.7h1.89l-.43-.23q-.7-.3-1.46-.47"/><path fill="#ff40ff" d="M12.43 9.57a6 6 0 0 0-2.86-.71V6.72a.71.71 0 0 0-1.26-.46l-3.57 4.28a.7.7 0 0 0 0 .92l3.57 4.28a.71.71 0 0 0 1.26-.46v-2.14a9.3 9.3 0 0 1 5.82 2.75c.23.25.65.05.6-.29-.19-1.63-.96-4.62-3.56-6.03"/></svg>