<svg xmlns="http://www.w3.org/2000/svg" viewBox="0 0 16 16"><path fill="#e0e0e0" d="M13.85 3.07 9.25.34a2.5 2.5 0 0 0-2.5 0l-4.6 2.73A2.6 2.6 0 0 0 .9 5.27v5.45c0 .9.47 1.75 1.24 2.2l4.6 2.73a2.5 2.5 0 0 0 2.5 0l4.6-2.72a2.6 2.6 0 0 0 1.24-2.2V5.26c0-.9-.47-1.75-1.24-2.2M9.93 12.6q0 .08-.07.12l-.23.13q-.06.03-.07-.05v-.38q-.32.12-.53.05-.03-.02-.03-.09l.09-.35q0-.05.04-.08l.02-.01h.04q.22.06.49-.07a.6.6 0 0 0 .36-.55q.01-.29-.38-.28c-.33 0-.64-.07-.65-.56 0-.4.2-.82.54-1.09V9q0-.07.07-.12l.22-.14q.06-.03.07.05v.4a1 1 0 0 1 .44-.05q.04 0 .03.09l-.09.35q0 .04-.04.07l-.02.02h-.03c-.06-.01-.2-.04-.43.07a.5.5 0 0 0-.31.47c0 .18.1.24.41.24q.63 0 .61.62c0 .42-.22.87-.56 1.15zM8.42 6.9c-.61.35-1.3.9-1.3 1.95v4.96L3.04 11.4a.8.8 0 0 1-.37-.68V5.27c0-.28.14-.54.37-.67l4.6-2.73a.7.7 0 0 1 .7 0l4.19 2.48z"/><path fill="#40ff40" fill-rule="evenodd" d="m12.28 11.25-1.15.69q-.05.01-.05.07v.3q0 .06.05.03l1.17-.7q.04-.03.03-.1v-.25q0-.06-.05-.04" clip-rule="evenodd"/></svg>