<svg xmlns="http://www.w3.org/2000/svg" viewBox="0 0 16 16"><path fill="#e0e0e0" d="M14 3H8L6.59 1.59A2 2 0 0 0 5.17 1H2a2 2 0 0 0-2 2v10c0 1.1.9 2 2 2h5.5l-.1-.06a2.6 2.6 0 0 1-1.27-2.24V9.3c0-.92.49-1.78 1.27-2.24l2.87-1.7c.79-.47 1.8-.47 2.6 0l2.86 1.7.27.2V5a2 2 0 0 0-2-2"/><path fill="#e0e0e0" d="m15.22 7.92-2.87-1.7a1.6 1.6 0 0 0-1.57 0l-2.87 1.7a1.6 1.6 0 0 0-.78 1.37v3.41c0 .57.3 1.1.78 1.38l2.87 1.7a1.5 1.5 0 0 0 1.57 0l2.87-1.7c.48-.28.78-.81.78-1.38V9.3c0-.57-.3-1.1-.78-1.38m-2.45 5.96q0 .04-.04.07l-.14.08q-.05.02-.05-.03v-.24q-.2.07-.33.03-.02-.01-.02-.05l.06-.22.02-.05h.02l.02-.01q.14.04.3-.04a.4.4 0 0 0 .23-.34q0-.19-.23-.18c-.21 0-.4-.04-.41-.35a1 1 0 0 1 .34-.68v-.25q0-.05.04-.07l.14-.1q.03 0 .04.04v.25q.15-.06.28-.04.02 0 .01.06l-.05.22-.02.04-.02.02h-.02c-.04-.01-.13-.03-.27.04q-.2.14-.2.3c.01.1.07.14.27.15q.39 0 .38.38c0 .27-.14.55-.35.72zm-.94-3.57c-.38.22-.82.56-.82 1.22v3.1l-2.54-1.5a.5.5 0 0 1-.23-.43V9.3q.01-.28.23-.43l2.87-1.7a.4.4 0 0 1 .45 0l2.61 1.55z"/><path fill="#40ff40" fill-rule="evenodd" d="m14.24 13.03-.72.43q-.03.01-.03.05v.18q0 .05.04.02l.72-.44q.02-.01.02-.05v-.17q0-.03-.03-.02" clip-rule="evenodd"/></svg>