<svg xmlns="http://www.w3.org/2000/svg" viewBox="0 0 16 16"><path fill="#40a0ff" d="m14.23 12.77-.24-.23c-.24.24-.5.58-.68 1.05a3 3 0 0 0-.15 1.41H14a2 2 0 0 0 1.99-1.87c-.6.25-1.3.1-1.76-.36"/><path fill="#40a0ff" d="M14 3H8L6.59 1.59A2 2 0 0 0 5.17 1H2a2 2 0 0 0-2 2v10c0 1.1.9 2 2 2h6.49a5.6 5.6 0 0 1-.89-4.25c.22-1.15.82-2.2 1.66-2.94l-.03-.04A1.62 1.62 0 0 1 10.38 5h4.37q.7.01 1.25.38V5a2 2 0 0 0-2-2"/><path fill="#40a0ff" d="M14.75 6h-4.37a.62.62 0 0 0-.45 1.07l.9.9c-1.12.5-2 1.62-2.25 2.97-.44 2.37.94 4.5 2.88 4.96q.2.06.43.1c.22.03.4-.2.35-.43-.12-.52-.2-1.38.13-2.32a3.7 3.7 0 0 1 1.74-2.01l.82.83a.63.63 0 0 0 1.07-.45V7.25C16 6.56 15.44 6 14.75 6"/></svg>