<svg xmlns="http://www.w3.org/2000/svg" viewBox="0 0 16 16"><path fill="#ff4040" d="M15.37 1.65c-.08-.1-.48-.05-.54.04-.06.1-.36.26-.58.45q-.2.19-.88.46-.42-.38-.55-.32c-.13.07-1.1.57-1.55.7S9.26 4.23 8.85 4.33s-.76.22-.94.35c-.17.14-.4.08-.65.1-.13.02-.34.24-.71.34l-.12.24q-.37 1.1-.55 1.44-.15.35-.6.95.36.4.36.56a13 13 0 0 1-.1 1.43 53 53 0 0 0-.18 4.08q0 .63-.13.79a2 2 0 0 0-.27.66c0 .11-.45.5-.45.5s.13.24.23.24.6-.3.8-.55.33-.23.45-.34c.11-.1.32-.39.22-.51q-.1-.13-.1-.55.22-.14.36-.14c.12 0 .02-.44.18-.9q.16-.46.76-4.83.38-1.08.5-1.19.14-.1 1.05-.89 1.45-.9 1.62-1.04c.17-.15 1.8-.61 2.03-.9q.22-.3.95-.7v-.18q.45-.15.6-.16c.14 0 .33.1.43-.13s.04-.47.18-.59.38-.32.45-.44c.07-.13.23-.21.15-.31"/><path fill="#ff4040" d="M5 8a2 2 0 0 1-.04-.51s.33-.4.62-1c.15-.32.29-.71.38-.97q.13-.38.1-.46c0 .02-.17-.05-.33-.1l-.29-.27a4 4 0 0 0 1.18-.58c.14-.18.4-.73.4-.94l.06-1.45q-.6.07-.71 0c-.1-.08-.2-.38-.2-.64q0-.26-.15-.68L5.73.32Q5.66 0 5.6 0q-.07 0-.16.15-.09.35-.09.44c0 .08-.06.32.1.5q.14.17.35.63-.12.47 0 .6c.13.12 0 .3 0 .4q0 .08-.07.45-1.17.2-1.35.13-.17-.07-.54.15l-.31.3q.07-.35 0-.5a1 1 0 0 1-.13-.42c0-.06-.08-.2-.08-.3q0-.08.03-.21l-.22-.22q.07 0 .09-.04 0-.04-.15-.1-1.09.04-1.43.43c-.34.39-.24.6-.05 1.06q.2.33.34.48t.44.32l-.26.15-.18.56-.44.8-.74 1.81-.14.44q.15.84.25.94t.4.07q.3.33.38.24c.02-.03.06-.06.04-.18 0-.06-.08-.16-.08-.23q.04-.08.1-.29V8.2l1.16-1.19.67.14.88.16.22.06-.03.06c-.03.18-.01.37 0 .47.08.55-.45.7-.45.7l.28.24C5 8.74 5 8 5 8"/></svg>