<svg xmlns="http://www.w3.org/2000/svg" viewBox="0 0 16 16"><path fill="#40ff40" d="m11.33 4.3 2.14-2.2A8 8 0 0 0 8.38 0v3.05z"/><path fill="#ff4040" d="M4.78 4.3 2.63 2.1A8.5 8.5 0 0 1 7.78 0v3.05z"/><path fill="#ffff40" d="m11.33 11.7 2.14 2.2a8 8 0 0 1-5.1 2.1v-3.05z"/><path fill="#40a0ff" d="m4.78 11.7-2.15 2.2A8.2 8.2 0 0 0 7.78 16v-3.05z"/><path fill="#ff4040" d="M4.38 4.75 2.17 2.6A8 8 0 0 0 .01 7.7h3.06l1.24-3z"/><path fill="#40ff40" d="m11.73 4.75 2.14-2.15a8 8 0 0 1 2.1 5.1h-3.05l-1.24-3z"/><path fill="#40a0ff" d="m4.38 11.25-2.2 2.15A8 8 0 0 1 .01 8.3h3.06l1.24 3z"/><path fill="#ffff40" d="m11.73 11.25 2.14 2.15a8 8 0 0 0 2.1-5.1h-3.05l-1.24 3z"/><path fill="#e0e0e0" d="M7.78 7.5h-2.8l.75-1.8 1-.45V6.9h1.05V3.75L4.98 4.9 3.68 8l.2.5h2.85v2.25l-1-.45-.5-1.15h-1.1l.85 1.95 2.8 1.15zm3.4-2.65L8.38 3.7v8.55l2.8-1.1L12.43 8zm-.8.85.74 1.85H9.39V5.3zm-1 5V8.55h1.74l-.8 1.8-.95.4z"/></svg>