<svg xmlns="http://www.w3.org/2000/svg" viewBox="0 0 16 16"><path fill="#40ff40" d="M14 3H8L6.59 1.59A2 2 0 0 0 5.17 1H2a2 2 0 0 0-2 2v10c0 1.1.9 2 2 2h2.01a1.7 1.7 0 0 1 .33-2.57 1.7 1.7 0 0 1 0-2.86A1.71 1.71 0 0 1 5 6.45C5.1 5.64 5.82 5 6.7 5s1.6.63 1.7 1.43h.17c.1-.8.83-1.43 1.7-1.43s1.6.63 1.7 1.43h.18c.1-.8.82-1.43 1.7-1.43s1.61.64 1.7 1.45q.23.05.44.14V5a2 2 0 0 0-2-2"/><path fill="#40ff40" d="M15.29 11.71c.39 0 .71-.32.71-.71s-.32-.71-.71-.71h-.72V8.86h.72a.72.72 0 0 0 0-1.43h-.72v-.8c0-.35-.32-.63-.71-.63-.4 0-.72.28-.72.63v.8H11v-.8c0-.35-.32-.63-.71-.63-.4 0-.72.28-.72.63v.8H7.43v-.8c0-.35-.32-.63-.72-.63S6 6.28 6 6.63v.8h-.71a.71.71 0 1 0 0 1.43H6v1.43h-.71c-.4 0-.72.32-.72.71s.32.71.72.71H6v1.43h-.71a.72.72 0 1 0 0 1.43H6v.8c0 .35.32.63.71.63s.72-.28.72-.62v-.8h2.14v.8c0 .34.32.62.72.62s.71-.28.71-.62v-.8h2.14v.8c0 .34.32.62.72.62s.71-.28.71-.62v-.8h.72a.72.72 0 0 0 0-1.43h-.72V11.7zm-2.15-2.85v1.43H11V8.86zm-5.71 0h2.14v1.43H7.43zm0 4.28v-1.43h2.14v1.43zm5.71 0H11v-1.43h2.14z"/></svg>