<svg xmlns="http://www.w3.org/2000/svg" viewBox="0 0 16 16"><path fill="#40ff40" d="M3.57 13.86c0-.6.3-1.12.77-1.43a1.7 1.7 0 0 1 0-2.86 1.7 1.7 0 0 1-.75-1.29l-.05.09L2 13V7c0-1.1.9-2 2-2h11c.55 0 1-.45 1-1s-.45-1-1-1H8L6.59 1.59A2 2 0 0 0 5.17 1H2a2 2 0 0 0-2 2v10c0 1.1.9 2 2 2h2.01a1.7 1.7 0 0 1-.44-1.14"/><path fill="#40ff40" d="M15.29 11.71c.39 0 .71-.32.71-.71s-.32-.71-.71-.71h-.72V8.86h.72a.72.72 0 0 0 0-1.43h-.72v-.8c0-.35-.32-.63-.71-.63-.4 0-.72.28-.72.63v.8H11v-.8c0-.35-.32-.63-.71-.63-.4 0-.72.28-.72.63v.8H7.43v-.8c0-.35-.32-.63-.72-.63S6 6.28 6 6.63v.8h-.71a.71.71 0 1 0 0 1.43H6v1.43h-.71c-.4 0-.72.32-.72.71s.32.71.72.71H6v1.43h-.71a.72.72 0 1 0 0 1.43H6v.8c0 .35.32.63.71.63s.72-.28.72-.62v-.8h2.14v.8c0 .34.32.62.72.62s.71-.28.71-.62v-.8h2.14v.8c0 .34.32.62.72.62s.71-.28.71-.62v-.8h.72a.72.72 0 0 0 0-1.43h-.72V11.7zm-2.15-2.85v1.43H11V8.86zm-5.71 0h2.14v1.43H7.43zm0 4.28v-1.43h2.14v1.43zm5.71 0H11v-1.43h2.14z"/></svg>