<svg xmlns="http://www.w3.org/2000/svg" viewBox="0 0 16 16"><path fill="#40ff40" d="M15 9c.55 0 1-.45 1-1s-.45-1-1-1h-1V5h1c.55 0 1-.45 1-1s-.45-1-1-1h-1V1.88c0-.49-.45-.88-1-.88s-1 .4-1 .88V3H9V1.88C9 1.39 8.55 1 8 1s-1 .4-1 .88V3H4V1.88C4 1.39 3.55 1 3 1s-1 .4-1 .88V3H1c-.55 0-1 .45-1 1s.45 1 1 1h1v2H1c-.55 0-1 .45-1 1s.45 1 1 1h1v2H1c-.55 0-1 .45-1 1s.45 1 1 1h1v1.13c0 .48.45.87 1 .87s1-.4 1-.87V13h3v1.13c0 .48.45.87 1 .87s1-.4 1-.87V13h3v1.13c0 .48.45.87 1 .87s1-.4 1-.87V13h1c.55 0 1-.45 1-1s-.45-1-1-1h-1V9zm-3-4v2H9V5zM4 5h3v2H4zm0 6V9h3v2zm8 0H9V9h3z"/></svg>