<svg xmlns="http://www.w3.org/2000/svg" viewBox="0 0 16 16"><path fill="#40a0ff" d="M12.39.64H1.59c-.72 0-1.3.59-1.3 1.3v11.9c0 .76.6 1.31 1.3 1.31h7.15c0-1 0-2.35.25-3.8"/><path fill="#40a0ff" d="M12.39.64H1.59c-.72 0-1.3.59-1.3 1.3v11.9c0 .76.6 1.31 1.3 1.31h7.15c0-1 0-2.35.25-3.8"/><path fill="#6060ff" d="M14.94.24c-3.3-1.6-5.65 5.1-6.25 7.6l.5 1.66c-.1-.35-.45-1-.65-1.3l-.25.85c.35.6.55 1.7.55 1.7 0-.25-.5-1.15-.65-1.35-.35 1.15-.1 1 .15 1.9.6 2.1.2 2.85.5 4.7h.15a20 20 0 0 1 5.65-14.9A27 27 0 0 0 9.29 13c.5-1.5 2-2.1 2-2.1s.8-.95 1.65-2.3c-.7.15-1.85.5-2.2.7 0 0 1.35-.85 2.55-1.2 1.7-2.6 3.45-6.26 1.7-7.86z"/></svg>