<svg xmlns="http://www.w3.org/2000/svg" viewBox="0 0 16 16"><path fill="#ffff40" d="M15.16 14.62A2 2 0 0 0 16 13v-1.35l-1.16 1.13z"/><path fill="#ffff40" d="M14 3H8L6.59 1.59A2 2 0 0 0 5.17 1H2a2 2 0 0 0-2 2v10c0 1.1.9 2 2 2h4.33l.38-2.22-1.65-1.61a1.7 1.7 0 0 1-.42-1.7c.2-.61.7-1.05 1.34-1.14L8.26 8l1.02-2.07a1.68 1.68 0 0 1 3 0l1 2.07 2.28.33q.23.03.43.12V5a2 2 0 0 0-2-2"/><path fill="#ffff40" d="m10.93 14.69 2.35 1.23a.67.67 0 0 0 .97-.7l-.45-2.62a.3.3 0 0 1 .1-.3l1.9-1.85a.67.67 0 0 0-.37-1.13l-2.63-.38a.3.3 0 0 1-.25-.19l-1.18-2.38a.67.67 0 0 0-1.19 0L9 8.75a.3.3 0 0 1-.25.19l-2.63.38a.67.67 0 0 0-.36 1.13l1.9 1.86q.12.11.1.3l-.45 2.61c-.1.54.47.96.96.7l2.35-1.23q.16-.09.31 0"/></svg>