<svg xmlns="http://www.w3.org/2000/svg" viewBox="0 0 16 16"><path fill="#ffff40" d="M15 3H8L6.59 1.59A2 2 0 0 0 5.17 1H2a2 2 0 0 0-2 2v10c0 1.1.9 2 2 2h4.33l.38-2.22-1.65-1.61a1.7 1.7 0 0 1-.42-1.7c.2-.61.7-1.05 1.34-1.14L8.26 8l.5-1H5.44a2 2 0 0 0-1.9 1.37L2 13V7c0-1.1.9-2 2-2h11c.55 0 1-.45 1-1s-.45-1-1-1"/><path fill="#ffff40" d="M15.16 14.62A2 2 0 0 0 16 13v-1.35l-1.16 1.13z"/><path fill="#ffff40" d="M15.9 8.43A2 2 0 0 0 14 7h-1.2l.5 1 2.27.33q.18.03.34.1"/><path fill="#ffff40" d="m10.93 14.69 2.35 1.23a.67.67 0 0 0 .97-.7l-.45-2.62a.3.3 0 0 1 .1-.3l1.9-1.85a.67.67 0 0 0-.37-1.13l-2.63-.38a.3.3 0 0 1-.25-.19l-1.18-2.38a.67.67 0 0 0-1.19 0L9 8.75a.3.3 0 0 1-.25.19l-2.63.38a.67.67 0 0 0-.36 1.13l1.9 1.86q.12.11.1.3l-.45 2.61c-.1.54.47.96.96.7l2.35-1.23q.16-.09.31 0"/></svg>