<svg xmlns="http://www.w3.org/2000/svg" viewBox="0 0 16 16"><path fill="#40ffa0" d="M14 3H8L6.59 1.59A2 2 0 0 0 5.17 1H2a2 2 0 0 0-2 2v10c0 1.1.9 2 2 2h3V9.13c0-.9.73-1.63 1.63-1.63h1.25q.49.01.87.26V6.63c0-.9.73-1.63 1.63-1.63h1.24c.9 0 1.63.73 1.63 1.63v3.63q.38-.25.88-.26h1.24q.34 0 .63.13V5a2 2 0 0 0-2-2"/><path fill="#40ffa0" d="M13.5 11.63c0-.35.28-.63.63-.63h1.24c.35 0 .63.28.63.63v3.74c0 .35-.28.63-.62.63h-1.26a.63.63 0 0 1-.62-.62z"/><path fill="#40ffa0" d="M9.75 6.63c0-.35.28-.63.63-.63h1.24c.35 0 .63.28.63.63v8.75c0 .34-.28.62-.62.62h-1.26a.63.63 0 0 1-.62-.62z"/><path fill="#40ffa0" d="M6 9.13c0-.35.28-.63.63-.63h1.25c.34 0 .62.28.62.63v6.24c0 .35-.28.63-.62.63H6.63a.63.63 0 0 1-.63-.62z"/></svg>