<svg xmlns="http://www.w3.org/2000/svg" viewBox="0 0 16 16"><path fill="#ff40a0" d="M7 7H5.44a2 2 0 0 0-1.9 1.37L2 13V7c0-1.1.9-2 2-2h11c.55 0 1-.45 1-1s-.45-1-1-1H8L6.59 1.59A2 2 0 0 0 5.17 1H2a2 2 0 0 0-2 2v10c0 1.1.9 2 2 2h5.3z"/><path fill="#ff40a0" d="M15.97 6.47c0-.28-.25-.47-.53-.47l-.53.03V7.2l-.03.1-.1-.04-.37-.31-.44.34h-.1V6.1l-5.4.35c-.28 0-.5.25-.47.53l.32 8.25c0 .25.18.47.46.47l6.72.31c.32 0 .5-.22.5-.5v-9zm-3.81 7.66c-1.19 0-2.25-.47-2.13-2.16.04-.19 1.57-.16 1.57 0 0 .69.15.9.53.9q.47 0 .47-.46c0-1-2.5-1.03-2.5-2.91 0-1.06.72-1.75 2.03-1.75s2.03.66 2.03 2c-.19.13-1.5.22-1.5 0 0-.72-.31-.75-.5-.75s-.47.03-.47.44c0 1 2.53.94 2.53 2.94 0 1.12-.9 1.71-2.06 1.71z"/></svg>