<svg xmlns="http://www.w3.org/2000/svg" viewBox="0 0 16 16"><path fill="#ff40a0" d="M14.35.75c0-.45-.4-.75-.85-.75l-.85.05V1.9l-.05.15-.15-.05-.6-.5-.7.55H11V.15L2.35.7c-.45 0-.8.4-.75.85l.5 13.2c0 .4.3.75.75.75l10.75.5c.5 0 .8-.35.8-.8V.8zM8.25 13c-1.9 0-3.6-.75-3.4-3.45.05-.3 2.5-.25 2.5 0 0 1.1.25 1.45.85 1.45q.75 0 .75-.75c0-1.6-4-1.65-4-4.65 0-1.7 1.15-2.8 3.25-2.8s3.25 1.05 3.25 3.2c-.3.2-2.4.35-2.4 0 0-1.15-.5-1.2-.8-1.2s-.75.05-.75.7c0 1.6 4.05 1.5 4.05 4.7 0 1.8-1.45 2.75-3.3 2.75z"/></svg>