<svg xmlns="http://www.w3.org/2000/svg" viewBox="0 0 16 16"><path fill="#a0a0a0" d="M14 3H8L6.59 1.59A2 2 0 0 0 5.17 1H2a2 2 0 0 0-2 2v10c0 1.1.9 2 2 2h3.04Q5 14.88 5 14.75v-7.5C5 6.01 6 5 7.25 5h5.73c.6 0 1.17.23 1.6.66L16 7.09V5a2 2 0 0 0-2-2"/><path fill="#a0a0a0" d="M12.98 6H7.25C6.56 6 6 6.56 6 7.25v7.5c0 .69.56 1.25 1.25 1.25h7.5c.69 0 1.25-.56 1.25-1.25V9.02q0-.51-.37-.89l-1.76-1.76a1.3 1.3 0 0 0-.89-.37M7.25 8.5v-.62c0-.35.28-.63.63-.63h3.75c.34 0 .62.28.62.63v.62c0 .34-.28.63-.62.63H7.87a.63.63 0 0 1-.62-.63m4.14 6.2a1.57 1.57 0 0 1-.78-3.03 1.57 1.57 0 0 1 .78 3.03"/></svg>