<svg xmlns="http://www.w3.org/2000/svg" viewBox="0 0 16 16"><path fill="#6060ff" fill-rule="evenodd" d="M8.1 15.61c1.75-6.25 1.7-6.3 3-10.75l.3.2c.15.05.3 0 .3-.2V2.71l.65-2.35h1.4L16 2.51l-1.5 1.25 1.15 1.25-7.5 10.6c0 .05-.05 0 0 0zm.8-13.5c.1 0 .15 0 .15.1v1.1l-.15.05H7.1l-.15-.05v-1.1q0-.09.15-.1z" clip-rule="evenodd"/><path fill="#6060ff" fill-rule="evenodd" d="m11.2.91-2 1.15v1.25l-.05.15 2 1.15c.2.1.3 0 .3-.15v-3.4c0-.15-.1-.25-.25-.15m-4.4 2.4v-1.3L4.8.86c-.1-.1-.25 0-.25.15v3.4c0 .15.15.25.25.15l2.05-1.05-.05-.15z" clip-rule="evenodd"/><path fill="#6060ff" fill-rule="evenodd" d="M7.8 15.61h.1c-1.75-6.25-1.7-6.3-3-10.75l-.3.2c-.15.05-.3 0-.3-.2V2.71L3.65.36H2.3L0 2.51l1.5 1.25L.35 5.01l7.5 10.6z" clip-rule="evenodd"/><circle cx="7.95" cy="5.11" r=".55" fill="#6060ff"/><circle cx="7.95" cy="8.41" r=".55" fill="#6060ff"/><circle cx="7.95" cy="11.66" r=".55" fill="#6060ff"/></svg>