<svg xmlns="http://www.w3.org/2000/svg" viewBox="0 0 16 16"><path fill="#ff4040" d="M13.86 2.08c-3.15-4.15-7.1-1.16-10.33 1a4.3 4.3 0 0 0-1.45 5.77c-2.8 4 2.68 9 6.62 6.47 2.92-1.87 7.48-3.87 5.21-8.18a4.3 4.3 0 0 0-.1-5.06zm-1.05 3.06c-.04.14-.13.45-.15.6a4 4 0 0 0-1.8-.9c.15-.76-.7-1.37-1.36-.96L5.8 6.24c-.62.36-.41 1.4.28 1.53.56.2 1.68-.8 2.13-1.03 2-1.33 4.87.55 4.46 2.9-.13 1.7-3.86 3.2-4.96 4.12-2.21 1.5-5.27-1.05-4.27-3.5q.75.55 1.7.9h.1c-.13.72.64 1.35 1.31 1l3.76-2.41c.63-.36.42-1.4-.28-1.53-.24-.07-.5.03-.72.13-.5.27-1.62 1.14-2.16 1.25-1.94.55-4.05-1.24-3.7-3.26.08-1.76 3.83-3.19 4.96-4.11 1.95-1.34 4.83.59 4.41 2.9"/></svg>