<svg xmlns="http://www.w3.org/2000/svg" viewBox="0 0 16 16"><path fill="#ff4040" d="M9.5 3.88 5.8 6.24c-.62.36-.42 1.38.27 1.52l.33-.57a1.63 1.63 0 0 1 2.14-.64l.03-.01A1.6 1.6 0 0 1 10.18 5h1.25a3 3 0 0 0-.58-.17c.16-.75-.69-1.36-1.35-.95"/><path fill="#ff4040" d="m6.39 14.81-.36-.62c-1.77-.15-3.36-2.06-2.6-3.94.5.4 1.07.67 1.7.9h.1a1 1 0 0 0 .14.65q.18-.5.62-.8a1.6 1.6 0 0 1-.74-1.55C4.07 8.93 3.2 7.69 3.43 6.34c.1-1.76 3.84-3.19 4.97-4.11 1.95-1.34 4.83.59 4.41 2.9l-.01.06c.5.26.86.77.88 1.37q.3-.15.66-.18a4.4 4.4 0 0 0-.53-4.3h.05c-3.15-4.15-7.1-1.16-10.33 1a4.3 4.3 0 0 0-1.45 5.77c-2.69 3.83 2.24 8.57 6.13 6.72-.7.18-1.45-.11-1.82-.76"/><path fill="#a0a0a0" d="m15.69 11.83-.9-.52c-.3-.17-.3-.45 0-.62l.9-.52c.3-.18.4-.56.23-.86l-.94-1.62a.63.63 0 0 0-.85-.23l-.9.52c-.3.17-.55.03-.55-.31V6.63a.63.63 0 0 0-.62-.63h-1.88a.63.63 0 0 0-.62.63v1.04c0 .34-.25.48-.55.31l-.9-.52a.63.63 0 0 0-.85.23L6.32 9.3c-.17.3-.07.68.23.86l.9.52c.3.17.3.45 0 .62l-.9.52c-.3.18-.4.56-.23.86l.94 1.62c.17.3.55.4.85.23l.9-.52c.3-.17.55-.03.55.31v1.05c0 .34.28.62.62.62h1.88c.34 0 .62-.28.62-.62v-1.05c0-.34.24-.48.54-.31l.9.52c.3.17.69.07.86-.23l.94-1.62a.63.63 0 0 0-.23-.86m-3.8.52a1.56 1.56 0 1 1-1.55-2.7 1.56 1.56 0 0 1 1.56 2.7"/></svg>