<svg xmlns="http://www.w3.org/2000/svg" viewBox="0 0 16 16"><path fill="#ffa040" d="M15.74 7a1.53 1.53 0 0 0-2.1 0h-3.08l2.16-2.21a1.54 1.54 0 1 0-1.49-1.55L9.08 5.45V2.37c.45-.72.24-1.68-.48-2.13a1.5 1.5 0 0 0-1.68.02c-.54.6-.51 1.53.05 2.1v3.1l-2.2-2.17a1.54 1.54 0 1 0-1.54 1.5l2.2 2.16H2.37a1.54 1.54 0 0 0-2.12.47c-.33.52-.32 1.18.02 1.69.6.54 1.52.51 2.1-.06h3.08l-2.16 2.16a1.54 1.54 0 1 0 1.49 1.55l2.15-2.21v3.08c-.45.72-.24 1.67.48 2.13.51.33 1.17.32 1.68-.02.55-.6.55-1.52 0-2.1v-3.1l2.15 2.17a1.54 1.54 0 1 0 1.54-1.5l-2.2-2.1h3.07a1.54 1.54 0 0 0 2.1-2.16z"/></svg>