<svg xmlns="http://www.w3.org/2000/svg" viewBox="0 0 16 16"><path fill="#ffa040" d="M15 3H8L6.59 1.59A2 2 0 0 0 5.17 1H2a2 2 0 0 0-2 2v10c0 1.1.9 2 2 2h4.35a2 2 0 0 1 .03-2.11 2 2 0 0 1-.88-.45l-.17-.2a1.97 1.97 0 0 1 1.16-2.99A1.95 1.95 0 0 1 6.36 7h-.92a2 2 0 0 0-1.9 1.37L2 13V7c0-1.1.9-2 2-2h11c.55 0 1-.45 1-1s-.45-1-1-1"/><path fill="#ffa040" d="M15.9 13.6q.1-.3.1-.6v-.41q-.22.12-.47.19.29.36.37.82"/><path fill="#ffa040" d="M15.84 10.37a.96.96 0 0 0-1.32 0H12.6L13.95 9a.96.96 0 1 0-.93-.96L11.67 9.4V7.48a.97.97 0 0 0-.3-1.33 1 1 0 0 0-1.04.01.97.97 0 0 0 .03 1.32v1.93L8.98 8.06a.96.96 0 1 0-.96.93l1.38 1.35H7.48a.96.96 0 0 0-1.33.3c-.2.32-.2.73.01 1.05.38.34.95.33 1.32-.03H9.4L8.05 13a.96.96 0 1 0 .93.96l1.35-1.38v1.93a.97.97 0 0 0 .3 1.33c.32.2.73.2 1.04-.01a.97.97 0 0 0 0-1.32v-1.93l1.35 1.35a.96.96 0 1 0 .96-.93l-1.38-1.32h1.92a.96.96 0 0 0 1.33-.3c.2-.32.2-.73-.01-1.05z"/></svg>