<svg xmlns="http://www.w3.org/2000/svg" viewBox="0 0 16 16"><path fill="#40a0ff" d="M14.65 6.37a7 7 0 0 0-.82-1.9q.4-.57.78-1.2L12.7 1.4q-.63.39-1.23.81a7 7 0 0 0-1.84-.76Q9.52.72 9.34 0H6.67q-.19.72-.3 1.42-1 .23-1.9.75-.57-.4-1.18-.77L1.4 3.28q.34.58.73 1.12a7 7 0 0 0-.88 2q-.62.1-1.25.26v2.67q.58.15 1.16.25.24 1.16.85 2.17-.32.46-.6.96l1.88 1.89q.48-.28.92-.59 1.03.66 2.23.93.1.52.23 1.06h2.68q.14-.54.23-1.09a7 7 0 0 0 2.17-.94q.48.33.97.63l1.88-1.9q-.3-.53-.67-1.03a7 7 0 0 0 .8-2.08q.63-.1 1.27-.27V6.66q-.68-.17-1.35-.29m-1.94 3.46q-.03.1-.07.16a5 5 0 0 1-2.63 2.77l-.04.02a5.05 5.05 0 0 1-6.71-2.8l-.03-.06a5.04 5.04 0 1 1 9.48-.09"/><path fill="#40a0ff" d="M10.4 8.95q-.3.06-.52.27l-.8-.6c.36-.6.2-1.38-.36-1.8l.64-1.11a.7.7 0 1 0-.28-.17l-.64 1.1a1.4 1.4 0 0 0-1.78.63L5.3 6.75v-.02a.64.64 0 1 0-.12.32l1.37.54c-.13.52.05 1.07.47 1.41l-.64 1a.85.85 0 1 0 .28.17l.64-1c.54.27 1.19.15 1.6-.29l.8.6a1.01 1.01 0 1 0 .7-.52"/></svg>