<svg xmlns="http://www.w3.org/2000/svg" viewBox="0 0 16 16"><path fill="#ffa040" d="M15.34 8.73c-.36 0-.66.39-.66.88 0 .2-.12.36-.27.36a.3.3 0 0 1-.2-.12L11.82 6.7c-.17-.25-.1-.64.2-.67h.4c.86 0 .86-1.76 0-1.76H9.74C8.1 4.35 7.71 6.8 8.6 7.93L9.63 9.3c.12.16.1.34.06.43-.02.2-.35.36-.51.13l-1.35-1.8-2.66-3.54c-.76-.87-1.48.62-.93 1.24L6.9 9.3c.12.16.09.34.06.43-.03.19-.32.36-.48.13L2.76 4.89c-.53-.72-1.44-.85-2.07-.25-.84.8-.91 2.38-.22 3.3L1.5 9.3c.17.25.1.64-.2.67H.82c-.86 0-.86 1.76 0 1.76.97.11 1.67-.37 1.96-1.33.24-.76.13-1.72-.35-2.35L1.4 6.68c-.17-.25-.1-.63.2-.67q.13 0 .22.12l3.72 4.97c.68.99 2.02.72 2.47-.3 1.83 2.65 4.01-.89 2.54-2.74L9.54 6.69a.5.5 0 0 1-.07-.43c.09-.38.57-.2.98-.24-.1.65.05 1.4.44 1.91l2.38 3.17q.46.62 1.14.63c.88 0 1.6-.95 1.59-2.12 0-.49-.3-.88-.66-.88m-.93 2.23a1 1 0 0 1-.73-.4L11.3 7.39c-.45-.57-.4-1.65.17-2.14H9.74c-.85 0-1.11 1.4-.61 1.98l1.02 1.37c.6.68.29 2.36-.73 2.36-.67.08-1.25-1.15-1.71-1.67.24 1.06-.9 2.35-1.75 1.27L2.23 5.59a.8.8 0 0 0-.62-.34C.76 5.25.5 6.65 1 7.23c.54.8 1.67 1.77 1.25 2.87-.23.77-.78.92-1.42.86-.1 0-.11-.22 0-.22h.46c.86 0 1.12-1.41.62-1.98L.88 7.39c-.87-1 .26-3.32 1.47-1.96l3.72 4.97c1.01 1.14 1.97-.8 1.24-1.64L4.65 5.22c-.07-.08.02-.27.12-.16l4 5.34c1.03 1.14 2-.77 1.27-1.64L9 7.39c-.6-.68-.28-2.36.73-2.36h2.69c.1 0 .1.22 0 .22-1.21-.2-1.58 1.16-1.01 1.98l2.37 3.17c.57.76 1.5.14 1.47-.8 0-.14.17-.13.16 0 0 .75-.45 1.36-1.01 1.36"/></svg>