<svg xmlns="http://www.w3.org/2000/svg" viewBox="0 0 16 16"><path fill="#ff4040" d="M14 3H8L6.59 1.59A2 2 0 0 0 5.17 1H2a2 2 0 0 0-2 2v10c0 1.1.9 2 2 2h3.81a9 9 0 0 1-1.83-2.04l-.27-1.45 1.7.11q.53.39 1.13.67c.89.42 1.8.6 2.63.52a34 34 0 0 1-3.46-3.85l-.89-2.14 1.5-.3q.07-.19.18-.3l.57-.67.91.62a32 32 0 0 0 4.04 3.5 5.6 5.6 0 0 0-1.13-3.08l-.17-1.54 1.5.1a8.4 8.4 0 0 1 3.78 4.9V5a2 2 0 0 0-2-2"/><path fill="#ff4040" d="m15.05 13.02.07-.17c.6-2.45-.9-5.35-3.42-6.85 1.08 1.5 1.6 3.32 1.15 4.92l-.14.42-.2-.14S9.94 9.63 7.26 6.87c-.11-.07 1.43 2.2 3.14 4.05-.8-.48-3.08-2.13-4.54-3.45l.63.87a28 28 0 0 0 4.68 4.85c-1.33.8-3.22.88-5.07 0a8 8 0 0 1-1.29-.76 7.7 7.7 0 0 0 3.5 2.97c1.74.76 3.49.7 4.81 0l.18-.07c.63-.35 1.85-.7 2.51.62.18.35.53-1.36-.77-2.93"/></svg>