<svg xmlns="http://www.w3.org/2000/svg" viewBox="0 0 16 16"><path fill="#ff4040" d="m3.98 12.96-.27-1.45 1.7.11q.53.39 1.13.67c.89.42 1.8.6 2.63.52a34 34 0 0 1-3.46-3.85l-.78-1.88a2 2 0 0 0-1.39 1.29L2 13V7c0-1.1.9-2 2-2h11c.55 0 1-.45 1-1s-.45-1-1-1H8L6.59 1.59A2 2 0 0 0 5.17 1H2a2 2 0 0 0-2 2v10c0 1.1.9 2 2 2h3.81a9 9 0 0 1-1.83-2.04"/><path fill="#ff4040" d="M12.02 9.66A5.4 5.4 0 0 0 11.15 7H8.83c1.25 1.18 2.4 2.1 3.19 2.66"/><path fill="#ff4040" d="M14.42 7.05c.75.9 1.3 1.93 1.58 3V9a2 2 0 0 0-1.58-1.95"/><path fill="#ff4040" d="m15.05 13.02.07-.17c.6-2.45-.9-5.35-3.42-6.85 1.08 1.5 1.6 3.32 1.15 4.92l-.14.42-.2-.14S9.94 9.63 7.26 6.87c-.11-.07 1.43 2.2 3.14 4.05-.8-.48-3.08-2.13-4.54-3.45l.63.87a28 28 0 0 0 4.68 4.85c-1.33.8-3.22.88-5.07 0a8 8 0 0 1-1.29-.76 7.7 7.7 0 0 0 3.5 2.97c1.74.76 3.49.7 4.81 0l.18-.07c.63-.35 1.85-.7 2.51.62.18.35.53-1.36-.77-2.93"/></svg>