<svg xmlns="http://www.w3.org/2000/svg" viewBox="0 0 16 16"><path fill="#ff40a0" d="M14 7h-.87l1.23 2.92.07-.06c.4-.41 1.04-.52 1.57-.34V9a2 2 0 0 0-2-2"/><path fill="#ff40a0" d="m5.78 14.3.16-.36L8.87 7H5.44a2 2 0 0 0-1.9 1.37L2 13V7c0-1.1.9-2 2-2h11c.55 0 1-.45 1-1s-.45-1-1-1H8L6.59 1.59A2 2 0 0 0 5.17 1H2a2 2 0 0 0-2 2v10c0 1.1.9 2 2 2h3.64q0-.34.14-.7"/><path fill="#ff40a0" d="M15.9 13.57q.1-.27.1-.57v-.45l-.37.36z"/><path fill="#ff40a0" d="m9.18 12.11 1.4 1.39h.7l2.47-2.47-1.89-4.46A.9.9 0 0 0 11 6a.9.9 0 0 0-.86.57l-2.26 5.34c.42-.2.96-.14 1.3.2M11 9.34l.97 2.28h-1.94z"/><path fill="#ff40a0" d="m14.7 13.28-1.43 1.43.3.72c.2.47.76.7 1.23.5.48-.2.7-.76.5-1.23z"/><path fill="#ff40a0" d="M7.58 13.71a1 1 0 0 1-.27-.45L6.7 14.7a.94.94 0 0 0 .5 1.23.94.94 0 0 0 1.23-.5l.25-.61z"/><path fill="#ff40a0" d="M15.85 10.56a.5.5 0 0 0-.72 0L11.1 14.6c-.1.1-.26.1-.36 0l-2-2a.5.5 0 0 0-.72 0 .5.5 0 0 0 0 .71l2.54 2.54c.2.2.52.2.72 0l4.57-4.57a.5.5 0 0 0 0-.72"/></svg>