<svg xmlns="http://www.w3.org/2000/svg" viewBox="0 0 16 16"><path fill="#ff40a0" d="M5.1 9.78 7.3 12h1.13l3.96-3.96L9.38.92A1.5 1.5 0 0 0 8 0a1.5 1.5 0 0 0-1.38.92L3 9.45a1.9 1.9 0 0 1 2.08.33M8 5.35 9.54 9H6.46z"/><path fill="#ff40a0" d="m13.92 11.64-2.29 2.3.49 1.14a1.5 1.5 0 0 0 1.97.8 1.5 1.5 0 0 0 .8-1.96z"/><path fill="#ff40a0" d="M2.53 12.34q-.3-.31-.44-.73l-.97 2.3a1.5 1.5 0 0 0 .8 1.97 1.5 1.5 0 0 0 1.96-.8l.41-.97z"/><path fill="#ff40a0" d="M15.76 7.3a.8.8 0 0 0-1.15 0l-6.45 6.45a.4.4 0 0 1-.57 0l-3.2-3.2a.8.8 0 0 0-1.15 0 .8.8 0 0 0 0 1.15l4.06 4.06a.8.8 0 0 0 1.15 0l7.31-7.31a.8.8 0 0 0 0-1.15"/></svg>