<svg xmlns="http://www.w3.org/2000/svg" viewBox="0 0 16 16"><path fill="#40a0ff" d="m2 14.62.03-.1c.41-1.79 1.5-2.9 3.1-3.25l.15-.66c.5-2.18 1.96-3.33 4.22-3.33 1.94 0 2.9.9 3.6 1.56l.28.26q.38.38.59.45c.13.03.37.1.69-.1l.06-.08v.05q.21-.14.48-.49l.6-.78A2 2 0 0 0 14 7H5.44a2 2 0 0 0-1.9 1.37L2 13V7c0-1.1.9-2 2-2h11c.55 0 1-.45 1-1s-.45-1-1-1H8L6.59 1.59A2 2 0 0 0 5.17 1H2a2 2 0 0 0-2 2v10c0 1.1.9 2 2 2z"/><path fill="#40a0ff" d="m4.56 14.71-.27.13-.2.16h1.36a1 1 0 0 0-.42-.26 1 1 0 0 0-.47-.03"/><path fill="#40a0ff" d="M13.72 13.67q-.17.75-.5 1.33H14a2 2 0 0 0 2-2v-1.24a3.8 3.8 0 0 1-2.12 1.25z"/><path fill="#40a0ff" fill-rule="evenodd" d="M9.5 8.28c-1.75 0-2.84.81-3.25 2.56q.98-1.28 2.28-.97c.48.12.8.48 1.21.89.7.65 1.39 1.38 3.01 1.38q2.63.01 3.25-2.6c-.65.85-1.42 1.22-2.27.98-.5-.13-.82-.5-1.22-.86-.7-.65-1.38-1.38-3.01-1.38" clip-rule="evenodd"/><path fill="#40a0ff" fill-rule="evenodd" d="M6.25 12.14q-2.63-.01-3.25 2.6.98-1.35 2.28-.97c.48.12.8.44 1.21.85.65.65 1.38 1.38 3.01 1.38 1.75 0 2.84-.81 3.25-2.56-.65.81-1.42 1.18-2.27.98-.5-.13-.82-.5-1.22-.9-.7-.65-1.38-1.38-3.01-1.38" clip-rule="evenodd"/></svg>