<svg xmlns="http://www.w3.org/2000/svg" viewBox="0 0 16 16"><path fill="#40a0ff" fill-rule="evenodd" d="M8 3.25c-2.15 0-3.5 1-4 3.15q1.21-1.57 2.8-1.2c.6.15 1 .6 1.5 1.1C9.15 7.1 10 8 12 8q3.24.01 4-3.2c-.8 1.05-1.75 1.5-2.8 1.2-.6-.15-1-.6-1.5-1.05-.85-.8-1.7-1.7-3.7-1.7" clip-rule="evenodd"/><path fill="#40a0ff" fill-rule="evenodd" d="M4 8q-3.24-.01-4 3.2Q1.21 9.55 2.8 10c.6.15 1 .55 1.5 1.05.8.8 1.7 1.7 3.7 1.7 2.15 0 3.5-1 4-3.15-.8 1-1.75 1.45-2.8 1.2-.6-.15-1-.6-1.5-1.1C6.85 8.9 6 8 4 8" clip-rule="evenodd"/></svg>