<svg xmlns="http://www.w3.org/2000/svg" viewBox="0 0 16 16"><path fill="#ff4040" d="M14 3H8L6.59 1.59A2 2 0 0 0 5.17 1H2a2 2 0 0 0-2 2v10c0 1.1.9 2 2 2h4.54A6 6 0 1 1 16 7.69V5a2 2 0 0 0-2-2"/><circle cx="11" cy="11" r=".63" fill="#ff4040"/><path fill="#ff4040" d="M11 13.81a2.82 2.82 0 1 1 0-5.63 2.82 2.82 0 0 1 0 5.63m0-4.37a1.56 1.56 0 1 0 0 3.13 1.56 1.56 0 0 0 0-3.13"/><path fill="#ff4040" d="M11 16a5 5 0 1 1 .01-10.01A5 5 0 0 1 11 16m0-8.75a3.75 3.75 0 1 0 0 7.5 3.75 3.75 0 0 0 0-7.5"/></svg>