<svg xmlns="http://www.w3.org/2000/svg" viewBox="0 0 16 16"><path fill="#ffa040" d="M10.85 5.79a1.5 1.5 0 1 1-3.01 0 1.5 1.5 0 0 1 3.01 0"/><circle cx="6.73" cy="10.16" r="1.51" fill="#40a0ff"/><path fill="#ffa040" fill-rule="evenodd" d="M12.51 10.66c-.6.4-1.3.7-2 .8q.28-.89.2-1.85a4.12 4.12 0 1 0-4.73-6.18q-1.13.14-2.21.65a5.83 5.83 0 1 1 8.74 6.63z" clip-rule="evenodd"/><path fill="#40a0ff" fill-rule="evenodd" d="M3.57 5.24c.6-.4 1.3-.7 2-.8q-.3.9-.2 1.85a4.12 4.12 0 1 0 4.68 6.18q1.13-.14 2.21-.65a5.83 5.83 0 1 1-8.7-6.58" clip-rule="evenodd"/></svg>