<svg xmlns="http://www.w3.org/2000/svg" viewBox="0 0 16 16"><path fill="#ff4040" d="m13.3.4-3 .15L8.8 0 2.7.35 3 7.6 2.7 16l3.84-.35 6.56.2-.4-8.05zM7.7 2.55c1.7-2 1.95-.05 1.95-.05v.05c0-.1-.3-1.3-1.8.2a4.7 4.7 0 0 0-1.26 3.43l.01.07v-.07c-.1-.73-.2-2.08 1.1-3.63m-1.6 4.2s.15.45.7.6h-.4s-.38 1.03.23 3.59l.02.06v.05l-.02-.11a10 10 0 0 1-.53-4.19m0 4.45c.37.3.55.33.63.32l.07-.07v.05l-.07.02a1 1 0 0 1-.33.18c.2.65.95 1.15.95 1.15A2.4 2.4 0 0 1 6.1 11.2m2.05 4.25s-1.65-5.25-.3-9.5V6s-.4 1.85-.3 4.85c0 .9.15 1.75.25 2.5l.35 1.6zm.1-2.7s.6-.9.5-1.85l-.4-.15s.55 0 .6-.35c0 0 .1 1.7-.7 2.35m.7-3.35c.1.7-.5 1.1-.5 1.1s.5-.65.35-1.15c-.15-.4 0-1.3.15-1.6 0 0-.15 0-.25-.2V7.5s.3.1.5 0c0 0-.35 1.2-.25 1.9M8.9 6.95s.85-1.9.65-2.5c0 0-.2-.15-.7-.1 0 0 .4-.2.9-.25 0 0 .6 1.05-.85 2.85"/><path fill="#6060ff" d="m8.8 10.9-.7.2.4-.9.35-2.5-.5-.1.6-.8.7-2.6-1.25.25S9.05 3.3 9.75 2.5l-.9-.65s-2.9 1.25-2.1 5.4l-.6-.15.55 4.35-.5.15s.5 1 1.2 1.5c.1 0-.85-3.4.15-6.85l.1.25s-.8 3.6 0 6.55c0 0 0 .1.4 0 0 0 .75-1.3.75-2.15"/><path fill="#ffff40" d="M7.3.8S7.15.4 6.8.35c-.3 0-.6.4-1 1.2-.8 1.9-.5 3.3-.5 3.35l.2.7.05-.75c.3-2.7.9-3.5 1.25-3.75.2-.15.35-.15.35-.15l.25.1z"/><path fill="#ffff40" d="M5.65.6 5.8.4h-.3q-.39 0-.55.3c-.45.6-.1 1.9-.1 2l.25-.1c-.15-1 .5-2 .5-2z"/><path fill="#ffff40" d="m10.45 3.25.1.25c.1.05.3.45-.5 2.5l-.4 1 .6-.85c0-.05.6-.9 1-2.3q.06-.45-.1-.6c-.25-.2-.65 0-.7 0"/><path fill="#ffff40" d="M12.5 3.4c-.1-.2-.35-.35-.7-.35L11.5 3l.25.25s.5.45.15 1l-.55 1 .65-.8c.05-.1.55-.6.4-1z"/></svg>