<svg xmlns="http://www.w3.org/2000/svg" viewBox="0 0 16 16"><path fill="#ff40a0" d="M14 3H8L6.59 1.59A2 2 0 0 0 5.17 1H2a2 2 0 0 0-2 2v10c0 1.1.9 2 2 2h3.04L5 14.57V12.8q.01-.4.2-.72-.19-.31-.2-.71v-.72q.01-.4.2-.71-.19-.31-.2-.72V7.43A2.43 2.43 0 0 1 7.43 5H9.2q.4.01.72.2.31-.19.71-.2h.72q.4.01.71.2.31-.19.72-.2h1.78q.82.02 1.43.47V5a2 2 0 0 0-2-2"/><path fill="#ff40a0" d="M6 14.57c0 .79.64 1.43 1.43 1.43v-1.07c0-.2-.16-.36-.36-.36z"/><path fill="#ff40a0" d="M7.43 6C6.64 6 6 6.64 6 7.43h1.07c.2 0 .36-.16.36-.36z"/><path fill="#ff40a0" d="M6 12.79c0-.2.16-.36.36-.36h.71c.2 0 .36.16.36.36v.71c0 .2-.16.36-.36.36h-.71A.36.36 0 0 1 6 13.5z"/><path fill="#ff40a0" d="M8.14 14.93c0-.2.16-.36.36-.36h.71c.2 0 .36.16.36.36v.71c0 .2-.16.36-.36.36H8.5a.36.36 0 0 1-.36-.36z"/><path fill="#ff40a0" d="M10.29 14.93c0-.2.16-.36.35-.36h.72c.2 0 .35.16.35.36v.71c0 .2-.16.36-.35.36h-.72a.36.36 0 0 1-.35-.36z"/><path fill="#ff40a0" d="M12.43 14.93c0-.2.16-.36.36-.36h.71c.2 0 .36.16.36.36v.71c0 .2-.16.36-.36.36h-.71a.36.36 0 0 1-.36-.36z"/><path fill="#ff40a0" d="M8.14 6.36c0-.2.16-.36.36-.36h.71c.2 0 .36.16.36.36v.71c0 .2-.16.36-.36.36H8.5a.36.36 0 0 1-.36-.36z"/><path fill="#ff40a0" d="M10.29 6.36c0-.2.16-.36.35-.36h.72c.2 0 .35.16.35.36v.71c0 .2-.16.36-.35.36h-.72a.36.36 0 0 1-.35-.36z"/><path fill="#ff40a0" d="M12.43 6.36c0-.2.16-.36.36-.36h.71c.2 0 .36.16.36.36v.71c0 .2-.16.36-.36.36h-.71a.36.36 0 0 1-.36-.36z"/><path fill="#ff40a0" d="M6 10.64c0-.2.16-.35.36-.35h.71c.2 0 .36.16.36.35v.72c0 .2-.16.35-.36.35h-.71a.36.36 0 0 1-.36-.35z"/><path fill="#ff40a0" d="M6 8.5c0-.2.16-.36.36-.36h.71c.2 0 .36.16.36.36v.71c0 .2-.16.36-.36.36h-.71A.36.36 0 0 1 6 9.21z"/><path fill="#ff40a0" d="M16 14.57c0 .79-.64 1.43-1.43 1.43v-1.07c0-.2.16-.36.36-.36z"/><path fill="#ff40a0" d="M14.57 6c.79 0 1.43.64 1.43 1.43h-1.07a.36.36 0 0 1-.36-.36z"/><path fill="#ff40a0" d="M16 12.79c0-.2-.16-.36-.36-.36h-.71c-.2 0-.36.16-.36.36v.71c0 .2.16.36.36.36h.71c.2 0 .36-.16.36-.36z"/><path fill="#ff40a0" d="M16 10.64c0-.2-.16-.35-.36-.35h-.71c-.2 0-.36.16-.36.35v.72c0 .2.16.35.36.35h.71c.2 0 .36-.16.36-.35z"/><path fill="#ff40a0" d="M16 8.5c0-.2-.16-.36-.36-.36h-.71c-.2 0-.36.16-.36.36v.71c0 .2.16.36.36.36h.71c.2 0 .36-.16.36-.36z"/><path fill="#ff40a0" d="M13.86 13.14c0 .4-.32.72-.72.72H8.86a.7.7 0 0 1-.72-.72V8.86c0-.4.32-.72.72-.72h4.28c.4 0 .72.32.72.72z"/></svg>