<svg xmlns="http://www.w3.org/2000/svg" viewBox="0 0 16 16"><path fill="#ff40a0" d="M1 13c0 1.1.9 2 2 2v-1.5a.5.5 0 0 0-.5-.5z"/><path fill="#ff40a0" d="M3 1a2 2 0 0 0-2 2h1.5a.5.5 0 0 0 .5-.5z"/><path fill="#ff40a0" d="M1 10.5c0-.28.23-.5.5-.5h1c.27 0 .5.22.5.5v1a.5.5 0 0 1-.5.5h-1a.5.5 0 0 1-.5-.5z"/><path fill="#ff40a0" d="M4 13.5c0-.28.22-.5.5-.5h1c.28 0 .5.22.5.5v1a.5.5 0 0 1-.5.5h-1a.5.5 0 0 1-.5-.5z"/><path fill="#ff40a0" d="M7 13.5c0-.28.22-.5.5-.5h1c.28 0 .5.22.5.5v1a.5.5 0 0 1-.5.5h-1a.5.5 0 0 1-.5-.5z"/><path fill="#ff40a0" d="M10 13.5c0-.28.23-.5.5-.5h1c.28 0 .5.23.5.5v1a.5.5 0 0 1-.5.5h-1a.5.5 0 0 1-.5-.5z"/><path fill="#ff40a0" d="M4 1.5c0-.27.22-.5.5-.5h1c.28 0 .5.23.5.5v1a.5.5 0 0 1-.5.5h-1a.5.5 0 0 1-.5-.5z"/><path fill="#ff40a0" d="M7 1.5c0-.27.22-.5.5-.5h1c.28 0 .5.23.5.5v1a.5.5 0 0 1-.5.5h-1a.5.5 0 0 1-.5-.5z"/><path fill="#ff40a0" d="M10 1.5c0-.27.22-.5.5-.5h1c.28 0 .5.23.5.5v1a.5.5 0 0 1-.5.5h-1a.5.5 0 0 1-.5-.5z"/><path fill="#ff40a0" d="M1 7.5c0-.28.23-.5.5-.5h1c.27 0 .5.22.5.5v1a.5.5 0 0 1-.5.5h-1a.5.5 0 0 1-.5-.5z"/><path fill="#ff40a0" d="M1 4.5c0-.28.23-.5.5-.5h1c.27 0 .5.22.5.5v1a.5.5 0 0 1-.5.5h-1a.5.5 0 0 1-.5-.5z"/><path fill="#ff40a0" d="M15 13a2 2 0 0 1-2 2v-1.5c0-.28.22-.5.5-.5z"/><path fill="#ff40a0" d="M13 1a2 2 0 0 1 2 2h-1.5a.5.5 0 0 1-.5-.5z"/><path fill="#ff40a0" d="M15 10.5a.5.5 0 0 0-.5-.5h-1a.5.5 0 0 0-.5.5v1c0 .28.23.5.5.5h1a.5.5 0 0 0 .5-.5z"/><path fill="#ff40a0" d="M15 7.5a.5.5 0 0 0-.5-.5h-1a.5.5 0 0 0-.5.5v1c0 .28.22.5.5.5h1a.5.5 0 0 0 .5-.5z"/><path fill="#ff40a0" d="M15 4.5a.5.5 0 0 0-.5-.5h-1a.5.5 0 0 0-.5.5v1c0 .28.22.5.5.5h1a.5.5 0 0 0 .5-.5z"/><path fill="#ff40a0" d="M12 11a1 1 0 0 1-1 1H5a1 1 0 0 1-1-1V5a1 1 0 0 1 1-1h6a1 1 0 0 1 1 1z"/></svg>