<svg xmlns="http://www.w3.org/2000/svg" viewBox="0 0 16 16"><path fill="#ff4040" d="m5.66 13.16 3.09-3.19V8.21A1.6 1.6 0 0 1 7.56 7H5.44a2 2 0 0 0-1.9 1.37L2 13V7c0-1.1.9-2 2-2h11c.55 0 1-.45 1-1s-.45-1-1-1H8L6.59 1.59A2 2 0 0 0 5.17 1H2a2 2 0 0 0-2 2v10c0 1.1.9 2 2 2h3.02c-.07-.67.15-1.35.64-1.84"/><path fill="#ff4040" d="M14.43 7.05c-.16.57-.6 1.02-1.18 1.16v1.76L16 12.81V9a2 2 0 0 0-1.57-1.95"/><path fill="#ff4040" d="m15.63 13.87-3.38-3.5V7.26h.63c.34 0 .62-.28.62-.62S13.22 6 12.88 6H9.12a.63.63 0 0 0 .01 1.25h.62v3.13l-3.38 3.49c-.79.78-.23 2.13.88 2.13h7.5c1.11 0 1.67-1.35.88-2.13"/></svg>