<svg xmlns="http://www.w3.org/2000/svg" viewBox="0 0 16 16"><path fill="#e0e0e0" d="m14.56 9.39-1.54-2.28 1.41-2.04c.11-.16.27-.38.76-.39h.46v-1.2c-.83.09-1.77.09-2.58 0l.02 1.17.24.02-.72 1.04-.71-1.04h.18V3.5c-.92.06-1.94.08-2.86-.01v1.2c.2 0 .94-.06.94.08l1.54 2.27c-.2.22-1.4 2.22-1.68 2.27l-.28.07c-.1.05-.51.03-.63.03v1.2l.42-.04c-.15.6-.4.8-1.26.8H7.12V9.44c.14-.01.8 0 .77.05.06 0 .06.82.06 1.01h1.08V7.25H7.95c0 .18 0 .99-.05.98.02.05-.63.07-.78.06V6.67h1.13c1.03 0 1.09.23 1.2 1.3l.05.43h1.1l-.31-2.92h-3.9l-.57-1.94H.22L0 6.46h1.1l.04-.44c.1-1.3.1-1.3 1.16-1.3h.2L2.48 9.4c-.16.02-.84 0-1.03.01v1.15c1.12-.03 2.34-.01 3.57.01V9.41H4V4.7c.83 0 1.25-.06 1.28.77h-.42v1.19h.73v4.69h-.73v1.15h5.12l.5-1.96q.63 0 1.2.06l-.02-1.16-.24-.02.95-1.4.95 1.4-.18.01v1.16a19 19 0 0 1 2.85 0V9.42z"/></svg>