<svg xmlns="http://www.w3.org/2000/svg" viewBox="0 0 16 16"><path fill="#ff40ff" d="M5.47 14.76a1.63 1.63 0 0 1 0-2.3l.8-.8A1.6 1.6 0 0 1 5 10.07q0-.66.48-1.15l.73-.73a1.6 1.6 0 0 1-1.14-1.13c-.7.13-1.3.61-1.53 1.3L2 13V7c0-1.1.9-2 2-2h11c.55 0 1-.45 1-1s-.45-1-1-1H8L6.59 1.59A2 2 0 0 0 5.17 1H2a2 2 0 0 0-2 2v10c0 1.1.9 2 2 2h3.8a2 2 0 0 1-.33-.24"/><path fill="#ff40ff" d="m15.79 13.8.03.02.03-.07z"/><circle cx="6.63" cy="6.63" r=".63" fill="#ff40ff"/><path fill="#ff40ff" d="M13.17 6.18a.63.63 0 0 1 .88 0c.24.25.24.64 0 .89l-6.98 6.98a.63.63 0 0 1-.89 0 .63.63 0 0 1 0-.88z"/><path fill="#ff40ff" d="M9.63 6.18a.63.63 0 0 1 .89 0c.24.25.24.64 0 .89L7.07 10.5a.63.63 0 0 1-.89 0 .63.63 0 0 1 0-.88z"/><path fill="#ff40ff" d="M15.38 14.75a.62.62 0 1 0 0 1.25.62.62 0 0 0 0-1.25"/><path fill="#ff40ff" d="M15.82 11.49a.63.63 0 0 0-.89 0l-3.45 3.44a.63.63 0 0 0 0 .89c.25.24.65.24.89 0l3.45-3.45a.63.63 0 0 0 0-.88"/><path fill="#ff40ff" d="M15.82 7.95a.63.63 0 0 0-.89 0l-6.98 6.98a.63.63 0 0 0 0 .89c.24.24.64.24.88 0l6.99-6.99a.63.63 0 0 0 0-.88"/></svg>