<svg xmlns="http://www.w3.org/2000/svg" viewBox="0 0 16 16"><path fill="#e0e0e0" d="M15 3H8L6.59 1.59A2 2 0 0 0 5.17 1H2a2 2 0 0 0-2 2v10c0 1.1.9 2 2 2h5.54q-.03-.12-.04-.25v-7.5q0-.13.03-.25H5.44a2 2 0 0 0-1.9 1.37L2 13V7c0-1.1.9-2 2-2h11c.55 0 1-.45 1-1s-.45-1-1-1"/><path fill="#e0e0e0" d="m15.63 8.13-1.76-1.76a1.3 1.3 0 0 0-.89-.37H9.75c-.69 0-1.25.56-1.25 1.25v7.5c0 .69.56 1.25 1.25 1.25h5c.69 0 1.25-.56 1.25-1.25V9.02q0-.51-.37-.89m-3.38-.25c0-.56.67-.84 1.07-.45l1.25 1.25c.4.4.11 1.07-.45 1.07h-1.24a.6.6 0 0 1-.63-.62zm1.88 6.87h-3.76c-.34 0-.62-.28-.62-.62s.28-.63.63-.63h3.74c.35 0 .63.28.63.63s-.28.62-.62.62m0-2.5h-3.76c-.34 0-.62-.28-.62-.62s.28-.63.63-.63h3.74c.35 0 .63.28.63.63s-.28.62-.62.62"/></svg>