<svg xmlns="http://www.w3.org/2000/svg" viewBox="0 0 16 16"><circle cx="1" cy="1" r="1" fill="#ff40ff"/><path fill="#ff40ff" d="M11.47.3a1 1 0 0 1 1.41 0 1 1 0 0 1 0 1.4L1.71 12.89a1 1 0 0 1-1.42 0 1 1 0 0 1 0-1.41z"/><path fill="#ff40ff" d="M5.81.3a1 1 0 0 1 1.41 0 1 1 0 0 1 0 1.4L1.71 7.23a1 1 0 0 1-1.42 0 1 1 0 0 1 0-1.41z"/><path fill="#ff40ff" d="M15 14a1 1 0 1 0 0 2 1 1 0 0 0 0-2"/><path fill="#ff40ff" d="M15.7 8.78a1 1 0 0 0-1.4 0l-5.52 5.51a1 1 0 0 0 0 1.42 1 1 0 0 0 1.41 0l5.52-5.52a1 1 0 0 0 0-1.41"/><path fill="#ff40ff" d="M15.7 3.12a1 1 0 0 0-1.4 0L3.11 14.29a1 1 0 0 0 0 1.42 1 1 0 0 0 1.41 0L15.71 4.53a1 1 0 0 0 0-1.41"/></svg>