<svg xmlns="http://www.w3.org/2000/svg" viewBox="0 0 16 16"><path fill="#ffa040" d="M13.25 14.5q.02.24 0 .5H14a2 2 0 0 0 1.98-1.78 4 4 0 0 1-2.73 1.28"/><path fill="#ffa040" d="M14 3H8L6.59 1.59A2 2 0 0 0 5.17 1H2a2 2 0 0 0-2 2v10c0 1.1.9 2 2 2h4.55a5.95 5.95 0 0 1 .95-8.87 6.1 6.1 0 0 1 5.56-.79A5.8 5.8 0 0 1 16 7.64V5a2 2 0 0 0-2-2"/><path fill="#ffa040" d="M15.97 10.27v-.02a4.9 4.9 0 0 0-3.23-3.96 5 5 0 1 0-1.8 9.71 1.3 1.3 0 0 0 1.31-1.07c.07-.47-.13-.9-.45-1.16-.12-.09-.05-.27.1-.27h1.19a2.88 2.88 0 0 0 2.88-3.23m-7.62 1.36a.78.78 0 1 1 0-1.57.78.78 0 0 1 0 1.57m1.25-2.2a.78.78 0 1 1 0-1.56.78.78 0 0 1 0 1.57m2.5 0a.78.78 0 1 1 0-1.56.78.78 0 0 1 0 1.57m1.57 2.2a.78.78 0 1 1 0-1.57.78.78 0 0 1 0 1.57"/></svg>