<svg xmlns="http://www.w3.org/2000/svg" viewBox="0 0 16 16"><path fill="#ff40ff" d="M7.07 14.79a2.3 2.3 0 0 1-1.06-1.84v-3.9c0-.7.45-1.48 1.06-1.84L7.44 7h-2a2 2 0 0 0-1.9 1.37L2 13V7c0-1.1.9-2 2-2h11c.55 0 1-.45 1-1s-.45-1-1-1H8L6.59 1.59A2 2 0 0 0 5.17 1H2a2 2 0 0 0-2 2v10c0 1.1.9 2 2 2h5.44z"/><path fill="#ff40ff" d="m15.44 8.08-3.37-1.95a1.3 1.3 0 0 0-1.13 0L7.57 8.08c-.3.18-.56.62-.56.97v3.9c0 .35.25.8.56.97l3.37 1.95c.31.17.82.17 1.13 0l3.37-1.95c.3-.18.56-.62.56-.97v-3.9c0-.35-.25-.8-.56-.97m-3.61-.6 1.76 1.02c.22.12.22.43 0 .55l-1.77 1.03a.6.6 0 0 1-.63 0L9.42 9.05a.32.32 0 0 1 0-.55l1.76-1.02c.2-.12.45-.12.65 0m-3.06 2.69 1.78 1.02c.2.11.31.32.31.54v2.05c0 .25-.26.4-.48.28l-1.77-1.02a.6.6 0 0 1-.32-.56v-2.04c0-.24.27-.4.48-.27m3.38 3.61v-2.04q.01-.37.32-.55l1.76-1.02c.22-.13.49.03.49.27v2.04q-.02.36-.33.56l-1.76 1.02a.32.32 0 0 1-.48-.28"/></svg>