<svg xmlns="http://www.w3.org/2000/svg" viewBox="0 0 16 16"><path fill="#a0a0a0" d="M0 0h3.55v1.75H1.9v12.5h1.65V16H.05V0z"/><path fill="#a0a0a0" d="M14.1 6.42a1.6 1.6 0 0 1 1.75.77l.1.18V0h-3.5v1.75h1.65z"/><path fill="#a0a0a0" d="M15.84 14.81a1.6 1.6 0 0 1-2.16.63q-.01.3-.13.56h2.4v-1.37z"/><path fill="#e0e0e0" d="M6.9 6.65a1.6 1.6 0 0 1 1.66-.09c0-.35.14-.67.34-.93V5.2h.51q.36-.19.77-.2h1.57V3.35h-7.7V5.2H6.9z"/><path fill="#a0a0a0" d="m15.69 11.83-.9-.52c-.3-.17-.3-.45 0-.62l.9-.52c.3-.18.4-.56.23-.86l-.94-1.62a.63.63 0 0 0-.85-.23l-.9.52c-.3.17-.55.03-.55-.31V6.63a.63.63 0 0 0-.62-.63h-1.88a.63.63 0 0 0-.62.63v1.04c0 .34-.25.48-.55.31l-.9-.52a.63.63 0 0 0-.85.23L6.32 9.3c-.17.3-.07.68.23.86l.9.52c.3.17.3.45 0 .62l-.9.52c-.3.18-.4.56-.23.86l.94 1.62c.17.3.55.4.85.23l.9-.52c.3-.17.55-.03.55.31v1.05c0 .34.28.62.62.62h1.88c.34 0 .62-.28.62-.62v-1.05c0-.34.24-.48.54-.31l.9.52c.3.17.69.07.86-.23l.94-1.62a.63.63 0 0 0-.23-.86m-3.8.52a1.56 1.56 0 1 1-1.55-2.7 1.56 1.56 0 0 1 1.56 2.7"/></svg>