<svg xmlns="http://www.w3.org/2000/svg" viewBox="0 0 16 16"><path fill="#a0a0a0" d="M14 7h-1.36a4 4 0 0 1 .52 2.98L16 12.82V9a2 2 0 0 0-2-2"/><path fill="#a0a0a0" d="M9.98 13.16q-.43.09-.86.09A4.13 4.13 0 0 1 5.62 7h-.17a2 2 0 0 0-1.9 1.37L2 13V7c0-1.1.9-2 2-2h11c.55 0 1-.45 1-1s-.45-1-1-1H8L6.59 1.59A2 2 0 0 0 5.17 1H2a2 2 0 0 0-2 2v10c0 1.1.9 2 2 2h9.82z"/><path fill="#a0a0a0" d="m15.82 14.05-3.8-3.79A3.1 3.1 0 0 0 8 6.22L9.57 7.8c.24.24.24.64 0 .88l-.89.89a.63.63 0 0 1-.88 0L6.22 7.99a3.1 3.1 0 0 0 4.04 4.04l3.79 3.79c.24.24.64.24.88 0l.89-.89a.63.63 0 0 0 0-.88"/></svg>