<svg xmlns="http://www.w3.org/2000/svg" viewBox="0 0 16 16"><path fill="#a040ff" d="M8.12.13h.07l-.22.02A8.04 8.04 0 0 1 16 8.23c0 1.85-.69 3.68-1.88 5.09-1.72.22-3.5.35-5.2-.1a4.3 4.3 0 0 1-2.48-1.76 2.7 2.7 0 0 1 .5-3.26 2.64 2.64 0 0 1 4.04.63l1.07-.57a4 4 0 0 0-.96-1.13A3.88 3.88 0 0 0 5 11.2a4.5 4.5 0 0 0 1.96 2.49c.72.46 1.54.7 2.37.86 1.14.2 2.3.12 3.44.03-.11.11-.28.1-.43.13a10 10 0 0 1-3.7-.1 6 6 0 0 1-3.07-1.7 4.22 4.22 0 0 1 4.68-6.77l.5-1.12a5.54 5.54 0 0 0-6.98 2.53 5 5 0 0 0-.55 3.16 5.7 5.7 0 0 0 4.09 4.65q1.34.39 2.74.4l.39.03c-.19.1-.4.06-.6.07q-1.66.04-3.24-.53A6 6 0 0 1 4.5 14a6 6 0 0 1-1.42-2.14 6 6 0 0 1-.27-3.02c.23-1.2.9-2.27 1.8-3.08a5.8 5.8 0 0 1 3.98-1.51V3a7.2 7.2 0 0 0-6.76 4.7 6 6 0 0 0-.3 3.67A6 6 0 0 0 4.06 15c.2.14.42.24.61.4l-.26-.07q-.6-.3-1.15-.7a8 8 0 0 1-3.02-4.4Q-.07 8.88.03 7.5A8 8 0 0 1 6.86.23c.42-.06.84-.06 1.26-.1"/></svg>