<svg xmlns="http://www.w3.org/2000/svg" viewBox="0 0 16 16"><path fill="#a0ff40" d="M16 12.15v-1.66c-.19.19-.34.45-.34.82 0 .4.17.67.34.84"/><path fill="#a0ff40" d="M14 0H2a2 2 0 0 0-2 2v12c0 1.1.9 2 2 2h6.62q-.3-.35-.53-.69-.41-.6-.69-1.31H3a1 1 0 0 1-.83-1.55l2-3a1 1 0 0 1 1.54-.16l.77.78a.5.5 0 0 0 .56.1 3.6 3.6 0 0 1 1.85-2.35l.31-.42a1 1 0 0 1 1.66.09l.01.02h.1A3.2 3.2 0 0 1 13.88 5l.82-.02.19.8q.04.2.04.43-.01.68-.32 1.32.8.19 1.39.71V2a2 2 0 0 0-2-2"/><path fill="#e0e0e0" d="M15.74 9.4c-.06.05-1.08.63-1.08 1.91 0 1.49 1.3 2.01 1.34 2.03 0 .03-.2.72-.69 1.42-.43.61-.87 1.23-1.55 1.23s-.86-.4-1.64-.4-1.04.41-1.66.41-1.06-.57-1.56-1.27a6 6 0 0 1-1.04-3.31c0-1.95 1.26-2.98 2.5-2.98.67 0 1.22.44 1.63.44s1.01-.46 1.77-.46c.28 0 1.3.02 1.98.99"/><path fill="#e0e0e0" d="M13.4 7.6c.31-.37.53-.89.53-1.4l-.02-.2c-.5.02-1.1.34-1.47.76-.28.32-.55.83-.55 1.35l.02.18.13.02c.46 0 1.03-.3 1.36-.72"/></svg>