<svg xmlns="http://www.w3.org/2000/svg" viewBox="0 0 16 16"><path fill="#a0a0a0" d="M14 3H8L6.59 1.59A2 2 0 0 0 5.17 1H2a2 2 0 0 0-2 2v10c0 1.1.9 2 2 2h4.91l-.04-.25V9.13q0-.29.1-.53a1.62 1.62 0 0 1 .9-2.97h.87l.9-.46q.35-.16.73-.17h2.5q.4 0 .74.17l.9.46h.86q.35 0 .63.12V5a2 2 0 0 0-2-2"/><path fill="#a0a0a0" d="M15.38 6.63h-1.03l-.14-.04-1.06-.52a1 1 0 0 0-.28-.07h-2.5q-.15 0-.27.07l-1.06.52-.14.04H7.87a.62.62 0 1 0 0 1.25h7.5a.62.62 0 1 0 0-1.25"/><path fill="#a0a0a0" d="M14.75 8.5H8.5a.6.6 0 0 0-.62.63v5.62c0 .69.55 1.25 1.25 1.25h5c.69 0 1.24-.56 1.24-1.25V9.13a.6.6 0 0 0-.62-.63m-3.75 5c0 .34-.28.63-.62.63s-.63-.29-.63-.63V11c0-.34.28-.62.63-.62s.62.28.62.62zm2.5 0c0 .34-.28.63-.62.63s-.63-.29-.63-.63V11c0-.34.28-.62.63-.62s.62.28.62.62z"/></svg>