<svg xmlns="http://www.w3.org/2000/svg" viewBox="0 0 16 16"><path fill="#e0e0e0" fill-rule="evenodd" d="M10.84 9.08c0 .26-.36.26-.36 0 0-.2.36-.26.36 0" clip-rule="evenodd"/><path fill="#e0e0e0" fill-rule="evenodd" d="M5.72 9.23c0 .21-.31.21-.37 0 0-.25.37-.25.37 0" clip-rule="evenodd"/><path fill="#e0e0e0" fill-rule="evenodd" d="m4 9.18.68-1.03-1.91.26.25 2.07.83.67 2.8-.62c.72-2.8.26-1.14 2.12-2.54v-.05c-1.92-.05-3.42 0-4.76 1.24m2.08.52c0 .93-1.14.31-1.55.62 0 0 0-.2.36-.31C4.47 8.77 6.13 8 6.13 9.7z" clip-rule="evenodd"/><path fill="#ff4040" fill-rule="evenodd" d="M3.13 6.85S.53 8.66.49 9.34h.15S3.74 7.27 6.18 7l.05-.31z" clip-rule="evenodd"/><path fill="#ff4040" fill-rule="evenodd" d="M7.22 6.6 5.15 8.03l.1.06c.72-.32 3.93-1.04 4.4-1.56H7.22" clip-rule="evenodd"/><path fill="#ff4040" fill-rule="evenodd" d="M8.98 8.3c1.45 0 3.62-1.4 3.62-1.4l-.72-.1a6 6 0 0 1-1.66-.2c-.1.15-1.4 1.5-1.35 1.65z" clip-rule="evenodd"/><path fill="#ff4040" fill-rule="evenodd" d="m2.82 13.69-.21-.16z" clip-rule="evenodd"/><path fill="#ff4040" fill-rule="evenodd" d="M13.58 12.8c-.25.21-2.12.1-2.48.1l-1.3-1.03-1.55.42-1.8-.16-1.04 1.14-1.87.52-.93-.26v-.05c.25.98.94 1.78 1.86 2.17 1.14.16 3.78 0 4.04-1.45 1.04 1.66 2.43.99 3.68.62 1.4-.25 1.55-1.34 1.96-2.27l-.51.3z" clip-rule="evenodd"/><path fill="#a0a0a0" fill-rule="evenodd" d="M6.54 7.78h2.49l.78-.82c-1.1.1-2.33.46-3.27.82" clip-rule="evenodd"/><path fill="#a0a0a0" fill-rule="evenodd" d="m5.77 7.27-.78.62q-.9.1-1.81.26 1.18-.57 2.59-.88" clip-rule="evenodd"/><path fill="#a0a0a0" fill-rule="evenodd" d="m14.2 8.61-.3 1.97-1.25.93-3.47-.41-.51-1.71c-.1-.16-.37-.1-.47-.1s-.36 0-.41.1l-.52 1.7-3.52.78-1.35-.98-.3-2.23.51-.15.2 2.07.06.1 1.03.68 2.9-.62.06-.1.51-1.66a3 3 0 0 1 1.66 0s.47 1.86.57 1.76l2.9.3c0 .1.98-.67 1.03-.67v-.05l.26-1.81.52.1" clip-rule="evenodd"/><path fill="#a0a0a0" fill-rule="evenodd" d="m14.62 7.37-.2.93a27 27 0 0 0-3.11-.46l1.4-.78z" clip-rule="evenodd"/><path fill="#e0e0e0" fill-rule="evenodd" d="M8.36 8.56c.46.1.67.05.77.2l.52 1.72 2.74.3.88-.61.26-1.76a10 10 0 0 0-5.17.15m3.41 1.5c-.41-.26-1.65.52-1.65-.52-.06-1.7 1.6-.98 1.24.32.3-.06.41.15.41.15z" clip-rule="evenodd"/><path fill="#ffff40" fill-rule="evenodd" d="M15.4 5.46V5.2c-.73-.52-1.56-.83-2.33-1.14l1.03.26a6.31 6.31 0 0 0-11.96-.06q.53-.16 1.1-.25c-.79.3-1.67.62-2.34 1.13-.1.83 0 1.76.36 2.49l.31.2-.15-.72 1.03-.2c-.36-.1-.72-.16-.93-.42 1.66.41 4.66-.31 6.63-.2 1.97-.11 4.92.61 6.63.2q-.38.3-.83.36l1.03.26-.15.67.26-.15c.36-.67.46-1.45.41-2.23z" clip-rule="evenodd"/><path fill="#ff4040" fill-rule="evenodd" d="M9.9 2.66v-1.4H6.4v1.4h.98v-.41h.26v1.91h-.36V5.2h1.76V4.16h-.36V2.25h.26v.41z" clip-rule="evenodd"/><path fill="#a0a0a0" fill-rule="evenodd" d="m1.78 7.37.52-.1-.52.36z" clip-rule="evenodd"/><path fill="#e0e0e0" d="m14.72 9.23-.3-.2c-.06.1-.21 1.65-.32 1.7 0 .06-.36.21-.3.32l-.27.1v-.05c-.72.93-3.41.15-4.35.1v.16c-.72.1-.36-2.28-1.29-1.87-.16.26-.36 2.02-.83 1.87v-.1l-3.36.67-.93-.52c-.06-.16-.52-.2-.63-.36-.1 0-.2-1.71-.25-1.76-.73.15-.32 1.03-.21 1.7l-.16-.25c.1.2.16.93.42.93.05 0 .88 0 .77-.21.31.72.73 1.14 1.2 2.07 1.86-.15 1.86-1.97 3.41-1.55l-.15-.36c.15.4 1.96.25 2.07-.16 0 0 0 .26-.26.47 1.19-.52 1.4.2 2.22.72 1.4.41 2.07 0 2.33-1.5-.1.41.57.31.83.36.26 0 .31-.77.36-.93l-.15.16c.1-.37.3-1.3.15-1.5"/><path fill="#e0e0e0" d="m8.87 14.83-.31-.37-.15.37z"/><path fill="#e0e0e0" d="M9.65 15.34c-.47-.26-.78-.46-1.35-.3-.41.67-1.08.46-1.7.61 0 0 1.91.99 4.03-.36-.3 0-.62-.1-1.03.05z"/></svg>