<svg xmlns="http://www.w3.org/2000/svg" viewBox="0 0 16 16"><path fill="#40a0ff" d="M5.2 12.9v-.53q-.2-.33-.2-.74v-1.26q0-.4.2-.74v-1Q5 8.28 5 7.86V6.63q0-.4.2-.75V4.6h2.9V2.73H0V4.6h2.9v8.3z"/><path fill="#40a0ff" d="M9.13 5.6c.3-.36.74-.6 1.24-.6h1.25c.61-.7 2.56-.48 3.54 0h.22l.17.02v-1.9c-1.97-.63-5.04-.74-6.26 1.27A3 3 0 0 0 9 5.47q.08.06.13.13"/><path fill="#40a0ff" d="M8.5 7.88c0 .34-.28.62-.62.62H6.63A.63.63 0 0 1 6 7.88V6.63c0-.35.28-.63.63-.63h1.25c.34 0 .62.28.62.63z"/><path fill="#40a0ff" d="M8.5 7.88c0 .34-.28.62-.62.62H6.63A.63.63 0 0 1 6 7.88V6.63c0-.35.28-.63.63-.63h1.25c.34 0 .62.28.62.63z"/><path fill="#40a0ff" d="M8.5 11.63c0 .34-.28.62-.62.62H6.63a.63.63 0 0 1-.63-.62v-1.26c0-.34.28-.62.63-.62h1.25c.34 0 .62.28.62.63z"/><path fill="#40a0ff" d="M8.5 15.38c0 .34-.28.62-.62.62H6.63a.63.63 0 0 1-.63-.62v-1.26c0-.34.28-.62.63-.62h1.25c.34 0 .62.28.62.63z"/><path fill="#40a0ff" d="M16 7.88c0 .34-.28.62-.62.62h-1.26a.63.63 0 0 1-.62-.62V6.63c0-.35.28-.63.63-.63h1.24c.35 0 .63.28.63.63z"/><path fill="#40a0ff" d="M16 7.88c0 .34-.28.62-.62.62h-1.26a.63.63 0 0 1-.62-.62V6.63c0-.35.28-.63.63-.63h1.24c.35 0 .63.28.63.63z"/><path fill="#40a0ff" d="M16 11.63c0 .34-.28.62-.62.62h-1.26a.63.63 0 0 1-.62-.62v-1.26c0-.34.28-.62.63-.62h1.24c.35 0 .63.28.63.63z"/><path fill="#40a0ff" d="M16 15.38c0 .34-.28.62-.62.62h-1.26a.63.63 0 0 1-.62-.62v-1.26c0-.34.28-.62.63-.62h1.24c.35 0 .63.28.63.63z"/><path fill="#40a0ff" d="M12.25 7.88c0 .34-.28.62-.62.62h-1.26a.63.63 0 0 1-.62-.62V6.63c0-.35.28-.63.63-.63h1.24c.35 0 .63.28.63.63z"/><path fill="#40a0ff" d="M12.25 7.88c0 .34-.28.62-.62.62h-1.26a.63.63 0 0 1-.62-.62V6.63c0-.35.28-.63.63-.63h1.24c.35 0 .63.28.63.63z"/><path fill="#40a0ff" d="M12.25 11.63c0 .34-.28.62-.62.62h-1.26a.63.63 0 0 1-.62-.62v-1.26c0-.34.28-.62.63-.62h1.24c.35 0 .63.28.63.63z"/><path fill="#40a0ff" d="M12.25 15.38c0 .34-.28.62-.62.62h-1.26a.63.63 0 0 1-.62-.62v-1.26c0-.34.28-.62.63-.62h1.24c.35 0 .63.28.63.63z"/></svg>