<svg xmlns="http://www.w3.org/2000/svg" viewBox="0 0 16 16"><path fill="#40a0ff" d="M11.62 5c.65-.74 2.8-.46 3.7.09l.23.07V3.12c-1.97-.63-5.04-.74-6.26 1.27q-.14.3-.23.61z"/><path fill="#40a0ff" d="M5 12.9V7.26q0-.49.2-.9V4.6h2.9V2.73H0V4.6h2.9v8.3z"/><circle cx="11" cy="11" r=".98" fill="#40a0ff"/><path fill="#40a0ff" d="M10.51 10.15a.98.98 0 1 0 .98 1.7.98.98 0 0 0-.98-1.7"/><path fill="#40a0ff" d="M14.75 6h-7.5C6.56 6 6 6.56 6 7.25v7.5c0 .69.56 1.25 1.25 1.25h7.5c.69 0 1.25-.56 1.25-1.25v-7.5C16 6.56 15.44 6 14.75 6m-1.46 5.2.57.32c.18.1.25.35.14.54l-.59 1.01a.4.4 0 0 1-.53.14l-.57-.32c-.18-.11-.33-.02-.33.2v.64a.4.4 0 0 1-.4.4h-1.17a.4.4 0 0 1-.39-.4v-.65c0-.21-.15-.3-.33-.2l-.57.33a.4.4 0 0 1-.53-.14L8 12.06a.4.4 0 0 1 .14-.54l.57-.32c.18-.11.18-.29 0-.4l-.57-.32A.4.4 0 0 1 8 9.94l.59-1.01a.4.4 0 0 1 .53-.14l.57.32c.18.11.33.02.33-.2v-.64c0-.22.18-.4.4-.4h1.17a.4.4 0 0 1 .39.4v.65c0 .21.15.3.33.2l.57-.33a.4.4 0 0 1 .53.14L14 9.94a.4.4 0 0 1-.14.54l-.57.32c-.18.11-.18.29 0 .4"/></svg>