<svg xmlns="http://www.w3.org/2000/svg" viewBox="0 0 16 16"><path fill="#40a0ff" d="m5.14 6.48.05-.1V4.6h2.9V2.73H0V4.6h2.9v8.3h2.3V8.1a2.2 2.2 0 0 1-.06-1.62"/><path fill="#40a0ff" d="M11.62 5c.65-.74 2.8-.46 3.7.09l.23.07V3.13c-1.97-.63-5.04-.74-6.26 1.27q-.14.3-.23.61z"/><path fill="#40a0ff" d="M13.25 11.46v1.7c1-.2 1.88-.65 2.42-1.51.36-.65.43-1.6.17-2.38z"/><path fill="#40a0ff" d="M14.75 6h-7.5a1.25 1.25 0 0 0-.8 2.21L9.75 11v4.38c0 .34.28.62.63.62h1.24c.35 0 .63-.28.63-.62V11l3.3-2.79c.9-.75.37-2.21-.8-2.21"/></svg>