<svg xmlns="http://www.w3.org/2000/svg" viewBox="0 0 16 16"><path fill="#40a0ff" d="M14 3H8L6.59 1.59A2 2 0 0 0 5.17 1H2a2 2 0 0 0-2 2v10c0 1.1.9 2 2 2h2.35V9.94H2V6.43h8.58v.9c1.43-1.1 3.57-1.12 5.36-.54l.06.02V5a2 2 0 0 0-2-2"/><path fill="#40a0ff" d="M7.22 15.69V8.94h2.36V7.43H3v1.51h2.35v6.75z"/><path fill="#40a0ff" d="M15.41 11.96c-.77-.9-2.28-.98-3.04-1.86-.65-1.68 2.51-1.3 3.26-.63V7.74c-1.6-.51-4.09-.6-5.08 1.03-.74 1.45.12 2.98 1.67 3.5.8.29 2.57 1.07 1.45 2-1.05.54-2.45.14-3.34-.6v1.85c1.62.67 4.34.85 5.4-.85.43-.78.36-2.06-.32-2.71"/></svg>