<svg xmlns="http://www.w3.org/2000/svg" viewBox="0 0 16 16"><path fill="#40a0ff" d="M5.19 12.91V4.6H8.1V2.73H0V4.6h2.89v8.31z"/><path fill="#40a0ff" d="M10.56 5.27Q11.07 5 11.62 5c.71-.81 3.21-.4 3.93.24V3.12c-1.97-.63-5.04-.74-6.26 1.27a3 3 0 0 0-.28 1.72z"/><path fill="#40a0ff" d="m15.34 7.83-3.13-1.68c-.37-.2-.8-.2-1.17 0L7.9 7.83c-.4.22-.66.64-.66 1.1v2.51A4.5 4.5 0 0 0 11.49 16 4.37 4.37 0 0 0 16 11.63v-2.7c0-.46-.25-.88-.66-1.1m-.59 3.8c0 1.72-1.4 3.12-3.12 3.12V11H8.5V9.68c0-.46.25-.88.66-1.1l1.86-1.01q.3-.15.6-.15V11h3.13z"/></svg>