<svg xmlns="http://www.w3.org/2000/svg" viewBox="0 0 16 16"><path fill="#40a0ff" d="M5.19 12.91V4.6H8.1V2.73H0V4.6h2.89v8.31z"/><path fill="#40a0ff" d="M11.01 12.63H9.5v.23q.92.31 2 .4-.3-.26-.49-.63"/><path fill="#40a0ff" d="m11.48 5 .13.02c.68-.84 3.22-.42 3.94.22V3.12c-1.97-.63-5.04-.74-6.26 1.27q-.14.3-.23.61z"/><path fill="#40a0ff" d="M14.75 7.25h-1.87l-.28-.56A1.3 1.3 0 0 0 11.48 6H8.5c-.69 0-1.25.56-1.25 1.25v8.13a.62.62 0 1 0 1.25 0v-3.76h3.13l.27.56c.22.43.65.7 1.12.7h1.73c.69 0 1.25-.56 1.25-1.26V8.5c0-.69-.56-1.25-1.25-1.25"/></svg>