<svg xmlns="http://www.w3.org/2000/svg" viewBox="0 0 16 16"><path fill="#40a0ff" d="M2.9 12.9h.73V9.5c0-1.07.64-1.99 1.56-2.4V4.6h2.9V2.73H0V4.6h2.9z"/><path fill="#40a0ff" d="M12.76 6.88c-.47-.23-.9-.48-1.23-.86-.8-2.06 3.1-1.6 4.02-.78V3.12c-1.97-.63-5.04-.74-6.26 1.27a2.8 2.8 0 0 0-.07 2.49z"/><path fill="#40a0ff" d="M13.38 12.94H9.73a7.5 7.5 0 0 0 3.7.19z"/><path fill="#40a0ff" d="M15.19 6.25a.8.8 0 0 0-.81.81v.82H6.24c-.9 0-1.62.72-1.62 1.62v4.88H3.8c-.44 0-.81.36-.81.8s.37.82.81.82h5.7c.45 0 .81-.37.81-.81s-.36-.81-.81-.81h-.81v-2.44h5.69v.81c0 .45.36.81.8.81s.82-.36.82-.81V7.06a.8.8 0 0 0-.81-.81"/></svg>