<svg xmlns="http://www.w3.org/2000/svg" viewBox="0 0 16 16"><path fill="#40a0ff" d="M5.2 11.1a1.4 1.4 0 0 1 0-1.43V9.2q-.1-.16-.15-.34-.15-.57.14-1.08V4.6h2.9V2.73H0V4.6h2.9v8.3h2.3z"/><path fill="#40a0ff" d="M10 5c.63 0 1.17.4 1.36.97h.16c-.7-2 3.12-1.54 4.03-.73V3.12c-1.97-.63-5.04-.74-6.26 1.27q-.14.3-.23.61z"/><path fill="#40a0ff" d="m13.09 7.03.43.75a1.4 1.4 0 0 1-.16 1.66q.22.25.3.57.09.3.02.62h.6c.45 0 .85.24 1.08.6q.23.01.45.11c.36-.96.22-2.3-.54-3.03-.54-.63-1.38-.93-2.18-1.28"/><path fill="#40a0ff" d="m15.86 14.18-.4-.23c-.12-.08-.12-.2 0-.27l.4-.23a.27.27 0 0 0 .1-.38l-.4-.7a.27.27 0 0 0-.38-.1l-.4.22q-.21.1-.23-.13v-.46a.27.27 0 0 0-.28-.27h-.82a.27.27 0 0 0-.27.27v.46q-.01.23-.24.13l-.4-.23a.27.27 0 0 0-.37.1l-.4.71c-.08.13-.04.3.1.38l.39.23c.13.07.13.2 0 .27l-.4.23a.27.27 0 0 0-.1.37l.41.71c.08.13.25.18.38.1l.4-.23c.12-.07.23-.01.23.14v.46c0 .15.12.27.27.27h.82c.15 0 .28-.12.28-.27v-.46q.02-.24.23-.14l.4.23c.13.08.3.03.37-.1l.41-.7a.27.27 0 0 0-.1-.38m-1.65.22a.68.68 0 1 1-.69-1.18.68.68 0 0 1 .69 1.18"/><path fill="#40a0ff" d="m12.5 10.01-.62-.36c-.2-.12-.2-.3 0-.43l.62-.36c.2-.11.27-.38.16-.58L12 7.16a.43.43 0 0 0-.59-.16l-.62.36c-.2.12-.37.02-.37-.21v-.72c0-.24-.2-.43-.43-.43H8.71c-.23 0-.43.2-.43.43v.72c0 .23-.17.33-.37.21L7.29 7a.43.43 0 0 0-.59.16l-.64 1.12c-.12.2-.05.47.15.58l.63.36c.2.12.2.31 0 .43l-.63.36a.43.43 0 0 0-.15.59l.64 1.11c.12.2.38.28.59.16l.62-.36c.2-.12.37-.02.37.22v.72c0 .23.2.43.43.43h1.3c.23 0 .42-.2.42-.43v-.72c0-.24.17-.34.37-.22l.62.36c.2.12.47.05.6-.16l.64-1.11a.43.43 0 0 0-.16-.59m-2.6.36A1.07 1.07 0 1 1 8.81 8.5a1.07 1.07 0 0 1 1.07 1.86"/></svg>