<svg xmlns="http://www.w3.org/2000/svg" viewBox="0 0 16 16"><path fill="#40a0ff" d="M5 12.9v-.03q.01-.46.2-.86V9.99a2 2 0 0 1-.2-.87V7.26q0-.49.2-.9V4.6h2.9V2.73H0V4.6h2.9v8.3z"/><path fill="#40a0ff" d="M11.62 5c.65-.74 2.8-.46 3.7.09l.23.07V3.12c-1.97-.63-5.04-.74-6.26 1.27q-.14.3-.23.61z"/><path fill="#40a0ff" d="M14.75 11.63h-7.5c-.69 0-1.25.56-1.25 1.24v1.88c0 .69.56 1.25 1.25 1.25h7.5c.69 0 1.25-.56 1.25-1.25v-1.87c0-.7-.56-1.26-1.25-1.26m-6.56 3.12a.94.94 0 1 1 0-1.87.94.94 0 0 1 0 1.87"/><path fill="#40a0ff" d="M14.75 6h-7.5C6.56 6 6 6.56 6 7.25v1.88c0 .68.56 1.24 1.25 1.24h7.5c.69 0 1.25-.56 1.25-1.24V7.25C16 6.56 15.44 6 14.75 6M8.19 9.13a.94.94 0 1 1 0-1.88.94.94 0 0 1 0 1.88"/></svg>