<svg xmlns="http://www.w3.org/2000/svg" viewBox="0 0 16 16"><path fill="#40a0ff" d="M5 12.9V7.26q0-.49.2-.9V4.6h2.9V2.73H0V4.6h2.9v8.3z"/><path fill="#40a0ff" d="M11.62 5c.71-.81 3.21-.4 3.93.24V3.12c-1.97-.63-5.04-.74-6.26 1.27q-.14.3-.23.61z"/><path fill="#40a0ff" d="M12.98 6H7.25C6.56 6 6 6.56 6 7.25v7.5c0 .69.56 1.25 1.25 1.25h7.5c.69 0 1.25-.56 1.25-1.25V9.02q0-.51-.37-.89l-1.76-1.76a1.3 1.3 0 0 0-.89-.37M7.25 8.5v-.62c0-.35.28-.63.63-.63h3.75c.34 0 .62.28.62.63v.62c0 .34-.28.63-.62.63H7.87a.63.63 0 0 1-.62-.63m4.14 6.2a1.57 1.57 0 0 1-.78-3.03 1.57 1.57 0 0 1 .78 3.03"/></svg>