<svg xmlns="http://www.w3.org/2000/svg" viewBox="0 0 16 16"><path fill="#40a0ff" d="M5.19 12.91V4.6H8.1V2.73H0V4.6h2.89v8.31z"/><path fill="#40a0ff" d="M14.2 7.53q-.34.51-.95.68v1.54q.26.26.31.54l1.74 1.8q.2-.2.37-.44c.53-.96.44-2.54-.4-3.34a3 3 0 0 0-1.07-.78"/><path fill="#40a0ff" d="M9.13 5h2.5c.7-.81 3.2-.4 3.92.24V3.12c-1.97-.63-5.04-.74-6.26 1.27q-.14.3-.23.62z"/><path fill="#40a0ff" d="m15.63 13.87-3.38-3.5V7.26h.63c.34 0 .62-.28.62-.62S13.22 6 12.88 6H9.12a.63.63 0 0 0 .01 1.25h.62v3.13l-3.38 3.49c-.79.78-.23 2.13.88 2.13h7.5c1.11 0 1.67-1.35.88-2.13"/></svg>