<svg xmlns="http://www.w3.org/2000/svg" viewBox="0 0 16 16"><path fill="#40a0ff" d="M4.31 12.9q.02-.22.11-.43A1.7 1.7 0 0 1 3.57 11V9.57c0-1.05.68-1.94 1.62-2.28V4.6h2.9V2.74H0V4.6h2.9v8.3z"/><path fill="#40a0ff" d="M9.87 5h.83q.43.01.8.2c.45-1.07 3.28-.64 4.05.04V3.12c-1.97-.63-5.04-.74-6.26 1.27q-.2.42-.27.84.39-.22.85-.23"/><path fill="#40a0ff" d="M14.57 12.43h-3.21a.7.7 0 0 1-.72.71h-.71a.7.7 0 0 1-.72-.71H6a.7.7 0 0 0-.71.71v1.43c0 .79.64 1.43 1.42 1.43h7.15c.79 0 1.43-.64 1.43-1.43v-1.43a.7.7 0 0 0-.72-.71"/><path fill="#40a0ff" d="M14.57 8.14h-2.14v-.42a.7.7 0 0 0-.21-.5L11.2 6.2a.7.7 0 0 0-.5-.21h-.84a.7.7 0 0 0-.5.2L8.34 7.23a.7.7 0 0 0-.2.5v.42H6c-.79 0-1.43.64-1.43 1.43V11c0 .4.32.71.72.71H9.2c0-.39.33-.71.72-.71h.71c.4 0 .72.32.72.71h3.93c.39 0 .71-.32.71-.71V9.57c0-.79-.64-1.43-1.43-1.43m-4.64-.71h.71c.2 0 .36.16.36.36v.35H9.57V7.8c0-.2.16-.36.36-.36"/></svg>