<svg xmlns="http://www.w3.org/2000/svg" viewBox="0 0 16 16"><path fill="#e0e0e0" d="M7.78 2.92a5.06 5.06 0 1 0 0 10.11 5.06 5.06 0 0 0 0-10.11m0 7.68a2.63 2.63 0 0 1 0-5.25 2.63 2.63 0 0 1 0 5.25"/><path fill="#40a0ff" fill-rule="evenodd" d="M8.22 2.1V.2a7.78 7.78 0 1 1 0 15.56V13.8a5.93 5.93 0 0 0 0-11.77z" clip-rule="evenodd"/><path fill="#ff4040" fill-rule="evenodd" d="M3.3 11.87A6 6 0 0 1 1.86 8.4H0a7.8 7.8 0 0 0 1.95 4.77l1.36-1.36z" clip-rule="evenodd"/><path fill="#ff4040" fill-rule="evenodd" d="M7.34 15.76V13.8a6 6 0 0 1-3.4-1.46L2.53 13.8c1.31 1.19 3 1.9 4.76 2z" clip-rule="evenodd"/></svg>