<svg xmlns="http://www.w3.org/2000/svg" viewBox="0 0 16 16"><path fill="#40ffff" d="M14 3H8L6.59 1.59A2 2 0 0 0 5.17 1H2a2 2 0 0 0-2 2v10c0 1.1.9 2 2 2h4.4a1.7 1.7 0 0 1-.69-1.35v-1q.01-.4.23-.73l-1.5-.86a1.72 1.72 0 0 1 0-2.98l5-2.85c.52-.3 1.17-.3 1.7 0L16 8V5a2 2 0 0 0-2-2"/><path fill="#40ffff" d="M16 9.57a.7.7 0 0 0-.36-.62l-5-2.86a.7.7 0 0 0-.7 0l-5 2.86a.71.71 0 0 0 0 1.24l5 2.86c.21.12.48.12.7 0l3.66-2.1c.12-.06.27.02.27.16v2.03a.71.71 0 1 0 1.43 0z"/><path fill="#40ffff" d="m13.32 12.35-2.68 1.53a.7.7 0 0 1-.7 0l-2.7-1.53a.36.36 0 0 0-.53.3v1c0 .26.14.5.36.62l2.86 1.64c.22.12.49.12.71 0l2.86-1.64a.7.7 0 0 0 .36-.62v-1c0-.27-.3-.44-.54-.3"/></svg>