<svg xmlns="http://www.w3.org/2000/svg" viewBox="0 0 16 16"><path fill="#40ff40" d="M14.5 10.75v2.13q-.01.49-.26.87h1.13q.23 0 .45.07.17-.38.18-.82v-2.39q-.3.13-.63.14z"/><path fill="#40ff40" d="M14 3H8L6.59 1.59A2 2 0 0 0 5.17 1H2a2 2 0 0 0-2 2v10c0 1.1.9 2 2 2h4.3c.17-.72.8-1.25 1.58-1.25H9a1.6 1.6 0 0 1-.26-.87v-2.13h-.87a1.63 1.63 0 0 1-.91-2.98l3.75-2.5a1.6 1.6 0 0 1 1.8 0L16 7.6V5a2 2 0 0 0-2-2"/><path fill="#40ff40" d="M15.38 14.75h-7.5c-.35 0-.63.28-.63.63s.28.62.63.62h7.5c.34 0 .62-.28.62-.62s-.28-.63-.62-.63"/><path fill="#40ff40" d="M15.37 9.75H13.5v3.12c0 .35-.28.63-.63.63h-2.5a.63.63 0 0 1-.62-.62V9.75H7.88a.63.63 0 0 1-.35-1.14l3.75-2.5a.6.6 0 0 1 .7 0l3.74 2.5a.63.63 0 0 1-.35 1.14"/></svg>