<svg xmlns="http://www.w3.org/2000/svg" viewBox="0 0 16 16"><path fill="#40a0ff" d="M14.16 7.02a3.46 3.46 0 0 1-1.64 4.62l2.94.98q.3.1.54.27V9a2 2 0 0 0-1.84-1.98"/><path fill="#40a0ff" d="m6.54 12.62 2.94-.98A3.5 3.5 0 0 1 7.85 7h-2.4a2 2 0 0 0-1.9 1.37L2 13V7c0-1.1.9-2 2-2h11c.55 0 1-.45 1-1s-.45-1-1-1H8L6.59 1.59A2 2 0 0 0 5.17 1H2a2 2 0 0 0-2 2v10c0 1.1.9 2 2 2h3.02a2.2 2.2 0 0 1 1.52-2.38"/><path fill="#40a0ff" d="m10.6 12.31-3.74 1.25c-1.35.45-1.03 2.44.4 2.44h7.49c1.42 0 1.74-1.99.4-2.44l-3.75-1.25a1.3 1.3 0 0 0-.8 0"/><circle cx="11" cy="8.5" r="2.5" fill="#40a0ff"/></svg>