<svg xmlns="http://www.w3.org/2000/svg" viewBox="0 0 16 16"><path fill="#40ffa0" d="M9.3 15h3.4L11 13.3z"/><path fill="#40ffa0" d="m13.6 10.7-.3.3 2.6 2.6q.1-.29.1-.6v-2.96a2.9 2.9 0 0 1-2.4.66"/><path fill="#40ffa0" d="M14 3H8L6.59 1.59A2 2 0 0 0 5.17 1H2a2 2 0 0 0-2 2v10c0 1.1.9 2 2 2h3.05q.1-.45.42-.77l2.2-2.2q-.57.03-.96-.38l-1.32-1.33a1.3 1.3 0 0 1 .68-2.21q.1-.42.42-.75l1.44-1.43a2.1 2.1 0 0 1 2.96 0 1.15 1.15 0 0 1 0 1.63l-.1.1c.2.3.27.67.23 1.02l.28-.28A2.88 2.88 0 0 1 14.12 5c.72 0 1.38.28 1.88.71V5a2 2 0 0 0-2-2"/><path fill="#40ffa0" d="m15.97 7.56-.1-.37q-.05-.11-.11-.06l-.75.74a.63.63 0 0 1-.88 0 .63.63 0 0 1 0-.88l.74-.75q.05-.06-.06-.1s-.16-.06-.37-.11a1.86 1.86 0 0 0-2 2.65L11 10.12 9.84 8.96a.6.6 0 0 0 0-.9l-.32-.32a.16.16 0 0 1 0-.22l.66-.67a.16.16 0 0 0 0-.22 1.1 1.1 0 0 0-1.55 0l-.1.11L7.2 8.07a.6.6 0 0 0 0 .88l.13.13H6.3a.31.31 0 0 0-.22.54l1.33 1.32c.2.2.53.06.53-.22V9.71l.13.13c.24.24.63.24.88 0L10.12 11l-3.94 3.93c-.24.25-.24.64 0 .89s.64.24.89 0l6.25-6.26a1.86 1.86 0 0 0 2.65-2"/><path fill="#40ffa0" d="m15.82 14.93-3.27-3.27a.3.3 0 0 0-.45 0l-.44.44a.3.3 0 0 0 0 .45l3.27 3.27c.25.24.64.24.89 0a.63.63 0 0 0 0-.89"/></svg>