<svg xmlns="http://www.w3.org/2000/svg" viewBox="0 0 16 16"><path fill="#40ffa0" d="M15.96 2.5c-.08-.35-.17-.6-.17-.6q-.07-.17-.18-.1L14.42 3a1 1 0 0 1-1.41 0 1 1 0 0 1 0-1.42L14.19.39q.08-.1-.09-.18s-.25-.09-.6-.17a2.98 2.98 0 0 0-3.2 4.24L8 6.58 6.15 4.74a1 1 0 0 0 0-1.42l-.52-.53a.25.25 0 0 1 0-.35l1.06-1.06c.1-.1.1-.26 0-.36a1.75 1.75 0 0 0-2.48 0l-.17.18L1.9 3.3a1 1 0 0 0 0 1.41l.21.21H.5a.5.5 0 0 0-.35.86L2.27 7.9a.5.5 0 0 0 .85-.36V5.93l.2.2a1 1 0 0 0 1.41.02L6.6 8 .3 14.3c-.39.38-.39 1.02 0 1.4s1.03.4 1.42 0l10-10a2.98 2.98 0 0 0 4.24-3.2"/><path fill="#40ffa0" d="m15.7 14.3-5.23-5.24a.5.5 0 0 0-.7 0l-.7.7a.5.5 0 0 0 0 .71l5.22 5.24a1 1 0 0 0 1.42 0 1 1 0 0 0 0-1.42"/></svg>