<svg xmlns="http://www.w3.org/2000/svg" viewBox="0 0 16 16"><path fill="#a040ff" d="M13.4 7h-.19l.01.53z"/><path fill="#a040ff" d="m9.06 11.95-.61-.04c-1.6-.08-2.25-.8-2.51-1.4-.41-.92-.14-2.08.74-3.17L7 7H5.44a2 2 0 0 0-1.9 1.37L2 13V7c0-1.1.9-2 2-2h11c.55 0 1-.45 1-1s-.45-1-1-1H8L6.59 1.59A2 2 0 0 0 5.17 1H2a2 2 0 0 0-2 2v10c0 1.1.9 2 2 2h7.15z"/><path fill="#a040ff" d="M13.74 15H14a2 2 0 0 0 2-2V8.95z"/><path fill="#a040ff" d="M14.78 6.08 12.3 13.3l-.1-7.22c-3.89-.81-7.81 4.62-3.7 4.84-.44-1.45 0-3.14 1.47-3.7 0 .18.16 8.6.22 8.78h2.1L16 6.08z"/></svg>