<svg xmlns="http://www.w3.org/2000/svg" viewBox="0 0 16 16"><path fill="#a040ff" d="M14 15a2 2 0 0 0 2-2V8.94L13.74 15z"/><path fill="#a040ff" d="M14 3H8L6.59 1.59A2 2 0 0 0 5.17 1H2a2 2 0 0 0-2 2v10c0 1.1.9 2 2 2h7.15l-.09-3.05-.61-.04c-1.6-.08-2.25-.8-2.51-1.4-.41-.92-.14-2.08.74-3.17 1.18-1.46 3.41-2.72 5.73-2.24l.78.17.03 2.26.84-2.45H16V5a2 2 0 0 0-2-2"/><path fill="#a040ff" d="M14.78 6.08 12.3 13.3l-.1-7.22c-3.89-.81-7.81 4.62-3.7 4.84-.44-1.45 0-3.14 1.47-3.7 0 .18.16 8.6.22 8.78h2.1L16 6.08z"/></svg>