<svg xmlns="http://www.w3.org/2000/svg" viewBox="0 0 16 16"><path fill="#a040ff" d="M5.63 12.9a1.6 1.6 0 0 1-.6-1.6l.63-3.12q.07-.35.28-.6-.18-.27-.25-.58h-.25a2 2 0 0 0-1.9 1.37L2 13V7c0-1.1.9-2 2-2h11c.55 0 1-.45 1-1s-.45-1-1-1H8L6.59 1.59A2 2 0 0 0 5.17 1H2a2 2 0 0 0-2 2v10c0 1.1.9 2 2 2h3.63z"/><path fill="#a040ff" d="M15.38 6.63c0 .34-.29.62-.63.62h-7.5a.63.63 0 0 1-.62-.62c0-.35.28-.63.62-.63h7.5c.34 0 .63.28.63.63"/><path fill="#a040ff" d="m15.99 11.5-.63-3.12a.6.6 0 0 0-.61-.5h-7.5c-.3 0-.55.2-.61.5L6 11.5c-.08.39.22.75.62.75v3.13c0 .34.28.62.62.62h4.38c.34 0 .62-.28.62-.62v-3.13h1.87v3.13a.63.63 0 0 0 1.25 0v-3.13c.4 0 .7-.36.62-.75M11 14.44c0 .17-.14.31-.31.31h-2.5a.3.3 0 0 1-.31-.31v-2.19H11z"/></svg>