<svg xmlns="http://www.w3.org/2000/svg" viewBox="0 0 16 16"><path fill="#40a0ff" d="M5.06 11.85a1.6 1.6 0 0 1 .55-1.46A1.6 1.6 0 0 1 5 9.12V7.08a2 2 0 0 0-1.46 1.3L2 13V7c0-1.1.9-2 2-2h11c.55 0 1-.45 1-1s-.45-1-1-1H8L6.59 1.59A2 2 0 0 0 5.17 1H2a2 2 0 0 0-2 2v10c0 1.1.9 2 2 2h4.57a6 6 0 0 1-1.51-3.15"/><path fill="#40a0ff" d="M15.9 9.98A4.98 4.98 0 0 0 7.25 7.7V6.62c0-.34-.28-.62-.62-.62S6 6.28 6 6.63v2.5c0 .34.28.62.63.62h2.5a.62.62 0 1 0 0-1.25h-.9a3.73 3.73 0 0 1 6.5 2.05 3.75 3.75 0 0 1-7.44.98.6.6 0 0 0-.62-.53.63.63 0 0 0-.62.71 5 5 0 1 0 9.85-1.73"/><path fill="#40a0ff" d="M11.72 10.83a.3.3 0 0 1-.1-.22V9.13a.62.62 0 1 0-1.25 0V11q0 .26.19.44l1.32 1.33c.25.24.64.24.89 0a.6.6 0 0 0 0-.89z"/></svg>