<svg xmlns="http://www.w3.org/2000/svg" viewBox="0 0 16 16"><path fill="#40ffa0" d="M14 3H8L6.59 1.59A2 2 0 0 0 5.17 1H2a2 2 0 0 0-2 2v10c0 1.1.9 2 2 2h.09a3 3 0 0 1-.09-.62V9.5a2.63 2.63 0 0 1 2.63-2.62h6.5c1.1 0 2.06.69 2.44 1.66l.34-.33a1.8 1.8 0 0 1 1.97-.38l.12.07V5a2 2 0 0 0-2-2"/><path fill="#40ffa0" d="m14.61 8.93-1.86 1.79V9.5c0-.9-.73-1.62-1.62-1.62h-6.5C3.73 7.88 3 8.6 3 9.5v4.88c0 .89.73 1.62 1.63 1.62h6.5c.89 0 1.62-.73 1.62-1.62v-1.22l1.86 1.79a.81.81 0 0 0 1.39-.58V9.5a.81.81 0 0 0-1.39-.57"/></svg>