<svg xmlns="http://www.w3.org/2000/svg" viewBox="0 0 16 16"><path fill="#6060ff" d="M4.55 10.3 2 3H0l3.65 10.05h1.7L9.05 3l-1.9-.05z"/><path fill="#6060ff" d="M15.35 8.2c-.25-.25-.5-.5-.85-.6l.5-.5c.35-.5.55-1.05.5-1.6a2.2 2.2 0 0 0-.8-1.85A3.3 3.3 0 0 0 12.5 3h-3v10h3.25a3.5 3.5 0 0 0 2.25-.8c.65-.55 1-1.35 1-2.2a2.5 2.5 0 0 0-.65-1.8m-4-3.5h.9c1.3 0 1.45.5 1.45 1 0 .35-.15.7-.4.9h.05c-.35.3-.8.4-1.2.4h-.8zm2.4 6.25c-.35.25-.8.4-1.25.4h-1.15V8.7h.9c1.7 0 1.9.75 1.9 1.3 0 .35-.15.7-.4.95"/></svg>