<svg xmlns="http://www.w3.org/2000/svg" viewBox="0 0 16 16"><path fill="#6060ff" d="M14 3H8L6.59 1.59A2 2 0 0 0 5.17 1H2a2 2 0 0 0-2 2v10c0 1.1.9 2 2 2h6.02l-.98-7.1a1.9 1.9 0 0 1 1.61-2.15l5.15-.73a1.9 1.9 0 0 1 2.14 1.62l.06.38V5a2 2 0 0 0-2-2"/><path fill="#6060ff" d="m16 14.24-1.04-7.46A.9.9 0 0 0 13.95 6l-5.16.73a.9.9 0 0 0-.76 1.02l1.03 7.46a.9.9 0 0 0 1.01.77l5.16-.73a.9.9 0 0 0 .76-1.02m-6.18 1.04a.2.2 0 0 1-.09-.15L8.7 7.67a.23.23 0 0 1 .18-.26l5.16-.73h.03q.08 0 .13.04.07.07.09.15l1.03 7.46a.23.23 0 0 1-.18.25l-5.16.74q-.09.01-.16-.04"/><path fill="#6060ff" d="m14.05 8.99-1.63 4.26a.12.12 0 0 1-.2.03l-2.8-3.65c-.06-.08 0-.2.1-.2l2.25.1h.04l2.09-.7c.1-.03.18.06.15.16"/><path fill="#ffff40" d="M12.68 8.47 11.11 9l-.04.07.14 1.71q.01.07.08.05l.44-.16q.07-.02.08.06l-.04.68q.01.07.08.06l.27-.13q.07-.01.09.06l-.07 1.07c0 .07.09.1.11.03l.02-.04.94-2.84q.01-.1-.07-.08l-.45.15a.06.06 0 0 1-.08-.06l.15-1.1a.06.06 0 0 0-.08-.07"/></svg>