<svg xmlns="http://www.w3.org/2000/svg" viewBox="0 0 16 16"><path fill="#ffa040" d="M9.7 9.75h2.45v-4.4c-.2-.73-.77-1.3-1.5-1.5H1.5c-.73.2-1.3.77-1.5 1.5v9.15A2 2 0 0 0 1.4 16h9.3a2 2 0 0 0 1.4-1.45v-2.4H9.7v.6c-.15.45-.45.7-.9.85H3.3c-.45-.15-.75-.4-.85-.85v-5.6q.16-.67.85-.9h5.5c.5.15.75.5.9.9z"/><path fill="#40a0ff" d="M16 1.5C15.8.77 15.23.2 14.5 0H5.4c-.73.2-1.3.77-1.5 1.5v2.35h2.4v-.5c.15-.5.45-.75.9-.9h5.5q.69.23.85.9v5.5c-.15.5-.45.75-.9.9h-5.5q-.61-.24-.85-.85V6.25H3.85v4.45a2 2 0 0 0 1.4 1.45h9.25a2 2 0 0 0 1.45-1.45V1.5z"/></svg>