<svg xmlns="http://www.w3.org/2000/svg" viewBox="0 0 16 16"><path fill="#40a0ff" d="M14 3H8L6.59 1.59A2 2 0 0 0 5.17 1H2a2 2 0 0 0-2 2v10c0 1.1.9 2 2 2h8.42L8.8 13.56l-1.04.76a1.4 1.4 0 0 1-1.8 0l-.63-.59a1.4 1.4 0 0 1-.45-.97c-.02-.4.14-.8.43-1.1l.73-.64-.66-.58a1.5 1.5 0 0 1-.47-1.14q.04-.57.44-.96l.61-.63a1.4 1.4 0 0 1 1.8 0l1.04.8 3.3-3.01q.18-.2.41-.3c.45-.24 1-.27 1.47-.05l2.02.98V5a2 2 0 0 0-2-2"/><path fill="#40a0ff" d="m15.65 7.07-2.08-1.01a.6.6 0 0 0-.63.06s-.07 0-.1.06L8.86 9.82 7.12 8.49a.4.4 0 0 0-.53 0l-.54.57c-.19.16-.19.44 0 .63l1.48 1.33-1.51 1.35c-.2.2-.2.48 0 .64l.57.53c.16.13.38.16.53 0l1.74-1.26 3.98 3.54.1.06c.18.13.42.16.63.06l2.05-1c.23-.1.38-.33.38-.58V7.64a.6.6 0 0 0-.38-.57zm-2.18 6.25-3.03-2.3 3.03-2.31z"/></svg>