<svg xmlns="http://www.w3.org/2000/svg" viewBox="0 0 16 16"><path fill="#40ffa0" d="M6 11q-.54-.35-.7-.96a1.6 1.6 0 0 1 .15-1.23L6.4 7.2a1.63 1.63 0 0 1 2.17-.63A1.6 1.6 0 0 1 10.18 5h1.88c.52 0 .99.25 1.29.65L16 1H9.85v.05L8 4.25l-1.85-3.2H0l5.8 10.12z"/><path fill="#40a0ff" d="M8.56 6.56C8.59 5.7 9.3 5 10.18 5h.33l2.29-4H9.85v.05L8 4.25l-1.85-3.2H3.2l3.38 5.88c.49-.56 1.3-.72 1.98-.37"/><path fill="#a0a0a0" d="m15.69 11.83-.9-.52c-.3-.17-.3-.45 0-.62l.9-.52c.3-.18.4-.56.23-.86l-.94-1.62a.63.63 0 0 0-.85-.23l-.9.52c-.3.17-.55.03-.55-.31V6.63a.63.63 0 0 0-.62-.63h-1.88a.63.63 0 0 0-.62.63v1.04c0 .34-.25.48-.55.31l-.9-.52a.63.63 0 0 0-.85.23L6.32 9.3c-.17.3-.07.68.23.86l.9.52c.3.17.3.45 0 .62l-.9.52c-.3.18-.4.56-.23.86l.94 1.62c.17.3.55.4.85.23l.9-.52c.3-.17.55-.03.55.31v1.05c0 .34.28.62.62.62h1.88c.34 0 .62-.28.62-.62v-1.05c0-.34.24-.48.54-.31l.9.52c.3.17.69.07.86-.23l.94-1.62a.63.63 0 0 0-.23-.86m-3.8.52a1.56 1.56 0 1 1-1.55-2.7 1.56 1.56 0 0 1 1.56 2.7"/></svg>