<svg xmlns="http://www.w3.org/2000/svg" viewBox="0 0 16 16"><path fill="#e0e0e0" d="m15.63 8.13-1.76-1.76a1.3 1.3 0 0 0-.89-.37H9.75c-.69 0-1.25.56-1.25 1.25v7.5c0 .69.56 1.25 1.25 1.25h5c.69 0 1.25-.56 1.25-1.25V9.02q0-.51-.37-.89m-3.38-.25c0-.56.67-.84 1.07-.45l1.25 1.25c.4.4.11 1.07-.45 1.07h-1.24a.6.6 0 0 1-.63-.62zm1.88 6.87h-3.76c-.34 0-.62-.28-.62-.62s.28-.63.63-.63h3.74c.35 0 .63.28.63.63s-.28.62-.62.62m0-2.5h-3.76c-.34 0-.62-.28-.62-.62s.28-.63.63-.63h3.74c.35 0 .63.28.63.63s-.28.62-.62.62"/><path fill="#6060ff" d="M9.83 0v.09a1.83 1.83 0 0 1-3.67 0V0H0v16h7.88a2.2 2.2 0 0 1-.38-1.25v-.21h-.07l-.59-2.94-.63 2.94H4.73L3.41 8.37h1.57l.55 2.9.65-2.9H7.5V7.25C7.5 6.01 8.5 5 9.75 5h3.23c.6 0 1.17.23 1.6.66L16 7.09V0z"/></svg>