<svg xmlns="http://www.w3.org/2000/svg" viewBox="0 0 16 16"><path fill="#6060ff" d="M5 7.07a2 2 0 0 0-1.46 1.3L2 13V7c0-1.1.9-2 2-2h11c.55 0 1-.45 1-1s-.45-1-1-1H8L6.59 1.59A2 2 0 0 0 5.17 1H2a2 2 0 0 0-2 2v10c0 1.1.9 2 2 2h3z"/><path fill="#6060ff" d="m13.55 12.42-.22.98h.5l-.25-.98z"/><path fill="#6060ff" d="M12.14 6v.05a1.15 1.15 0 0 1-2.29 0V6H6v10h10V6zm-1.5 9.09-.36-1.84-.4 1.84h-.92l-.83-3.86h.99l.34 1.82.4-1.82h.88l.37 1.85.39-1.85h.97l-.91 3.86zm3.66 0-.22-.8h-.95l-.17.8h-1l.94-3.86h1.29l1.12 3.86z"/></svg>