<svg xmlns="http://www.w3.org/2000/svg" viewBox="0 0 16 16"><path fill="#6060ff" d="M3.11 7.3c2.03-1.92 3.53-2.78 4.85-2.8h.02c1.32 0 2.91.93 4.92 2.83q.87-.9 2.45-2.49A8 8 0 0 0 .7 4.76z"/><path fill="#6060ff" d="M13.7 8.07c.78.76 1.48 1.5 2 2.07A8 8 0 0 0 15.74 6z"/><path fill="#6060ff" d="M2.32 8.1A94 94 0 0 1 .26 6a8 8 0 0 0 .04 4.16c.74-.77 1.64-1.68 2.02-2.05"/><path fill="#6060ff" d="M12.9 8.83c-2.1 1.93-3.56 2.77-4.89 2.8-1.27 0-2.86-.9-4.9-2.77L.74 11.34a8 8 0 0 0 14.55-.05c-.78-.8-1.95-2-2.38-2.46"/><path fill="#6060ff" d="M6.89 7.27v1.54L8 9.39l1.11-.55V7.31L8 6.73z"/><path fill="#6060ff" d="M7.98 5.58c-1.09.03-2.43.84-4.1 2.49 2.33 2.25 3.68 2.45 4.08 2.45H8q1.65-.05 4.1-2.44c-1.8-1.68-3.2-2.51-4.11-2.5m1.74 4.16-1.35.67a.8.8 0 0 1-.75 0l-1.36-.72a.8.8 0 0 1-.44-.73V7.12c0-.32.18-.6.46-.74l1.36-.67a.8.8 0 0 1 .74 0l1.36.71c.27.15.44.43.44.73V9c0 .3-.18.6-.46.74"/></svg>