<svg xmlns="http://www.w3.org/2000/svg" viewBox="0 0 16 16"><path fill="#40ffff" d="M14.75 12.35 8.25 16v-2.85l4.1-2.25z"/><path fill="#40ffff" d="M15.25 11.95v-7.7l-2.4 1.4v4.85l2.35 1.4z"/><path fill="#40ffff" d="M1.25 12.35 7.75 16v-2.85l-4.1-2.25z"/><path fill="#40ffff" d="M.75 11.95v-7.7l2.4 1.4v4.85L.8 12z"/><path fill="#40ffff" d="M1.05 3.75 7.7 0v2.75L3.5 5.1 1 3.75z"/><path fill="#40ffff" d="M14.95 3.75 8.3 0v2.75l4.25 2.35L15 3.75z"/><path fill="#40a0ff" d="m7.7 12.5-4-2.2V5.95l4 2.3z"/><path fill="#40a0ff" d="m8.3 12.5 4-2.2V6l-4 2.3z"/><path fill="#40a0ff" d="m4 5.5 4-2.25 4 2.2-4 2.3z"/></svg>