<svg xmlns="http://www.w3.org/2000/svg" viewBox="0 0 16 16"><path fill="#40ffff" d="M14 3H8L6.59 1.59A2 2 0 0 0 5.17 1H2a2 2 0 0 0-2 2v10c0 1.1.9 2 2 2h5.49L6 14.16l-.04-6.24 5.5-3.17L16 7.3V5a2 2 0 0 0-2-2"/><path fill="#40ffff" d="M15.69 13.72 11.63 16v-1.78l2.56-1.41z"/><path fill="#40ffff" d="M16 13.47V8.66l-1.5.87v3.03l1.47.88z"/><path fill="#40ffff" d="M7.25 13.72 11.31 16v-1.78l-2.56-1.41z"/><path fill="#40ffff" d="M6.94 13.47V8.66l1.5.87v3.03l-1.47.94z"/><path fill="#40ffff" d="M7.13 8.34 11.28 6v1.72L8.66 9.19l-1.57-.85z"/><path fill="#40ffff" d="M15.81 8.34 11.66 6v1.72l2.65 1.47 1.53-.85z"/><path fill="#40a0ff" d="m11.28 13.81-2.5-1.37V9.72l2.5 1.44z"/><path fill="#40a0ff" d="m11.66 13.81 2.5-1.37V9.75l-2.5 1.44z"/><path fill="#40a0ff" d="m8.97 9.44 2.5-1.41 2.5 1.38-2.5 1.43z"/></svg>