<svg xmlns="http://www.w3.org/2000/svg" viewBox="0 0 16 16"><path fill="#6060ff" d="M14 3H8L6.59 1.59A2 2 0 0 0 5.17 1H2a2 2 0 0 0-2 2v10c0 1.1.9 2 2 2h3v-2.75c0-.5.24-.95.6-1.25-.36-.3-.6-.74-.6-1.25V6.63C5 5.73 5.73 5 6.63 5H9.9c.67.08 1.22.55 1.4 1.18l.7-.7a1.6 1.6 0 0 1 2.3 0L16 7.16V5a2 2 0 0 0-2-2"/><path fill="#6060ff" d="M10.38 15.38c0 .34-.29.62-.63.62H6.63a.63.63 0 0 1-.63-.62v-3.13c0-.34.28-.62.63-.62h3.12c.34 0 .63.28.63.62z"/><path fill="#6060ff" d="M15.38 11.63h-2l.23-.14 2.2-2.21a.63.63 0 0 0 0-.89l-2.2-2.2a.63.63 0 0 0-.89 0l-2.2 2.2-.14.22V6.63A.63.63 0 0 0 9.74 6H6.63a.63.63 0 0 0-.63.63v3.12c0 .34.28.63.63.63h3.12c.34 0 .63-.29.63-.63v-.7q.04.13.13.23l2.21 2.2q.1.1.22.14h-.69a.63.63 0 0 0-.62.63v3.13c0 .34.28.62.62.62h3.13c.34 0 .62-.28.62-.62v-3.13a.63.63 0 0 0-.62-.62"/></svg>