<svg xmlns="http://www.w3.org/2000/svg" viewBox="0 0 16 16"><path fill="#40a0ff" d="M8.35 2.8A2.9 2.9 0 0 0 5.5 0C3.9 0 2.9 1.25 2.9 2.4h1.6c0-.3.35-.8 1-.8s1.25.5 1.25 1.2S6.25 4 5 4H.65v1.6H5c2.1 0 3.35-1.25 3.35-2.8m0 0A2.9 2.9 0 0 0 5.5 0C3.9 0 2.9 1.25 2.9 2.4h1.6c0-.3.35-.8 1-.8s1.25.5 1.25 1.2S6.25 4 5 4H.65v1.6H5c2.1 0 3.35-1.25 3.35-2.8m3.55 10.4c0 1.5-1.25 2.8-2.8 2.8-1.65 0-2.6-1.25-2.6-2.4h1.6c0 .35.3.8 1 .8s1.2-.5 1.2-1.2S9.7 12 8.6 12H3.7v-1.6h4.9c2 0 3.3 1.25 3.3 2.8m0 0c0 1.5-1.25 2.8-2.8 2.8-1.65 0-2.6-1.25-2.6-2.4h1.6c0 .35.3.8 1 .8s1.2-.5 1.2-1.2S9.7 12 8.6 12H3.7v-1.6h4.9c2 0 3.3 1.25 3.3 2.8"/><path fill="#40a0ff" d="M12.3 2.5c-1.75 0-3 1.35-3 3.1h1.4c0-.9.65-1.5 1.6-1.5s1.5.6 1.5 1.5-.65 1.6-2.35 1.6H.65v1.6h11c2.5 0 3.7-1.6 3.7-3.2 0-1.8-1.2-3.1-3-3.1zm-9.55 7.9H.65V12h2.1z"/></svg>