<svg xmlns="http://www.w3.org/2000/svg" viewBox="0 0 16 16"><path fill="#40ffff" d="M9.78 9.78c-1.78.89-1.78.89-3.56 0L0 6.22v3.56s0 .44.89.89l5.33 2.66c1.78.9 1.78.9 3.56 0l5.33-2.66s.89-.45.89-.9V6.23z"/><path fill="#6060ff" d="M15.11 5.33 9.78 2.67c-1.78-.9-1.78-.9-3.56 0L.9 5.33c-.89.45-.89.9-.89.9s0 .44.89.88l5.33 2.67c1.78.89 1.78.89 3.56 0L15.1 7.1c.89-.44.89-.89.89-.89s0-.44-.89-.89"/><path fill="#40a0ff" d="M9.78 6.22C8 5.33 8 5.33 6.22 6.22L2.67 8l3.55 1.78c1.78.89 1.78.89 3.56 0L13.33 8z"/></svg>