<svg xmlns="http://www.w3.org/2000/svg" viewBox="0 0 16 16"><path fill="#ffff40" d="M13.36 6.5a3.3 3.3 0 0 1-.3-1.87l.2-1.1c.1-.54-.25-.9-.8-.8l-1.1.2a3 3 0 0 1-1.85-.29l-.99-.53c-.48-.26-.93-.03-1 .51l-.15 1.11c-.07.55-.46 1.3-.85 1.68l-.82.77c-.4.38-.32.88.18 1.12l.95.45L.3 14.3a1 1 0 0 0 1.42 1.42l6.54-6.54.45.95c.24.5.74.58 1.12.18l.77-.82c.38-.4 1.13-.78 1.68-.85l1.1-.15c.55-.07.78-.52.52-1z"/><path fill="#ffff40" d="m15.96 1.92-.19-.34a1 1 0 0 1-.1-.66l.07-.38c.04-.2-.09-.32-.28-.28l-.38.07c-.2.03-.49-.01-.66-.1l-.34-.2c-.17-.08-.33 0-.35.19l-.06.39c-.02.19-.16.45-.3.59l-.28.27c-.14.13-.11.3.06.39l.36.17c.17.08.38.29.46.46l.17.36c.08.17.26.2.4.06l.26-.28c.14-.14.4-.28.6-.3l.38-.06c.2-.02.27-.18.18-.35"/><path fill="#ffff40" d="m.15 3.86.36.17c.17.08.38.29.46.46l.17.36c.08.17.26.2.4.06l.26-.28c.14-.14.4-.28.6-.3l.38-.06c.2-.02.27-.18.18-.35l-.19-.34a1 1 0 0 1-.1-.66l.07-.38c.04-.2-.09-.32-.28-.28l-.38.07c-.2.03-.49-.01-.66-.1l-.34-.2c-.17-.08-.33 0-.35.19l-.06.39c-.02.19-.16.45-.3.59l-.28.27c-.14.13-.11.3.06.39"/><path fill="#ffff40" d="M11.77 14.58a1 1 0 0 1-.1-.66l.07-.38c.04-.2-.09-.32-.28-.28l-.38.07c-.2.03-.49-.01-.66-.1l-.34-.2c-.17-.08-.33 0-.35.19l-.06.39c-.02.19-.16.45-.3.59l-.28.27c-.14.13-.11.3.06.39l.36.17c.17.08.38.29.46.46l.17.36c.08.17.26.2.4.06l.26-.28c.14-.14.4-.28.6-.3l.38-.06c.2-.02.27-.18.18-.35z"/></svg>