<svg xmlns="http://www.w3.org/2000/svg" viewBox="0 0 16 16"><path fill="#ffff40" d="m5.48 14.23 3.2-3.21a1.4 1.4 0 0 1-.26-.62c-.07-.46.1-.92.46-1.26l.5-.48c.09-.08.22-.34.24-.46l.09-.69q.04-.28.16-.51h-1.3q.2.36.13.77l-.02.1.05.1c.18.34.2.74.02 1.08-.17.33-.5.56-.88.61l-.11.02-.07.07a1.2 1.2 0 0 1-1.02.36c-.37-.06-.7-.3-.86-.65l-.05-.1-.1-.05a1.2 1.2 0 0 1-.65-.85 1.2 1.2 0 0 1 .36-1.02l.08-.07.01-.11q.02-.14.07-.26h-.09a2 2 0 0 0-1.9 1.37L2 13V7c0-1.1.9-2 2-2h11c.55 0 1-.45 1-1s-.45-1-1-1H8L6.59 1.59A2 2 0 0 0 5.17 1H2a2 2 0 0 0-2 2v10c0 1.1.9 2 2 2h3.05q.1-.43.43-.77"/><path fill="#ffff40" d="m15.23 9.58.33.61c.24.44.25.93.04 1.35s-.62.69-1.11.75l-.7.1c-.1.01-.37.14-.45.23l-.48.5-.14.13.06.02.1.05.1-.02a1.14 1.14 0 0 1 1.34 1.34l-.02.11.06.1.04.11A2 2 0 0 0 16 13V9q0-.3-.1-.58h-.02l-.07.09q-.27.25-.62.32l-.04.25c-.02.11.02.4.08.5"/><path fill="#ffff40" d="M9.3 15h1.34q.06-.4.35-.68l.08-.08.02-.1q.05-.37.28-.63-.21-.05-.39-.2z"/><path fill="#ffff40" d="M14.35 10.06c-.17-.3-.25-.83-.19-1.16l.13-.7c.06-.33-.16-.55-.5-.5l-.69.14c-.33.06-.86-.02-1.16-.19l-.61-.33c-.3-.17-.59-.02-.63.32l-.1.7c-.04.33-.28.8-.53 1.04l-.5.48c-.26.24-.2.55.1.7l.6.28-4.09 4.1a.62.62 0 1 0 .89.88l4.09-4.1.28.6c.15.32.46.37.7.12l.48-.51c.23-.25.7-.5 1.05-.54l.7-.09c.33-.04.48-.32.31-.63z"/><path fill="#ffff40" d="m15.98 7.2-.12-.2a1 1 0 0 1-.07-.41l.05-.24q.01-.2-.18-.18l-.24.05a1 1 0 0 1-.4-.07l-.22-.12q-.17-.07-.22.12l-.03.24a1 1 0 0 1-.2.37l-.17.17c-.09.08-.07.19.04.24l.22.1c.11.06.24.19.3.3l.1.22c.05.1.16.13.24.04l.17-.18a1 1 0 0 1 .37-.19l.24-.03c.12-.01.17-.11.12-.22"/><path fill="#ffff40" d="m6.1 8.41.22.1c.1.06.24.19.29.3l.1.22q.11.16.25.04l.17-.18a1 1 0 0 1 .37-.19l.24-.03q.19-.04.11-.22l-.12-.21a1 1 0 0 1-.06-.41l.04-.24q.03-.2-.17-.18l-.24.05a1 1 0 0 1-.41-.07l-.22-.12c-.1-.05-.2 0-.22.12l-.03.24a1 1 0 0 1-.19.37l-.17.17c-.1.08-.07.19.03.24"/><path fill="#ffff40" d="M13.36 15.11a1 1 0 0 1-.07-.4l.05-.25q.01-.2-.18-.17l-.24.04c-.12.02-.3 0-.4-.06l-.22-.12q-.17-.07-.22.11l-.03.24a1 1 0 0 1-.2.37l-.17.17c-.09.08-.07.2.04.25l.22.1c.11.05.24.18.3.3l.1.22c.05.1.16.12.24.03l.17-.17a1 1 0 0 1 .37-.2l.24-.02q.19-.05.12-.22z"/></svg>