<svg xmlns="http://www.w3.org/2000/svg" viewBox="0 0 16 16"><path fill="#e0e0e0" d="M9.3 2.8 8 4.05l.25 1.1s.65.45 1 .8c.1-1.4.1-2 .05-3.15"/><path fill="#e0e0e0" d="M13.15 9.5c-1.5-.75-3.8-2.6-5.3-4.1-.3-.9-.8-2.9-1.15-3.9-1.25 1-1.5 2.8-2.2 4-1.35 1-2.15 4.5-2.85 7.35a8 8 0 0 0 9.15 2.65l-2.6-4.35h-.9c-1.55-.25-3.65.05-3.65.05.08-.7.38-1.37.85-1.9l-1.1-.4c.15-.5 1.5-1.05 1.65-1.15-.1.15-.5.5-.6.85.5.05 1.1.5 1.1.5s-.65.6-1 1.4q.9-.15 1.8-.1l6.55.6.6-.8s-.2-.6-.35-.7m-4.3-.95q-.61-.37-1.15-.3l.15-.6c.8-.1 1.35.3 1.9.7l-.9.25z"/><path fill="#ff4040" d="M8 0A8 8 0 0 0 .8 11.44c.85-2.2 1.75-4.7 3.35-6.49C4.8 3 5.7 1.45 6.8.45l1 2.95 1.9-1.85c0-.05.3 2.75.15 4.75 1.2 1.25 4.75 3.5 4.75 3.5s-1.25 1.75-1.5 1.8c-.25.15-1.35 0-1.35 0l-2.25-.25 2.75 3.4A8 8 0 0 0 8 0"/></svg>