<svg xmlns="http://www.w3.org/2000/svg" viewBox="0 0 16 16"><path fill="#a040ff" d="M14 3H8L6.59 1.59A2 2 0 0 0 5.17 1H2a2 2 0 0 0-2 2v10c0 1.1.9 2 2 2h2.33l-.04-.43v-1.43q0-.36.13-.67A1.7 1.7 0 0 1 3.57 11V9.57A2.43 2.43 0 0 1 6 7.14h1.24q.13-.35.4-.63l1.01-1Q9.16 5 9.87 5h.83c.46 0 .9.18 1.22.5l1 1.01q.28.28.4.63h1.25q.82.01 1.43.48V5a2 2 0 0 0-2-2"/><path fill="#a040ff" d="M14.57 12.43h-3.21a.7.7 0 0 1-.72.71h-.71a.7.7 0 0 1-.72-.71H6a.7.7 0 0 0-.71.71v1.43c0 .79.64 1.43 1.42 1.43h7.15c.79 0 1.43-.64 1.43-1.43v-1.43a.7.7 0 0 0-.72-.71"/><path fill="#a040ff" d="M14.57 8.14h-2.14v-.42a.7.7 0 0 0-.21-.5L11.2 6.2a.7.7 0 0 0-.5-.21h-.84a.7.7 0 0 0-.5.2L8.34 7.23a.7.7 0 0 0-.2.5v.42H6c-.79 0-1.43.64-1.43 1.43V11c0 .4.32.71.72.71H9.2c0-.39.33-.71.72-.71h.71c.4 0 .72.32.72.71h3.93c.39 0 .71-.32.71-.71V9.57c0-.79-.64-1.43-1.43-1.43m-4.64-.71h.71c.2 0 .36.16.36.36v.35H9.57V7.8c0-.2.16-.36.36-.36"/></svg>