<svg xmlns="http://www.w3.org/2000/svg" viewBox="0 0 16 16"><path fill="#a040ff" d="M14 7h-.28a3.3 3.3 0 0 1-.44 3.37l.39-.04c.9 0 1.73.37 2.33.96V9a2 2 0 0 0-2-2"/><path fill="#a040ff" d="M4.33 13.67c0-1.84 1.5-3.34 3.34-3.34l.38.04A3.3 3.3 0 0 1 7.62 7H5.44a2 2 0 0 0-1.9 1.37L2 13V7c0-1.1.9-2 2-2h11c.55 0 1-.45 1-1s-.45-1-1-1H8L6.59 1.59A2 2 0 0 0 5.17 1H2a2 2 0 0 0-2 2v10c0 1.1.9 2 2 2h2.62a3 3 0 0 1-.29-1.33"/><circle cx="13.67" cy="13.67" r="2.33" fill="#a040ff"/><circle cx="7.67" cy="13.67" r="2.33" fill="#a040ff"/><circle cx="10.67" cy="8.33" r="2.33" fill="#a040ff"/></svg>