<svg xmlns="http://www.w3.org/2000/svg" viewBox="0 0 16 16"><path fill="#40ffff" d="m3.54 8.37-.23.7L4.97 7.4q.28-.28.63-.41h-.16a2 2 0 0 0-1.9 1.37"/><path fill="#40ffff" d="m3.73 13.6-1.2-1.2-.23-.29L2 13V7c0-1.1.9-2 2-2h11c.55 0 1-.45 1-1s-.45-1-1-1H8L6.59 1.59A2 2 0 0 0 5.17 1H2a2 2 0 0 0-2 2v10c0 1.1.9 2 2 2h.84c.06-.6.4-1.1.9-1.4"/><path fill="#40ffff" d="M14 7H6.9a1.8 1.8 0 0 1 1.05 2.31h5.2c1.14 0 2.15.5 2.85 1.28V9a2 2 0 0 0-2-2"/><path fill="#40ffff" d="M13.16 10.31H5.77l1.05-1.05a.81.81 0 0 0-1.14-1.15l-2.44 2.44a.8.8 0 0 0 0 1.15l2.44 2.44a.8.8 0 0 0 1.14 0 .8.8 0 0 0 0-1.15l-1.05-1.05h7.39a1.22 1.22 0 0 1 0 2.44H4.63a.81.81 0 0 0 0 1.62h8.53a2.85 2.85 0 0 0 0-5.69"/></svg>