<svg xmlns="http://www.w3.org/2000/svg" viewBox="0 0 16 16"><path fill="#40a0ff" d="M3.87 1.02h7.64L7.73 7.7H3.54l3.42-5.93a.1.1 0 0 0-.08-.14H4.66a.2.2 0 0 0-.17.1L1.04 7.7H0z"/><path fill="#40a0ff" d="M12.08 1.24 8.26 8l3.85 6.72L16 8zm.23 11.4a.1.1 0 0 1-.17 0l-1.1-1.93a.2.2 0 0 1 0-.19l1.4-2.42a.2.2 0 0 0 0-.19l-1.41-2.44a.2.2 0 0 1 0-.18l1.1-1.95a.1.1 0 0 1 .16 0l2.6 4.48q.09.18 0 .37z"/><path fill="#40a0ff" d="M0 8.3h1.04l3.46 5.97q.06.1.16.1H6.9a.1.1 0 0 0 .08-.14L3.55 8.3h4.2l3.8 6.67H3.87z"/></svg>