<svg xmlns="http://www.w3.org/2000/svg" viewBox="0 0 16 16"><path fill="#ff40ff" d="m8.6 3.45-2.85 4.7 3 4.9c.1.15 0 .15-.05.15H6.5c-.15 0-.3 0-.35-.1-.6-1.25-1.25-2.4-1.9-3.6L3 11.9l-.65 1.2c0 .1-.1.1-.2.1H0v-.15L2.9 8.3.1 3.45v-.1h2.35l.05.1.6 1.2.65 1.2.75 1.2c.6-1.25 1.25-2.4 1.9-3.6v-.1h2.1l.1.05z"/><path fill="#ff40ff" d="M15.95 12.15V2.6l-.1-.05h-1.9c-.1 0-.1.05-.1.1v2.9c-1.8-.15-3.5.5-4.4 2-.7 1.3-.7 2.86 0 4.15.75 1.2 2.15 1.7 3.5 1.7l-.05.05c1.05 0 2.1-.2 3-.6.1 0 .1-.1.1-.15zm-2.1-.65v.05h-.35c-.35.05-.8.05-1.15-.1-.25-.1-.5-.2-.65-.4-.45-.4-.6-1.05-.6-1.6-.05-1.4 1.2-2.3 2.5-2.1h.25z"/></svg>