<svg xmlns="http://www.w3.org/2000/svg" viewBox="0 0 16 16"><path fill="#ff40a0" fill-rule="evenodd" d="M7.5 3.8c.2-1.25.3-2.75.75-3.8.35 1.1.5 2.5 1.25 3.3.95-.2 2-.15 3 .05-.6.8-1.9 1.3-2.65 1.8.95.8 1.4 1.7 1.9 2.8-1.35 0-2.6-1.2-3.65-1.85-.9 1-1.5 2-2.85 2.4.5-1 1.6-1.9 1.75-2.95a7.6 7.6 0 0 1-3-2.1z" clip-rule="evenodd"/><path fill="#a0ff40" fill-rule="evenodd" d="M8.65 9.75c.1-.9.2-2 .5-2.75.3.8.4 1.8.9 2.4.7-.15 1.5-.15 2.2 0-.4.6-1.35 1-1.9 1.35.65.55 1 1.2 1.35 2-1 0-1.85-.85-2.6-1.3-.65.75-1.15 1.45-2.1 1.7.35-.75 1.15-1.35 1.25-2.15-.75-.25-1.7-.9-2.2-1.5z" clip-rule="evenodd"/><path fill="#ffa040" fill-rule="evenodd" d="M5.3 13.65c.05-.6.1-1.4.35-1.9.2.5.25 1.25.6 1.65q.75-.15 1.5 0c-.25.4-.9.7-1.3.95.5.4.7.85 1 1.4-.7 0-1.35-.6-1.85-.95-.5.5-.8 1-1.45 1.2.25-.5.8-.95.85-1.5-.5-.15-1.15-.6-1.5-1z" clip-rule="evenodd"/></svg>