<svg xmlns="http://www.w3.org/2000/svg" viewBox="0 0 16 16"><path fill="#ff40a0" d="m9.25 13.82 1.38-.36q.05-.3.2-.56l.2-.41-.89-.12.13-.9.34-.67q.26-.45.54-.8l.07-.1a5 5 0 0 1-1.33-1.14l-.5-1.2 2.63-.28.05-.28H5.44a2 2 0 0 0-1.9 1.37L2 13V7c0-1.1.9-2 2-2h9.01l.4-.42.34.42H15c.55 0 1-.45 1-1s-.45-1-1-1H8L6.59 1.59A2 2 0 0 0 5.17 1H2a2 2 0 0 0-2 2v10c0 1.1.9 2 2 2h7.6z"/><path fill="#ff40a0" d="m14.12 14.52-.24.39-.08.09h.2a2 2 0 0 0 .78-.16q-.36-.13-.66-.32"/><path fill="#ff40a0" fill-rule="evenodd" d="M12.88 8.38c.12-.79.18-1.72.46-2.38.22.69.32 1.56.79 2.06q.9-.17 1.87.03c-.37.5-1.19.82-1.66 1.13.6.5.88 1.06 1.2 1.75-.85 0-1.63-.75-2.29-1.16-.56.63-.94 1.25-1.78 1.5.31-.62 1-1.19 1.1-1.84a5 5 0 0 1-1.88-1.31z" clip-rule="evenodd"/><path fill="#a0ff40" fill-rule="evenodd" d="M13.6 12.1c.06-.57.12-1.26.3-1.72.2.5.26 1.12.57 1.5.44-.1.94-.1 1.37 0-.25.37-.84.62-1.18.84.4.34.62.75.84 1.25-.62 0-1.16-.53-1.62-.81-.41.47-.72.9-1.32 1.06.22-.47.72-.85.78-1.35a3.5 3.5 0 0 1-1.37-.93z" clip-rule="evenodd"/><path fill="#ffa040" fill-rule="evenodd" d="M11.5 14.53c.03-.37.06-.87.22-1.19.12.32.15.79.37 1.03q.48-.09.94 0c-.15.25-.56.44-.81.6.31.25.44.53.62.87-.43 0-.84-.37-1.15-.59-.31.31-.5.62-.9.75.15-.31.5-.6.52-.94-.31-.1-.72-.37-.94-.62z" clip-rule="evenodd"/></svg>