<svg xmlns="http://www.w3.org/2000/svg" viewBox="0 0 16 16"><path fill="#40a0ff" d="M14.7 11.6c-.9 0-1.74.5-2.44.9-1.3.8-1.9.74-1.9.74-.15-.15.35-1.5-.2-3-.6-1.7-1.55-2.1-1.5-2.24.35-.5 1.15-1.4 1.5-3.05.2-1 .15-2.65-.3-3.5-.1-.2-.8.25-.8.25S8.36.2 8.16.05c-.6-.4-1.3 1.65-1.3 1.65s-1.4-.25-2.5 1c-.25.2-.5.35-.85.45-.1 0-.2 0-.45.75-.4 1.1.7 2.3.7 2.3s-1.35 1-1.8 2.1c-.55 1.3-.4 2.5-.4 2.5s-.95.84-1 1.7c0 .7.15 1.3.4 1.64.25.4.55.2.55.2s-.6.75 0 1.05c.5.3 1.4.45 1.85 0 .35-.4.4-1.15.55-1.5l.25.25.3.2s-.85.4-.5 1.2c.1.3.5.5 1.15.45.25 0 3-.15 3.7-.35.4-.1.55-.3.55-.3s1.75-.5 3.35-1.5a6 6 0 0 1 2.25-1c.7-.2.65-1.25-.25-1.25"/></svg>