<svg xmlns="http://www.w3.org/2000/svg" viewBox="0 0 16 16"><path fill="#40a0ff" d="M7.5 14.75V11c0-.88.51-1.65 1.25-2.02V8.5l.03-.33q-.13-.12-.12-.17l.17-.24q.25-1.07 1.03-1.8.17-.45.3-1.01c.2-1 .15-2.65-.3-3.5-.1-.2-.8.25-.8.25S8.36.2 8.16.05c-.6-.4-1.3 1.65-1.3 1.65s-1.4-.25-2.5 1c-.25.2-.5.35-.85.45-.1 0-.2 0-.45.75-.4 1.1.7 2.3.7 2.3s-1.35 1-1.8 2.1c-.55 1.3-.4 2.5-.4 2.5s-.95.84-1 1.7c0 .7.15 1.3.4 1.64.25.4.55.2.55.2s-.6.75 0 1.05c.5.3 1.4.45 1.85 0 .35-.4.4-1.15.55-1.5l.25.25.3.2s-.85.4-.5 1.2c.1.3.5.5 1.15.45.18 0 1.6-.07 2.68-.19a2 2 0 0 1-.29-1.05"/><path fill="#a0a0a0" d="M14.75 9.75V8.5a2.5 2.5 0 0 0-5 0v1.25c-.69 0-1.25.56-1.25 1.25v3.75c0 .69.56 1.25 1.25 1.25h5c.69 0 1.25-.56 1.25-1.25V11c0-.69-.56-1.25-1.25-1.25m-2.5 4.06a.94.94 0 1 1 0-1.87.94.94 0 0 1 0 1.87m1.25-4.06H11V8.5a1.25 1.25 0 0 1 2.5 0z"/></svg>