<svg xmlns="http://www.w3.org/2000/svg" viewBox="0 0 16 16"><path fill="#ff4040" d="M7.35.65 4.5 4.95V7.7H2.75V4.95L0 .65h2L3.7 3.4 5.5.65z"/><path fill="#ff4040" d="M6.88 11.94c0-1.36.54-2.58 1.42-3.49H8L6.3 11.6 4.65 8.45h-1.9v6.9H4.2V10.6l1.55 3.2h1.2l.17-.35a5 5 0 0 1-.25-1.51"/><path fill="#ff4040" d="M9.14 6.15C9.34 5.49 9.96 5 10.7 5h.58L9.5.65H8.1l-3 7h1.4l.65-1.5zm-.34-4 1 2.55H7.75z"/><path fill="#ff4040" d="M13.81 6.63c0 .34-.28.62-.62.62h-2.5a.63.63 0 0 1-.63-.62c0-.35.28-.63.63-.63h2.5c.34 0 .62.28.62.63"/><path fill="#ff4040" d="m15.21 9.54.48-.48a.63.63 0 0 0 0-.88.63.63 0 0 0-.88 0l-.48.48a4.06 4.06 0 1 0 .88.88m-2.65 2.4c0 .34-.28.62-.62.62s-.63-.28-.63-.62V9.75c0-.34.28-.62.63-.62s.62.28.62.62z"/></svg>