<svg xmlns="http://www.w3.org/2000/svg" viewBox="0 0 16 16"><path fill="#ff4040" d="M7.35.65 4.5 4.95V7.7H2.75V4.95L0 .65h2L3.7 3.4 5.5.65z"/><path fill="#ff4040" d="M5 11.04q0-.79.2-1.53l-.55-1.06h-1.9v6.9H4.2V10.6l1.11 2.3A6 6 0 0 1 5 11.04"/><path fill="#ff4040" d="M6.63 5h2.5c.5 0 .95.24 1.25.6q.07-.1.18-.2.32-.27.73-.36L9.5.65H8.1L6.21 5.06q.2-.05.42-.06M8.8 2.15l1 2.55H7.75z"/><path fill="#ff4040" d="M6 11.04a5 5 0 0 1 1.77-3.79H6.63a.62.62 0 1 1 0-1.25h2.5c.34 0 .62.28.62.63v2.5a.62.62 0 1 1-1.25 0v-.86a3.7 3.7 0 0 0-1.25 2.77c0 1.9 1.4 3.46 3.22 3.72a.62.62 0 0 1-.18 1.23A5 5 0 0 1 6 11.04"/><path fill="#ff4040" d="M16 10.96a5 5 0 0 1-1.77 3.79h1.14a.62.62 0 1 1 0 1.25h-2.5a.6.6 0 0 1-.62-.62v-2.5a.62.62 0 1 1 1.25 0v.85a3.7 3.7 0 0 0 1.25-2.77c0-1.9-1.4-3.46-3.22-3.72a.6.6 0 0 1-.53-.61c0-.38.34-.68.71-.62A5 5 0 0 1 16 10.96"/><path fill="#ff4040" d="M13.06 9.44a.63.63 0 0 0-.89 0l-1.8 1.8-.54-.55c-.25-.25-.65-.25-.89 0s-.24.64 0 .88l1 1c.24.24.63.24.88 0l2.24-2.25a.63.63 0 0 0 0-.88"/></svg>