<svg xmlns="http://www.w3.org/2000/svg" viewBox="0 0 16 16"><path fill="#ff4040" d="M7.35.65 4.5 4.95V7.7H2.75V4.95L0 .65h2L3.7 3.4 5.5.65z"/><path fill="#ff4040" d="M15.33 15.35H16v-.8l-.16.26q-.19.33-.51.54"/><path fill="#ff4040" d="M5.3 11.96q.16-.62.69-.95l-.01-.03a1.6 1.6 0 0 1-.74-1.4l-.59-1.13h-1.9v6.9H4.2V10.6l1.24 2.57c-.2-.37-.26-.8-.15-1.21"/><path fill="#ff4040" d="M6.4 7.19q.2-.36.54-.56l.21-.48h1.48c.2-.66.82-1.15 1.55-1.15h1.1L9.5.65H8.1l-3 7h1.02zm2.4-5.04 1 2.55H7.75z"/><path fill="#a0a0a0" d="m15.69 11.83-.9-.52c-.3-.17-.3-.45 0-.62l.9-.52c.3-.18.4-.56.23-.86l-.94-1.62a.63.63 0 0 0-.85-.23l-.9.52c-.3.17-.55.03-.55-.31V6.63a.63.63 0 0 0-.62-.63h-1.88a.63.63 0 0 0-.62.63v1.04c0 .34-.25.48-.55.31l-.9-.52a.63.63 0 0 0-.85.23L6.32 9.3c-.17.3-.07.68.23.86l.9.52c.3.17.3.45 0 .62l-.9.52c-.3.18-.4.56-.23.86l.94 1.62c.17.3.55.4.85.23l.9-.52c.3-.17.55-.03.55.31v1.05c0 .34.28.62.62.62h1.88c.34 0 .62-.28.62-.62v-1.05c0-.34.24-.48.54-.31l.9.52c.3.17.69.07.86-.23l.94-1.62a.63.63 0 0 0-.23-.86m-3.8.52a1.56 1.56 0 1 1-1.55-2.7 1.56 1.56 0 0 1 1.56 2.7"/></svg>