<svg xmlns="http://www.w3.org/2000/svg" viewBox="0 0 16 16"><path fill="#ff4040" d="M7.35.65 4.5 4.95V7.7H2.75V4.95L0 .65h2L3.7 3.4 5.5.65z"/><path fill="#ff4040" d="M5.28 12.23q-.27-.41-.28-.93v-1.1q.02-.37.2-.68l-.55-1.06h-1.9v6.9H4.2V10.6l.93 1.92q.06-.15.15-.29"/><path fill="#ff4040" d="M11 5h.27L9.5.66H8.1L5.4 6.94C6.33 5.66 8.68 5 11 5M8.8 2.15l1 2.55H7.75z"/><path fill="#ff4040" d="M16 14.16a.7.7 0 0 1-.36.62 9.5 9.5 0 0 1-9.28 0 .7.7 0 0 1-.36-.62v-1.11c0-.27.28-.45.52-.32a9.5 9.5 0 0 0 8.95 0c.24-.12.53.04.53.3z"/><path fill="#ff4040" d="M16 11.3a.7.7 0 0 1-.36.63 9.5 9.5 0 0 1-9.28 0A.7.7 0 0 1 6 11.3v-1.1c0-.27.28-.45.52-.32a9.5 9.5 0 0 0 8.95 0c.24-.12.53.04.53.31z"/><ellipse cx="11" cy="8.14" fill="#ff4040" rx="5" ry="2.14"/></svg>