<svg xmlns="http://www.w3.org/2000/svg" viewBox="0 0 16 16"><path fill="#ff4040" d="M7.35.65 4.5 4.95V7.7H2.75V4.95L0 .65h2L3.7 3.4 5.5.65z"/><path fill="#ff4040" d="M15.2 14.34q.22.31.24.72v.29H16v-1.5h-.61q-.05.26-.2.5"/><path fill="#ff4040" d="M8.13 9.44q0-.51.11-.99H8L6.3 11.6 4.65 8.45h-1.9v6.9H4.2V10.6l1.55 3.2h1.2l1.43-2.95a4 4 0 0 1-.26-1.41"/><path fill="#ff4040" d="M9.69 15.06q.01-.4.24-.72a1.6 1.6 0 0 1-.24-.84v-.68a4.4 4.4 0 0 1-1.14-1.5v4.03h1.14z"/><path fill="#ff4040" d="M11.35 5.19 9.5.65H8.1l-3 7h1.4l.65-1.5h2.46q.75-.67 1.74-.96M8.8 2.15l1 2.55H7.75z"/><path fill="#ff4040" d="M16 9.44a3.44 3.44 0 1 0-5.31 2.88v1.18c0 .35.28.63.62.63h2.5c.35 0 .63-.28.63-.63v-1.18A3.4 3.4 0 0 0 16 9.44"/><path fill="#ff4040" d="M14.13 14.75H11a.3.3 0 0 0-.31.31v.31c0 .35.28.63.62.63h2.5c.35 0 .63-.28.63-.62v-.32a.3.3 0 0 0-.31-.31"/></svg>