<svg xmlns="http://www.w3.org/2000/svg" viewBox="0 0 16 16"><path fill="#ff4040" d="M3.63 15.19q0-.42.17-.77-.6-.22-1.05-.66v1.59h.9z"/><path fill="#ff4040" d="M2.75 6.04a2.6 2.6 0 0 1 1.75-.78v-.31L7.35.65H5.5L3.7 3.4 2 .65H0l2.75 4.3z"/><path fill="#ff4040" d="M11.37 5.25 9.5.65H8.1l-1.97 4.6zM8.8 2.15l1 2.55H7.75z"/><path fill="#ff4040" d="M14.38 8.69v5.28a.4.4 0 0 1-.41.4H5.44a.81.81 0 0 0 0 1.63h9.75a.8.8 0 0 0 .81-.81v-6.5a.81.81 0 0 0-1.62 0"/><path fill="#ff4040" d="M11.94 6.25H4.63c-.9 0-1.63.73-1.63 1.63v4.06c0 .9.73 1.62 1.63 1.62h7.3c.9 0 1.63-.73 1.63-1.62V7.88c0-.9-.72-1.63-1.62-1.63m-3.15 5.63a2.04 2.04 0 0 1-1.01-3.94 2.04 2.04 0 0 1 1 3.94"/></svg>