<svg xmlns="http://www.w3.org/2000/svg" viewBox="0 0 16 16"><path fill="#ff4040" d="M7.35.65 4.5 4.95V7.7H2.75V4.95L0 .65h2L3.7 3.4 5.5.65z"/><path fill="#ff4040" d="M9.01 13.75a1.6 1.6 0 0 1-.26-.87v-2.13h-.2v3z"/><path fill="#ff4040" d="M8.43 10.75h-.55q-.55 0-.95-.3L6.3 11.6 4.65 8.45h-1.9v6.9H4.2V10.6l1.55 3.2h1.2z"/><path fill="#ff4040" d="M7.15 6.15h2.26l1.31-.88q.27-.16.57-.22L9.5.65H8.1l-3 7h1.4zm1.65-4 1 2.55H7.75z"/><path fill="#ff4040" d="M15.38 14.75h-7.5c-.35 0-.63.28-.63.63s.28.62.63.62h7.5c.34 0 .62-.28.62-.62s-.28-.63-.62-.63"/><path fill="#ff4040" d="M15.37 9.75H13.5v3.12c0 .35-.28.63-.63.63h-2.5a.63.63 0 0 1-.62-.62V9.75H7.88a.63.63 0 0 1-.35-1.14l3.75-2.5a.6.6 0 0 1 .7 0l3.74 2.5a.63.63 0 0 1-.35 1.14"/></svg>