<svg xmlns="http://www.w3.org/2000/svg" viewBox="0 0 16 16"><path fill="#ff4040" d="M7.35.65 4.5 4.95V7.7H2.75V4.95L0 .65h2L3.7 3.4 5.5.65z"/><path fill="#ff4040" d="m5 9.12-.35-.67h-1.9v6.9H4.2V10.6l.8 1.65z"/><path fill="#ff4040" d="M7.25 5h4.02L9.5.65H8.1l-2 4.68q.5-.32 1.15-.33M8.8 2.15l1 2.55H7.75z"/><path fill="#ff4040" d="M12.98 6H7.25C6.56 6 6 6.56 6 7.25v7.5c0 .69.56 1.25 1.25 1.25h7.5c.69 0 1.25-.56 1.25-1.25V9.02q0-.51-.37-.89l-1.76-1.76a1.3 1.3 0 0 0-.89-.37M7.25 8.5v-.62c0-.35.28-.63.63-.63h3.75c.34 0 .62.28.62.63v.62c0 .34-.28.63-.62.63H7.87a.63.63 0 0 1-.62-.63m4.14 6.2a1.57 1.57 0 0 1-.78-3.03 1.57 1.57 0 0 1 .78 3.03"/></svg>