<svg xmlns="http://www.w3.org/2000/svg" viewBox="0 0 16 16"><path fill="#ff4040" d="M7.35.65 4.5 4.95V7.7H2.75V4.95L0 .65h2L3.7 3.4 5.5.65z"/><path fill="#ff4040" d="M15.1 15.35h.9v-1.04q-.38.57-.9 1.04"/><path fill="#ff4040" d="M5 11q0-.78.2-1.5l-.55-1.05h-1.9v6.9H4.2V10.6l1.13 2.34A6 6 0 0 1 5 11"/><path fill="#ff4040" d="m6.97 6.57.18-.42h.33A6 6 0 0 1 11 5l.28.02L9.5.65H8.1l-3 7h.92q.41-.6.95-1.08M8.8 2.15l1 2.55H7.75z"/><path fill="#ff4040" d="M11 6a5 5 0 1 0 0 10 5 5 0 0 0 0-10m2.21 7.21a.63.63 0 0 1-.88 0l-1.77-1.77a.6.6 0 0 1-.19-.44V8.5c0-.34.29-.62.63-.62s.63.28.63.62v2.11q0 .13.09.22l1.49 1.5c.24.24.24.64 0 .88"/></svg>